<svg width="40" height="40" viewBox="0 0 40 40" fill="none" xmlns="http://www.w3.org/2000/svg">
<circle cx="20" cy="20" r="16" fill="#3358CC"/>
<path d="M13 17.082V25.4995C13 25.7747 13.2778 25.9628 13.5333 25.8607L16.8889 24.3333V15L13.489 16.3599C13.3447 16.4176 13.221 16.5173 13.1338 16.646C13.0466 16.7747 13 16.9266 13 17.082ZM17.6667 24.3333L22.3333 25.8889V16.5556L17.6667 15V24.3333ZM26.4667 15.0282L23.1111 16.5556V25.8889L26.511 24.529C26.6553 24.4713 26.7791 24.3717 26.8662 24.2429C26.9534 24.1142 27 23.9623 27 23.8069V15.3894C27 15.1142 26.7222 14.9261 26.4667 15.0282Z" fill="white"/>
</svg>
