<svg width="20" height="20" viewBox="0 0 20 20" fill="none" xmlns="http://www.w3.org/2000/svg">
<path d="M15.5807 4.60191C16.6213 4.60191 17.4649 3.75832 17.4649 2.7177C17.4649 1.67708 16.6213 0.833496 15.5807 0.833496C14.5401 0.833496 13.6965 1.67708 13.6965 2.7177C13.6965 3.75832 14.5401 4.60191 15.5807 4.60191Z" fill="#C7C7D1"/>
<path d="M12.7544 14.4563H10.8702C10.8702 16.0108 9.59836 17.2826 8.04389 17.2826C6.48942 17.2826 5.21758 16.0108 5.21758 14.4563C5.21758 12.9018 6.48942 11.63 8.04389 11.63V9.7458C5.44369 9.7458 3.33337 11.8561 3.33337 14.4563C3.33337 17.0565 5.44369 19.1668 8.04389 19.1668C10.6441 19.1668 12.7544 17.0565 12.7544 14.4563ZM15.5807 11.159H13.8284L15.4017 7.70143C15.9764 6.44843 15.0531 5.03528 13.6588 5.03528H8.75989C7.99679 5.03528 7.30905 5.47807 6.99816 6.1658L6.36695 7.86159L8.17579 8.3609L8.78815 6.91949H10.8702L9.14615 10.7821C8.58089 12.0351 9.51357 13.5142 10.889 13.5142H15.5807V18.2247H17.4649V13.0432C17.4649 12.0068 16.617 11.159 15.5807 11.159Z" fill="#C7C7D1"/>
</svg>
