<svg width="24" height="24" viewBox="0 0 24 24" fill="none" xmlns="http://www.w3.org/2000/svg">
<path d="M18.6968 5.5221C19.9456 5.5221 20.9579 4.50979 20.9579 3.26105C20.9579 2.01231 19.9456 1 18.6968 1C17.4481 1 16.4358 2.01231 16.4358 3.26105C16.4358 4.50979 17.4481 5.5221 18.6968 5.5221Z" fill="#282830"/>
<path d="M15.3052 17.3474H13.0442C13.0442 19.2127 11.518 20.739 9.65262 20.739C7.78726 20.739 6.26105 19.2127 6.26105 17.3474C6.26105 15.482 7.78726 13.9558 9.65262 13.9558V11.6948C6.53237 11.6948 4 14.2271 4 17.3474C4 20.4676 6.53237 23 9.65262 23C12.7729 23 15.3052 20.4676 15.3052 17.3474ZM18.6968 13.3905H16.594L18.482 9.24152C19.1716 7.73792 18.0637 6.04214 16.3905 6.04214H10.5118C9.59609 6.04214 8.77081 6.57348 8.39774 7.39877L7.64029 9.43371L9.81089 10.0329L10.5457 8.30319H13.0442L10.9753 12.9383C10.297 14.4419 11.4162 16.2169 13.0668 16.2169H18.6968V21.8695H20.9579V15.6516C20.9579 14.408 19.9404 13.3905 18.6968 13.3905Z" fill="#282830"/>
</svg>
