<svg width="24" height="24" viewBox="0 0 24 24" fill="none" xmlns="http://www.w3.org/2000/svg">
<path d="M12 1C5.928 1 1 5.928 1 12C1 18.072 5.928 23 12 23C18.072 23 23 18.072 23 12C23 5.928 18.072 1 12 1ZM6.577 18.908C7.05 17.918 9.932 16.95 12 16.95C14.068 16.95 16.961 17.918 17.423 18.908C15.927 20.096 14.046 20.8 12 20.8C9.954 20.8 8.073 20.096 6.577 18.908ZM18.996 17.313C17.423 15.399 13.606 14.75 12 14.75C10.394 14.75 6.577 15.399 5.004 17.313C3.882 15.839 3.2 14.002 3.2 12C3.2 7.149 7.149 3.2 12 3.2C16.851 3.2 20.8 7.149 20.8 12C20.8 14.002 20.118 15.839 18.996 17.313ZM12 5.4C9.866 5.4 8.15 7.116 8.15 9.25C8.15 11.384 9.866 13.1 12 13.1C14.134 13.1 15.85 11.384 15.85 9.25C15.85 7.116 14.134 5.4 12 5.4ZM12 10.9C11.087 10.9 10.35 10.163 10.35 9.25C10.35 8.337 11.087 7.6 12 7.6C12.913 7.6 13.65 8.337 13.65 9.25C13.65 10.163 12.913 10.9 12 10.9Z" fill="#282830"/>
</svg>
