<svg width="23" height="23" viewBox="0 0 23 23" fill="none" xmlns="http://www.w3.org/2000/svg">
<g clip-path="url(#clip0_168_3720)">
<path d="M11.155 22.31C17.3157 22.31 22.31 17.3157 22.31 11.155C22.31 4.99426 17.3157 0 11.155 0C4.99426 0 0 4.99426 0 11.155C0 17.3157 4.99426 22.31 11.155 22.31Z" fill="#EDF0F9"/>
<path d="M10.0415 5.67636C10.5803 5.67636 11.0171 5.23958 11.0171 4.70079C11.0171 4.162 10.5803 3.72522 10.0415 3.72522C9.5027 3.72522 9.06592 4.162 9.06592 4.70079C9.06592 5.23958 9.5027 5.67636 10.0415 5.67636Z" fill="#72788D"/>
<path d="M16.9075 13.1138L16.8954 13.0653L16.8469 13.0775L15.525 13.4079L14.987 10.8973C14.951 10.7328 14.86 10.5853 14.7291 10.4795C14.5981 10.3736 14.435 10.3156 14.2667 10.3149H11.7724L11.599 8.81219H14.6805H14.7305V8.76219V7.84638V7.79638H14.6805H11.4818L11.3686 6.81534C11.3575 6.71921 11.3276 6.62621 11.2805 6.54164C11.2335 6.45708 11.1703 6.3826 11.0944 6.32247C11.0186 6.26234 10.9317 6.21773 10.8387 6.19119C10.7456 6.16465 10.6482 6.1567 10.5521 6.1678L9.4149 6.29901L9.36523 6.30475L9.37096 6.35442L9.94017 11.2864L9.94528 11.3307H9.98984H14.0411L14.7412 14.5977L14.752 14.6483L14.8022 14.6357L17.0933 14.0629L17.1419 14.0508L17.1297 14.0023L16.9075 13.1138Z" fill="#72788D" stroke="#72788D" stroke-width="0.1"/>
<path d="M8.86034 9.04787L8.82518 9.0622C8.0985 9.35818 7.49724 9.89747 7.12427 10.5878C6.7513 11.2781 6.6298 12.0766 6.78054 12.8467C6.93129 13.6167 7.34492 14.3104 7.95066 14.8092C8.55641 15.3079 9.31663 15.5807 10.1012 15.5808L8.86034 9.04787ZM8.86034 9.04787L8.85599 9.01016L8.86034 9.04787ZM8.86034 9.04787L8.85599 9.01016L8.86034 9.04787ZM8.85599 9.01016L8.74784 8.07288L8.74073 8.01123M8.85599 9.01016L8.74073 8.01123L8.85599 9.01016ZM8.74073 8.01123L8.682 8.0313L8.74073 8.01123ZM8.74073 8.01123L8.682 8.0313L8.74073 8.01123ZM8.682 8.0313C6.95016 8.62304 5.70117 10.2665 5.70117 12.1965C5.70117 14.6227 7.67501 16.5966 10.1012 16.5966M8.682 8.0313L10.1012 16.5966L8.682 8.0313ZM10.1012 16.5966C10.8584 16.5962 11.6028 16.4005 12.2622 16.0284C12.9217 15.6563 13.474 15.1204 13.8658 14.4724L13.8761 14.4554M10.1012 16.5966L13.8761 14.4554L10.1012 16.5966ZM13.8761 14.4554L13.8719 14.436L13.8761 14.4554ZM13.8761 14.4554L13.8719 14.436L13.8761 14.4554ZM13.8719 14.436L13.5844 13.1018L13.5459 12.923M13.8719 14.436L13.5459 12.923L13.8719 14.436ZM13.5459 12.923L13.4881 13.0965L13.5459 12.923ZM13.5459 12.923L13.4881 13.0965L13.5459 12.923ZM13.4881 13.0965C13.0361 14.4525 11.754 15.5808 10.1012 15.5808L13.4881 13.0965Z" fill="#72788D"/>
<path d="M8.86034 9.04787L8.82518 9.0622C8.0985 9.35818 7.49724 9.89747 7.12427 10.5878C6.7513 11.2781 6.6298 12.0766 6.78054 12.8467C6.93129 13.6167 7.34492 14.3104 7.95066 14.8092C8.55641 15.3079 9.31663 15.5807 10.1012 15.5808M8.86034 9.04787L10.1012 15.5808M8.86034 9.04787L8.85599 9.01016M10.1012 15.5808C11.754 15.5808 13.0361 14.4525 13.4881 13.0965M10.1012 15.5808L13.4881 13.0965M8.85599 9.01016L8.74784 8.07288L8.74073 8.01123M8.85599 9.01016L8.74073 8.01123M8.74073 8.01123L8.682 8.0313M8.682 8.0313C6.95016 8.62304 5.70117 10.2665 5.70117 12.1965C5.70117 14.6227 7.67501 16.5966 10.1012 16.5966M8.682 8.0313L10.1012 16.5966M10.1012 16.5966C10.8584 16.5962 11.6028 16.4005 12.2622 16.0284C12.9217 15.6563 13.474 15.1204 13.8658 14.4724L13.8761 14.4554M10.1012 16.5966L13.8761 14.4554M13.8761 14.4554L13.8719 14.436M13.8719 14.436L13.5844 13.1018L13.5459 12.923M13.8719 14.436L13.5459 12.923M13.5459 12.923L13.4881 13.0965" stroke="#72788D" stroke-width="0.1"/>
</g>
<defs>
<clipPath id="clip0_168_3720">
<rect width="23" height="23" fill="white"/>
</clipPath>
</defs>
</svg>
