<svg width="23" height="23" viewBox="0 0 23 23" fill="none" xmlns="http://www.w3.org/2000/svg">
<path d="M11.155 22.31C17.3157 22.31 22.31 17.3157 22.31 11.155C22.31 4.99426 17.3157 0 11.155 0C4.99426 0 0 4.99426 0 11.155C0 17.3157 4.99426 22.31 11.155 22.31Z" fill="#2596D7"/>
<path d="M10.0417 5.67636C10.5805 5.67636 11.0173 5.23958 11.0173 4.70079C11.0173 4.162 10.5805 3.72522 10.0417 3.72522C9.50291 3.72522 9.06613 4.162 9.06613 4.70079C9.06613 5.23958 9.50291 5.67636 10.0417 5.67636Z" fill="white"/>
<path d="M16.9075 13.1138L16.8954 13.0653L16.8469 13.0775L15.525 13.4079L14.987 10.8973L14.9869 10.8971C14.9509 10.7326 14.86 10.5853 14.7291 10.4795C14.5981 10.3736 14.435 10.3156 14.2667 10.3149H14.2665H11.7724L11.599 8.81218H14.6805H14.7305V8.76218V7.84637V7.79637H14.6805H11.4818L11.3686 6.81533C11.3575 6.7192 11.3276 6.6262 11.2805 6.54163C11.2335 6.45707 11.1703 6.38259 11.0944 6.32246C11.0186 6.26233 10.9317 6.21772 10.8387 6.19118C10.7456 6.16464 10.6482 6.15669 10.5521 6.16779L9.41489 6.299L9.36522 6.30474L9.37095 6.35441L9.94016 11.2864L9.94527 11.3307H9.98983H14.0411L14.7412 14.5977L14.752 14.6483L14.8022 14.6357L17.0933 14.0629L17.1419 14.0508L17.1297 14.0023L16.9075 13.1138Z" fill="white" stroke="white" stroke-width="0.1"/>
<path d="M8.86051 9.04787L8.82535 9.0622C8.09867 9.35818 7.49741 9.89747 7.12444 10.5878C6.75147 11.2781 6.62997 12.0766 6.78071 12.8467C6.93146 13.6167 7.34509 14.3104 7.95083 14.8092C8.55658 15.3079 9.3168 15.5807 10.1014 15.5808L8.86051 9.04787ZM8.86051 9.04787L8.85616 9.01016M8.86051 9.04787L8.85616 9.01016M8.85616 9.01016L8.74801 8.07288L8.7409 8.01123M8.85616 9.01016L8.7409 8.01123M8.7409 8.01123L8.68217 8.0313M8.7409 8.01123L8.68217 8.0313M8.68217 8.0313C6.95033 8.62304 5.70134 10.2665 5.70134 12.1965C5.70134 14.6227 7.67518 16.5966 10.1014 16.5966H10.1015M8.68217 8.0313L10.1015 16.5966M10.1015 16.5966C10.8587 16.5962 11.603 16.4005 12.2624 16.0284C12.9219 15.6563 13.4742 15.1204 13.866 14.4724L13.8763 14.4554M10.1015 16.5966L13.8763 14.4554M13.8763 14.4554L13.8721 14.436M13.8763 14.4554L13.8721 14.436M13.8721 14.436L13.5846 13.1018L13.5461 12.923M13.8721 14.436L13.5461 12.923M13.5461 12.923L13.4883 13.0965M13.5461 12.923L13.4883 13.0965M13.4883 13.0965C13.0363 14.4525 11.7543 15.5808 10.1015 15.5808L13.4883 13.0965Z" fill="white" stroke="white" stroke-width="0.1"/>
</svg>
