<svg width="20" height="20" viewBox="0 0 20 20" fill="none" xmlns="http://www.w3.org/2000/svg">
<g clip-path="url(#clip0_5373_18433)">
<g clip-path="url(#clip1_5373_18433)">
<path d="M7.2915 4.0089C7.84226 2.39713 10.0693 2.34832 10.7223 3.86246L10.7775 4.00982L11.5208 6.18341C11.6911 6.6819 11.9664 7.13805 12.328 7.52111C12.6896 7.90417 13.1292 8.20523 13.617 8.40397L13.8169 8.47858L15.9905 9.22091C17.6022 9.77168 17.651 11.9987 16.1378 12.6517L15.9905 12.7069L13.8169 13.4502C13.3182 13.6204 12.8619 13.8956 12.4787 14.2572C12.0954 14.6189 11.7942 15.0585 11.5954 15.5464L11.5208 15.7454L10.7784 17.9199C10.2277 19.5316 8.00068 19.5805 7.3486 18.0672L7.2915 17.9199L6.54916 15.7463C6.37894 15.2476 6.10373 14.7913 5.74211 14.4081C5.3805 14.0248 4.94088 13.7236 4.45294 13.5248L4.254 13.4502L2.08041 12.7079C0.467714 12.1571 0.4189 9.93009 1.93304 9.27802L2.08041 9.22091L4.254 8.47858C4.75248 8.30824 5.20864 8.03299 5.5917 7.67137C5.97476 7.30976 6.27581 6.8702 6.47456 6.38235L6.54916 6.18341L7.2915 4.0089ZM9.03497 4.60388L8.29264 6.77747C8.03327 7.53758 7.61133 8.23202 7.05621 8.81244C6.50109 9.39285 5.82612 9.84529 5.0783 10.1382L4.84805 10.2221L2.67446 10.9644L4.84805 11.7067C5.60816 11.9661 6.30261 12.388 6.88302 12.9432C7.46344 13.4983 7.91587 14.1732 8.20882 14.9211L8.29264 15.1513L9.03497 17.3249L9.77731 15.1513C10.0367 14.3912 10.4586 13.6968 11.0137 13.1163C11.5689 12.5359 12.2438 12.0835 12.9916 11.7905L13.2219 11.7076L15.3955 10.9644L13.2219 10.2221C12.4618 9.96269 11.7673 9.54075 11.1869 8.98563C10.6065 8.4305 10.1541 7.75553 9.86112 7.00772L9.77823 6.77747L9.03497 4.60388ZM16.4031 0.833252C16.5754 0.833252 16.7442 0.881585 16.8904 0.972759C17.0366 1.06393 17.1543 1.19429 17.2301 1.34902L17.2743 1.45678L17.5967 2.40174L18.5426 2.72409C18.7153 2.78276 18.8666 2.89136 18.9775 3.03614C19.0884 3.18093 19.1538 3.35537 19.1654 3.53736C19.1771 3.71936 19.1344 3.90071 19.0429 4.05844C18.9514 4.21617 18.8151 4.34317 18.6513 4.42336L18.5426 4.46757L17.5976 4.78992L17.2753 5.7358C17.2165 5.90843 17.1078 6.05972 16.963 6.17051C16.8181 6.2813 16.6437 6.34661 16.4617 6.35815C16.2797 6.36969 16.0984 6.32695 15.9407 6.23534C15.783 6.14373 15.6561 6.00738 15.576 5.84356L15.5318 5.7358L15.2094 4.79084L14.2636 4.46849C14.0909 4.40982 13.9395 4.30122 13.8286 4.15644C13.7177 4.01165 13.6523 3.83721 13.6407 3.65522C13.6291 3.47322 13.6717 3.29187 13.7632 3.13414C13.8548 2.97641 13.9911 2.8494 14.1549 2.76922L14.2636 2.72501L15.2085 2.40266L15.5309 1.45678C15.593 1.27481 15.7105 1.11684 15.8669 1.00502C16.0233 0.8932 16.2108 0.833137 16.4031 0.833252Z" fill="white"/>
</g>
</g>
<defs>
<clipPath id="clip0_5373_18433">
<rect width="20" height="20" fill="white"/>
</clipPath>
<clipPath id="clip1_5373_18433">
<rect width="20" height="20" fill="white"/>
</clipPath>
</defs>
</svg>
