<svg width="40" height="40" viewBox="0 0 40 40" fill="none" xmlns="http://www.w3.org/2000/svg">
<circle cx="20" cy="20" r="20" fill="#BCDBF5"/>
<path d="M27.625 23.1013H29.2645V9.13588C29.2645 8.31909 28.5998 7.6544 27.783 7.6544H25.4324V8.64206C25.4324 9.45885 24.7677 10.1235 23.9509 10.1235H16.0497C15.2329 10.1235 14.5682 9.45885 14.5682 8.64206V7.6544H12.2176C11.4008 7.6544 10.7361 8.31909 10.7361 9.13588V23.1013H12.3756C13.7366 23.1013 14.8448 24.2095 14.8448 25.5704C14.8448 25.843 14.6235 26.1433 14.3509 26.1433H10.7361V27.7433C10.7361 28.0159 10.9574 28.2371 11.23 28.2371H28.7707C29.0433 28.2371 29.2645 28.0159 29.2645 27.7433V26.1433H25.6497C25.3435 26.1443 25.1559 25.8707 25.1559 25.5704C25.1559 24.2095 26.264 23.1013 27.625 23.1013Z" fill="#5EA6E3"/>
<path d="M27.23 11.763H12.7707C12.4981 11.763 12.2769 11.9843 12.2769 12.2569V20.5532C12.2769 20.8258 12.4981 21.047 12.7707 21.047H27.23C27.5025 21.047 27.7238 20.8258 27.7238 20.5532V12.2569C27.7238 11.9843 27.5025 11.763 27.23 11.763Z" fill="#EEF5FB"/>
<path d="M16.0497 9.13588H23.9509C24.2235 9.13588 24.4448 8.91465 24.4448 8.64206V7.6544H15.5559V8.64206C15.5559 8.91465 15.7771 9.13588 16.0497 9.13588Z" fill="#EEF5FB"/>
<path d="M26.2028 25.1556H29.2645V24.089H27.625C26.9524 24.089 26.3825 24.5403 26.2028 25.1556Z" fill="#EEF5FB"/>
<path d="M9.25465 14.3704H8.14847C7.87588 14.3704 7.65465 14.5917 7.65465 14.8643V20.0396C7.65465 20.3122 7.87588 20.5334 8.14847 20.5334H9.25465C9.52724 20.5334 9.74847 20.3122 9.74847 20.0396V14.8643C9.74847 14.5917 9.52724 14.3704 9.25465 14.3704Z" fill="#5EA6E3"/>
<path d="M12.3756 24.089H10.7361V25.1556H13.785C13.5924 24.5206 13.0334 24.089 12.3756 24.089Z" fill="#EEF5FB"/>
<path d="M31.8522 14.3704H30.746C30.4734 14.3704 30.2522 14.5917 30.2522 14.8643V20.0396C30.2522 20.3122 30.4734 20.5334 30.746 20.5334H31.8522C32.1248 20.5334 32.346 20.3122 32.346 20.0396V14.8643C32.346 14.5917 32.1248 14.3704 31.8522 14.3704Z" fill="#5EA6E3"/>
<path d="M27.23 10.7754H12.7707C11.9539 10.7754 11.2892 11.4401 11.2892 12.2569V20.5532C11.2892 21.37 11.9539 22.0346 12.7707 22.0346H27.23C28.0467 22.0346 28.7114 21.37 28.7114 20.5532V12.2569C28.7114 11.4401 28.0467 10.7754 27.23 10.7754ZM27.7238 20.5532C27.7238 20.8258 27.5025 21.047 27.23 21.047H12.7707C12.4981 21.047 12.2769 20.8258 12.2769 20.5532V12.2569C12.2769 11.9843 12.4981 11.763 12.7707 11.763H27.23C27.5025 11.763 27.7238 11.9843 27.7238 12.2569V20.5532Z" fill="#094F8A"/>
<path d="M18.0082 16.4771L14.0576 14.5018C13.8137 14.3813 13.5174 14.4781 13.3949 14.723C13.2734 14.967 13.3722 15.2633 13.6161 15.3858L16.6828 16.9196L13.6161 18.4534C13.3722 18.5759 13.2734 18.8722 13.3949 19.1161C13.4818 19.288 13.6566 19.3877 13.8374 19.3877C13.9114 19.3877 13.9865 19.3709 14.0586 19.3354L18.0092 17.3601C18.1761 17.2761 18.2818 17.1053 18.2818 16.9186C18.2818 16.7319 18.1751 16.5611 18.0082 16.4771Z" fill="#094F8A"/>
<path d="M24.188 14.884C23.066 14.884 22.1534 15.7966 22.1534 16.9186C22.1534 18.0406 23.066 18.9532 24.188 18.9532C25.31 18.9532 26.2225 18.0406 26.2225 16.9186C26.2225 15.7966 25.309 14.884 24.188 14.884ZM24.9287 16.9472C24.5198 16.9472 24.188 16.6154 24.188 16.2065C24.188 15.7976 24.5198 15.4658 24.9287 15.4658C25.3376 15.4658 25.6695 15.7976 25.6695 16.2065C25.6695 16.6154 25.3376 16.9472 24.9287 16.9472Z" fill="#094F8A"/>
<path d="M21.5687 23.5221C20.6048 24.9265 18.0507 24.9492 18.024 24.9492C17.7524 24.9492 17.5312 25.1714 17.5312 25.443C17.5322 25.7156 17.7524 25.9369 18.025 25.9369C18.1514 25.9369 21.1253 25.9161 22.3825 24.0801C22.5366 23.8549 22.4803 23.5477 22.2542 23.3937C22.0309 23.2416 21.7228 23.2969 21.5687 23.5221Z" fill="#094F8A"/>
<path d="M31.8522 13.3828H30.746C30.5722 13.3828 30.4072 13.4184 30.2522 13.4737V9.13588C30.2522 7.7749 29.144 6.66675 27.783 6.66675H12.2176C10.8566 6.66675 9.74847 7.7749 9.74847 9.13588V13.4737C9.59341 13.4184 9.42847 13.3828 9.25465 13.3828H8.14847C7.33168 13.3828 6.66699 14.0475 6.66699 14.8643V20.0396C6.66699 20.8564 7.33168 21.5211 8.14847 21.5211H9.25465C9.42847 21.5211 9.59341 21.4855 9.74847 21.4302V27.7433C9.74847 28.4011 10.1821 28.9532 10.7756 29.1458V31.8519C10.7756 32.6687 11.4403 33.3334 12.2571 33.3334H14.3904C15.2072 33.3334 15.8719 32.6687 15.8719 31.8519V29.2248H24.1287V31.8519C24.1287 32.6687 24.7934 33.3334 25.6102 33.3334H27.7435C28.5603 33.3334 29.225 32.6687 29.225 31.8519V29.1458C29.8186 28.9532 30.2522 28.4001 30.2522 27.7433V21.4302C30.4072 21.4855 30.5722 21.5211 30.746 21.5211H31.8522C32.669 21.5211 33.3337 20.8564 33.3337 20.0396V14.8643C33.3337 14.0475 32.669 13.3828 31.8522 13.3828ZM9.74847 20.0396C9.74847 20.3122 9.52724 20.5334 9.25465 20.5334H8.14847C7.87588 20.5334 7.65465 20.3122 7.65465 20.0396V14.8643C7.65465 14.5917 7.87588 14.3704 8.14847 14.3704H9.25465C9.52724 14.3704 9.74847 14.5917 9.74847 14.8643V20.0396ZM15.5559 7.6544H24.4448V8.64206C24.4448 8.91465 24.2235 9.13588 23.9509 9.13588H16.0497C15.7771 9.13588 15.5559 8.91465 15.5559 8.64206V7.6544ZM10.7361 24.089H12.3756C13.0334 24.089 13.5924 24.5206 13.785 25.1556H10.7361V24.089ZM29.2645 25.1556H26.2028C26.3825 24.5393 26.9524 24.089 27.625 24.089H29.2645V25.1556ZM29.2645 23.1013H27.625C26.264 23.1013 25.1559 24.2095 25.1559 25.5704C25.1559 25.8707 25.3435 26.1443 25.6497 26.1433H29.2645V27.7433C29.2645 28.0159 29.0433 28.2371 28.7707 28.2371H11.23C10.9574 28.2371 10.7361 28.0159 10.7361 27.7433V26.1433H14.3509C14.6235 26.1433 14.8448 25.843 14.8448 25.5704C14.8448 24.2095 13.7366 23.1013 12.3756 23.1013H10.7361V9.13588C10.7361 8.31909 11.4008 7.6544 12.2176 7.6544H14.5682V8.64206C14.5682 9.45885 15.2329 10.1235 16.0497 10.1235H23.9509C24.7677 10.1235 25.4324 9.45885 25.4324 8.64206V7.6544H27.783C28.5998 7.6544 29.2645 8.31909 29.2645 9.13588V23.1013ZM32.346 20.0396C32.346 20.3122 32.1248 20.5334 31.8522 20.5334H30.746C30.4734 20.5334 30.2522 20.3122 30.2522 20.0396V14.8643C30.2522 14.5917 30.4734 14.3704 30.746 14.3704H31.8522C32.1248 14.3704 32.346 14.5917 32.346 14.8643V20.0396Z" fill="#094F8A"/>
</svg>
