<svg width="72" height="72" viewBox="0 0 72 72" fill="none" xmlns="http://www.w3.org/2000/svg">
<circle cx="36" cy="36" r="36" fill="#BCDBF5"/>
<path d="M49.7244 41.5822H52.6755V16.4444C52.6755 14.9742 51.4791 13.7778 50.0089 13.7778H45.7778V15.5556C45.7778 17.0258 44.5813 18.2222 43.1111 18.2222H28.8889C27.4187 18.2222 26.2222 17.0258 26.2222 15.5556V13.7778H21.9911C20.5209 13.7778 19.3244 14.9742 19.3244 16.4444V41.5822H22.2756C24.7253 41.5822 26.72 43.5769 26.72 46.0267C26.72 46.5173 26.3218 47.0578 25.8311 47.0578H19.3244V49.9378C19.3244 50.4284 19.7227 50.8267 20.2133 50.8267H51.7867C52.2773 50.8267 52.6755 50.4284 52.6755 49.9378V47.0578H46.1689C45.6178 47.0596 45.28 46.5671 45.28 46.0267C45.28 43.5769 47.2747 41.5822 49.7244 41.5822Z" fill="#5EA6E3"/>
<path d="M49.0133 21.1733H22.9867C22.496 21.1733 22.0978 21.5716 22.0978 22.0622V36.9956C22.0978 37.4862 22.496 37.8844 22.9867 37.8844H49.0133C49.504 37.8844 49.9022 37.4862 49.9022 36.9956V22.0622C49.9022 21.5716 49.504 21.1733 49.0133 21.1733Z" fill="#EEF5FB"/>
<path d="M28.8889 16.4444H43.1111C43.6018 16.4444 44 16.0462 44 15.5556V13.7778H28V15.5556C28 16.0462 28.3982 16.4444 28.8889 16.4444Z" fill="#EEF5FB"/>
<path d="M47.1644 45.28H52.6755V43.36H49.7244C48.5138 43.36 47.488 44.1725 47.1644 45.28Z" fill="#EEF5FB"/>
<path d="M16.6578 25.8667H14.6667C14.176 25.8667 13.7778 26.2649 13.7778 26.7556V36.0711C13.7778 36.5618 14.176 36.96 14.6667 36.96H16.6578C17.1484 36.96 17.5467 36.5618 17.5467 36.0711V26.7556C17.5467 26.2649 17.1484 25.8667 16.6578 25.8667Z" fill="#5EA6E3"/>
<path d="M22.2756 43.36H19.3244V45.28H24.8124C24.4658 44.1369 23.4596 43.36 22.2756 43.36Z" fill="#EEF5FB"/>
<path d="M57.3333 25.8667H55.3422C54.8516 25.8667 54.4533 26.2649 54.4533 26.7556V36.0711C54.4533 36.5618 54.8516 36.96 55.3422 36.96H57.3333C57.824 36.96 58.2222 36.5618 58.2222 36.0711V26.7556C58.2222 26.2649 57.824 25.8667 57.3333 25.8667Z" fill="#5EA6E3"/>
<path d="M49.0133 19.3956H22.9867C21.5164 19.3956 20.32 20.592 20.32 22.0622V36.9956C20.32 38.4658 21.5164 39.6622 22.9867 39.6622H49.0133C50.4836 39.6622 51.68 38.4658 51.68 36.9956V22.0622C51.68 20.592 50.4836 19.3956 49.0133 19.3956ZM49.9022 36.9956C49.9022 37.4862 49.504 37.8844 49.0133 37.8844H22.9867C22.496 37.8844 22.0978 37.4862 22.0978 36.9956V22.0622C22.0978 21.5716 22.496 21.1733 22.9867 21.1733H49.0133C49.504 21.1733 49.9022 21.5716 49.9022 22.0622V36.9956Z" fill="#094F8A"/>
<path d="M32.4142 29.6587L25.3031 26.1031C24.864 25.8862 24.3307 26.0604 24.1102 26.5013C23.8916 26.9404 24.0693 27.4738 24.5084 27.6942L30.0284 30.4551L24.5084 33.216C24.0693 33.4364 23.8916 33.9698 24.1102 34.4089C24.2667 34.7182 24.5813 34.8978 24.9067 34.8978C25.04 34.8978 25.1751 34.8676 25.3049 34.8036L32.416 31.248C32.7164 31.0969 32.9067 30.7893 32.9067 30.4533C32.9067 30.1173 32.7147 29.8098 32.4142 29.6587Z" fill="#094F8A"/>
<path d="M43.5378 26.7911C41.5182 26.7911 39.8756 28.4338 39.8756 30.4533C39.8756 32.4729 41.5182 34.1156 43.5378 34.1156C45.5573 34.1156 47.2 32.4729 47.2 30.4533C47.2 28.4338 45.5556 26.7911 43.5378 26.7911ZM44.8711 30.5049C44.1351 30.5049 43.5378 29.9076 43.5378 29.1716C43.5378 28.4356 44.1351 27.8382 44.8711 27.8382C45.6071 27.8382 46.2044 28.4356 46.2044 29.1716C46.2044 29.9076 45.6071 30.5049 44.8711 30.5049Z" fill="#094F8A"/>
<path d="M38.8231 42.3396C37.088 44.8676 32.4907 44.9084 32.4427 44.9084C31.9538 44.9084 31.5556 45.3084 31.5556 45.7973C31.5573 46.288 31.9538 46.6862 32.4444 46.6862C32.672 46.6862 38.0249 46.6489 40.288 43.344C40.5653 42.9387 40.464 42.3858 40.0569 42.1084C39.6551 41.8347 39.1004 41.9342 38.8231 42.3396Z" fill="#094F8A"/>
<path d="M57.3333 24.0889H55.3422C55.0293 24.0889 54.7324 24.1529 54.4533 24.2524V16.4444C54.4533 13.9947 52.4587 12 50.0089 12H21.9911C19.5413 12 17.5467 13.9947 17.5467 16.4444V24.2524C17.2676 24.1529 16.9707 24.0889 16.6578 24.0889H14.6667C13.1964 24.0889 12 25.2853 12 26.7556V36.0711C12 37.5413 13.1964 38.7378 14.6667 38.7378H16.6578C16.9707 38.7378 17.2676 38.6738 17.5467 38.5742V49.9378C17.5467 51.1218 18.3271 52.1156 19.3956 52.4622V57.3333C19.3956 58.8036 20.592 60 22.0622 60H25.9022C27.3724 60 28.5689 58.8036 28.5689 57.3333V52.6044H43.4311V57.3333C43.4311 58.8036 44.6276 60 46.0978 60H49.9378C51.408 60 52.6044 58.8036 52.6044 57.3333V52.4622C53.6729 52.1156 54.4533 51.12 54.4533 49.9378V38.5742C54.7324 38.6738 55.0293 38.7378 55.3422 38.7378H57.3333C58.8036 38.7378 60 37.5413 60 36.0711V26.7556C60 25.2853 58.8036 24.0889 57.3333 24.0889ZM17.5467 36.0711C17.5467 36.5618 17.1484 36.96 16.6578 36.96H14.6667C14.176 36.96 13.7778 36.5618 13.7778 36.0711V26.7556C13.7778 26.2649 14.176 25.8667 14.6667 25.8667H16.6578C17.1484 25.8667 17.5467 26.2649 17.5467 26.7556V36.0711ZM28 13.7778H44V15.5556C44 16.0462 43.6018 16.4444 43.1111 16.4444H28.8889C28.3982 16.4444 28 16.0462 28 15.5556V13.7778ZM19.3244 43.36H22.2756C23.4596 43.36 24.4658 44.1369 24.8124 45.28H19.3244V43.36ZM52.6755 45.28H47.1644C47.488 44.1707 48.5138 43.36 49.7244 43.36H52.6755V45.28ZM52.6755 41.5822H49.7244C47.2747 41.5822 45.28 43.5769 45.28 46.0267C45.28 46.5671 45.6178 47.0596 46.1689 47.0578H52.6755V49.9378C52.6755 50.4284 52.2773 50.8267 51.7867 50.8267H20.2133C19.7227 50.8267 19.3244 50.4284 19.3244 49.9378V47.0578H25.8311C26.3218 47.0578 26.72 46.5173 26.72 46.0267C26.72 43.5769 24.7253 41.5822 22.2756 41.5822H19.3244V16.4444C19.3244 14.9742 20.5209 13.7778 21.9911 13.7778H26.2222V15.5556C26.2222 17.0258 27.4187 18.2222 28.8889 18.2222H43.1111C44.5813 18.2222 45.7778 17.0258 45.7778 15.5556V13.7778H50.0089C51.4791 13.7778 52.6755 14.9742 52.6755 16.4444V41.5822ZM58.2222 36.0711C58.2222 36.5618 57.824 36.96 57.3333 36.96H55.3422C54.8516 36.96 54.4533 36.5618 54.4533 36.0711V26.7556C54.4533 26.2649 54.8516 25.8667 55.3422 25.8667H57.3333C57.824 25.8667 58.2222 26.2649 58.2222 26.7556V36.0711Z" fill="#094F8A"/>
<circle cx="64" cy="64" r="8" fill="#13D485"/>
</svg>
