<svg width="48" height="48" viewBox="0 0 48 48" fill="none" xmlns="http://www.w3.org/2000/svg">
<rect width="48" height="48" rx="24" fill="#1D71B8"/>
<g clip-path="url(#clip0_5329_51135)">
<path d="M24.1053 26.8947C26.0274 26.8947 27.5789 25.3432 27.5789 23.4211V16.4737C27.5789 14.5516 26.0274 13 24.1053 13C22.1832 13 20.6316 14.5516 20.6316 16.4737V23.4211C20.6316 25.3432 22.1832 26.8947 24.1053 26.8947ZM22.9474 16.4737C22.9474 15.8368 23.4684 15.3158 24.1053 15.3158C24.7421 15.3158 25.2632 15.8368 25.2632 16.4737V23.4211C25.2632 24.0579 24.7421 24.5789 24.1053 24.5789C23.4684 24.5789 22.9474 24.0579 22.9474 23.4211V16.4737Z" fill="white"/>
<path d="M29.8947 23.4211C29.8947 26.6168 27.3011 29.2105 24.1053 29.2105C20.9095 29.2105 18.3158 26.6168 18.3158 23.4211H16C16 27.5084 19.0221 30.8663 22.9474 31.4337V35H25.2632V31.4337C29.1884 30.8663 32.2105 27.5084 32.2105 23.4211H29.8947Z" fill="white"/>
</g>
<defs>
<clipPath id="clip0_5329_51135">
<rect width="24" height="24" fill="white" transform="translate(12 12)"/>
</clipPath>
</defs>
</svg>
