<svg width="24" height="24" viewBox="0 0 24 24" fill="none" xmlns="http://www.w3.org/2000/svg">
<path d="M21.426 4.168C21.272 3.937 21.063 3.728 20.832 3.574C20.711 3.497 20.59 3.431 20.458 3.376C20.194 3.266 19.908 3.2 19.6 3.2H15.002C14.54 1.924 13.33 1 11.9 1C10.47 1 9.26 1.924 8.798 3.2H4.2C2.99 3.2 2 4.19 2 5.4V20.8C2 22.01 2.99 23 4.2 23H19.6C19.908 23 20.194 22.934 20.458 22.824C20.59 22.769 20.711 22.703 20.832 22.626C21.063 22.472 21.272 22.263 21.426 22.032C21.657 21.68 21.8 21.251 21.8 20.8V5.4C21.8 4.949 21.657 4.52 21.426 4.168ZM11.9 2.925C12.142 2.925 12.351 3.035 12.505 3.2C12.637 3.343 12.725 3.541 12.725 3.75C12.725 4.201 12.351 4.575 11.9 4.575C11.449 4.575 11.075 4.201 11.075 3.75C11.075 3.541 11.163 3.343 11.295 3.2C11.449 3.035 11.658 2.925 11.9 2.925ZM19.6 20.8H4.2V5.4H19.6V20.8ZM11.9 13.1C13.715 13.1 15.2 11.615 15.2 9.8C15.2 7.985 13.715 6.5 11.9 6.5C10.085 6.5 8.6 7.985 8.6 9.8C8.6 11.615 10.085 13.1 11.9 13.1ZM11.9 10.9C11.295 10.9 10.8 10.405 10.8 9.8C10.8 9.195 11.295 8.7 11.9 8.7C12.505 8.7 13 9.195 13 9.8C13 10.405 12.505 10.9 11.9 10.9ZM11.9 14.068C9.667 14.068 5.3 15.256 5.3 18.006V19.7H18.5V18.017C18.5 15.256 14.133 14.068 11.9 14.068ZM7.841 17.5C8.6 16.884 10.459 16.268 11.9 16.268C13.341 16.268 15.211 16.884 15.959 17.5H7.841Z" fill="#282830"/>
</svg>
