<svg width="24" height="25" viewBox="0 0 24 25" fill="none" xmlns="http://www.w3.org/2000/svg">
<path d="M18.0885 19.622C16.8014 20.8043 15.1979 21.5863 13.4738 21.8725C11.7497 22.1587 9.9795 21.9367 8.37944 21.2337C6.77938 20.5306 5.41865 19.3768 4.46337 17.9133C3.50809 16.4497 2.99961 14.7397 3 12.992H4.5C4.49989 14.5026 4.95597 15.9781 5.80851 17.2252C6.66106 18.4723 7.87032 19.4329 9.27796 19.9811C10.6856 20.5294 12.226 20.6398 13.6975 20.2979C15.1689 19.956 16.5028 19.1777 17.5245 18.065H15.345C15.1461 18.065 14.9553 17.986 14.8147 17.8453C14.674 17.7047 14.595 17.5139 14.595 17.315C14.595 17.1161 14.674 16.9253 14.8147 16.7847C14.9553 16.644 15.1461 16.565 15.345 16.565H18.8385C19.0374 16.565 19.2282 16.644 19.3688 16.7847C19.5095 16.9253 19.5885 17.1161 19.5885 17.315V20.8055C19.5885 21.0044 19.5095 21.1952 19.3688 21.3358C19.2282 21.4765 19.0374 21.5555 18.8385 21.5555C18.6396 21.5555 18.4488 21.4765 18.3082 21.3358C18.1675 21.1952 18.0885 21.0044 18.0885 20.8055V19.6205V19.622ZM6.4755 7.9205H8.655C8.85391 7.9205 9.04468 7.99952 9.18533 8.14017C9.32598 8.28082 9.405 8.47159 9.405 8.6705C9.405 8.86941 9.32598 9.06018 9.18533 9.20083C9.04468 9.34148 8.85391 9.4205 8.655 9.4205H5.16C4.96109 9.4205 4.77032 9.34148 4.62967 9.20083C4.48902 9.06018 4.41 8.86941 4.41 8.6705V5.177C4.41 4.97809 4.48902 4.78732 4.62967 4.64667C4.77032 4.50602 4.96109 4.427 5.16 4.427C5.35891 4.427 5.54968 4.50602 5.69033 4.64667C5.83098 4.78732 5.91 4.97809 5.91 5.177V6.362C7.19693 5.1782 8.80084 4.39494 10.5257 4.10792C12.2506 3.8209 14.0217 4.04256 15.6227 4.74581C17.2236 5.44907 18.585 6.60345 19.5405 8.0679C20.496 9.53234 21.0042 11.2434 21.003 12.992H19.503C19.5031 11.4812 19.047 10.0055 18.1942 8.75829C17.3415 7.51109 16.132 6.5505 14.7241 6.00235C13.3162 5.4542 11.7755 5.34405 10.304 5.68631C8.83239 6.02858 7.4985 6.80731 6.477 7.9205H6.4755Z" fill="#9FA5B8"/>
</svg>
