<svg width="102" height="165" viewBox="0 0 102 165" fill="none" xmlns="http://www.w3.org/2000/svg">
<path d="M78.1307 56.8379L72.8396 73.0226L26.9316 105.703C26.9316 105.703 36.8395 120.279 43.2716 126.245C48.2258 130.839 48.2514 131.38 48.096 133.559C47.9403 135.737 47.7846 144.763 47.7846 144.763C47.7846 144.763 62.4131 147.876 76.2631 147.098C90.113 146.319 98.6723 143.829 98.6723 143.829L99.7618 79.8696C99.7618 79.8696 91.2025 57.149 86.8453 54.9703C82.4883 52.7917 78.1307 56.8379 78.1307 56.8379Z" fill="#FF8D82"/>
<path d="M40.4702 164.519C40.4702 164.519 43.5827 143.829 45.8392 141.417C47.9494 139.162 58.0539 141.913 72.6835 141.495C89.0235 141.028 98.532 137.676 100.695 140.172C102.718 142.507 101.785 164.519 101.785 164.519H40.4702Z" fill="#5EA6E3"/>
<path d="M22.2111 35.8292C22.2111 35.8292 11.7327 31.9906 5.71542 35.4144C-0.301893 38.8379 5.093 45.6852 10.4879 46.7228C15.8828 47.7604 23.6639 49.4205 23.6639 49.4205L22.2111 35.8292Z" fill="#FF8D82"/>
<path d="M19.41 57.3047C19.41 57.3047 7.89397 61.2471 2.70668 67.9906C-2.48062 74.7342 2.08426 78.8839 9.13881 76.6014C16.1934 74.319 21.8996 70.6879 21.8996 70.6879L19.41 57.3047Z" fill="#FF8D82"/>
<path d="M20.9659 73.0742C20.9659 73.0742 13.4961 75.979 7.58261 79.9215C2.26406 83.4672 0.423888 89.2588 1.87669 91.4375C3.32912 93.6161 9.03504 92.3713 13.9113 90.3999C18.7872 88.4288 22.7297 86.5612 22.7297 86.5612L20.9659 73.0742Z" fill="#FF8D82"/>
<path d="M20.1364 89.2588C20.1364 89.2588 10.2804 91.7489 7.06414 95.7948C3.84789 99.841 6.75275 104.509 12.1476 103.887C17.5425 103.265 22.7298 100.774 22.7298 100.774L20.1364 89.2588Z" fill="#FF8D82"/>
<path d="M74.3959 5.11989H15.8828V106.584H74.3959V5.11989Z" fill="#ECF1FF"/>
<path d="M75.3216 5.64566C75.2746 4.21166 75.44 1.08303 71.2922 0.846098C67.6886 0.640005 31.8423 1.2376 17.898 1.14208C16.8145 1.13455 13.7588 1.43203 13.8378 5.0176C13.8961 7.66258 13.8592 107.57 13.8592 107.57C13.8592 107.57 12.6144 112.239 18.6836 112.395C24.7528 112.55 71.2832 112.239 71.2832 112.239C71.2832 112.239 75.7131 112.224 75.4302 104.875C75.1489 97.5597 76.2633 34.3768 75.3216 5.64566ZM72.4915 80.4706C72.3934 93.2013 72.3223 99.0148 72.4257 101.707C72.4517 102.386 72.4171 102.878 72.3674 103.222C66.085 103.262 39.3764 103.412 26.4866 103.412C26.4858 103.412 26.4854 103.412 26.4843 103.412C23.1575 103.412 18.1831 103.402 16.8679 103.383C16.8713 93.9723 16.8972 20.1162 16.8559 6.7912C17.4598 6.79271 18.0905 6.79384 18.7479 6.79384C25.9085 6.79384 39.0323 6.68891 48.2884 6.59602C56.1075 6.51779 66.1256 6.4437 70.3546 6.4437C71.2204 6.4437 71.8616 6.44671 72.3355 6.4516C72.9184 25.1305 72.6623 58.3836 72.4915 80.4706Z" fill="#094F8A"/>
<path d="M44.3936 5.1718C45.0525 5.1718 45.5865 4.6377 45.5865 3.97887C45.5865 3.32003 45.0525 2.78593 44.3936 2.78593C43.7348 2.78593 43.2007 3.32003 43.2007 3.97887C43.2007 4.6377 43.7348 5.1718 44.3936 5.1718Z" fill="#9A9492"/>
<path d="M49.9443 4.75698C50.4027 4.75698 50.7743 4.38537 50.7743 3.92697C50.7743 3.46856 50.4027 3.09695 49.9443 3.09695C49.4859 3.09695 49.1143 3.46856 49.1143 3.92697C49.1143 4.38537 49.4859 4.75698 49.9443 4.75698Z" fill="#9A9492"/>
<path d="M49.5508 110.248H39.9111C38.8396 110.248 37.9683 109.377 37.9683 108.305V107.367C37.9683 106.295 38.84 105.424 39.9111 105.424H49.5508C50.6223 105.424 51.494 106.295 51.494 107.367V108.305C51.494 109.376 50.6223 110.248 49.5508 110.248ZM39.9111 105.8C39.0472 105.8 38.3443 106.503 38.3443 107.367V108.305C38.3443 109.169 39.0472 109.872 39.9111 109.872H49.5508C50.4151 109.872 51.118 109.169 51.118 108.305V107.367C51.118 106.503 50.4151 105.8 49.5508 105.8H39.9111Z" fill="#9A9492"/>
<path d="M19.9057 74.1122C19.9057 74.1122 33.504 68.513 36.3041 68.1128C39.1032 67.7127 56.5011 68.513 56.5011 68.513L70.0994 74.1122V94.11L19 93.7186L19.9057 74.1122Z" fill="#5EA6E3"/>
<path d="M37.503 58.9132C37.503 58.9132 37.703 64.5124 36.9027 66.3121C36.1024 68.1119 35.103 68.9122 35.103 68.9122C35.103 68.9122 39.7028 74.1112 46.9017 73.512C54.1005 72.9127 57.3007 69.5124 57.3007 69.5124C57.3007 69.5124 55.7011 67.9128 55.3009 65.3127C54.9008 62.7127 55.1008 58.314 55.1008 58.314L37.503 58.9132Z" fill="#FF8D82"/>
<path d="M32.1008 29.9536C28.2153 35.5315 27.5454 43.9936 28.6338 50.1409C30.3078 59.6024 38.7719 68.6115 49.1023 66.171C56.8917 64.3307 60.4215 56.7269 61.3833 49.4188C62.6707 39.6374 59.3641 28.1065 49.0356 24.8744C44.6127 23.4903 39.3238 23.7841 35.4673 26.5127C34.147 27.4473 33.0316 28.6178 32.1008 29.9536Z" fill="#FF8D82"/>
<path d="M34.2439 30.1595C34.2603 30.0435 34.2787 29.9188 34.3608 29.8337C34.4962 29.6936 34.7252 29.7303 34.9137 29.7767C40.9227 31.2381 47.356 30.9114 53.1863 28.8479C55.1348 34.5234 57.9252 39.909 61.4367 44.7736C62.1152 42.5148 61.8272 40.0743 61.2521 37.7865C60.4064 34.4258 58.9275 31.1879 56.6697 28.5589C54.4118 25.9299 51.3421 23.9397 47.9408 23.2757C46.3025 22.9558 44.6159 22.9422 42.9534 23.093C39.296 23.4236 35.599 24.6163 32.9226 27.1293C29.6383 30.2126 28.3064 34.8395 27.6849 39.302C27.3891 41.4255 27.2122 44.6586 28.1546 46.6642C30.0587 45.023 31.1161 40.9819 32.0189 38.6747C33.0918 35.9375 33.8428 33.0736 34.2439 30.1595Z" fill="#763A24"/>
<path d="M81.7105 59.7947C81.7105 59.7947 76.2637 57.2268 74.3965 53.2588C71.3325 46.748 69.5725 35.0511 73.3073 31.0052C77.0422 26.959 80.9328 26.8036 84.2006 30.8495C87.4687 34.8958 91.6703 46.4114 94.4714 52.3253C97.2724 58.2388 101.007 61.3513 100.696 67.2648C100.385 73.1783 99.6068 88.1178 99.6068 88.1178L81.7105 59.7947Z" fill="#FF8D82"/>
</svg>
