<svg width="24" height="24" viewBox="0 0 24 24" fill="none" xmlns="http://www.w3.org/2000/svg">
<path d="M21.5471 4.76753C21.4019 2.62125 19.5367 1 17.3958 1H6.15974C4.01887 1 2.15367 2.62125 2.00845 4.76753C2.00264 4.86096 2 4.96023 2 5.05632V18.2817C2 19.5239 2.82962 20.5708 3.96395 20.8946C4.00145 20.9063 4.04211 20.918 4.08277 20.9238V22.14C4.08277 22.6151 4.46828 23 4.94144 23H6.83568C7.30885 23 7.69435 22.6151 7.69435 22.14V20.9997H15.8612V22.14C15.8612 22.6151 16.2467 23 16.7199 23H18.6141C19.0873 23 19.4728 22.6151 19.4728 22.14V20.9238C19.5134 20.918 19.5541 20.9063 19.5916 20.8946C20.7259 20.5708 21.5556 19.5239 21.5556 18.2817V5.05632C21.5556 4.96023 21.5529 4.86096 21.5471 4.76753ZM5.37077 18.9989C2.99756 18.8879 3.48815 15.6714 6.31394 16.774C7.79944 17.3601 8.4981 19.1449 5.37077 18.9989ZM18.1853 18.9989C15.058 19.1449 15.7572 17.3601 17.2421 16.774C20.0679 15.6714 20.558 18.8885 18.1853 18.9989ZM19.9317 11.1135C19.9317 12.3992 18.9801 13.4901 17.7127 13.6536C15.8105 13.8946 13.8962 14.0183 11.9819 14.0247C11.9138 14.0247 11.8462 14.0247 11.778 14.0247C11.7099 14.0247 11.6423 14.0247 11.5742 14.0247C9.65989 14.0183 7.74557 13.8946 5.84341 13.6536C4.57547 13.4901 3.62439 12.3997 3.62439 11.1135V4.47609C3.62439 3.76951 5.83232 3.39737 11.778 3.33686C17.7238 3.39737 19.9317 3.76951 19.9317 4.47609V11.1135Z" fill="#282830"/>
</svg>
