<svg width="28" height="33" viewBox="0 0 28 33" fill="none" xmlns="http://www.w3.org/2000/svg">
    <path
        d="M14.8232 25.0127L14.8232 31.6929C14.8232 32.1477 14.4545 32.5164 13.9997 32.5164C13.5449 32.5164 13.1762 32.1477 13.1762 31.6929L13.1762 25.0127L14.8232 25.0127Z"
        fill="#7675D3" />
    <path
        d="M0.5 1C0.5 0.723858 0.723858 0.5 1 0.5H27C27.2761 0.5 27.5 0.723857 27.5 1V24.0124C27.5 24.2886 27.2761 24.5124 27 24.5124H1C0.723858 24.5124 0.5 24.2886 0.5 24.0124V1Z"
        fill="#7675D3" stroke="white" />
    <path
        d="M20.5809 7.57298C20.4831 6.10888 19.2263 5.00293 17.7838 5.00293H10.213C8.77047 5.00293 7.5137 6.10888 7.41585 7.57298C7.41193 7.63671 7.41016 7.70443 7.41016 7.76997V16.7918C7.41016 17.6391 7.96915 18.3533 8.73346 18.5742C8.75872 18.5821 8.78612 18.5901 8.81352 18.5941V19.4237C8.81352 19.7478 9.07327 20.0104 9.39209 20.0104H10.6684C10.9872 20.0104 11.247 19.7478 11.247 19.4237V18.6459H16.7498V19.4237C16.7498 19.7478 17.0095 20.0104 17.3284 20.0104H18.6047C18.9235 20.0104 19.1833 19.7478 19.1833 19.4237V18.5941C19.2107 18.5901 19.2381 18.5821 19.2633 18.5742C20.0276 18.3533 20.5866 17.6391 20.5866 16.7918V7.76997C20.5866 7.70443 20.5848 7.63671 20.5809 7.57298ZM9.68137 17.281C8.08231 17.2053 8.41286 15.0112 10.3169 15.7633C11.3178 16.1631 11.7886 17.3806 9.68137 17.281ZM18.3158 17.281C16.2086 17.3806 16.6797 16.1631 17.6803 15.7633C19.5843 15.0112 19.9145 17.2057 18.3158 17.281ZM19.4925 11.9019C19.4925 12.779 18.8513 13.5232 17.9973 13.6347C16.7156 13.7991 15.4258 13.8835 14.1359 13.8878C14.09 13.8878 14.0445 13.8878 13.9986 13.8878C13.9527 13.8878 13.9071 13.8878 13.8612 13.8878C12.5714 13.8835 11.2815 13.7991 9.99983 13.6347C9.1455 13.5232 8.50467 12.7793 8.50467 11.9019V7.37417C8.50467 6.89217 9.99236 6.63831 13.9986 6.59703C18.0048 6.63831 19.4925 6.89217 19.4925 7.37417V11.9019Z"
        fill="white" />
</svg>