<svg width="24" height="24" viewBox="0 0 24 24" fill="none" xmlns="http://www.w3.org/2000/svg">
<path d="M18.8242 1H5.93359C4.86741 1 4 1.86741 4 2.93359V15.8242C4 16.8904 4.86741 17.7578 5.93359 17.7578H10.369V22.3555C10.369 22.7114 10.7339 23 11.0898 23H13.668C14.0239 23 14.4117 22.7114 14.4117 22.3555V17.7578H18.8242C19.8904 17.7578 20.7578 16.8904 20.7578 15.8242V2.93359C20.7578 1.86741 19.8904 1 18.8242 1ZM13.0234 21.7109H11.7344V17.7578H13.0234V21.7109ZM18.9818 15.3372C18.9818 15.6926 18.6926 15.9818 18.3372 15.9818H6.42057C6.06518 15.9818 5.77604 15.6926 5.77604 15.3372V3.42057C5.77604 3.06518 6.06518 2.77604 6.42057 2.77604H18.3372C18.6926 2.77604 18.9818 3.06518 18.9818 3.42057V15.3372Z" fill="#282830"/>
<path d="M16.9585 5.89587C16.8934 4.93452 16.058 4.20833 15.099 4.20833H10.0662C9.10728 4.20833 8.27182 4.93452 8.20678 5.89587C8.20417 5.93772 8.20299 5.98219 8.20299 6.02523V11.9491C8.20299 12.5055 8.57459 12.9744 9.08268 13.1195C9.09947 13.1247 9.11769 13.1299 9.1359 13.1325V13.6773C9.1359 13.8901 9.30857 14.0625 9.52051 14.0625H10.369C10.5809 14.0625 10.7536 13.8901 10.7536 13.6773V13.1665H14.4117V13.6773C14.4117 13.8901 14.5843 14.0625 14.7963 14.0625H15.6447C15.8567 14.0625 16.0293 13.8901 16.0293 13.6773V13.1325C16.0476 13.1299 16.0658 13.1247 16.0826 13.1195C16.5907 12.9744 16.9623 12.5055 16.9623 11.9491V6.02523C16.9623 5.98219 16.9611 5.93772 16.9585 5.89587ZM9.71282 12.2703C8.64981 12.2206 8.86956 10.7799 10.1353 11.2738C10.8007 11.5363 11.1136 12.3357 9.71282 12.2703ZM15.4527 12.2703C14.0519 12.3357 14.3651 11.5363 15.0302 11.2738C16.2959 10.7799 16.5154 12.2209 15.4527 12.2703ZM16.2349 8.73832C16.2349 9.31423 15.8087 9.80287 15.241 9.87611C14.3889 9.98406 13.5315 10.0395 12.674 10.0423C12.6435 10.0423 12.6133 10.0423 12.5827 10.0423C12.5522 10.0423 12.5219 10.0423 12.4914 10.0423C11.634 10.0395 10.7765 9.98406 9.92452 9.87611C9.35659 9.80287 8.93059 9.31447 8.93059 8.73832V5.76533C8.93059 5.44884 9.91955 5.28216 12.5827 5.25505C15.2459 5.28216 16.2349 5.44884 16.2349 5.76533V8.73832Z" fill="#282830"/>
</svg>
