<svg width="31" height="37" viewBox="0 0 31 37" fill="none" xmlns="http://www.w3.org/2000/svg">
    <path
        d="M16.4121 28.1923L16.4121 35.5882C16.4121 36.0918 16.0039 36.5 15.5003 36.5C14.9968 36.5 14.5886 36.0918 14.5886 35.5882L14.5886 28.1923L16.4121 28.1923Z"
        fill="#555399" />
    <path
        d="M0.5 1.5C0.5 1.22386 0.723858 1 1 1H30C30.2761 1 30.5 1.22386 30.5 1.5V27.1923C30.5 27.4685 30.2761 27.6923 30 27.6923H1C0.723858 27.6923 0.5 27.4685 0.5 27.1923V1.5Z"
        fill="white" stroke="#555399" />
    <path
        d="M22.786 8.88387C22.6777 7.26291 21.2863 6.03847 19.6892 6.03847H11.3072C9.71016 6.03847 8.31874 7.26291 8.2104 8.88387C8.20607 8.95444 8.2041 9.02941 8.2041 9.10198V19.0904C8.2041 20.0286 8.82299 20.8192 9.66919 21.0638C9.69716 21.0726 9.72749 21.0814 9.75783 21.0858V22.0043C9.75783 22.3632 10.0454 22.6539 10.3984 22.6539H11.8115C12.1644 22.6539 12.452 22.3632 12.452 22.0043V21.1431H18.5444V22.0043C18.5444 22.3632 18.832 22.6539 19.185 22.6539H20.5981C20.951 22.6539 21.2386 22.3632 21.2386 22.0043V21.0858C21.2689 21.0814 21.2993 21.0726 21.3272 21.0638C22.1734 20.8192 22.7923 20.0286 22.7923 19.0904V9.10198C22.7923 9.02941 22.7904 8.95444 22.786 8.88387ZM10.7187 19.632C8.94827 19.5482 9.31424 17.119 11.4223 17.9517C12.5304 18.3944 13.0516 19.7423 10.7187 19.632ZM20.2782 19.632C17.9452 19.7423 18.4668 18.3944 19.5746 17.9517C21.6826 17.119 22.0482 19.5486 20.2782 19.632ZM21.581 13.6766C21.581 14.6477 20.8711 15.4716 19.9256 15.5951C18.5066 15.7771 17.0785 15.8705 15.6505 15.8753C15.5997 15.8753 15.5492 15.8753 15.4984 15.8753C15.4476 15.8753 15.3972 15.8753 15.3464 15.8753C13.9183 15.8705 12.4902 15.7771 11.0712 15.5951C10.1254 15.4716 9.41588 14.6481 9.41588 13.6766V8.66376C9.41588 8.13012 11.063 7.84907 15.4984 7.80337C19.9339 7.84907 21.581 8.13012 21.581 8.66376V13.6766Z"
        fill="#555399" />
</svg>