<svg width="24" height="25" viewBox="0 0 24 25" fill="none" xmlns="http://www.w3.org/2000/svg">
<path d="M8.29046 9.73075L11.168 7.5581C11.4911 7.31237 11.884 7.1862 12.2841 7.19972C12.772 7.21237 13.2441 7.38274 13.6346 7.68715C14.0252 7.99156 14.3147 8.41489 14.4631 8.89827C14.6301 9.44237 14.7828 9.81008 14.921 10.0014C15.3388 10.5808 15.8807 11.051 16.5038 11.3746C17.1269 11.6983 17.6128 11.8735 18.5106 11.8735C19.4084 11.8735 18.9595 13.7401 18.0617 13.7401C17.1638 13.7401 16.6675 13.521 15.8288 13.11C14.9902 12.699 14.2496 12.0998 13.6604 11.3556L13.0347 15.0467L14.8851 16.6612L16.881 22.3616L15.1931 23L13.3615 17.7699L10.3178 15.1148C10.068 14.9051 9.87687 14.6297 9.76428 14.3172C9.65169 14.0047 9.62176 13.6665 9.67762 13.3378L10.1346 10.6454L9.52679 11.1045C9.52679 11.1045 8.53577 12.5694 7.73643 13.7401C7.05622 14.7363 5.49189 13.7401 6.16437 12.7396C6.99408 11.5052 8.27519 9.71955 8.27519 9.71955L8.29046 9.73075ZM13.5725 6.73308C13.0962 6.73308 12.6395 6.53643 12.3027 6.18639C11.966 5.83634 11.7768 5.36158 11.7768 4.86654C11.7768 4.3715 11.966 3.89674 12.3027 3.5467C12.6395 3.19665 13.0962 3 13.5725 3C14.0487 3 14.5054 3.19665 14.8422 3.5467C15.179 3.89674 15.3681 4.3715 15.3681 4.86654C15.3681 5.36158 15.179 5.83634 14.8422 6.18639C14.5054 6.53643 14.0487 6.73308 13.5725 6.73308ZM10.9041 19.0345L8.01841 22.609L6.64292 21.4097L9.3149 18.1003L9.98469 16.0658L11.5927 17.4657L10.9041 19.0345Z" fill="#9FA5B8"/>
</svg>
