<svg width="24" height="25" viewBox="0 0 24 25" fill="none" xmlns="http://www.w3.org/2000/svg">
<path d="M12 3.242C6.624 3.242 2.25 7.616 2.25 12.992C2.25 18.368 6.624 22.742 12 22.742C17.376 22.742 21.75 18.368 21.75 12.992C21.75 7.616 17.376 3.242 12 3.242ZM12 4.742C16.5653 4.742 20.25 8.42675 20.25 12.992C20.25 17.5573 16.5653 21.242 12 21.242C7.43475 21.242 3.75 17.5573 3.75 12.992C3.75 8.42675 7.43475 4.742 12 4.742ZM9.165 9.077L8.085 10.157L10.923 12.992L8.0865 15.827L9.1665 16.907L12 14.0698L14.835 16.9048L15.915 15.827L13.0778 12.992L15.9127 10.157L14.835 9.077L12 11.915L9.165 9.0785V9.077Z" fill="#9FA5B8"/>
</svg>
