<svg width="24" height="25" viewBox="0 0 24 25" fill="none" xmlns="http://www.w3.org/2000/svg">
<path d="M20.8256 6.5071C20.7552 6.42285 20.6672 6.35509 20.5677 6.3086C20.4683 6.26211 20.3598 6.23802 20.25 6.23804H5.12625L4.66781 3.71991C4.60502 3.37429 4.42292 3.06167 4.15325 2.83655C3.88359 2.61142 3.54347 2.48809 3.19219 2.48804H1.5C1.30109 2.48804 1.11032 2.56705 0.96967 2.70771C0.829018 2.84836 0.75 3.03912 0.75 3.23804C0.75 3.43695 0.829018 3.62771 0.96967 3.76837C1.11032 3.90902 1.30109 3.98804 1.5 3.98804H3.1875L5.58375 17.1402C5.65434 17.5303 5.82671 17.8948 6.08344 18.1968C5.72911 18.5277 5.47336 18.9504 5.34455 19.4178C5.21575 19.8852 5.21892 20.3792 5.35371 20.8449C5.48851 21.3107 5.74966 21.73 6.10821 22.0564C6.46676 22.3827 6.9087 22.6034 7.38502 22.694C7.86134 22.7845 8.35344 22.7414 8.80673 22.5693C9.26003 22.3973 9.65682 22.103 9.9531 21.7192C10.2494 21.3354 10.4336 20.8771 10.4853 20.395C10.537 19.9129 10.4541 19.4259 10.2459 18.988H14.5041C14.3363 19.3393 14.2495 19.7238 14.25 20.113C14.25 20.6322 14.404 21.1397 14.6924 21.5714C14.9808 22.0031 15.3908 22.3395 15.8705 22.5382C16.3501 22.7369 16.8779 22.7889 17.3871 22.6876C17.8963 22.5863 18.364 22.3363 18.7312 21.9692C19.0983 21.6021 19.3483 21.1343 19.4496 20.6251C19.5508 20.1159 19.4989 19.5882 19.3002 19.1085C19.1015 18.6288 18.7651 18.2189 18.3334 17.9304C17.9017 17.642 17.3942 17.488 16.875 17.488H7.79719C7.62155 17.488 7.45149 17.4263 7.31665 17.3138C7.18182 17.2012 7.09077 17.0449 7.05938 16.8721L6.76219 15.238H17.6372C18.1641 15.238 18.6743 15.053 19.0788 14.7153C19.4833 14.3776 19.7564 13.9087 19.8506 13.3902L20.9906 7.1221C21.0099 7.01376 21.0051 6.9025 20.9766 6.79622C20.9481 6.68994 20.8966 6.59123 20.8256 6.5071ZM9 20.113C9 20.3355 8.93402 20.553 8.8104 20.7381C8.68679 20.9231 8.51109 21.0673 8.30552 21.1524C8.09995 21.2375 7.87375 21.2598 7.65552 21.2164C7.43729 21.173 7.23684 21.0659 7.0795 20.9085C6.92217 20.7512 6.81502 20.5507 6.77162 20.3325C6.72821 20.1143 6.75049 19.8881 6.83564 19.6825C6.92078 19.477 7.06498 19.3013 7.24998 19.1776C7.43499 19.054 7.6525 18.988 7.875 18.988C8.17337 18.988 8.45952 19.1066 8.6705 19.3175C8.88147 19.5285 9 19.8147 9 20.113ZM18 20.113C18 20.3355 17.934 20.553 17.8104 20.7381C17.6868 20.9231 17.5111 21.0673 17.3055 21.1524C17.1 21.2375 16.8738 21.2598 16.6555 21.2164C16.4373 21.173 16.2368 21.0659 16.0795 20.9085C15.9222 20.7512 15.815 20.5507 15.7716 20.3325C15.7282 20.1143 15.7505 19.8881 15.8356 19.6825C15.9208 19.477 16.065 19.3013 16.25 19.1776C16.435 19.054 16.6525 18.988 16.875 18.988C17.1734 18.988 17.4595 19.1066 17.6705 19.3175C17.8815 19.5285 18 19.8147 18 20.113ZM18.375 13.1221C18.3435 13.2954 18.2521 13.4521 18.1166 13.5647C17.9812 13.6773 17.8105 13.7387 17.6344 13.738H6.48938L5.39906 7.73804H19.3509L18.375 13.1221Z" fill="#9FA5B8"/>
</svg>
