<svg width="24" height="25" viewBox="0 0 24 25" fill="none" xmlns="http://www.w3.org/2000/svg">
<path d="M12 3.242C10.3067 3.24188 8.64255 3.68275 7.17141 4.52122C5.70026 5.35968 4.47285 6.56684 3.61001 8.02382C2.74717 9.4808 2.27866 11.1374 2.25061 12.8305C2.22255 14.5235 2.63592 16.1947 3.45001 17.6795L2.65313 20.492C2.57879 20.7483 2.57462 21.0198 2.64103 21.2783C2.70745 21.5367 2.84203 21.7726 3.03072 21.9613C3.21941 22.15 3.45529 22.2846 3.71374 22.351C3.97219 22.4174 4.24373 22.4132 4.50001 22.3389L7.31251 21.542C8.6159 22.2564 10.0654 22.6633 11.5501 22.7317C13.0349 22.8001 14.5156 22.5281 15.8791 21.9365C17.2427 21.345 18.4529 20.4495 19.4174 19.3186C20.3818 18.1876 21.0749 16.8512 21.4437 15.4113C21.8125 13.9715 21.8473 12.4664 21.5453 11.0111C21.2433 9.55574 20.6126 8.18872 19.7014 7.01449C18.7901 5.84026 17.6225 4.88991 16.2877 4.23607C14.9529 3.58223 13.4863 3.24221 12 3.242ZM12 21.242C10.5191 21.2406 9.06552 20.8425 7.79063 20.0889C7.67299 20.0233 7.54093 19.9879 7.40626 19.9858C7.33656 19.9859 7.26719 19.9953 7.20001 20.0139L4.08751 20.9045L4.97813 17.792C5.00553 17.6935 5.01301 17.5906 5.00013 17.4891C4.98725 17.3877 4.95428 17.2899 4.90313 17.2014C3.9744 15.6359 3.58947 13.8072 3.80829 12.0002C4.02711 10.1932 4.8374 8.50927 6.11294 7.21073C7.38848 5.91218 9.05767 5.07194 10.8605 4.82086C12.6633 4.56979 14.4986 4.92199 16.0804 5.8226C17.6622 6.7232 18.9018 8.12166 19.606 9.80013C20.3102 11.4786 20.4396 13.3429 19.9739 15.1025C19.5083 16.8622 18.4738 18.4184 17.0315 19.5289C15.5892 20.6394 13.8202 21.2417 12 21.242ZM13.125 12.992C13.125 13.2145 13.059 13.432 12.9354 13.617C12.8118 13.802 12.6361 13.9462 12.4305 14.0314C12.225 14.1165 11.9988 14.1388 11.7805 14.0954C11.5623 14.052 11.3618 13.9448 11.2045 13.7875C11.0472 13.6302 10.94 13.4297 10.8966 13.2115C10.8532 12.9933 10.8755 12.7671 10.9606 12.5615C11.0458 12.3559 11.19 12.1802 11.375 12.0566C11.56 11.933 11.7775 11.867 12 11.867C12.2984 11.867 12.5845 11.9855 12.7955 12.1965C13.0065 12.4075 13.125 12.6936 13.125 12.992ZM8.62501 12.992C8.62501 13.2145 8.55903 13.432 8.43541 13.617C8.31179 13.802 8.13609 13.9462 7.93053 14.0314C7.72496 14.1165 7.49876 14.1388 7.28053 14.0954C7.0623 14.052 6.86185 13.9448 6.70451 13.7875C6.54718 13.6302 6.44003 13.4297 6.39662 13.2115C6.35322 12.9933 6.37549 12.7671 6.46064 12.5615C6.54579 12.3559 6.68999 12.1802 6.87499 12.0566C7.06 11.933 7.2775 11.867 7.50001 11.867C7.79838 11.867 8.08452 11.9855 8.2955 12.1965C8.50648 12.4075 8.62501 12.6936 8.62501 12.992ZM17.625 12.992C17.625 13.2145 17.559 13.432 17.4354 13.617C17.3118 13.802 17.1361 13.9462 16.9305 14.0314C16.725 14.1165 16.4988 14.1388 16.2805 14.0954C16.0623 14.052 15.8618 13.9448 15.7045 13.7875C15.5472 13.6302 15.44 13.4297 15.3966 13.2115C15.3532 12.9933 15.3755 12.7671 15.4606 12.5615C15.5458 12.3559 15.69 12.1802 15.875 12.0566C16.06 11.933 16.2775 11.867 16.5 11.867C16.7984 11.867 17.0845 11.9855 17.2955 12.1965C17.5065 12.4075 17.625 12.6936 17.625 12.992Z" fill="#9FA5B8"/>
</svg>
