<svg width="24" height="25" viewBox="0 0 24 25" fill="none" xmlns="http://www.w3.org/2000/svg">
<path d="M18.5 5.84615C17.5661 5.84615 16.8065 6.62246 16.8065 7.57692C16.8065 8.53138 17.5661 9.30769 18.5 9.30769C19.4339 9.30769 20.1935 8.53138 20.1935 7.57692C20.1935 6.62246 19.4339 5.84615 18.5 5.84615ZM18.5 8.61538C17.9395 8.61538 17.4839 8.14969 17.4839 7.57692C17.4839 7.00415 17.9395 6.53846 18.5 6.53846C19.0605 6.53846 19.5161 7.00415 19.5161 7.57692C19.5161 8.14969 19.0605 8.61538 18.5 8.61538ZM18.4982 4C16.5039 4 15 5.53785 15 7.57692C15 10.4422 17.1388 12.2274 18.0579 12.8615C18.1915 12.9538 18.3446 13 18.4982 13C18.6508 13 18.8039 12.9539 18.9376 12.862C19.8584 12.2265 22 10.4389 22 7.57647C22 5.5374 20.4948 4 18.4982 4ZM18.5587 12.2883C18.5212 12.3142 18.4747 12.3142 18.4372 12.2883C17.7896 11.8415 15.6774 10.1814 15.6774 7.57692C15.6774 5.93246 16.89 4.69231 18.4982 4.69231C20.1082 4.69231 21.3226 5.93246 21.3226 7.57692C21.3226 10.1075 19.3897 11.7151 18.5587 12.2883Z" fill="#9FA5B8" stroke="#9FA5B8" stroke-width="0.6"/>
<path d="M5.5 5.84615C4.56606 5.84615 3.80645 6.62246 3.80645 7.57692C3.80645 8.53138 4.56606 9.30769 5.5 9.30769C6.43394 9.30769 7.19355 8.53138 7.19355 7.57692C7.19355 6.62246 6.43394 5.84615 5.5 5.84615ZM5.5 8.61538C4.93955 8.61538 4.48387 8.14969 4.48387 7.57692C4.48387 7.00415 4.93955 6.53846 5.5 6.53846C6.06045 6.53846 6.51613 7.00415 6.51613 7.57692C6.51613 8.14969 6.06045 8.61538 5.5 8.61538ZM5.49819 4C3.50387 4 2 5.53785 2 7.57692C2 10.4422 4.13884 12.2274 5.05787 12.8615C5.19155 12.9538 5.34465 13 5.49819 13C5.65084 13 5.80393 12.9539 5.93761 12.862C6.85845 12.2265 9 10.4389 9 7.57647C9 5.5374 7.49477 4 5.49819 4ZM5.55871 12.2883C5.52123 12.3142 5.47471 12.3142 5.43722 12.2883C4.78961 11.8415 2.67742 10.1814 2.67742 7.57692C2.67742 5.93246 3.89 4.69231 5.49819 4.69231C7.10819 4.69231 8.32258 5.93246 8.32258 7.57692C8.32258 10.1075 6.38968 11.7151 5.55871 12.2883Z" fill="#9FA5B8" stroke="#9FA5B8" stroke-width="0.6"/>
<circle cx="5" cy="20" r="2" fill="#9FA5B8" stroke="#9FA5B8" stroke-width="1.5"/>
<circle cx="19" cy="20" r="2" stroke="#9FA5B8" stroke-width="1.5"/>
<path d="M7 20L15 20" stroke="#9FA5B8" stroke-linejoin="round" stroke-dasharray="1.5 1.5"/>
</svg>
