<svg width="24" height="25" viewBox="0 0 24 25" fill="none" xmlns="http://www.w3.org/2000/svg">
<path d="M6.5 9.102C5.61 9.102 4.89 8.382 4.89 7.492C4.89 7.06501 5.05962 6.6555 5.36156 6.35356C5.66349 6.05163 6.073 5.882 6.5 5.882C7.39 5.882 8.11 6.602 8.11 7.492C8.11 7.919 7.94038 8.32851 7.63844 8.63045C7.33651 8.93238 6.927 9.102 6.5 9.102ZM6.5 2.992C4 2.992 2 4.992 2 7.492C2 10.862 6.5 15.852 6.5 15.852C6.5 15.852 11 10.862 11 7.492C11 4.992 9 2.992 6.5 2.992ZM17.5 9.102C17.073 9.102 16.6635 8.93238 16.3616 8.63045C16.0596 8.32851 15.89 7.919 15.89 7.492C15.89 7.28058 15.9316 7.07122 16.0126 6.87588C16.0935 6.68055 16.2121 6.50306 16.3616 6.35356C16.5111 6.20406 16.6885 6.08547 16.8839 6.00456C17.0792 5.92365 17.2886 5.882 17.5 5.882C17.7114 5.882 17.9208 5.92365 18.1161 6.00456C18.3115 6.08547 18.4889 6.20406 18.6384 6.35356C18.7879 6.50306 18.9065 6.68055 18.9874 6.87588C19.0684 7.07122 19.11 7.28058 19.11 7.492C19.11 7.919 18.9404 8.32851 18.6384 8.63045C18.3365 8.93238 17.927 9.102 17.5 9.102ZM17.5 2.992C15 2.992 13 4.992 13 7.492C13 10.862 17.5 15.852 17.5 15.852C17.5 15.852 22 10.862 22 7.492C22 4.992 20 2.992 17.5 2.992ZM17.5 16.992C16.23 16.992 15.1 17.792 14.68 18.992H9.32C9.05502 18.2436 8.50416 17.6307 7.78813 17.2877C7.0721 16.9447 6.24929 16.8995 5.5 17.162C5.12758 17.2925 4.78453 17.4951 4.49047 17.7583C4.19641 18.0214 3.95709 18.34 3.78621 18.6957C3.61532 19.0514 3.51622 19.4372 3.49456 19.8313C3.47291 20.2253 3.52913 20.6197 3.66 20.992C3.92857 21.7424 4.48314 22.356 5.20261 22.6989C5.92209 23.0418 6.748 23.086 7.5 22.822C8.35 22.522 9 21.842 9.32 20.992H14.69C15.24 22.552 16.96 23.372 18.5 22.822C18.8736 22.6929 19.2179 22.4912 19.5133 22.2285C19.8086 21.9659 20.0492 21.6474 20.2211 21.2915C20.393 20.9356 20.4929 20.5493 20.515 20.1546C20.5371 19.76 20.481 19.3649 20.35 18.992C19.92 17.792 18.78 16.992 17.5 16.992ZM17.5 21.492C17.1022 21.492 16.7206 21.334 16.4393 21.0527C16.158 20.7714 16 20.3898 16 19.992C16 19.5942 16.158 19.2127 16.4393 18.9313C16.7206 18.65 17.1022 18.492 17.5 18.492C17.8978 18.492 18.2794 18.65 18.5607 18.9313C18.842 19.2127 19 19.5942 19 19.992C19 20.3898 18.842 20.7714 18.5607 21.0527C18.2794 21.334 17.8978 21.492 17.5 21.492Z" fill="#9FA5B8"/>
</svg>
