<svg width="91" height="90" viewBox="0 0 91 90" fill="none" xmlns="http://www.w3.org/2000/svg">
<path d="M81.2202 0H9.77878C4.37844 0 0 4.34774 0 9.71022V65.9541C0 71.3176 4.37844 75.6643 9.77878 75.6643H36.6563L45.5232 90L54.3498 75.6643H81.2212C86.6216 75.6643 91 71.3166 91 65.9541V9.71022C91 4.34774 86.6216 0 81.2212 0H81.2202Z" fill="#DDDEDC"/>
<path d="M47.7743 25.2396C47.4936 21.1268 43.8892 18.02 39.752 18.02H18.0386C13.9014 18.02 10.297 21.1268 10.0163 25.2396C10.0051 25.4187 10 25.6089 10 25.793V51.1364C10 53.5169 11.6032 55.5229 13.7953 56.1435C13.8677 56.1659 13.9463 56.1882 14.0249 56.1994V58.53C14.0249 59.4405 14.7699 60.178 15.6843 60.178H19.3448C20.2592 60.178 21.0042 59.4405 21.0042 58.53V56.3449H36.7864V58.53C36.7864 59.4405 37.5314 60.178 38.4458 60.178H42.1063C43.0207 60.178 43.7657 59.4405 43.7657 58.53V56.1994C43.8443 56.1882 43.9229 56.1659 43.9953 56.1435C46.1874 55.5229 47.7906 53.5169 47.7906 51.1364V25.793C47.7906 25.6089 47.7855 25.4187 47.7743 25.2396ZM16.5139 52.5108C11.9278 52.2982 12.8758 46.1345 18.3366 48.2474C21.2073 49.3704 22.5574 52.7905 16.5139 52.5108ZM41.2777 52.5108C35.2342 52.7905 36.5854 49.3704 39.4551 48.2474C44.9158 46.1345 45.8629 52.2992 41.2777 52.5108ZM44.6525 37.4002C44.6525 39.864 42.8136 41.9545 40.3643 42.2678C36.6884 42.7297 32.9891 42.9667 29.2897 42.9789C29.1581 42.9789 29.0275 42.9789 28.8958 42.9789C28.7642 42.9789 28.6335 42.9789 28.5019 42.9789C24.8025 42.9667 21.1032 42.7297 17.4273 42.2678C14.977 41.9545 13.1391 39.865 13.1391 37.4002V24.6811C13.1391 23.3272 17.4059 22.614 28.8958 22.4981C40.3858 22.614 44.6525 23.3272 44.6525 24.6811V37.4002Z" fill="white"/>
<path d="M61.3353 38.4271C58.7351 37.2013 56.5838 35.2431 55.1153 32.765C51.0822 25.9614 53.3549 17.1549 60.1801 13.1356C64.2918 10.7135 69.329 10.4846 73.6519 12.5222C76.2522 13.748 78.4034 15.7063 79.8719 18.1844C83.905 24.9879 81.6323 33.7945 74.8071 37.8137C70.6955 40.2359 65.6582 40.4647 61.3353 38.4271ZM72.5538 14.8324C69.0014 13.158 64.8622 13.3452 61.4833 15.336C55.8746 18.6391 54.008 25.874 57.3227 31.4649C58.5289 33.5005 60.2965 35.1088 62.4324 36.1159C65.9848 37.7903 70.124 37.6032 73.5029 35.6123C79.1116 32.3092 80.9782 25.0744 77.6635 19.4834C76.4573 17.4479 74.6898 15.8395 72.5538 14.8324Z" fill="white"/>
<path d="M67.073 24.5574C66.7627 24.411 66.5484 24.0976 66.5474 23.7324L66.5352 15.8506C66.5352 15.346 66.9444 14.9371 67.4506 14.936C67.9567 14.934 68.368 15.344 68.369 15.8485L68.3813 23.7294C68.3813 24.2339 67.972 24.6429 67.4659 24.6439C67.3261 24.6439 67.1924 24.6124 67.073 24.5564V24.5574Z" fill="white"/>
<path d="M72.6674 29.6187C72.6409 29.6065 72.6154 29.5932 72.5909 29.578L68.4568 27.1365C68.021 26.8791 67.8782 26.3186 68.1363 25.8853C68.3945 25.4509 68.965 25.3064 69.3916 25.5648L73.5257 28.0063C73.9614 28.2637 74.1043 28.8242 73.8461 29.2575C73.6032 29.6665 73.0899 29.8181 72.6674 29.6187Z" fill="white"/>
<path d="M66.4601 27.6502C66.0223 27.4437 65.661 27.1151 65.4151 26.699C64.7385 25.5566 65.1191 24.0785 66.2652 23.4031C66.9561 22.9961 67.8021 22.9575 68.5276 23.2993C68.9654 23.5058 69.3267 23.8344 69.5727 24.2515C70.2503 25.3929 69.8686 26.872 68.7226 27.5474C68.0317 27.9544 67.1867 27.993 66.4601 27.6512V27.6502ZM67.8102 24.812C67.5878 24.7072 67.3296 24.7184 67.1183 24.8435C66.7703 25.049 66.653 25.4997 66.8601 25.8476C66.9357 25.9757 67.0459 26.0754 67.1775 26.1375C67.4 26.2423 67.6582 26.2311 67.8684 26.107C68.2164 25.9015 68.3337 25.4508 68.1266 25.1029C68.0511 24.9747 67.9419 24.8751 67.8092 24.813L67.8102 24.812Z" fill="white"/>
<path d="M57.3592 43.4536C55.8968 43.4536 54.7109 44.6357 54.7109 46.0934C54.7109 47.5512 55.8957 48.7333 57.3592 48.7333C58.8226 48.7333 60.0074 47.5512 60.0074 46.0934C60.0074 44.6357 58.8216 43.4536 57.3592 43.4536ZM57.3592 47.011C56.8509 47.011 56.4387 46.6001 56.4387 46.0934C56.4387 45.5868 56.8509 45.1759 57.3592 45.1759C57.8674 45.1759 58.2797 45.5868 58.2797 46.0934C58.2797 46.6001 57.8674 47.011 57.3592 47.011Z" fill="white"/>
<path d="M79.319 47.1951H62.8806C62.2703 47.1951 61.7754 46.7017 61.7754 46.0934C61.7754 45.4851 62.2703 44.9917 62.8806 44.9917H79.319C79.9293 44.9917 80.4242 45.4851 80.4242 46.0934C80.4242 46.7017 79.9293 47.1951 79.319 47.1951Z" fill="white"/>
<path d="M57.3592 50.0894C55.8968 50.0894 54.7109 51.2714 54.7109 52.7292C54.7109 54.1869 55.8957 55.369 57.3592 55.369C58.8226 55.369 60.0074 54.1869 60.0074 52.7292C60.0074 51.2714 58.8216 50.0894 57.3592 50.0894ZM57.3592 53.6468C56.8509 53.6468 56.4387 53.2358 56.4387 52.7292C56.4387 52.2226 56.8509 51.8116 57.3592 51.8116C57.8674 51.8116 58.2797 52.2226 58.2797 52.7292C58.2797 53.2358 57.8674 53.6468 57.3592 53.6468Z" fill="white"/>
<path d="M79.319 53.8309H62.8806C62.2703 53.8309 61.7754 53.3375 61.7754 52.7292C61.7754 52.1208 62.2703 51.6274 62.8806 51.6274H79.319C79.9293 51.6274 80.4242 52.1208 80.4242 52.7292C80.4242 53.3375 79.9293 53.8309 79.319 53.8309Z" fill="white"/>
<path d="M57.3592 56.7256C55.8968 56.7256 54.7109 57.9077 54.7109 59.3654C54.7109 60.8232 55.8957 62.0053 57.3592 62.0053C58.8226 62.0053 60.0074 60.8232 60.0074 59.3654C60.0074 57.9077 58.8216 56.7256 57.3592 56.7256ZM57.3592 60.283C56.8509 60.283 56.4387 59.872 56.4387 59.3654C56.4387 58.8588 56.8509 58.4478 57.3592 58.4478C57.8674 58.4478 58.2797 58.8588 58.2797 59.3654C58.2797 59.872 57.8674 60.283 57.3592 60.283Z" fill="white"/>
<path d="M79.319 60.4671H62.8806C62.2703 60.4671 61.7754 59.9737 61.7754 59.3654C61.7754 58.757 62.2703 58.2637 62.8806 58.2637H79.319C79.9293 58.2637 80.4242 58.757 80.4242 59.3654C80.4242 59.9737 79.9293 60.4671 79.319 60.4671Z" fill="white"/>
</svg>
