<svg width="171" height="117" viewBox="0 0 171 117" fill="none" xmlns="http://www.w3.org/2000/svg">
<g opacity="0.35">
<path d="M16.1125 92L0 116.982H171L154.888 92H16.1125Z" fill="#DDDEDC"/>
<path d="M125.738 37V99.1127" stroke="#A9ADA6" stroke-width="4.43662" stroke-linecap="round"/>
<path d="M65 17L65 108" stroke="#A9ADA6" stroke-width="4.43662" stroke-linecap="round"/>
<path d="M98 3L98 108" stroke="#A9ADA6" stroke-width="4.84162" stroke-linecap="round"/>
<path d="M149.402 56.2395L31.8319 90.993" stroke="#A9ADA6" stroke-width="4.43662" stroke-linecap="round"/>
<path d="M39.3074 66.9551C35.2416 66.9551 31.9531 70.2435 31.9531 74.3094C31.9531 79.8252 39.3074 87.9674 39.3074 87.9674C39.3074 87.9674 46.6618 79.8252 46.6618 74.3094C46.6618 70.2435 43.3733 66.9551 39.3074 66.9551ZM34.0544 74.3094C34.0544 71.4097 36.4077 69.0563 39.3074 69.0563C42.2071 69.0563 44.5605 71.4097 44.5605 74.3094C44.5605 77.3352 41.5347 81.8633 39.3074 84.6895C37.1222 81.8844 34.0544 77.3037 34.0544 74.3094Z" fill="#676B64"/>
<path d="M39.3074 77.4613C40.8899 77.4613 42.1727 76.1784 42.1727 74.5959C42.1727 73.0135 40.8899 71.7306 39.3074 71.7306C37.7249 71.7306 36.4421 73.0135 36.4421 74.5959C36.4421 76.1784 37.7249 77.4613 39.3074 77.4613Z" fill="#676B64"/>
<path d="M124.262 37L21.48 37" stroke="#A9ADA6" stroke-width="4.43662" stroke-linecap="round"/>
<path d="M120.647 14.9551C116.581 14.9551 113.293 18.2435 113.293 22.3094C113.293 27.8252 120.647 35.9674 120.647 35.9674C120.647 35.9674 128.002 27.8252 128.002 22.3094C128.002 18.2435 124.713 14.9551 120.647 14.9551ZM115.394 22.3094C115.394 19.4097 117.748 17.0563 120.647 17.0563C123.547 17.0563 125.9 19.4097 125.9 22.3094C125.9 25.3352 122.875 29.8633 120.647 32.6895C118.462 29.8844 115.394 25.3037 115.394 22.3094Z" fill="#676B64"/>
<path d="M120.647 25.4613C122.23 25.4613 123.513 24.1784 123.513 22.5959C123.513 21.0135 122.23 19.7306 120.647 19.7306C119.065 19.7306 117.782 21.0135 117.782 22.5959C117.782 24.1784 119.065 25.4613 120.647 25.4613Z" fill="#676B64"/>
<g clip-path="url(#clip0_3220_18984)">
<path fill-rule="evenodd" clip-rule="evenodd" d="M45.8168 15.0833C46.4686 15.0832 47.1117 15.233 47.6964 15.5212C48.281 15.8093 48.7916 16.2281 49.1885 16.7451L49.3528 16.976L50.8687 19.2498C51.2752 19.8592 51.5172 20.5634 51.5713 21.294L51.5827 21.6085V30.6667C51.5829 31.3815 51.3129 32.07 50.8269 32.5941C50.3408 33.1183 49.6747 33.4393 48.9618 33.4929L48.7493 33.5H48.5085C48.2229 34.3079 47.6998 35.0107 47.0079 35.5161C46.3159 36.0215 45.4874 36.3061 44.6309 36.3324C43.7744 36.3588 42.9299 36.1257 42.2082 35.6637C41.4865 35.2018 40.9212 34.5325 40.5865 33.7437L40.4902 33.5H31.5071C31.2212 34.3075 30.6981 35.0097 30.0063 35.5148C29.3145 36.0199 28.4863 36.3043 27.6301 36.3306C26.774 36.357 25.9298 36.1241 25.2083 35.6624C24.4867 35.2008 23.9215 34.532 23.5865 33.7437L23.4902 33.5H23.2493C22.5345 33.5002 21.846 33.2303 21.3219 32.7442C20.7978 32.2582 20.4767 31.592 20.4231 30.8792L20.416 30.6667V19.3333C20.416 18.2493 20.8301 17.2062 21.5738 16.4175C22.3175 15.6287 23.3345 15.154 24.4167 15.0904L24.666 15.0833H45.8168ZM44.4993 30.6667C44.1236 30.6667 43.7633 30.8159 43.4976 31.0816C43.2319 31.3473 43.0827 31.7076 43.0827 32.0833C43.0827 32.4591 43.2319 32.8194 43.4976 33.0851C43.7633 33.3507 44.1236 33.5 44.4993 33.5C44.8751 33.5 45.2354 33.3507 45.5011 33.0851C45.7668 32.8194 45.916 32.4591 45.916 32.0833C45.916 31.7076 45.7668 31.3473 45.5011 31.0816C45.2354 30.8159 44.8751 30.6667 44.4993 30.6667ZM27.4993 30.6667C27.1236 30.6667 26.7633 30.8159 26.4976 31.0816C26.2319 31.3473 26.0827 31.7076 26.0827 32.0833C26.0827 32.4591 26.2319 32.8194 26.4976 33.0851C26.7633 33.3507 27.1236 33.5 27.4993 33.5C27.8751 33.5 28.2354 33.3507 28.5011 33.0851C28.7668 32.8194 28.916 32.4591 28.916 32.0833C28.916 31.7076 28.7668 31.3473 28.5011 31.0816C28.2354 30.8159 27.8751 30.6667 27.4993 30.6667ZM45.8168 17.9167H44.4993V23.5833H48.7493V21.6085C48.7494 21.3287 48.6666 21.0551 48.5113 20.8223L46.9955 18.5471C46.8661 18.3531 46.6908 18.1941 46.4852 18.0841C46.2796 17.9742 46.05 17.9166 45.8168 17.9167ZM27.4993 17.9167H24.666C24.319 17.9167 23.9841 18.0441 23.7248 18.2747C23.4655 18.5053 23.2999 18.823 23.2593 19.1676L23.2493 19.3333V22.1667H27.4993V17.9167ZM34.5827 17.9167H30.3327V22.1667H34.5827V17.9167ZM41.666 17.9167H37.416V22.1667H41.666V17.9167Z" fill="#676B64"/>
</g>
</g>
<defs>
<clipPath id="clip0_3220_18984">
<rect width="34" height="34" fill="white" transform="translate(19 11)"/>
</clipPath>
</defs>
</svg>
