<svg width="24" height="25" viewBox="0 0 24 25" fill="none" xmlns="http://www.w3.org/2000/svg">
<path fill-rule="evenodd" clip-rule="evenodd" d="M6 3C4.89543 3 4 3.89543 4 5V17C4 18.1046 4.89543 19 6 19H18C19.1046 19 20 18.1046 20 17V5C20 3.89543 19.1046 3 18 3H6ZM8.8421 15.7368H15.1579V16.3684C15.1579 16.5359 15.2244 16.6966 15.3429 16.815C15.4613 16.9335 15.622 17 15.7895 17H16.7368C16.9043 17 17.065 16.9335 17.1834 16.815C17.3019 16.6966 17.3684 16.5359 17.3684 16.3684V10.6842H18V8.15789H17.3684V6.26316C17.3684 5.92815 17.2353 5.60686 16.9985 5.36997C16.7616 5.13308 16.4403 5 16.1053 5H7.89474C7.55973 5 7.23844 5.13308 7.00155 5.36997C6.76466 5.60686 6.63158 5.92815 6.63158 6.26316V8.15789H6V10.6842H6.63158V16.3684C6.63158 16.5359 6.69812 16.6966 6.81656 16.815C6.93501 16.9335 7.09565 17 7.26316 17H8.21053C8.37803 17 8.53868 16.9335 8.65712 16.815C8.77556 16.6966 8.8421 16.5359 8.8421 16.3684V15.7368ZM7.57895 10.3684V5.94737H16.4211V10.3684C16.4211 12.2632 7.57895 12.2632 7.57895 10.3684ZM9.23452 14.1962C9.05685 14.3739 8.81589 14.4737 8.56463 14.4737C8.31337 14.4737 8.0724 14.3739 7.89474 14.1962C7.71707 14.0185 7.61726 13.7776 7.61726 13.5263C7.61726 13.2751 7.71707 13.0341 7.89474 12.8564C8.0724 12.6788 8.31337 12.5789 8.56463 12.5789C8.81589 12.5789 9.05685 12.6788 9.23452 12.8564C9.41218 13.0341 9.512 13.2751 9.512 13.5263C9.512 13.7776 9.41218 14.0185 9.23452 14.1962ZM16.1819 14.2345C16.0042 14.4122 15.7633 14.512 15.512 14.512C15.2607 14.512 15.0198 14.4122 14.8421 14.2345C14.6644 14.0569 14.5646 13.8159 14.5646 13.5646C14.5646 13.3134 14.6644 13.0724 14.8421 12.8947C15.0198 12.7171 15.2607 12.6173 15.512 12.6173C15.7633 12.6173 16.0042 12.7171 16.1819 12.8947C16.3596 13.0724 16.4594 13.3134 16.4594 13.5646C16.4594 13.8159 16.3596 14.0569 16.1819 14.2345Z" fill="#9FA5B8"/>
<line x1="12" y1="18" x2="12" y2="23" stroke="#9FA5B8" stroke-width="2" stroke-linecap="round"/>
</svg>
