<svg width="48" height="48" viewBox="0 0 48 48" fill="none" xmlns="http://www.w3.org/2000/svg">
<rect x="0.25" y="0.25" width="47.5" height="47.5" rx="7.75" fill="#EEF5FB"/>
<rect x="0.25" y="0.25" width="47.5" height="47.5" rx="7.75" stroke="#BCDBF5" stroke-width="0.5"/>
<g clip-path="url(#clip0_90_1119)">
<path d="M19.9165 22.8333C20.883 22.8333 21.6665 22.0498 21.6665 21.0833C21.6665 20.1168 20.883 19.3333 19.9165 19.3333C18.95 19.3333 18.1665 20.1168 18.1665 21.0833C18.1665 22.0498 18.95 22.8333 19.9165 22.8333Z" fill="#1D71B8"/>
<path d="M24.0002 30.4167C26.7186 30.4167 29.0286 28.7133 29.9619 26.3333H18.0386C18.9719 28.7133 21.2819 30.4167 24.0002 30.4167Z" fill="#094F8A"/>
<path d="M28.0835 22.8333C29.05 22.8333 29.8335 22.0498 29.8335 21.0833C29.8335 20.1168 29.05 19.3333 28.0835 19.3333C27.117 19.3333 26.3335 20.1168 26.3335 21.0833C26.3335 22.0498 27.117 22.8333 28.0835 22.8333Z" fill="#094F8A"/>
<path d="M23.987 11.1667C16.903 11.1667 11.1665 16.916 11.1665 24C11.1665 31.084 16.903 36.8333 23.987 36.8333C31.0838 36.8333 36.8332 31.084 36.8332 24C36.8332 16.916 31.0838 11.1667 23.987 11.1667ZM23.9998 34.2667C18.3275 34.2667 13.7332 29.6723 13.7332 24C13.7332 18.3277 18.3275 13.7333 23.9998 13.7333C29.6722 13.7333 34.2665 18.3277 34.2665 24C34.2665 29.6723 29.6722 34.2667 23.9998 34.2667Z" fill="#094F8A"/>
</g>
<defs>
<clipPath id="clip0_90_1119">
<rect width="28" height="28" fill="white" transform="translate(10 10)"/>
</clipPath>
</defs>
</svg>
