<svg width="48" height="48" viewBox="0 0 48 48" fill="none" xmlns="http://www.w3.org/2000/svg">
<rect x="0.25" y="0.25" width="47.5" height="47.5" rx="7.75" fill="#EEF5FB"/>
<rect x="0.25" y="0.25" width="47.5" height="47.5" rx="7.75" stroke="#BCDBF5" stroke-width="0.5"/>
<g clip-path="url(#clip0_90_1117)">
<path d="M31.7776 19.7222H30.5554V17.2778C30.5554 13.9044 27.8176 11.1667 24.4443 11.1667C21.0709 11.1667 18.3332 13.9044 18.3332 17.2778V19.7222H17.1109C15.7665 19.7222 14.6665 20.8222 14.6665 22.1667V34.3889C14.6665 35.7333 15.7665 36.8333 17.1109 36.8333H31.7776C33.1221 36.8333 34.2221 35.7333 34.2221 34.3889V22.1667C34.2221 20.8222 33.1221 19.7222 31.7776 19.7222ZM20.7776 17.2778C20.7776 15.2489 22.4154 13.6111 24.4443 13.6111C26.4732 13.6111 28.1109 15.2489 28.1109 17.2778V19.7222H20.7776V17.2778ZM31.7776 34.3889H17.1109V22.1667H31.7776V34.3889ZM24.4443 30.7222C25.7887 30.7222 26.8887 29.6222 26.8887 28.2778C26.8887 26.9333 25.7887 25.8333 24.4443 25.8333C23.0998 25.8333 21.9998 26.9333 21.9998 28.2778C21.9998 29.6222 23.0998 30.7222 24.4443 30.7222Z" fill="#094F8A"/>
</g>
<defs>
<clipPath id="clip0_90_1117">
<rect width="28" height="28" fill="white" transform="translate(10 10)"/>
</clipPath>
</defs>
</svg>
