<svg width="40" height="40" viewBox="0 0 40 40" fill="none" xmlns="http://www.w3.org/2000/svg">
    <path
        d="M20.9414 26.4614L20.9414 31.392C20.9414 31.7277 20.6693 31.9999 20.3336 31.9999V31.9999C19.9979 31.9999 19.7257 31.7277 19.7257 31.392L19.7257 26.4614L20.9414 26.4614Z"
        fill="#555399" />
    <path
        d="M11 8.5H29.6667C29.9428 8.5 30.1667 8.72386 30.1667 9V25.4615C30.1667 25.7377 29.9428 25.9615 29.6667 25.9615H11C10.7239 25.9615 10.5 25.7377 10.5 25.4615V9C10.5 8.72386 10.7239 8.5 11 8.5Z"
        stroke="#555399" />
    <path
        d="M25.1908 13.5893C25.1185 12.5087 24.1909 11.6924 23.1262 11.6924H17.5382C16.4735 11.6924 15.5459 12.5087 15.4737 13.5893C15.4708 13.6364 15.4695 13.6863 15.4695 13.7347V20.3937C15.4695 21.0191 15.8821 21.5462 16.4462 21.7092C16.4649 21.7151 16.4851 21.721 16.5053 21.7239V22.3363C16.5053 22.5755 16.697 22.7693 16.9323 22.7693H17.8744C18.1097 22.7693 18.3014 22.5755 18.3014 22.3363V21.7622H22.363V22.3363C22.363 22.5755 22.5547 22.7693 22.7901 22.7693H23.7321C23.9674 22.7693 24.1592 22.5755 24.1592 22.3363V21.7239C24.1794 21.721 24.1996 21.7151 24.2182 21.7092C24.7824 21.5462 25.195 21.0191 25.195 20.3937V13.7347C25.195 13.6863 25.1937 13.6364 25.1908 13.5893ZM17.1459 20.7548C15.9656 20.6989 16.2096 19.0794 17.6149 19.6346C18.3537 19.9296 18.7012 20.8283 17.1459 20.7548ZM23.5189 20.7548C21.9636 20.8283 22.3113 19.9296 23.0498 19.6346C24.4551 19.0794 24.6989 20.6992 23.5189 20.7548ZM24.3874 16.7845C24.3874 17.4318 23.9141 17.9811 23.2838 18.0634C22.3378 18.1848 21.3858 18.2471 20.4337 18.2503C20.3999 18.2503 20.3662 18.2503 20.3324 18.2503C20.2985 18.2503 20.2649 18.2503 20.231 18.2503C19.2789 18.2471 18.3269 18.1848 17.3809 18.0634C16.7503 17.9811 16.2773 17.4321 16.2773 16.7845V13.4426C16.2773 13.0868 17.3754 12.8995 20.3324 12.869C23.2893 12.8995 24.3874 13.0868 24.3874 13.4426V16.7845Z"
        fill="#555399" />
</svg>