<svg width="40" height="40" viewBox="0 0 40 40" fill="none" xmlns="http://www.w3.org/2000/svg">
<path d="M29.5471 12.7675C29.4019 10.6213 27.5367 9 25.3958 9H14.1597C12.0189 9 10.1537 10.6213 10.0084 12.7675C10.0026 12.861 10 12.9602 10 13.0563V26.2817C10 27.5239 10.8296 28.5708 11.964 28.8946C12.0014 28.9063 12.0421 28.918 12.0828 28.9238V30.14C12.0828 30.6151 12.4683 31 12.9414 31H14.8357C15.3088 31 15.6944 30.6151 15.6944 30.14V28.9997H23.8612V30.14C23.8612 30.6151 24.2467 31 24.7199 31H26.6141C27.0873 31 27.4728 30.6151 27.4728 30.14V28.9238C27.5134 28.918 27.5541 28.9063 27.5916 28.8946C28.7259 28.5708 29.5556 27.5239 29.5556 26.2817V13.0563C29.5556 12.9602 29.5529 12.861 29.5471 12.7675ZM13.3708 26.9989C10.9976 26.8879 11.4881 23.6714 14.3139 24.774C15.7994 25.3601 16.4981 27.1449 13.3708 26.9989ZM26.1853 26.9989C23.058 27.1449 23.7572 25.3601 25.2421 24.774C28.0679 23.6714 28.558 26.8885 26.1853 26.9989ZM27.9317 19.1135C27.9317 20.3992 26.9801 21.4901 25.7127 21.6536C23.8105 21.8946 21.8962 22.0183 19.9819 22.0247C19.9138 22.0247 19.8462 22.0247 19.778 22.0247C19.7099 22.0247 19.6423 22.0247 19.5742 22.0247C17.6599 22.0183 15.7456 21.8946 13.8434 21.6536C12.5755 21.4901 11.6244 20.3997 11.6244 19.1135V12.4761C11.6244 11.7695 13.8323 11.3974 19.778 11.3369C25.7238 11.3974 27.9317 11.7695 27.9317 12.4761V19.1135Z" fill="#282830"/>
</svg>
