<svg width="40" height="40" viewBox="0 0 40 40" fill="none" xmlns="http://www.w3.org/2000/svg">
<circle cx="20" cy="20" r="20" fill="#F3F3F7"/>
<path d="M19.7 9C15.443 9 12 12.443 12 16.7C12 22.475 19.7 31 19.7 31C19.7 31 27.4 22.475 27.4 16.7C27.4 12.443 23.957 9 19.7 9ZM14.2 16.7C14.2 13.664 16.664 11.2 19.7 11.2C22.736 11.2 25.2 13.664 25.2 16.7C25.2 19.868 22.032 24.609 19.7 27.568C17.412 24.631 14.2 19.835 14.2 16.7Z" fill="#A0A0AD"/>
<path d="M19.7 20C21.3568 20 22.7 18.6569 22.7 17C22.7 15.3431 21.3568 14 19.7 14C18.0431 14 16.7 15.3431 16.7 17C16.7 18.6569 18.0431 20 19.7 20Z" fill="#A0A0AD"/>
</svg>
