<svg width="24" height="24" viewBox="0 0 24 24" fill="none" xmlns="http://www.w3.org/2000/svg">
<path d="M16.95 2C15.036 2 13.199 2.87401 12 4.25515C10.801 2.87401 8.964 2 7.05 2C3.662 2 1 4.61123 1 7.9346C1 12.0133 4.74 15.3367 10.405 20.3865L12 21.8L13.595 20.3757C19.26 15.3367 23 12.0133 23 7.9346C23 4.61123 20.338 2 16.95 2ZM12.11 18.7787L12 18.8866L11.89 18.7787C6.654 14.1282 3.2 11.053 3.2 7.9346C3.2 5.77657 4.85 4.15804 7.05 4.15804C8.744 4.15804 10.394 5.22627 10.977 6.70452H13.034C13.606 5.22627 15.256 4.15804 16.95 4.15804C19.15 4.15804 20.8 5.77657 20.8 7.9346C20.8 11.053 17.346 14.1282 12.11 18.7787Z" fill="#282830"/>
</svg>
