<svg width="24" height="25" viewBox="0 0 24 25" fill="none" xmlns="http://www.w3.org/2000/svg">
<path d="M12 10.0909C10.3927 10.0909 9.09091 11.3927 9.09091 13C9.09091 14.6073 10.3927 15.9091 12 15.9091C13.6073 15.9091 14.9091 14.6073 14.9091 13C14.9091 11.3927 13.6073 10.0909 12 10.0909ZM18.5018 12.2727C18.3371 10.7979 17.6757 9.42294 16.6264 8.3736C15.5771 7.32425 14.2021 6.66292 12.7273 6.49818V5H11.2727V6.49818C9.79791 6.66292 8.42294 7.32425 7.3736 8.3736C6.32425 9.42294 5.66292 10.7979 5.49818 12.2727H4V13.7273H5.49818C5.66292 15.2021 6.32425 16.5771 7.3736 17.6264C8.42294 18.6757 9.79791 19.3371 11.2727 19.5018V21H12.7273V19.5018C14.2021 19.3371 15.5771 18.6757 16.6264 17.6264C17.6757 16.5771 18.3371 15.2021 18.5018 13.7273H20V12.2727H18.5018ZM12 18.0909C9.18545 18.0909 6.90909 15.8145 6.90909 13C6.90909 10.1855 9.18545 7.90909 12 7.90909C14.8145 7.90909 17.0909 10.1855 17.0909 13C17.0909 15.8145 14.8145 18.0909 12 18.0909Z" fill="#9FA5B8"/>
</svg>
