<svg width="24" height="25" viewBox="0 0 24 25" fill="none" xmlns="http://www.w3.org/2000/svg">
<path d="M8.40317 22.5826C8.09055 22.5848 7.78524 22.4881 7.53096 22.3062C7.27668 22.1243 7.08646 21.8667 6.98754 21.5701L1.49379 5.69825C1.40005 5.43154 1.3836 5.14377 1.44632 4.86812C1.50903 4.59246 1.64838 4.34014 1.84828 4.14024C2.04818 3.94034 2.3005 3.801 2.57615 3.73828C2.85181 3.67556 3.13958 3.69202 3.40629 3.78575L19.2782 9.2795C19.5786 9.38115 19.8387 9.57595 20.0208 9.8356C20.2029 10.0952 20.2974 10.4062 20.2907 10.7233C20.2877 11.0401 20.1833 11.3477 19.9926 11.6009C19.8019 11.854 19.5351 12.0393 19.2313 12.1295L12.05 14.342L9.83754 21.5233C9.74829 21.8268 9.56297 22.0933 9.30942 22.2826C9.05586 22.472 8.74773 22.5739 8.43129 22.5732L8.40317 22.5826ZM2.91879 5.20138L8.41254 21.0826L10.6157 13.9014C10.6883 13.6676 10.8167 13.4549 10.9898 13.2818C11.163 13.1087 11.3756 12.9802 11.6094 12.9076L18.7907 10.7045L2.91879 5.20138Z" fill="#A3A7B5"/>
</svg>
