<svg width="24" height="24" viewBox="0 0 24 24" fill="none" xmlns="http://www.w3.org/2000/svg">
<path d="M12 1C5.93625 1 1 5.93625 1 12C1 18.0637 5.93625 23 12 23C18.0637 23 23 18.0637 23 12C23 5.93625 18.0637 1 12 1ZM13.375 20.25H10.625V17.5H13.375V20.25ZM13.375 16.125H10.625C10.625 11.6562 14.75 12 14.75 9.25C14.75 7.7375 13.5125 6.5 12 6.5C10.4875 6.5 9.25 7.7375 9.25 9.25H6.5C6.5 6.21125 8.96125 3.75 12 3.75C15.0387 3.75 17.5 6.21125 17.5 9.25C17.5 12.6875 13.375 13.0312 13.375 16.125Z" fill="#282830"/>
</svg>
