<svg width="24" height="24" viewBox="0 0 24 24" fill="none" xmlns="http://www.w3.org/2000/svg">
<path d="M11.945 18.6C12.33 18.6 12.6556 18.4669 12.9218 18.2007C13.188 17.9345 13.3207 17.6093 13.32 17.225C13.32 16.84 13.1873 16.5144 12.9218 16.2482C12.6563 15.982 12.3307 15.8493 11.945 15.85C11.56 15.85 11.2348 15.9831 10.9693 16.2493C10.7038 16.5155 10.5707 16.8407 10.57 17.225C10.57 17.61 10.7031 17.9356 10.9693 18.2018C11.2355 18.468 11.5607 18.6007 11.945 18.6ZM10.955 14.365H12.99C12.99 13.76 13.0589 13.2833 13.1968 12.935C13.3347 12.5867 13.7241 12.11 14.365 11.505C14.8417 11.0283 15.2175 10.5744 15.4925 10.1432C15.7675 9.712 15.905 9.19427 15.905 8.59C15.905 7.56333 15.5292 6.775 14.7775 6.225C14.0258 5.675 13.1367 5.4 12.11 5.4C11.065 5.4 10.2173 5.675 9.5668 6.225C8.91633 6.775 8.4624 7.435 8.205 8.205L10.02 8.92C10.1117 8.59 10.3181 8.2325 10.6393 7.8475C10.9605 7.4625 11.4507 7.27 12.11 7.27C12.6967 7.27 13.1367 7.4306 13.43 7.7518C13.7233 8.073 13.87 8.42573 13.87 8.81C13.87 9.17667 13.76 9.5206 13.54 9.8418C13.32 10.163 13.045 10.4607 12.715 10.735C11.9083 11.45 11.4133 11.9908 11.23 12.3575C11.0467 12.7242 10.955 13.3933 10.955 14.365ZM12 23C10.4783 23 9.04833 22.7114 7.71 22.1343C6.37167 21.5572 5.2075 20.7732 4.2175 19.7825C3.2275 18.7925 2.44393 17.6283 1.8668 16.29C1.28967 14.9517 1.00073 13.5217 1 12C1 10.4783 1.28893 9.04833 1.8668 7.71C2.44467 6.37167 3.22823 5.2075 4.2175 4.2175C5.2075 3.2275 6.37167 2.44393 7.71 1.8668C9.04833 1.28967 10.4783 1.00073 12 1C13.5217 1 14.9517 1.28893 16.29 1.8668C17.6283 2.44467 18.7925 3.22823 19.7825 4.2175C20.7725 5.2075 21.5564 6.37167 22.1343 7.71C22.7122 9.04833 23.0007 10.4783 23 12C23 13.5217 22.7111 14.9517 22.1332 16.29C21.5553 17.6283 20.7718 18.7925 19.7825 19.7825C18.7925 20.7725 17.6283 21.5564 16.29 22.1343C14.9517 22.7122 13.5217 23.0007 12 23Z" fill="white"/>
</svg>
