<svg width="24" height="24" viewBox="0 0 24 24" fill="none" xmlns="http://www.w3.org/2000/svg">
<path d="M13.5714 3C8.36476 3 4.14286 7.22191 4.14286 12.4286H1L5.07524 16.5038L5.14857 16.6505L9.38095 12.4286H6.2381C6.2381 8.37429 9.51714 5.09524 13.5714 5.09524C17.6257 5.09524 20.9048 8.37429 20.9048 12.4286C20.9048 16.4829 17.6257 19.7619 13.5714 19.7619C11.5495 19.7619 9.71619 18.9343 8.39619 17.6038L6.90857 19.0914C8.61619 20.799 10.9629 21.8571 13.5714 21.8571C18.7781 21.8571 23 17.6352 23 12.4286C23 7.22191 18.7781 3 13.5714 3ZM12.5238 8.2381V13.4762L16.9762 16.1162L17.7829 14.7752L14.0952 12.5857V8.2381H12.5238Z" fill="#282830"/>
</svg>
