<svg width="390" height="437" viewBox="0 0 390 437" fill="none" xmlns="http://www.w3.org/2000/svg">
    <path d="M-37.626 144.411L39.0897 165.032L58.8248 113.913L-37.626 92.193V144.411Z" fill="#EBF8E2" />
    <path d="M81.9753 53.9453L31.5825 40.0364L-37.626 21.7556V81.7492L62.5331 104.306L81.9753 53.9453Z" fill="#EBF8E2" />
    <path d="M20.5249 226.525L-37.626 211.019V285.659L0.407738 294.513L20.5249 226.525Z" fill="#EBF8E2" />
    <path d="M-3.56169 -6.77656L-37.626 -31.1891V8.58413L29.438 26.2995L36.7796 7.94485L-2.83836 -6.25826L-3.56169 -6.77656Z" fill="#EBF8E2" />
    <path d="M284.169 423.49L296.798 427.201L361.967 448.502L377.538 393.608L294.166 368.294C290.922 386.209 287.531 404.929 284.169 423.49Z"
        fill="#EBF8E2" />
    <path d="M313.523 243.919L326.153 247.63L391.322 268.93L406.892 214.037L323.52 188.723C320.277 206.638 316.885 225.358 313.523 243.919Z"
        fill="#EBF8E2" />
    <path d="M397.544 327.041L309.628 292.59C306.33 310.817 302.298 333.098 297.967 357.029L381.816 382.489L397.544 327.041Z" fill="#EBF8E2" />
    <path d="M424.012 153.688L336.096 119.237C332.798 137.464 328.766 159.745 324.435 183.676L408.284 209.135L424.012 153.688Z" fill="#EBF8E2" />
    <path d="M313.563 102.204L317.735 47.9955L283.595 38.9207L264.208 88.5812L313.563 102.204Z" fill="#EBF8E2" />
    <path d="M326.585 104.733L322.413 50.525L356.552 41.4502L375.939 91.1108L326.585 104.733Z" fill="#EBF8E2" />
    <path d="M205.303 72.3228L224.478 23.2047L175.271 10.1235L156.271 58.7882L205.303 72.3228Z" fill="#EBF8E2" />
    <path d="M107.81 45.4116L151.336 57.4256L170.317 8.80546L126.443 -2.85706L107.81 45.4116Z" fill="#EBF8E2" />
    <path d="M259.269 87.2187L278.638 37.6039L229.431 24.5215L210.237 73.6854L259.269 87.2187Z" fill="#EBF8E2" />
    <path d="M105.171 -6.14772L60.844 -17.9325L41.8105 29.6498L86.581 42.0063L105.171 -6.14772Z" fill="#EBF8E2" />
    <path d="M170.919 251.08L180.777 213.913L106.264 193.885L97.5371 231.511L170.919 251.08Z" fill="#EBF8E2" />
    <path d="M47.4148 180.458L36.4336 217.587L83.7217 230.197L92.4514 192.562L47.4148 180.458Z" fill="#EBF8E2" />
    <path d="M35.1311 177.155L-35.5877 158.146L-42.6211 196.506L24.1372 214.309L35.1311 177.155Z" fill="#EBF8E2" />
    <path d="M80.8426 251.5L32.821 238.694L20.0684 281.81L70.2753 297.055L80.8426 251.5Z" fill="#EBF8E2" />
    <path d="M154.661 325.937L141.741 381.635L196.966 397.863L209.768 342.668L154.661 325.937Z" fill="#EBF8E2" />
    <path d="M91.7885 306.846L78.7354 363.119L136.847 380.196L149.776 324.453L91.7885 306.846Z" fill="#EBF8E2" />
    <path d="M150.927 317.257L162.001 269.513L103.545 253.924L92.9395 299.649L150.927 317.257Z" fill="#EBF8E2" />
    <path d="M18.6221 286.696L2.11914 342.495L56.0586 358.346L69.1219 302.029L18.6221 286.696Z" fill="#EBF8E2" />
    <path d="M210.921 335.471L234.031 235.84L201.963 227.22L188.848 276.671L166.927 270.825L155.813 318.74L210.921 335.471Z" fill="#EBF8E2" />
    <path d="M282.81 357.3C289.554 320.044 296.122 283.747 301.505 253.977L238.951 237.164L215.805 336.955L282.81 357.3Z" fill="#EBF8E2" />
    <path d="M201.86 399.302L271.881 419.879C275.171 401.718 278.551 383.057 281.898 364.569L214.652 344.151L201.86 399.302Z" fill="#EBF8E2" />
    <path d="M7.19824 357.26L37.6433 412.79L55.5675 418.796L68.3749 375.237L7.19824 357.26Z" fill="#EBF8E2" />
    <path d="M82.1519 376.674L69.291 420.415L161.442 451.288L173.114 403.404L82.1519 376.674Z" fill="#EBF8E2" />
</svg>