<svg width="36" height="36" viewBox="0 0 36 36" fill="none" xmlns="http://www.w3.org/2000/svg">
    <circle cx="18" cy="18" r="18" fill="#F76E68" />
    <path
        d="M12.343 11.293C12.436 11.3858 12.5097 11.4961 12.56 11.6174C12.6103 11.7388 12.6362 11.8689 12.6362 12.0003C12.6362 12.1316 12.6103 12.2617 12.56 12.3831C12.5097 12.5045 12.436 12.6147 12.343 12.7076C10.8429 14.2079 10.0001 16.2428 10.0001 18.3644C10.0001 20.4861 10.8429 22.5209 12.343 24.0213C12.4385 24.1135 12.5146 24.2238 12.567 24.3458C12.6194 24.4678 12.647 24.599 12.6482 24.7317C12.6493 24.8644 12.624 24.9961 12.5738 25.1189C12.5235 25.2418 12.4493 25.3534 12.3554 25.4473C12.2615 25.5412 12.1499 25.6154 12.027 25.6657C11.9042 25.7159 11.7725 25.7412 11.6398 25.7401C11.5071 25.7389 11.3759 25.7113 11.2539 25.6589C11.1319 25.6065 11.0216 25.5304 10.9294 25.4349C7.02353 21.53 7.02353 15.1978 10.9294 11.293C11.1169 11.1056 11.3711 11.0003 11.6362 11.0003C11.9013 11.0003 12.1555 11.1056 12.343 11.293ZM25.0713 11.293C28.9762 15.1988 28.9762 21.53 25.0713 25.4349C24.8839 25.6225 24.6296 25.7279 24.3644 25.728C24.0992 25.7281 23.8448 25.6229 23.6572 25.4354C23.4697 25.248 23.3642 24.9937 23.3641 24.7285C23.364 24.4633 23.4693 24.2089 23.6567 24.0213C25.1569 22.5209 25.9996 20.4861 25.9996 18.3644C25.9996 16.2428 25.1569 14.2079 23.6567 12.7076C23.4692 12.52 23.3638 12.2656 23.3638 12.0003C23.3638 11.735 23.4692 11.4806 23.6567 11.293C23.8443 11.1054 24.0988 11 24.364 11C24.6293 11 24.8838 11.1054 25.0713 11.293ZM15.3091 14.1661C15.4966 14.3536 15.6019 14.6079 15.6019 14.8729C15.6019 15.138 15.4966 15.3923 15.3091 15.5797C14.9452 15.9436 14.6565 16.3757 14.4595 16.8512C14.2626 17.3266 14.1612 17.8363 14.1612 18.3509C14.1612 18.8656 14.2626 19.3752 14.4595 19.8507C14.6565 20.3262 14.9452 20.7582 15.3091 21.1221C15.402 21.215 15.4756 21.3253 15.5258 21.4466C15.576 21.5679 15.6018 21.698 15.6018 21.8293C15.6017 21.9606 15.5758 22.0906 15.5255 22.2119C15.4752 22.3332 15.4015 22.4434 15.3086 22.5362C15.2158 22.6291 15.1055 22.7027 14.9842 22.7529C14.8628 22.8031 14.7328 22.8289 14.6015 22.8289C14.4702 22.8288 14.3402 22.8029 14.2189 22.7526C14.0976 22.7023 13.9874 22.6286 13.8946 22.5357C12.7847 21.4258 12.1612 19.9205 12.1612 18.3509C12.1612 16.7813 12.7847 15.276 13.8946 14.1661C13.9874 14.0732 14.0977 13.9995 14.219 13.9491C14.3404 13.8988 14.4705 13.8729 14.6019 13.8729C14.7332 13.8729 14.8633 13.8988 14.9847 13.9491C15.106 13.9995 15.2163 14.0732 15.3091 14.1661ZM22.2651 14.1661C23.375 15.276 23.9985 16.7813 23.9985 18.3509C23.9985 19.9205 23.375 21.4258 22.2651 22.5357C22.0766 22.7178 21.8241 22.8186 21.5619 22.8163C21.2998 22.8141 21.0491 22.7089 20.8637 22.5236C20.6784 22.3382 20.5732 22.0875 20.571 21.8253C20.5687 21.5632 20.6694 21.3107 20.8516 21.1221C21.2155 20.7582 21.5042 20.3262 21.7012 19.8507C21.8981 19.3752 21.9995 18.8656 21.9995 18.3509C21.9995 17.8363 21.8981 17.3266 21.7012 16.8512C21.5042 16.3757 21.2155 15.9436 20.8516 15.5797C20.6694 15.3912 20.5687 15.1387 20.571 14.8765C20.5732 14.6144 20.6784 14.3637 20.8637 14.1783C21.0491 13.993 21.2998 13.8878 21.5619 13.8856C21.8241 13.8833 22.0766 13.984 22.2651 14.1661ZM18.0804 16.9353C18.4781 16.9353 18.8595 17.0933 19.1407 17.3746C19.4219 17.6558 19.5799 18.0372 19.5799 18.4349C19.5799 18.8326 19.4219 19.2141 19.1407 19.4953C18.8595 19.7765 18.4781 19.9345 18.0804 19.9345C17.6826 19.9345 17.3012 19.7765 17.02 19.4953C16.7388 19.2141 16.5808 18.8326 16.5808 18.4349C16.5808 18.0372 16.7388 17.6558 17.02 17.3746C17.3012 17.0933 17.6826 16.9353 18.0804 16.9353Z"
        fill="white" />
</svg>