<svg width="94" height="49" viewBox="0 0 94 49" fill="none" xmlns="http://www.w3.org/2000/svg">
    <g clip-path="url(#clip0_5018_2825)">
        <path
            d="M46.75 9L35.75 18.9H39.05V27.7H45.65V21.1H47.85V27.7H54.45V18.9H57.75L46.75 9ZM52.25 25.5H50.05V18.9H43.45V25.5H41.25V16.909L46.75 11.959L52.25 16.909V25.5Z"
            fill="#676B64" />
    </g>
    <path
        d="M34.512 45H33.348V36.402H34.512V45ZM37.3735 39.804C37.5055 39.656 37.6455 39.522 37.7935 39.402C37.9415 39.282 38.0975 39.18 38.2615 39.096C38.4295 39.008 38.6055 38.942 38.7895 38.898C38.9775 38.85 39.1795 38.826 39.3955 38.826C39.7275 38.826 40.0195 38.882 40.2715 38.994C40.5275 39.102 40.7395 39.258 40.9075 39.462C41.0795 39.662 41.2095 39.904 41.2975 40.188C41.3855 40.472 41.4295 40.786 41.4295 41.13V45H40.3555V41.13C40.3555 40.67 40.2495 40.314 40.0375 40.062C39.8295 39.806 39.5115 39.678 39.0835 39.678C38.7675 39.678 38.4715 39.754 38.1955 39.906C37.9235 40.058 37.6715 40.264 37.4395 40.524V45H36.3655V38.922H37.0075C37.1595 38.922 37.2535 38.996 37.2895 39.144L37.3735 39.804ZM44.1909 38.922V45H43.1169V38.922H44.1909ZM45.4269 36.306L44.0289 37.854C43.9729 37.914 43.9169 37.958 43.8609 37.986C43.8089 38.01 43.7409 38.022 43.6569 38.022H43.0209L43.9089 36.57C43.9649 36.478 44.0249 36.412 44.0889 36.372C44.1569 36.328 44.2549 36.306 44.3829 36.306H45.4269ZM50.1698 40.002C50.1378 40.046 50.1058 40.08 50.0738 40.104C50.0418 40.128 49.9978 40.14 49.9418 40.14C49.8818 40.14 49.8158 40.116 49.7438 40.068C49.6718 40.016 49.5818 39.96 49.4738 39.9C49.3698 39.84 49.2398 39.786 49.0838 39.738C48.9318 39.686 48.7438 39.66 48.5198 39.66C48.2198 39.66 47.9558 39.714 47.7278 39.822C47.4998 39.926 47.3078 40.078 47.1518 40.278C46.9998 40.478 46.8838 40.72 46.8038 41.004C46.7278 41.288 46.6898 41.606 46.6898 41.958C46.6898 42.326 46.7318 42.654 46.8158 42.942C46.8998 43.226 47.0178 43.466 47.1698 43.662C47.3258 43.854 47.5118 44.002 47.7278 44.106C47.9478 44.206 48.1938 44.256 48.4658 44.256C48.7258 44.256 48.9398 44.226 49.1078 44.166C49.2758 44.102 49.4138 44.032 49.5218 43.956C49.6338 43.88 49.7258 43.812 49.7978 43.752C49.8738 43.688 49.9478 43.656 50.0198 43.656C50.1078 43.656 50.1758 43.69 50.2238 43.758L50.5238 44.148C50.3918 44.312 50.2418 44.452 50.0738 44.568C49.9058 44.684 49.7238 44.782 49.5278 44.862C49.3358 44.938 49.1338 44.994 48.9218 45.03C48.7098 45.066 48.4938 45.084 48.2738 45.084C47.8938 45.084 47.5398 45.014 47.2118 44.874C46.8878 44.734 46.6058 44.532 46.3658 44.268C46.1258 44 45.9378 43.672 45.8018 43.284C45.6658 42.896 45.5978 42.454 45.5978 41.958C45.5978 41.506 45.6598 41.088 45.7838 40.704C45.9118 40.32 46.0958 39.99 46.3358 39.714C46.5798 39.434 46.8778 39.216 47.2298 39.06C47.5858 38.904 47.9938 38.826 48.4538 38.826C48.8818 38.826 49.2578 38.896 49.5818 39.036C49.9098 39.172 50.1998 39.366 50.4518 39.618L50.1698 40.002ZM52.7982 38.922V45H51.7302V38.922H52.7982ZM53.0262 37.014C53.0262 37.118 53.0042 37.216 52.9602 37.308C52.9202 37.396 52.8642 37.476 52.7922 37.548C52.7242 37.616 52.6422 37.67 52.5462 37.71C52.4542 37.75 52.3562 37.77 52.2522 37.77C52.1482 37.77 52.0502 37.75 51.9582 37.71C51.8702 37.67 51.7922 37.616 51.7242 37.548C51.6562 37.476 51.6022 37.396 51.5622 37.308C51.5222 37.216 51.5022 37.118 51.5022 37.014C51.5022 36.91 51.5222 36.812 51.5622 36.72C51.6022 36.624 51.6562 36.542 51.7242 36.474C51.7922 36.402 51.8702 36.346 51.9582 36.306C52.0502 36.266 52.1482 36.246 52.2522 36.246C52.3562 36.246 52.4542 36.266 52.5462 36.306C52.6422 36.346 52.7242 36.402 52.7922 36.474C52.8642 36.542 52.9202 36.624 52.9602 36.72C53.0042 36.812 53.0262 36.91 53.0262 37.014ZM57.115 38.826C57.559 38.826 57.959 38.9 58.315 39.048C58.671 39.196 58.975 39.406 59.227 39.678C59.479 39.95 59.671 40.28 59.803 40.668C59.939 41.052 60.007 41.482 60.007 41.958C60.007 42.438 59.939 42.87 59.803 43.254C59.671 43.638 59.479 43.966 59.227 44.238C58.975 44.51 58.671 44.72 58.315 44.868C57.959 45.012 57.559 45.084 57.115 45.084C56.667 45.084 56.263 45.012 55.903 44.868C55.547 44.72 55.243 44.51 54.991 44.238C54.739 43.966 54.545 43.638 54.409 43.254C54.277 42.87 54.211 42.438 54.211 41.958C54.211 41.482 54.277 41.052 54.409 40.668C54.545 40.28 54.739 39.95 54.991 39.678C55.243 39.406 55.547 39.196 55.903 39.048C56.263 38.9 56.667 38.826 57.115 38.826ZM57.115 44.25C57.715 44.25 58.163 44.05 58.459 43.65C58.755 43.246 58.903 42.684 58.903 41.964C58.903 41.24 58.755 40.676 58.459 40.272C58.163 39.868 57.715 39.666 57.115 39.666C56.811 39.666 56.545 39.718 56.317 39.822C56.093 39.926 55.905 40.076 55.753 40.272C55.605 40.468 55.493 40.71 55.417 40.998C55.345 41.282 55.309 41.604 55.309 41.964C55.309 42.684 55.457 43.246 55.753 43.65C56.053 44.05 56.507 44.25 57.115 44.25Z"
        fill="#676B64" />
    <defs>
        <clipPath id="clip0_5018_2825">
            <rect width="24" height="24" fill="white" transform="translate(34.75 6)" />
        </clipPath>
    </defs>
</svg>