<svg width="94" height="49" viewBox="0 0 94 49" fill="none" xmlns="http://www.w3.org/2000/svg">
    <g clip-path="url(#clip0_5018_670)">
        <path
            d="M46.75 9L35.75 18.9H39.05V27.7H45.65V21.1H47.85V27.7H54.45V18.9H57.75L46.75 9ZM52.25 25.5H50.05V18.9H43.45V25.5H41.25V16.909L46.75 11.959L52.25 16.909V25.5Z"
            fill="#75B947" />
    </g>
    <path
        d="M34.336 45H32.716V36.324H34.336V45ZM37.3368 39.6C37.4608 39.476 37.5908 39.362 37.7268 39.258C37.8668 39.15 38.0128 39.06 38.1648 38.988C38.3208 38.912 38.4868 38.854 38.6628 38.814C38.8388 38.77 39.0308 38.748 39.2388 38.748C39.5748 38.748 39.8728 38.806 40.1328 38.922C40.3928 39.034 40.6088 39.194 40.7808 39.402C40.9568 39.606 41.0888 39.852 41.1768 40.14C41.2688 40.424 41.3148 40.738 41.3148 41.082V45H39.8328V41.082C39.8328 40.706 39.7468 40.416 39.5748 40.212C39.4028 40.004 39.1408 39.9 38.7888 39.9C38.5328 39.9 38.2928 39.958 38.0688 40.074C37.8448 40.19 37.6328 40.348 37.4328 40.548V45H35.9508V38.844H36.8568C37.0488 38.844 37.1748 38.934 37.2348 39.114L37.3368 39.6ZM44.2602 38.844V45H42.7782V38.844H44.2602ZM45.6402 36.228L44.1582 37.794C44.0822 37.874 44.0082 37.93 43.9362 37.962C43.8682 37.99 43.7782 38.004 43.6662 38.004H42.7782L43.6302 36.546C43.6902 36.442 43.7602 36.364 43.8402 36.312C43.9202 36.256 44.0402 36.228 44.2002 36.228H45.6402ZM50.1928 40.146C50.1488 40.202 50.1048 40.246 50.0608 40.278C50.0208 40.31 49.9608 40.326 49.8808 40.326C49.8048 40.326 49.7308 40.304 49.6588 40.26C49.5868 40.212 49.5008 40.16 49.4008 40.104C49.3008 40.044 49.1808 39.992 49.0408 39.948C48.9048 39.9 48.7348 39.876 48.5308 39.876C48.2708 39.876 48.0428 39.924 47.8468 40.02C47.6508 40.112 47.4868 40.246 47.3548 40.422C47.2268 40.598 47.1308 40.812 47.0668 41.064C47.0028 41.312 46.9708 41.594 46.9708 41.91C46.9708 42.238 47.0048 42.53 47.0728 42.786C47.1448 43.042 47.2468 43.258 47.3788 43.434C47.5108 43.606 47.6708 43.738 47.8588 43.83C48.0468 43.918 48.2588 43.962 48.4948 43.962C48.7308 43.962 48.9208 43.934 49.0648 43.878C49.2128 43.818 49.3368 43.754 49.4368 43.686C49.5368 43.614 49.6228 43.55 49.6948 43.494C49.7708 43.434 49.8548 43.404 49.9468 43.404C50.0668 43.404 50.1568 43.45 50.2168 43.542L50.6428 44.082C50.4788 44.274 50.3008 44.436 50.1088 44.568C49.9168 44.696 49.7168 44.8 49.5088 44.88C49.3048 44.956 49.0928 45.01 48.8728 45.042C48.6568 45.074 48.4408 45.09 48.2248 45.09C47.8448 45.09 47.4868 45.02 47.1508 44.88C46.8148 44.736 46.5208 44.528 46.2688 44.256C46.0168 43.984 45.8168 43.652 45.6688 43.26C45.5248 42.864 45.4528 42.414 45.4528 41.91C45.4528 41.458 45.5168 41.04 45.6448 40.656C45.7768 40.268 45.9688 39.934 46.2208 39.654C46.4728 39.37 46.7848 39.148 47.1568 38.988C47.5288 38.828 47.9568 38.748 48.4408 38.748C48.9008 38.748 49.3028 38.822 49.6468 38.97C49.9948 39.118 50.3068 39.33 50.5828 39.606L50.1928 40.146ZM53.1078 38.844V45H51.6198V38.844H53.1078ZM53.3118 37.05C53.3118 37.178 53.2858 37.298 53.2338 37.41C53.1818 37.522 53.1118 37.62 53.0238 37.704C52.9398 37.788 52.8398 37.856 52.7238 37.908C52.6078 37.956 52.4838 37.98 52.3518 37.98C52.2238 37.98 52.1018 37.956 51.9858 37.908C51.8738 37.856 51.7758 37.788 51.6918 37.704C51.6078 37.62 51.5398 37.522 51.4878 37.41C51.4398 37.298 51.4158 37.178 51.4158 37.05C51.4158 36.918 51.4398 36.794 51.4878 36.678C51.5398 36.562 51.6078 36.462 51.6918 36.378C51.7758 36.294 51.8738 36.228 51.9858 36.18C52.1018 36.128 52.2238 36.102 52.3518 36.102C52.4838 36.102 52.6078 36.128 52.7238 36.18C52.8398 36.228 52.9398 36.294 53.0238 36.378C53.1118 36.462 53.1818 36.562 53.2338 36.678C53.2858 36.794 53.3118 36.918 53.3118 37.05ZM57.3427 38.748C57.7987 38.748 58.2127 38.822 58.5847 38.97C58.9607 39.118 59.2807 39.328 59.5447 39.6C59.8127 39.872 60.0187 40.204 60.1627 40.596C60.3067 40.988 60.3787 41.426 60.3787 41.91C60.3787 42.398 60.3067 42.838 60.1627 43.23C60.0187 43.622 59.8127 43.956 59.5447 44.232C59.2807 44.508 58.9607 44.72 58.5847 44.868C58.2127 45.016 57.7987 45.09 57.3427 45.09C56.8827 45.09 56.4647 45.016 56.0887 44.868C55.7127 44.72 55.3907 44.508 55.1227 44.232C54.8587 43.956 54.6527 43.622 54.5047 43.23C54.3607 42.838 54.2887 42.398 54.2887 41.91C54.2887 41.426 54.3607 40.988 54.5047 40.596C54.6527 40.204 54.8587 39.872 55.1227 39.6C55.3907 39.328 55.7127 39.118 56.0887 38.97C56.4647 38.822 56.8827 38.748 57.3427 38.748ZM57.3427 43.95C57.8547 43.95 58.2327 43.778 58.4767 43.434C58.7247 43.09 58.8487 42.586 58.8487 41.922C58.8487 41.258 58.7247 40.752 58.4767 40.404C58.2327 40.056 57.8547 39.882 57.3427 39.882C56.8227 39.882 56.4367 40.058 56.1847 40.41C55.9367 40.758 55.8127 41.262 55.8127 41.922C55.8127 42.582 55.9367 43.086 56.1847 43.434C56.4367 43.778 56.8227 43.95 57.3427 43.95Z"
        fill="#75B947" />
    <rect x="21" width="52" height="2" fill="#75B947" />
    <defs>
        <clipPath id="clip0_5018_670">
            <rect width="24" height="24" fill="white" transform="translate(34.75 6)" />
        </clipPath>
    </defs>
</svg>