<svg width="34" height="55" viewBox="0 0 34 55" fill="none" xmlns="http://www.w3.org/2000/svg">
<g clip-path="url(#clip0_403_11309)">
<path d="M15.5211 44.3195L2.69786 51.2353C0.990493 49.9572 0 48.4355 0 46.8019C0 44.755 1.55556 42.8833 4.12745 41.4468C6.30273 40.2317 9.20559 39.328 12.5095 38.8928L15.5211 44.3198V44.3195Z" fill="#EBF8E2"/>
<path d="M21.3011 54.7353C19.9271 54.908 18.4856 55 16.9999 55C12.0432 55 7.58186 53.977 4.47461 52.3449L16.4042 45.9109L21.3011 54.7353Z" fill="#EBF8E2"/>
<path d="M32.2638 43.1879L20.5092 49.5273L14.4961 38.6921C15.3134 38.6336 16.1494 38.6037 17.0003 38.6037C22.5564 38.6037 27.4902 39.8891 30.5924 41.877C31.2305 42.2859 31.7911 42.7246 32.2638 43.1879Z" fill="#EBF8E2"/>
<path d="M34.0004 46.8019C34.0004 48.2381 33.2348 49.5876 31.8896 50.7614C29.9871 52.4217 26.9256 53.7296 23.2313 54.4322L21.3926 51.1187L33.4036 44.6411C33.7928 45.3296 34.0004 46.0542 34.0004 46.8019Z" fill="#EBF8E2"/>
<path d="M32.5522 15.3309C32.5522 27.2183 21.7938 37.5464 18.1731 40.6856C17.5026 41.267 16.4979 41.267 15.8273 40.6856C12.2067 37.5464 1.44824 27.2183 1.44824 15.3309C1.44824 6.86387 8.41111 0 17.0002 0C25.5894 0 32.5522 6.86387 32.5522 15.3309Z" fill="#A6DF81"/>
<path d="M17.0003 26.6542C23.3442 26.6542 28.4869 21.5846 28.4869 15.3309C28.4869 9.07719 23.3442 4.00757 17.0003 4.00757C10.6564 4.00757 5.51367 9.07719 5.51367 15.3309C5.51367 21.5846 10.6564 26.6542 17.0003 26.6542Z" fill="white"/>
<path d="M17 22.4364C20.9808 22.4364 24.2079 19.2551 24.2079 15.3309C24.2079 11.4066 20.9808 8.2254 17 8.2254C13.0191 8.2254 9.79199 11.4066 9.79199 15.3309C9.79199 19.2551 13.0191 22.4364 17 22.4364Z" fill="#A6DF81"/>
</g>
<defs>
<clipPath id="clip0_403_11309">
<rect width="34" height="55" fill="white"/>
</clipPath>
</defs>
</svg>
