<svg width="36" height="36" viewBox="0 0 36 36" fill="none" xmlns="http://www.w3.org/2000/svg">
    <circle cx="18" cy="18" r="18" fill="#13D485" />
    <path
        d="M12.72 22.64C12.9746 22.5657 13.2483 22.5957 13.4808 22.7232C13.7134 22.8507 13.8857 23.0654 13.96 23.32C14.0343 23.5746 14.0043 23.8483 13.8768 24.0808C13.7493 24.3134 13.5346 24.4857 13.28 24.56C12.78 24.706 12.42 24.86 12.189 25C12.427 25.143 12.803 25.303 13.325 25.452C14.48 25.782 16.133 26 18 26C19.867 26 21.52 25.782 22.675 25.452C23.198 25.303 23.573 25.143 23.811 25C23.581 24.86 23.221 24.706 22.721 24.56C22.4704 24.4825 22.2603 24.3096 22.136 24.0786C22.0117 23.8476 21.9831 23.577 22.0564 23.3251C22.1298 23.0733 22.2991 22.8603 22.528 22.7321C22.7569 22.604 23.0269 22.5709 23.28 22.64C23.948 22.835 24.56 23.085 25.03 23.406C25.465 23.705 26 24.226 26 25C26 25.783 25.452 26.308 25.01 26.607C24.532 26.929 23.907 27.18 23.224 27.375C21.846 27.77 20 28 18 28C16 28 14.154 27.77 12.776 27.375C12.093 27.18 11.468 26.929 10.99 26.607C10.548 26.307 10 25.783 10 25C10 24.226 10.535 23.705 10.97 23.406C11.44 23.085 12.052 22.835 12.72 22.64ZM18 8C19.9891 8 21.8968 8.79018 23.3033 10.1967C24.7098 11.6032 25.5 13.5109 25.5 15.5C25.5 18.068 24.1 20.156 22.65 21.64C22.0736 22.2239 21.4542 22.7638 20.797 23.255C20.203 23.701 18.845 24.537 18.845 24.537C18.5874 24.6834 18.2963 24.7604 18 24.7604C17.7037 24.7604 17.4126 24.6834 17.155 24.537C16.4808 24.1467 15.8291 23.7187 15.203 23.255C14.5455 22.7641 13.9261 22.2242 13.35 21.64C11.9 20.156 10.5 18.068 10.5 15.5C10.5 13.5109 11.2902 11.6032 12.6967 10.1967C14.1032 8.79018 16.0109 8 18 8ZM18 13.5C17.4696 13.5 16.9609 13.7107 16.5858 14.0858C16.2107 14.4609 16 14.9696 16 15.5C16 16.0304 16.2107 16.5391 16.5858 16.9142C16.9609 17.2893 17.4696 17.5 18 17.5C18.5304 17.5 19.0391 17.2893 19.4142 16.9142C19.7893 16.5391 20 16.0304 20 15.5C20 14.9696 19.7893 14.4609 19.4142 14.0858C19.0391 13.7107 18.5304 13.5 18 13.5Z"
        fill="white" />
</svg>