<svg width="36" height="36" viewBox="0 0 36 36" fill="none" xmlns="http://www.w3.org/2000/svg">
    <circle cx="18" cy="18" r="18" fill="#7675D3" />
    <path
        d="M18 8C20.6522 8 23.1957 9.05357 25.0711 10.9289C26.9464 12.8043 28 15.3478 28 18C28 20.6522 26.9464 23.1957 25.0711 25.0711C23.1957 26.9464 20.6522 28 18 28C15.3478 28 12.8043 26.9464 10.9289 25.0711C9.05357 23.1957 8 20.6522 8 18C8 15.3478 9.05357 12.8043 10.9289 10.9289C12.8043 9.05357 15.3478 8 18 8ZM17.0625 12.6875V18C17.0625 18.3125 17.2188 18.6055 17.4805 18.7812L21.2305 21.2812C21.6602 21.5703 22.2422 21.4531 22.5312 21.0195C22.8203 20.5859 22.7031 20.0078 22.2695 19.7188L18.9375 17.5V12.6875C18.9375 12.168 18.5195 11.75 18 11.75C17.4805 11.75 17.0625 12.168 17.0625 12.6875Z"
        fill="white" />
</svg>