<svg width="36" height="36" viewBox="0 0 36 36" fill="none" xmlns="http://www.w3.org/2000/svg">
    <circle cx="18" cy="18" r="18" fill="#3358CC" />
    <path d="M11.6411 20.1511C10.7673 20.1091 10.9479 18.8907 11.9883 19.3084C12.5352 19.5303 12.7925 20.2064 11.6411 20.1511Z" fill="white" />
    <path d="M16.3591 20.1511C15.2077 20.2064 15.4651 19.5303 16.0119 19.3084C17.0523 18.8907 17.2327 20.1093 16.3591 20.1511Z" fill="white" />
    <path
        d="M16.1851 18.1264C16.6518 18.0644 17.0021 17.6512 17.0021 17.1642V14.65C17.0021 14.3824 16.1892 14.2414 14.0001 14.2185C11.811 14.2414 10.9981 14.3824 10.9981 14.65V17.1642C10.9981 17.6514 11.3482 18.0644 11.8151 18.1264C12.5154 18.2177 13.2202 18.2645 13.925 18.2669H14.0751C14.78 18.2645 15.4848 18.2177 16.1851 18.1264Z"
        fill="white" />
    <path fill-rule="evenodd" clip-rule="evenodd"
        d="M9.6 10C8.71634 10 8 10.7462 8 11.6667V23.3333C8 24.2538 8.71634 25 9.6 25H26.4C27.2837 25 28 24.2538 28 23.3333V11.6667C28 10.7462 27.2837 10 26.4 10H9.6ZM16.0685 13.3333C16.8567 13.3333 17.5434 13.9474 17.5969 14.7604C17.599 14.7958 17.6 14.8334 17.6 14.8698V19.8794C17.6 20.35 17.2945 20.7465 16.8769 20.8692C16.8631 20.8736 16.8481 20.878 16.8332 20.8802V21.3409C16.8332 21.5209 16.6912 21.6667 16.517 21.6667H15.8196C15.6454 21.6667 15.5034 21.5209 15.5034 21.3409V20.909H12.4966V21.3409C12.4966 21.5209 12.3546 21.6667 12.1804 21.6667H11.483C11.3088 21.6667 11.1668 21.5209 11.1668 21.3409V20.8802C11.1519 20.878 11.1369 20.8736 11.1231 20.8692C10.7055 20.7465 10.4 20.35 10.4 19.8794V14.8698C10.4 14.8334 10.401 14.7958 10.4031 14.7604C10.4566 13.9474 11.1433 13.3333 11.9315 13.3333H16.0685ZM20 15H25.6V16.6667H20V15ZM25.6 18.3333H22.4V20H25.6V18.3333Z"
        fill="white" />
</svg>