<svg width="24" height="25" viewBox="0 0 24 25" fill="none" xmlns="http://www.w3.org/2000/svg">
<path d="M3.35977 12.495V19.652H6.38968L6.54268 19.67C9.3556 20.326 11.2195 20.799 12.1485 21.092C13.3825 21.481 13.8425 21.576 14.6794 21.632C15.3054 21.675 16.0164 21.434 16.3404 21.104C16.5194 20.922 16.6534 20.548 16.7064 19.968C16.7174 19.8464 16.7608 19.73 16.8323 19.6309C16.9037 19.5319 17.0004 19.4539 17.1124 19.405C17.3614 19.297 17.5684 19.121 17.7414 18.865C17.9014 18.631 18.0054 18.195 18.0244 17.564C18.0277 17.448 18.0606 17.3348 18.1199 17.2351C18.1792 17.1353 18.263 17.0524 18.3633 16.994C18.9453 16.657 19.2333 16.277 19.2933 15.831C19.3593 15.338 19.1993 14.783 18.7803 14.151C18.682 14.0028 18.6454 13.8221 18.6783 13.6473C18.7111 13.4725 18.8109 13.3174 18.9563 13.215C19.3573 12.933 19.5773 12.541 19.6323 11.985C19.7203 11.099 19.1553 10.444 17.8764 10.313C16.7373 10.2004 15.5872 10.2963 14.4825 10.596C14.3571 10.6288 14.2251 10.6251 14.1018 10.5853C13.9785 10.5455 13.8692 10.4714 13.7866 10.3716C13.7041 10.2718 13.6517 10.1505 13.6357 10.022C13.6198 9.89342 13.6408 9.763 13.6965 9.64603C14.1965 8.58803 14.4745 7.71503 14.5395 7.03902C14.6244 6.14202 14.4175 5.49202 13.9335 4.95602C13.5665 4.55002 12.9795 4.31802 12.7595 4.36602C12.4695 4.42802 12.2805 4.59602 12.0345 5.18402C11.8895 5.53202 11.8195 5.82802 11.6995 6.51902C11.5845 7.17502 11.5215 7.47102 11.3905 7.85903C10.9956 9.03503 10.0266 10.254 8.72562 11.095C7.81384 11.6837 6.82567 12.1447 5.7887 12.465C5.72392 12.485 5.6565 12.4951 5.5887 12.495H3.35977ZM3.31777 21.015C2.99478 21.024 2.70479 20.952 2.46179 20.782C2.1518 20.565 2.00581 20.223 2.00281 19.829L2.00581 12.506C1.97181 12.116 2.0868 11.758 2.3588 11.492C2.61379 11.242 2.94678 11.124 3.29877 11.132H5.48371C6.36754 10.8504 7.21018 10.4529 7.98964 9.95003C9.03761 9.27203 9.80959 8.30003 10.1046 7.42402C10.2056 7.12202 10.2596 6.87202 10.3616 6.28402C10.4996 5.49502 10.5856 5.12802 10.7836 4.65602C11.1935 3.67402 11.7315 3.19402 12.4735 3.03302C13.2035 2.87502 14.2665 3.29602 14.9384 4.04002C15.6834 4.86402 16.0124 5.89502 15.8904 7.16902C15.8384 7.71703 15.6864 8.33003 15.4364 9.01303C16.2902 8.8886 17.156 8.86979 18.0144 8.95703C20.0213 9.16203 21.1483 10.469 20.9843 12.121C20.9123 12.833 20.6543 13.438 20.2153 13.913C20.5843 14.624 20.7313 15.327 20.6393 16.013C20.5333 16.803 20.0933 17.461 19.3613 17.972C19.3043 18.665 19.1453 19.218 18.8633 19.632C18.6411 19.9665 18.3512 20.2506 18.0124 20.466C17.9044 21.15 17.6774 21.685 17.3064 22.061C16.6914 22.687 15.5924 23.06 14.5884 22.992C13.6355 22.928 13.0715 22.812 11.7415 22.392C10.8646 22.115 9.04861 21.655 6.31168 21.015H3.31777ZM5.01872 12.184C5.01846 12.0946 5.03585 12.0059 5.06991 11.9232C5.10396 11.8405 5.15401 11.7653 5.21717 11.7019C5.28034 11.6385 5.35539 11.5883 5.43802 11.554C5.52065 11.5197 5.60924 11.502 5.6987 11.502C5.788 11.5023 5.87637 11.5201 5.95877 11.5546C6.04117 11.589 6.11598 11.6393 6.17894 11.7026C6.24189 11.7659 6.29176 11.8411 6.32569 11.9237C6.35962 12.0063 6.37695 12.0947 6.37668 12.184V19.862C6.37681 19.9513 6.35936 20.0398 6.3253 20.1223C6.29125 20.2049 6.24128 20.2799 6.17823 20.3432C6.11518 20.4064 6.04029 20.4566 5.95784 20.4909C5.87539 20.5252 5.787 20.5429 5.6977 20.543C5.60841 20.5429 5.52001 20.5252 5.43756 20.4909C5.35511 20.4566 5.28022 20.4064 5.21718 20.3432C5.15413 20.2799 5.10415 20.2049 5.0701 20.1223C5.03605 20.0398 5.01859 19.9513 5.01872 19.862V12.184Z" fill="#9FA5B8"/>
</svg>
