<svg width="24" height="24" viewBox="0 0 24 24" fill="none" xmlns="http://www.w3.org/2000/svg">
<path d="M13.2222 4.74V1H10.7778V4.74C5.27778 5.35111 1 10.0078 1 15.6544C1 17.0111 2.1 18.1111 3.45667 18.1111H7.11111C7.11111 20.8122 9.29889 23 12 23C14.7011 23 16.8889 20.8122 16.8889 18.1111H20.5433C21.9 18.1111 23 17.0111 23 15.6544C23 10.0078 18.7222 5.35111 13.2222 4.74ZM12 20.5556C10.6556 20.5556 9.55556 19.4556 9.55556 18.1111H12H14.4444C14.4444 19.4556 13.3444 20.5556 12 20.5556ZM12 15.6667H3.44444C3.44444 10.9489 7.28222 7.11111 12 7.11111C16.7178 7.11111 20.5556 10.9489 20.5556 15.6667H12Z" fill="#282830"/>
</svg>
