<svg width="24" height="91" viewBox="0 0 24 91" fill="none" xmlns="http://www.w3.org/2000/svg">
<path d="M12 91C12 49.2286 12 43.4 12 23" stroke="#FDB100" stroke-width="2"/>
<circle cx="12" cy="12" r="12" fill="#FDB100"/>
<path d="M12.4497 7.39519C13.2 7.39519 13.814 6.78123 13.814 6.03084C13.814 5.28046 13.2 4.6665 12.4497 4.6665C11.6993 4.6665 11.0853 5.28046 11.0853 6.03084C11.0853 6.78123 11.6993 7.39519 12.4497 7.39519ZM9.92562 9.71457L8.01554 19.3332H9.4481L10.676 13.8758L12.1086 15.2401V19.3332H13.4729V14.2169L12.0404 12.8526L12.4497 10.806C13.3365 11.8293 14.7008 12.5115 16.2016 12.5115V11.1471C14.9055 11.1471 13.814 10.465 13.2683 9.50991L12.5861 8.41844C12.2041 7.81131 11.44 7.56573 10.7783 7.84542L7.33337 9.30526V12.5115H8.69772V10.1921L9.92562 9.71457Z" fill="white"/>
</svg>
