<svg width="16" height="107" viewBox="0 0 16 107" fill="none" xmlns="http://www.w3.org/2000/svg">
<path d="M8 107C8 52.3285 8 44.7 8 18" stroke="#282830" stroke-width="2" stroke-dasharray="3 3"/>
<g clip-path="url(#clip0_214_10)">
<path d="M13.96 7.33317C13.6533 4.55317 11.4466 2.3465 8.66663 2.03984V0.666504H7.33329V2.03984C4.55329 2.3465 2.34663 4.55317 2.03996 7.33317H0.666626V8.6665H2.03996C2.34663 11.4465 4.55329 13.6532 7.33329 13.9598V15.3332H8.66663V13.9598C11.4466 13.6532 13.6533 11.4465 13.96 8.6665H15.3333V7.33317H13.96ZM7.99996 12.6665C5.41996 12.6665 3.33329 10.5798 3.33329 7.99984C3.33329 5.41984 5.41996 3.33317 7.99996 3.33317C10.58 3.33317 12.6666 5.41984 12.6666 7.99984C12.6666 10.5798 10.58 12.6665 7.99996 12.6665Z" fill="#282830"/>
</g>
<defs>
<clipPath id="clip0_214_10">
<rect width="16" height="16" fill="white"/>
</clipPath>
</defs>
</svg>
