<svg width="24" height="111" viewBox="0 0 24 111" fill="none" xmlns="http://www.w3.org/2000/svg">
<path d="M12 111C12 56.9428 12 49.4 12 23" stroke="#3358CC" stroke-width="2"/>
<circle cx="12" cy="12" r="12" fill="#3358CC"/>
<path d="M18.3648 7.17819C18.268 5.74734 17.0245 4.6665 15.5973 4.6665H8.10653C6.67929 4.6665 5.43582 5.74734 5.33901 7.17819C5.33513 7.24048 5.33337 7.30666 5.33337 7.37072V16.1876C5.33337 17.0158 5.88646 17.7137 6.64268 17.9296C6.66767 17.9374 6.69478 17.9451 6.72189 17.949V18.7598C6.72189 19.0766 6.97889 19.3332 7.29433 19.3332H8.55716C8.87261 19.3332 9.12961 19.0766 9.12961 18.7598V17.9996H14.5742V18.7598C14.5742 19.0766 14.8312 19.3332 15.1466 19.3332H16.4095C16.7249 19.3332 16.9819 19.0766 16.9819 18.7598V17.949C17.009 17.9451 17.0361 17.9374 17.0611 17.9296C17.8173 17.7137 18.3704 17.0158 18.3704 16.1876V7.37072C18.3704 7.30666 18.3687 7.24048 18.3648 7.17819ZM7.58056 16.6658C5.99841 16.5918 6.32547 14.4475 8.20933 15.1825C9.19967 15.5732 9.66544 16.7631 7.58056 16.6658ZM16.1236 16.6658C14.0387 16.7631 14.5048 15.5732 15.4948 15.1825C17.3787 14.4475 17.7054 16.5922 16.1236 16.6658ZM17.2878 11.4088C17.2878 12.266 16.6534 12.9933 15.8085 13.1023C14.5404 13.2629 13.2642 13.3454 11.988 13.3496C11.9425 13.3496 11.8975 13.3496 11.8521 13.3496C11.8067 13.3496 11.7616 13.3496 11.7162 13.3496C10.44 13.3454 9.16376 13.2629 7.89565 13.1023C7.05036 12.9933 6.4163 12.2663 6.4163 11.4088V6.9839C6.4163 6.51284 7.88825 6.26475 11.8521 6.22441C15.8159 6.26475 17.2878 6.51284 17.2878 6.9839V11.4088Z" fill="white"/>
</svg>
