<svg width="24" height="25" viewBox="0 0 24 25" fill="none" xmlns="http://www.w3.org/2000/svg">
<path d="M21 12.992C21 13.1909 20.921 13.3817 20.7804 13.5223C20.6397 13.663 20.4489 13.742 20.25 13.742H9.75003C9.55112 13.742 9.36036 13.663 9.2197 13.5223C9.07905 13.3817 9.00003 13.1909 9.00003 12.992C9.00003 12.7931 9.07905 12.6023 9.2197 12.4617C9.36036 12.321 9.55112 12.242 9.75003 12.242H20.25C20.4489 12.242 20.6397 12.321 20.7804 12.4617C20.921 12.6023 21 12.7931 21 12.992ZM9.75003 7.74201H20.25C20.4489 7.74201 20.6397 7.66299 20.7804 7.52234C20.921 7.38168 21 7.19092 21 6.99201C21 6.79309 20.921 6.60233 20.7804 6.46168C20.6397 6.32102 20.4489 6.24201 20.25 6.24201H9.75003C9.55112 6.24201 9.36036 6.32102 9.2197 6.46168C9.07905 6.60233 9.00003 6.79309 9.00003 6.99201C9.00003 7.19092 9.07905 7.38168 9.2197 7.52234C9.36036 7.66299 9.55112 7.74201 9.75003 7.74201ZM20.25 18.242H9.75003C9.55112 18.242 9.36036 18.321 9.2197 18.4617C9.07905 18.6023 9.00003 18.7931 9.00003 18.992C9.00003 19.1909 9.07905 19.3817 9.2197 19.5223C9.36036 19.663 9.55112 19.742 9.75003 19.742H20.25C20.4489 19.742 20.6397 19.663 20.7804 19.5223C20.921 19.3817 21 19.1909 21 18.992C21 18.7931 20.921 18.6023 20.7804 18.4617C20.6397 18.321 20.4489 18.242 20.25 18.242ZM4.08753 7.29201L4.50004 7.07638V11.117C4.50004 11.3159 4.57905 11.5067 4.71971 11.6473C4.86036 11.788 5.05112 11.867 5.25004 11.867C5.44895 11.867 5.63971 11.788 5.78036 11.6473C5.92102 11.5067 6.00003 11.3159 6.00003 11.117V5.86701C6.0008 5.73902 5.96838 5.61302 5.90595 5.5013C5.84351 5.38957 5.75319 5.29593 5.64378 5.22951C5.53526 5.16129 5.41106 5.12202 5.28305 5.11546C5.15503 5.10889 5.02747 5.13525 4.91254 5.19201L3.41254 5.94201C3.32389 5.98633 3.24485 6.04767 3.17991 6.12254C3.11498 6.19741 3.06543 6.28434 3.03409 6.37836C2.9708 6.56824 2.98552 6.77549 3.07503 6.95451C3.16455 7.13353 3.32151 7.26966 3.51139 7.33295C3.70127 7.39625 3.90851 7.38152 4.08753 7.29201ZM6.76878 16.9576C7.00252 16.6187 7.12685 16.2162 7.12503 15.8045C7.12766 15.3269 6.96444 14.8632 6.66324 14.4925C6.36204 14.1218 5.94153 13.8672 5.47349 13.772C5.00544 13.6769 4.51888 13.7471 4.09685 13.9707C3.67483 14.1944 3.34349 14.5575 3.15941 14.9983C3.08109 15.1823 3.07907 15.3898 3.15379 15.5753C3.22851 15.7608 3.37385 15.909 3.55785 15.9873C3.74184 16.0656 3.94941 16.0677 4.1349 15.9929C4.32038 15.9182 4.46859 15.7729 4.54691 15.5889C4.58712 15.4853 4.6581 15.3965 4.75029 15.3345C4.84247 15.2725 4.95144 15.2402 5.06254 15.242C5.21172 15.242 5.35479 15.3013 5.46028 15.4068C5.56577 15.5122 5.62504 15.6553 5.62504 15.8045C5.62734 15.9107 5.59797 16.0151 5.54066 16.1045L3.15003 19.292C3.06646 19.4034 3.01557 19.5359 3.00307 19.6747C2.99056 19.8134 3.01692 19.9528 3.07921 20.0774C3.1415 20.202 3.23725 20.3068 3.35574 20.38C3.47422 20.4532 3.61075 20.492 3.75003 20.492H6.37503C6.57395 20.492 6.76471 20.413 6.90536 20.2723C7.04602 20.1317 7.12503 19.9409 7.12503 19.742C7.12503 19.5431 7.04602 19.3523 6.90536 19.2117C6.76471 19.071 6.57395 18.992 6.37503 18.992H5.25004L6.75003 16.9858L6.76878 16.9576Z" fill="#A3A7B5"/>
</svg>
