<svg width="24" height="25" viewBox="0 0 24 25" fill="none" xmlns="http://www.w3.org/2000/svg">
<g clip-path="url(#clip0_720_2875)">
<path d="M4.77778 17.1111C4.96828 17.1111 5.15215 17.1811 5.29451 17.3077C5.43687 17.4343 5.52782 17.6087 5.55011 17.7979L5.55556 17.8889V19.4444H7.11111C7.30935 19.4447 7.50003 19.5206 7.64418 19.6567C7.78833 19.7927 7.87507 19.9787 7.88669 20.1766C7.89831 20.3745 7.83392 20.5694 7.70668 20.7214C7.57945 20.8734 7.39896 20.9711 7.20211 20.9946L7.11111 21H5.55556C5.16311 21.0001 4.78511 20.8519 4.49735 20.5851C4.20959 20.3182 4.03332 19.9525 4.00389 19.5611L4 19.4444V17.8889C4 17.6826 4.08194 17.4848 4.22781 17.3389C4.37367 17.1931 4.5715 17.1111 4.77778 17.1111ZM19.2222 17.1111C19.4285 17.1111 19.6263 17.1931 19.7722 17.3389C19.9181 17.4848 20 17.6826 20 17.8889V19.4444C20 19.857 19.8361 20.2527 19.5444 20.5444C19.2527 20.8361 18.857 21 18.4444 21H16.8889C16.6826 21 16.4848 20.9181 16.3389 20.7722C16.1931 20.6263 16.1111 20.4285 16.1111 20.2222C16.1111 20.0159 16.1931 19.8181 16.3389 19.6722C16.4848 19.5264 16.6826 19.4444 16.8889 19.4444H18.4444V17.8889C18.4444 17.6826 18.5264 17.4848 18.6722 17.3389C18.8181 17.1931 19.0159 17.1111 19.2222 17.1111ZM14.8327 9.14611C14.9673 9.08853 15.1155 9.07014 15.2601 9.09305C15.4048 9.11596 15.54 9.17924 15.6503 9.27562C15.7606 9.37199 15.8414 9.49754 15.8835 9.63782C15.9255 9.7781 15.9271 9.9274 15.8881 10.0686L15.8539 10.1673L12.5538 17.8673C12.4921 18.0108 12.3887 18.1324 12.257 18.2163C12.1253 18.3002 11.9714 18.3425 11.8154 18.3377C11.6593 18.3329 11.5083 18.2813 11.3819 18.1895C11.2556 18.0977 11.1599 17.97 11.1071 17.823L11.0807 17.7359L10.3651 14.6341L7.26411 13.9186C7.11194 13.8833 6.97391 13.8031 6.868 13.6883C6.76208 13.5735 6.69318 13.4294 6.67026 13.2749C6.64735 13.1204 6.67149 12.9626 6.73954 12.822C6.80759 12.6814 6.91639 12.5646 7.05178 12.4867L7.13267 12.4462L14.8327 9.14611ZM7.11111 5C7.31739 5 7.51522 5.08194 7.66108 5.22781C7.80694 5.37367 7.88889 5.5715 7.88889 5.77778C7.88889 5.98406 7.80694 6.18189 7.66108 6.32775C7.51522 6.47361 7.31739 6.55556 7.11111 6.55556H5.55556V8.11111C5.55556 8.31739 5.47361 8.51522 5.32775 8.66108C5.18189 8.80694 4.98406 8.88889 4.77778 8.88889C4.5715 8.88889 4.37367 8.80694 4.22781 8.66108C4.08194 8.51522 4 8.31739 4 8.11111V6.55556C4 6.143 4.16389 5.74733 4.45561 5.45561C4.74733 5.16389 5.143 5 5.55556 5H7.11111ZM18.4444 5C18.857 5 19.2527 5.16389 19.5444 5.45561C19.8361 5.74733 20 6.143 20 6.55556V8.11111C20 8.31739 19.9181 8.51522 19.7722 8.66108C19.6263 8.80694 19.4285 8.88889 19.2222 8.88889C19.0159 8.88889 18.8181 8.80694 18.6722 8.66108C18.5264 8.51522 18.4444 8.31739 18.4444 8.11111V6.55556H16.8889C16.6826 6.55556 16.4848 6.47361 16.3389 6.32775C16.1931 6.18189 16.1111 5.98406 16.1111 5.77778C16.1111 5.5715 16.1931 5.37367 16.3389 5.22781C16.4848 5.08194 16.6826 5 16.8889 5H18.4444Z" fill="#9FA5B8"/>
</g>
<defs>
<clipPath id="clip0_720_2875">
<rect width="24" height="24" fill="white" transform="translate(0 0.992004)"/>
</clipPath>
</defs>
</svg>
