<svg width="24" height="24" viewBox="0 0 24 24" fill="none" xmlns="http://www.w3.org/2000/svg">
<path d="M11.7 1C7.443 1 4 4.443 4 8.7C4 14.475 11.7 23 11.7 23C11.7 23 19.4 14.475 19.4 8.7C19.4 4.443 15.957 1 11.7 1ZM6.2 8.7C6.2 5.664 8.664 3.2 11.7 3.2C14.736 3.2 17.2 5.664 17.2 8.7C17.2 11.868 14.032 16.609 11.7 19.568C9.412 16.631 6.2 11.835 6.2 8.7Z" fill="#282830"/>
<path d="M11.7 12C13.3568 12 14.7 10.6569 14.7 9C14.7 7.34315 13.3568 6 11.7 6C10.0431 6 8.69995 7.34315 8.69995 9C8.69995 10.6569 10.0431 12 11.7 12Z" fill="#282830"/>
</svg>
