<svg width="24" height="24" viewBox="0 0 24 24" fill="none" xmlns="http://www.w3.org/2000/svg">
<path d="M18.6667 8.33333H17.619V6.2381C17.619 3.34667 15.2724 1 12.381 1C9.48952 1 7.14286 3.34667 7.14286 6.2381V8.33333H6.09524C4.94286 8.33333 4 9.27619 4 10.4286V20.9048C4 22.0571 4.94286 23 6.09524 23H18.6667C19.819 23 20.7619 22.0571 20.7619 20.9048V10.4286C20.7619 9.27619 19.819 8.33333 18.6667 8.33333ZM9.2381 6.2381C9.2381 4.49905 10.6419 3.09524 12.381 3.09524C14.12 3.09524 15.5238 4.49905 15.5238 6.2381V8.33333H9.2381V6.2381ZM18.6667 20.9048H6.09524V10.4286H18.6667V20.9048ZM12.381 17.7619C13.5333 17.7619 14.4762 16.819 14.4762 15.6667C14.4762 14.5143 13.5333 13.5714 12.381 13.5714C11.2286 13.5714 10.2857 14.5143 10.2857 15.6667C10.2857 16.819 11.2286 17.7619 12.381 17.7619Z" fill="#282830"/>
</svg>
