<svg width="78" height="33" viewBox="0 0 78 33" fill="none" xmlns="http://www.w3.org/2000/svg">
<g clip-path="url(#clip0_84_10381)">
<path d="M-5.76919e-06 27.6285C0.0963299 27.6084 0.192666 27.5927 0.289639 27.5827C0.385975 27.5727 0.492518 27.5677 0.609908 27.5677C0.727297 27.5677 0.83065 27.5727 0.919968 27.5827C1.00929 27.5927 1.10243 27.6078 1.19877 27.6285C1.21918 27.6623 1.23832 27.7112 1.25555 27.7758C1.27277 27.8403 1.28809 27.908 1.30212 27.9788C1.31552 28.0497 1.32828 28.1192 1.33849 28.1869C1.34869 28.2546 1.35763 28.3123 1.36401 28.3593C1.41887 28.2578 1.4916 28.1562 1.58092 28.0547C1.67024 27.9531 1.77742 27.8616 1.90119 27.7808C2.02496 27.6993 2.16468 27.6335 2.31971 27.5827C2.47474 27.5319 2.64891 27.5062 2.84158 27.5062C3.67542 27.5062 4.20942 27.8178 4.44356 28.4402C4.58136 28.1901 4.77595 27.9713 5.02731 27.7852C5.27868 27.599 5.59703 27.5056 5.98301 27.5056C6.5891 27.5056 7.03569 27.6698 7.32151 27.9983C7.60732 28.3267 7.75023 28.8394 7.75023 29.5364V32.8772C7.50205 32.918 7.25771 32.938 7.01655 32.938C6.77539 32.938 6.53104 32.918 6.28287 32.8772V29.9125C6.28287 29.5471 6.23629 29.2663 6.14315 29.0695C6.05 28.8733 5.86243 28.7749 5.57981 28.7749C5.46242 28.7749 5.34694 28.7918 5.23338 28.8256C5.11982 28.8595 5.01647 28.9222 4.92332 29.0137C4.83017 29.1052 4.75426 29.2337 4.6962 29.3998C4.6375 29.5659 4.60816 29.7802 4.60816 30.0448V32.8779C4.35998 32.9186 4.11563 32.9387 3.87447 32.9387C3.63332 32.9387 3.38897 32.9186 3.14079 32.8779V29.9131C3.14079 29.5477 3.09422 29.2669 3.00107 29.0701C2.90793 28.8739 2.72036 28.7755 2.43773 28.7755C2.32034 28.7755 2.20359 28.7924 2.0862 28.8263C1.96881 28.8601 1.86419 28.9259 1.77104 29.0243C1.67789 29.1227 1.60389 29.2594 1.54902 29.4355C1.49352 29.6116 1.46608 29.8417 1.46608 30.1262V32.8779C1.21791 32.9186 0.973559 32.9387 0.732401 32.9387C0.491242 32.9387 0.246894 32.9186 -0.00128174 32.8779V27.6285H-5.76919e-06Z" fill="#5555A5"/>
<path d="M14.118 33C13.6841 33 13.3064 32.9304 12.9862 32.7919C12.6659 32.6534 12.4005 32.4603 12.1906 32.2134C11.9801 31.9664 11.8219 31.6769 11.7153 31.3453C11.6081 31.0137 11.5552 30.6546 11.5552 30.2691C11.5552 29.8836 11.6088 29.5213 11.7153 29.1828C11.8219 28.8444 11.9807 28.5517 12.1906 28.3047C12.4005 28.0578 12.6659 27.8628 12.9862 27.7212C13.3064 27.5789 13.6835 27.5081 14.118 27.5081C14.5524 27.5081 14.9308 27.5789 15.2548 27.7212C15.5789 27.8634 15.8475 28.0578 16.0613 28.3047C16.275 28.5517 16.4332 28.8444 16.5366 29.1828C16.6399 29.5213 16.6916 29.8836 16.6916 30.2691C16.6916 30.6546 16.6399 31.0137 16.5366 31.3453C16.4332 31.6769 16.2743 31.9664 16.0613 32.2134C15.8475 32.4603 15.5789 32.6534 15.2548 32.7919C14.9308 32.9304 14.5518 33 14.118 33ZM14.118 31.9038C14.5039 31.9038 14.7808 31.7634 14.9499 31.4825C15.1183 31.2017 15.2032 30.7975 15.2032 30.2691C15.2032 29.7407 15.119 29.3364 14.9499 29.0556C14.7808 28.7748 14.5039 28.6344 14.118 28.6344C13.732 28.6344 13.4653 28.7748 13.2962 29.0556C13.1272 29.3364 13.043 29.7413 13.043 30.2691C13.043 30.7968 13.1272 31.2017 13.2962 31.4825C13.4647 31.7634 13.739 31.9038 14.118 31.9038Z" fill="#5555A5"/>
<path d="M20.598 25.4559C20.8461 25.4152 21.0873 25.3951 21.3214 25.3951C21.5556 25.3951 21.8069 25.4152 22.0551 25.4559V28.1367C22.1585 27.9537 22.3307 27.8033 22.5719 27.6848C22.813 27.5664 23.0887 27.5068 23.3987 27.5068C23.7088 27.5068 23.9965 27.5613 24.2619 27.6691C24.5273 27.7776 24.7563 27.9418 24.949 28.1618C25.1417 28.3818 25.2935 28.6576 25.4039 28.9892C25.5143 29.3207 25.5691 29.7137 25.5691 30.1669C25.5691 30.6201 25.5002 31.0012 25.3624 31.3497C25.2246 31.6982 25.0249 31.9946 24.7627 32.2378C24.5005 32.4817 24.1802 32.6691 23.8013 32.8013C23.4223 32.9336 22.9949 32.9994 22.5196 32.9994C22.3677 32.9994 22.2076 32.9925 22.0392 32.9793C21.8701 32.9655 21.6998 32.9474 21.5275 32.9235C21.3552 32.8997 21.19 32.8696 21.0311 32.832C20.8723 32.7951 20.7281 32.7524 20.5973 32.7048V25.4547L20.598 25.4559ZM22.0558 31.7408C22.1387 31.7677 22.2261 31.7847 22.3192 31.7916C22.4124 31.7985 22.5068 31.8016 22.6038 31.8016C23.0516 31.8016 23.4032 31.6731 23.6577 31.4155C23.9123 31.1585 24.0399 30.7555 24.0399 30.207C24.0399 29.7194 23.9608 29.3489 23.8019 29.0951C23.6431 28.8412 23.3745 28.7146 22.9955 28.7146C22.7199 28.7146 22.494 28.8043 22.3186 28.9835C22.1432 29.1628 22.0551 29.4455 22.0551 29.8316V31.7408H22.0558Z" fill="#5555A5"/>
<path d="M29.776 28.7253H29.0838C29.0634 28.6376 29.0474 28.5442 29.0372 28.4458C29.027 28.348 29.0219 28.2546 29.0219 28.1662C29.0219 27.9832 29.0423 27.8039 29.0838 27.6278H31.2128V32.8772C30.9646 32.9179 30.7234 32.938 30.4893 32.938C30.2551 32.938 30.0242 32.9179 29.776 32.8772V28.7241V28.7253ZM29.5591 26.7453C29.5176 26.5152 29.4972 26.2883 29.4972 26.0652C29.4972 25.8421 29.5176 25.6221 29.5591 25.3851C29.6765 25.3651 29.8022 25.3494 29.9361 25.3394C30.0708 25.3294 30.1926 25.3243 30.303 25.3243C30.4204 25.3243 30.5473 25.3294 30.6851 25.3394C30.8229 25.3494 30.9505 25.3651 31.0673 25.3851C31.0877 25.5005 31.1017 25.6139 31.1088 25.7255C31.1158 25.8371 31.119 25.9505 31.119 26.0658C31.119 26.1743 31.1151 26.2858 31.1088 26.4012C31.1017 26.5165 31.0883 26.6312 31.0673 26.7465C30.9499 26.7666 30.8242 26.7804 30.6902 26.7873C30.5556 26.7942 30.4299 26.7973 30.3132 26.7973C30.2028 26.7973 30.0791 26.7942 29.9412 26.7873C29.8034 26.7804 29.6758 26.7672 29.5591 26.7465V26.7453Z" fill="#5555A5"/>
<path d="M35.3877 25.4559C35.6359 25.4152 35.8802 25.3951 36.1214 25.3951C36.3626 25.3951 36.5967 25.4152 36.8449 25.4559V30.7868C36.8449 30.9968 36.857 31.166 36.8812 31.2945C36.9055 31.423 36.9431 31.5233 36.9948 31.5941C37.0465 31.6649 37.1135 31.7145 37.1964 31.7414C37.2794 31.7684 37.3827 31.7822 37.5065 31.7822C37.5613 31.7822 37.6219 31.779 37.687 31.7721C37.7521 31.7652 37.8159 31.7552 37.8784 31.7414C37.9543 32.0191 37.992 32.2899 37.992 32.5537V32.701C37.992 32.7449 37.985 32.7944 37.9716 32.8483C37.8612 32.8822 37.7285 32.906 37.5735 32.9192C37.4184 32.9323 37.2755 32.9392 37.1447 32.9392C36.6139 32.9392 36.1884 32.7957 35.8681 32.508C35.5479 32.2203 35.3877 31.7514 35.3877 31.1015V25.4559Z" fill="#5555A5"/>
<path d="M41.8371 28.7253H41.1449C41.1245 28.6376 41.1085 28.5442 41.0983 28.4458C41.0881 28.348 41.083 28.2546 41.083 28.1662C41.083 27.9832 41.1034 27.8039 41.1449 27.6278H43.2738V32.8772C43.0257 32.9179 42.7845 32.938 42.5504 32.938C42.3162 32.938 42.0853 32.9179 41.8371 32.8772V28.7241V28.7253ZM41.6202 26.7453C41.5787 26.5152 41.5583 26.2883 41.5583 26.0652C41.5583 25.8421 41.5787 25.6221 41.6202 25.3851C41.7376 25.3651 41.8633 25.3494 41.9972 25.3394C42.1319 25.3294 42.2537 25.3243 42.3641 25.3243C42.4815 25.3243 42.6084 25.3294 42.7462 25.3394C42.884 25.3494 43.0116 25.3651 43.1284 25.3851C43.1488 25.5005 43.1628 25.6139 43.1699 25.7255C43.1769 25.8371 43.1801 25.9505 43.1801 26.0658C43.1801 26.1743 43.1762 26.2858 43.1699 26.4012C43.1628 26.5165 43.1494 26.6312 43.1284 26.7465C43.011 26.7666 42.8853 26.7804 42.7513 26.7873C42.6167 26.7942 42.491 26.7973 42.3743 26.7973C42.2639 26.7973 42.1401 26.7942 42.0023 26.7873C41.8645 26.7804 41.7369 26.7672 41.6202 26.7465V26.7453Z" fill="#5555A5"/>
<path d="M50.6943 25.4559C50.818 25.4359 50.9405 25.4221 51.0611 25.4152C51.1817 25.4083 51.3004 25.4052 51.4177 25.4052C51.5351 25.4052 51.6557 25.4089 51.7795 25.4152C51.9033 25.4221 52.0277 25.4352 52.1514 25.4559V32.706C51.8273 32.8007 51.4988 32.8734 51.1645 32.9242C50.8302 32.9749 50.4257 33.0006 49.9504 33.0006C49.5848 33.0006 49.2352 32.9511 48.9015 32.8533C48.5672 32.7555 48.2725 32.5995 48.0179 32.3864C47.7627 32.1733 47.5611 31.8975 47.4131 31.559C47.2651 31.2205 47.1911 30.8075 47.1911 30.3205C47.1911 29.9344 47.2549 29.5708 47.3825 29.2292C47.5101 28.8876 47.6926 28.5911 47.9305 28.3404C48.1685 28.0903 48.4556 27.8923 48.7937 27.7462C49.1312 27.6008 49.507 27.5281 49.9204 27.5281C50.0442 27.5281 50.1737 27.5331 50.3083 27.5431C50.4429 27.5532 50.5718 27.5751 50.6956 27.609V25.4565L50.6943 25.4559ZM50.6943 28.7152C50.5565 28.6814 50.4442 28.6595 50.3587 28.6494C50.2726 28.6394 50.1641 28.6344 50.0333 28.6344C49.8062 28.6344 49.6078 28.6801 49.4387 28.7717C49.2697 28.8632 49.1306 28.9848 49.0202 29.1371C48.9098 29.2894 48.8288 29.4686 48.7771 29.6755C48.7255 29.8823 48.6999 30.0967 48.6999 30.3205C48.6999 30.5981 48.7344 30.8332 48.8033 31.0262C48.8722 31.2193 48.9666 31.3735 49.0878 31.4882C49.2084 31.6035 49.3513 31.6862 49.5166 31.737C49.6818 31.7878 49.8611 31.8129 50.0537 31.8129C50.1711 31.8129 50.2777 31.8078 50.374 31.7978C50.4703 31.7878 50.5769 31.7658 50.6943 31.732V28.7165V28.7152Z" fill="#5555A5"/>
<path d="M59.004 29.4261C59.004 29.2637 58.9766 29.1315 58.9211 29.0299C58.8656 28.9284 58.7903 28.8488 58.694 28.7911C58.5976 28.7335 58.4783 28.6946 58.3373 28.6746C58.1963 28.6545 58.0394 28.6438 57.8671 28.6438C57.4952 28.6438 57.099 28.7147 56.6786 28.8569C56.5822 28.6808 56.5095 28.5153 56.4617 28.3593C56.4132 28.2038 56.3896 28.0177 56.3896 27.8008C56.6926 27.6993 56.9957 27.6247 57.2993 27.5777C57.6024 27.5307 57.885 27.5068 58.1466 27.5068C58.863 27.5068 59.4232 27.6761 59.8258 28.0145C60.229 28.353 60.4306 28.8946 60.4306 29.6392V32.6854C60.1894 32.76 59.8966 32.8308 59.5521 32.8985C59.2075 32.9662 58.8184 33 58.3839 33C58.0324 33 57.7102 32.9693 57.4174 32.9085C57.1245 32.8477 56.8732 32.7462 56.6626 32.6039C56.4521 32.4616 56.2907 32.2792 56.1771 32.0555C56.0636 31.8323 56.0068 31.5578 56.0068 31.2331C56.0068 30.9084 56.0776 30.6358 56.2186 30.4158C56.3596 30.1958 56.5427 30.0196 56.7666 29.888C56.9905 29.7558 57.24 29.6611 57.5156 29.6035C57.7912 29.5458 58.0668 29.517 58.3424 29.517C58.5421 29.517 58.7629 29.527 59.004 29.5477V29.4261ZM59.004 30.4716C58.9211 30.4578 58.8318 30.4459 58.7354 30.4358C58.6391 30.4258 58.553 30.4208 58.4771 30.4208C58.1396 30.4208 57.8722 30.4803 57.6764 30.5982C57.4799 30.7166 57.3816 30.9078 57.3816 31.1717C57.3816 31.3478 57.4193 31.4832 57.4952 31.5779C57.5711 31.6725 57.6623 31.7421 57.7689 31.7859C57.8754 31.8298 57.9896 31.8568 58.1102 31.8674C58.2308 31.8775 58.3361 31.8825 58.4254 31.8825C58.5287 31.8825 58.6321 31.8743 58.7354 31.8568C58.8388 31.8399 58.9281 31.8248 59.004 31.811V30.4709V30.4716Z" fill="#5555A5"/>
<path d="M67.7061 25.4559C67.8299 25.4359 67.9524 25.4221 68.073 25.4152C68.1935 25.4083 68.3122 25.4052 68.4296 25.4052C68.547 25.4052 68.6676 25.4089 68.7913 25.4152C68.9151 25.4221 69.0395 25.4352 69.1633 25.4559V32.706C68.8392 32.8007 68.5106 32.8734 68.1763 32.9242C67.842 32.9749 67.4375 33.0006 66.9622 33.0006C66.5967 33.0006 66.247 32.9511 65.9134 32.8533C65.5791 32.7555 65.2843 32.5995 65.0298 32.3864C64.7746 32.1733 64.573 31.8975 64.425 31.559C64.2769 31.2205 64.2029 30.8075 64.2029 30.3205C64.2029 29.9344 64.2667 29.5708 64.3943 29.2292C64.5219 28.8876 64.7044 28.5911 64.9424 28.3404C65.1803 28.0903 65.4674 27.8923 65.8056 27.7462C66.143 27.6008 66.5188 27.5281 66.9322 27.5281C67.056 27.5281 67.1855 27.5331 67.3201 27.5431C67.4547 27.5532 67.5836 27.5751 67.7074 27.609V25.4565L67.7061 25.4559ZM67.7061 28.7152C67.5683 28.6814 67.456 28.6595 67.3705 28.6494C67.2844 28.6394 67.1759 28.6344 67.0452 28.6344C66.818 28.6344 66.6196 28.6801 66.4506 28.7717C66.2815 28.8632 66.1424 28.9848 66.032 29.1371C65.9217 29.2894 65.8406 29.4686 65.789 29.6755C65.7373 29.8823 65.7118 30.0967 65.7118 30.3205C65.7118 30.5981 65.7462 30.8332 65.8151 31.0262C65.884 31.2193 65.9784 31.3735 66.0997 31.4882C66.2202 31.6035 66.3632 31.6862 66.5284 31.737C66.6936 31.7878 66.8729 31.8129 67.0656 31.8129C67.183 31.8129 67.2895 31.8078 67.3858 31.7978C67.4822 31.7878 67.5887 31.7658 67.7061 31.732V28.7165V28.7152Z" fill="#5555A5"/>
<path d="M74.5172 30.6953C74.5447 31.1015 74.6895 31.3961 74.9511 31.5785C75.2126 31.7615 75.5571 31.8524 75.9846 31.8524C76.2187 31.8524 76.458 31.8304 76.703 31.7866C76.9473 31.7427 77.1802 31.68 77.4003 31.5985C77.4762 31.7339 77.5413 31.8962 77.5968 32.0862C77.6517 32.2755 77.6829 32.4785 77.6899 32.6954C77.1527 32.8985 76.546 33 75.871 33C75.3747 33 74.9491 32.9323 74.5944 32.7969C74.2397 32.6616 73.9501 32.4735 73.7261 32.2335C73.5022 31.9934 73.337 31.707 73.2298 31.3754C73.1232 31.0438 73.0696 30.6815 73.0696 30.2892C73.0696 29.8968 73.1245 29.5414 73.2349 29.2029C73.3453 28.8645 73.5086 28.5699 73.7261 28.3198C73.943 28.0697 74.2116 27.8716 74.5325 27.7256C74.8528 27.5802 75.2267 27.5074 75.6541 27.5074C76.0261 27.5074 76.3572 27.572 76.6462 27.7005C76.9358 27.829 77.1821 28.0051 77.385 28.2283C77.5878 28.4514 77.7416 28.7172 77.845 29.0255C77.9483 29.3339 78 29.6636 78 30.0152C78 30.1437 77.9949 30.271 77.9847 30.3957C77.9745 30.5211 77.9624 30.6207 77.9483 30.6953H74.5172ZM76.6156 29.6899C76.6015 29.3653 76.5103 29.1026 76.3419 28.9033C76.1728 28.704 75.9367 28.6037 75.6337 28.6037C75.2892 28.6037 75.0276 28.6984 74.8483 28.8883C74.6691 29.0776 74.5625 29.3452 74.5281 29.6906H76.6156V29.6899Z" fill="#5555A5"/>
<path d="M36.9297 22.4956H30.2315C26.47 22.4956 23.3056 19.586 23.2162 15.8917C23.125 12.0858 26.2492 8.96188 30.102 8.96188H36.9189C37.6717 8.96188 38.3964 9.08097 39.0746 9.30097C38.7301 6.65904 36.4264 4.61069 33.6454 4.61069H27.8244C26.5765 4.61069 25.5647 3.61659 25.5647 2.39059V1.19529C25.5647 0.535281 26.1095 0 26.7813 0H33.6454C39.2603 0 43.8123 4.47217 43.8123 9.98794V15.7331C43.8123 19.4675 40.7308 22.495 36.9297 22.495V22.4956ZM30.102 13.5713C28.8216 13.5713 27.7938 14.6538 27.9169 15.9356C28.0241 17.0531 29.0238 17.8843 30.1664 17.8843H36.9189C38.1304 17.8843 39.1167 16.9171 39.1193 15.7275C39.1161 14.5378 38.1304 13.5707 36.9189 13.5707H30.102V13.5713Z" fill="#7675D3"/>
<path d="M13.5492 22.4956H8.12446C7.45266 22.4956 6.90782 21.9603 6.90782 21.3003V20.105C6.90782 18.879 7.91966 17.8849 9.16756 17.8849H13.615C14.7576 17.8849 15.7573 17.0538 15.8645 15.9362C15.987 14.6538 14.9598 13.5719 13.6794 13.5719H7.03797C3.2662 13.5719 0.0928682 10.6542 0.00355035 6.94988C-0.0895954 3.13334 3.04355 0 6.90718 0H17.0473C17.7191 0 18.2639 0.535281 18.2639 1.19529V2.39059C18.2639 3.61659 17.2521 4.61069 16.0042 4.61069H6.97162C5.7805 4.61069 4.75462 5.50825 4.69593 6.67659C4.63341 7.92579 5.64971 8.96125 6.90718 8.96125H13.6788C17.5322 8.96125 20.6564 12.0858 20.5645 15.8911C20.4758 19.5854 17.3108 22.495 13.5492 22.495V22.4956Z" fill="#7675D3"/>
<path d="M2.36565 22.4561C3.61614 22.4561 4.62986 21.4601 4.62986 20.2316C4.62986 19.003 3.61614 18.0071 2.36565 18.0071C1.11516 18.0071 0.10144 19.003 0.10144 20.2316C0.10144 21.4601 1.11516 22.4561 2.36565 22.4561Z" fill="#7675D3"/>
<path d="M68.6484 0.0921631H68.5891C65.9153 0.0921631 63.5063 1.22603 61.8316 3.02806C61.5904 2.78925 61.3441 2.56862 61.0953 2.36805C59.4984 0.821749 58.2308 0.142306 55.5614 0.142306C50.8621 0.142306 47.1337 4.58501 47.1337 9.20197V21.3003C47.1337 21.9603 47.6785 22.4956 48.3503 22.4956H49.5669C50.8148 22.4956 51.8267 21.5015 51.8267 20.2755V9.08413C51.8267 6.69291 53.7859 4.74359 56.2103 4.70285C58.7054 4.66148 60.747 6.7324 60.747 9.18379V21.3003C60.747 21.9603 61.2918 22.4956 61.9636 22.4956H64.0849C64.7567 22.4956 65.3016 21.9603 65.3016 21.3003V11.4534C65.3016 9.45268 65.1963 8.12075 64.7184 6.90979C65.4872 5.59164 66.9322 4.70222 68.5897 4.70222H68.6491C71.1123 4.70222 73.1092 6.66408 73.1092 9.08413V20.2755C73.1092 21.5015 74.1211 22.4956 75.3689 22.4956H76.5856C77.2574 22.4956 77.8022 21.9603 77.8022 21.3003V9.08476C77.8022 4.11868 73.7045 0.0921631 68.6491 0.0921631H68.6484Z" fill="#7675D3"/>
</g>
<defs>
<clipPath id="clip0_84_10381">
<rect width="78" height="33" fill="white"/>
</clipPath>
</defs>
</svg>
