<svg width="24" height="24" viewBox="0 0 24 24" fill="none" xmlns="http://www.w3.org/2000/svg">
<path d="M3.75 9C2.2375 9 1 10.2375 1 11.75C1 13.2625 2.2375 14.5 3.75 14.5C5.2625 14.5 6.5 13.2625 6.5 11.75C6.5 10.2375 5.2625 9 3.75 9ZM20.25 9C18.7375 9 17.5 10.2375 17.5 11.75C17.5 13.2625 18.7375 14.5 20.25 14.5C21.7625 14.5 23 13.2625 23 11.75C23 10.2375 21.7625 9 20.25 9ZM12 9C10.4875 9 9.25 10.2375 9.25 11.75C9.25 13.2625 10.4875 14.5 12 14.5C13.5125 14.5 14.75 13.2625 14.75 11.75C14.75 10.2375 13.5125 9 12 9Z" fill="#282830"/>
</svg>
