<svg width="24" height="24" viewBox="0 0 24 24" fill="none" xmlns="http://www.w3.org/2000/svg">
<path d="M11.75 6.5C13.2625 6.5 14.5 5.2625 14.5 3.75C14.5 2.2375 13.2625 1 11.75 1C10.2375 1 9 2.2375 9 3.75C9 5.2625 10.2375 6.5 11.75 6.5ZM11.75 9.25C10.2375 9.25 9 10.4875 9 12C9 13.5125 10.2375 14.75 11.75 14.75C13.2625 14.75 14.5 13.5125 14.5 12C14.5 10.4875 13.2625 9.25 11.75 9.25ZM11.75 17.5C10.2375 17.5 9 18.7375 9 20.25C9 21.7625 10.2375 23 11.75 23C13.2625 23 14.5 21.7625 14.5 20.25C14.5 18.7375 13.2625 17.5 11.75 17.5Z" fill="#282830"/>
</svg>
