<svg width="24" height="24" viewBox="0 0 24 24" fill="none" xmlns="http://www.w3.org/2000/svg">
<path d="M12 12C15.0387 12 17.5 9.53875 17.5 6.5C17.5 3.46125 15.0387 1 12 1C8.96125 1 6.5 3.46125 6.5 6.5C6.5 9.53875 8.96125 12 12 12ZM12 3.75C13.5125 3.75 14.75 4.9875 14.75 6.5C14.75 8.0125 13.5125 9.25 12 9.25C10.4875 9.25 9.25 8.0125 9.25 6.5C9.25 4.9875 10.4875 3.75 12 3.75ZM12 13.375C8.32875 13.375 1 15.2175 1 18.875V23H23V18.875C23 15.2175 15.6713 13.375 12 13.375ZM20.25 20.25H3.75V18.8888C4.025 17.8988 8.2875 16.125 12 16.125C15.7125 16.125 19.975 17.8988 20.25 18.875V20.25Z" fill="#282830"/>
</svg>
