<svg width="24" height="24" viewBox="0 0 24 24" fill="none" xmlns="http://www.w3.org/2000/svg">
<path d="M3.2 21.8H20.8C22.01 21.8 23 20.81 23 19.6V6.4C23 5.19 22.01 4.2 20.8 4.2H17.313L15.3 2H8.7L6.687 4.2H3.2C1.99 4.2 1 5.19 1 6.4V19.6C1 20.81 1.99 21.8 3.2 21.8ZM3.2 6.4H7.655L9.668 4.2H14.332L16.345 6.4H20.8V19.6H3.2V6.4ZM12 7.5C8.964 7.5 6.5 9.964 6.5 13C6.5 16.036 8.964 18.5 12 18.5C15.036 18.5 17.5 16.036 17.5 13C17.5 9.964 15.036 7.5 12 7.5ZM12 16.3C10.185 16.3 8.7 14.815 8.7 13C8.7 11.185 10.185 9.7 12 9.7C13.815 9.7 15.3 11.185 15.3 13C15.3 14.815 13.815 16.3 12 16.3Z" fill="#282830"/>
</svg>
