<svg width="24" height="24" viewBox="0 0 24 24" fill="none" xmlns="http://www.w3.org/2000/svg">
<path fill-rule="evenodd" clip-rule="evenodd" d="M9.87016 21.1193C10.4327 21.6811 11.1952 21.9967 11.9902 21.9967C12.7852 21.9967 13.5477 21.6811 14.1102 21.1193L17.8302 17.4093C17.2416 17.4093 16.7158 17.334 16.2257 17.0887C15.958 16.9548 15.701 16.7701 15.4502 16.5193L12.4402 13.5093C12.3302 13.3993 12.2002 13.3793 12.1302 13.3793C12.0602 13.3793 11.9302 13.3993 11.8202 13.5093L8.78889 16.5406C8.59657 16.733 8.34138 16.9884 7.84032 17.1742C7.45419 17.3174 6.92205 17.4193 6.16016 17.4193L9.87016 21.1193ZM8.86427 18.1954L10.8312 20.1571C11.1387 20.4642 11.5556 20.6367 11.9902 20.6367C12.4248 20.6367 12.8416 20.4642 13.1491 20.1571L15.2284 18.0833C14.9769 17.9207 14.7297 17.7222 14.4885 17.481L12.1302 15.1226L9.76182 17.491C9.75582 17.497 9.74964 17.5032 9.74326 17.5096C9.58441 17.6687 9.30776 17.946 8.86427 18.1954ZM9.90016 2.87931L6.19016 6.57931C6.94635 6.57931 7.47733 6.68638 7.86161 6.83311C8.35261 7.02057 8.60413 7.27277 8.77996 7.44908C8.7868 7.45594 8.79353 7.46269 8.80016 7.46931L11.8202 10.4893C11.9002 10.5693 12.0202 10.6193 12.1302 10.6193C12.2402 10.6193 12.3602 10.5693 12.4402 10.4893L15.4302 7.49931C15.6884 7.23016 15.9599 7.03641 16.2446 6.89882C16.7426 6.65814 17.2811 6.58931 17.8602 6.58931L14.1402 2.87931C13.5777 2.31751 12.8152 2.00195 12.0202 2.00195C11.2252 2.00195 10.4627 2.31751 9.90016 2.87931ZM15.2444 5.90133L13.1791 3.84158C12.8716 3.53446 12.4548 3.36195 12.0202 3.36195C11.5856 3.36195 11.1687 3.53446 10.8612 3.84158L8.8829 5.81457C9.31974 6.06329 9.59102 6.33599 9.73691 6.48264C9.74566 6.49144 9.75396 6.49979 9.76182 6.50765L12.1302 8.87598L14.4594 6.54677C14.7127 6.28438 14.9758 6.07225 15.2444 5.90133Z" fill="#343949"/>
<path fill-rule="evenodd" clip-rule="evenodd" d="M21.1103 9.85031L18.8603 7.59031H17.6003C17.0603 7.59031 16.5203 7.81031 16.1503 8.20031L13.1503 11.2003C12.8728 11.4778 12.5069 11.6178 12.1403 11.6203C12.137 11.6203 12.1336 11.6203 12.1303 11.6203C11.7509 11.615 11.3877 11.4661 11.1138 11.2037C11.1126 11.2026 11.1115 11.2014 11.1103 11.2003L8.09029 8.17031C7.71029 7.79031 7.19029 7.57031 6.64029 7.57031H5.17029L2.88029 9.87031C2.31849 10.4328 2.00293 11.1953 2.00293 11.9903C2.00293 12.7853 2.31849 13.5478 2.88029 14.1103L5.17029 16.4103H6.65029C7.19029 16.4103 7.71029 16.1903 8.10029 15.8103L11.1203 12.7903C11.1208 12.7898 11.1213 12.7893 11.1219 12.7887C11.3965 12.515 11.7573 12.3755 12.1197 12.3705C12.1233 12.3704 12.1268 12.3704 12.1303 12.3703C12.1336 12.3703 12.137 12.3703 12.1403 12.3703C12.5088 12.3703 12.8773 12.5092 13.1568 12.7869C13.158 12.788 13.1591 12.7892 13.1603 12.7903L16.1703 15.8003C16.5503 16.1803 17.0703 16.4003 17.6203 16.4003H18.8803L21.1303 14.1403C21.6945 13.5677 22.009 12.795 22.0053 11.9912C22.0015 11.1873 21.6798 10.4177 21.1103 9.85031ZM20.1615 13.1858C20.1622 13.1851 20.1629 13.1844 20.1636 13.1837C20.4742 12.8673 20.6474 12.441 20.6453 11.9975C20.6432 11.5531 20.4653 11.1275 20.1504 10.8138L21.1103 9.85031L20.1465 10.8098L18.2952 8.95031H17.6003C17.412 8.95031 17.2358 9.03216 17.1369 9.13635L17.1246 9.14933L14.2836 11.9903L17.132 14.8386C17.2593 14.966 17.4344 15.0403 17.6203 15.0403H18.3152L20.1615 13.1858ZM9.98723 12L7.12862 9.13198C7.12844 9.1318 7.12881 9.13216 7.12862 9.13198C7.00131 9.00495 6.82594 8.93031 6.64029 8.93031H5.73536L3.84255 10.8314C3.53543 11.1389 3.36293 11.5557 3.36293 11.9903C3.36293 12.4249 3.53543 12.8417 3.84255 13.1492L3.84405 13.1507L5.73536 15.0503H6.65029C6.81793 15.0503 6.99951 14.9817 7.14636 14.8409L9.98723 12Z" fill="#343949"/>
</svg>
