<svg width="24" height="24" viewBox="0 0 24 24" fill="none" xmlns="http://www.w3.org/2000/svg">
<path fill-rule="evenodd" clip-rule="evenodd" d="M18.2857 10.0714C18.9109 10.0714 19.5104 9.82309 19.9525 9.38104C20.3945 8.93899 20.6429 8.33944 20.6429 7.71429C20.6429 7.08913 20.3945 6.48959 19.9525 6.04754C19.5104 5.60549 18.9109 5.35714 18.2857 5.35714C17.6606 5.35714 17.061 5.60549 16.619 6.04754C16.1769 6.48959 15.9286 7.08913 15.9286 7.71429C15.9286 8.33944 16.1769 8.93899 16.619 9.38104C17.061 9.82309 17.6606 10.0714 18.2857 10.0714ZM18.2857 12.4286C19.1674 12.4285 20.0314 12.1812 20.7796 11.7146C21.5278 11.2481 22.1302 10.5811 22.5183 9.78944C22.9064 8.99774 23.0647 8.11307 22.9753 7.23591C22.8858 6.35875 22.5521 5.52426 22.0121 4.82723C21.4722 4.13019 20.7476 3.59856 19.9206 3.29271C19.0936 2.98686 18.1975 2.91906 17.3339 3.097C16.4703 3.27495 15.674 3.6915 15.0353 4.29936C14.3966 4.90721 13.9411 5.682 13.7207 6.53572H2.17857C1.866 6.53572 1.56622 6.65989 1.3452 6.88091C1.12417 7.10194 1 7.40171 1 7.71429C1 8.02686 1.12417 8.32664 1.3452 8.54766C1.56622 8.76869 1.866 8.89286 2.17857 8.89286H13.7207C13.9823 9.90474 14.5725 10.8011 15.3988 11.4411C16.2251 12.081 17.2406 12.4284 18.2857 12.4286ZM8.07143 17.1429C8.07143 17.768 7.82309 18.3676 7.38104 18.8096C6.93899 19.2517 6.33944 19.5 5.71429 19.5C5.08913 19.5 4.48958 19.2517 4.04753 18.8096C3.60548 18.3676 3.35714 17.768 3.35714 17.1429C3.35714 16.5177 3.60548 15.9182 4.04753 15.4761C4.48958 15.0341 5.08913 14.7857 5.71429 14.7857C6.33944 14.7857 6.93899 15.0341 7.38104 15.4761C7.82309 15.9182 8.07143 16.5177 8.07143 17.1429ZM10.2793 18.3214C9.99029 19.4304 9.30739 20.3961 8.3582 21.0382C7.40901 21.6803 6.25849 21.9548 5.12165 21.8105C3.98481 21.6661 2.93945 21.1127 2.18091 20.2536C1.42238 19.3946 1.0026 18.2888 1 17.1429C0.999611 15.9952 1.41792 14.8867 2.17647 14.0254C2.93503 13.1641 3.98173 12.6092 5.12029 12.4645C6.25885 12.3199 7.41106 12.5956 8.36084 13.2399C9.31063 13.8843 9.99275 14.8529 10.2793 15.9643H21.8214C22.134 15.9643 22.4338 16.0885 22.6548 16.3095C22.8758 16.5305 23 16.8303 23 17.1429C23 17.4554 22.8758 17.7552 22.6548 17.9762C22.4338 18.1973 22.134 18.3214 21.8214 18.3214H10.2793Z" fill="#282830"/>
</svg>
