<svg width="20" height="24" viewBox="0 0 20 24" fill="none" xmlns="http://www.w3.org/2000/svg">
<g clip-path="url(#clip0_1808_4750)">
<path d="M18.766 24C18.576 23.9817 18.3913 23.926 18.2223 23.8361L9.99302 19.8734L1.77847 23.8361C1.59271 23.9353 1.38592 23.9871 1.17598 23.9871C0.966031 23.9871 0.759243 23.9353 0.573477 23.8361C0.393465 23.7204 0.246068 23.5595 0.145635 23.3689C0.0452024 23.1783 -0.00484365 22.9646 0.000369349 22.7486V3.84358C0.00423965 2.8254 0.404925 1.85005 1.1151 1.13009C1.82528 0.41013 2.78737 0.00392363 3.7917 0L16.165 0C17.1693 0.00392363 18.1314 0.41013 18.8416 1.13009C19.5517 1.85005 19.9524 2.8254 19.9563 3.84358V22.7486C19.9563 22.9613 19.9022 23.1703 19.7992 23.3556C19.6963 23.5409 19.5479 23.6962 19.3685 23.8063C19.1895 23.9269 18.9808 23.994 18.766 24ZM9.94894 17.2216C10.1381 17.2219 10.3245 17.2678 10.4927 17.3557L17.4728 20.7523V3.84358C17.4748 3.66821 17.4424 3.49419 17.3775 3.33161C17.3127 3.16902 17.2166 3.02109 17.095 2.89639C16.9733 2.77169 16.8285 2.67269 16.6689 2.60513C16.5092 2.53756 16.3379 2.50278 16.165 2.50279H3.7917C3.44094 2.50279 3.10454 2.64405 2.85651 2.8955C2.60848 3.14694 2.46914 3.48798 2.46914 3.84358V20.7523L9.464 17.3557C9.62692 17.2679 9.80854 17.2219 9.99302 17.2216H9.94894Z" fill="#969BA0"/>
</g>
<defs>
<clipPath id="clip0_1808_4750">
<rect width="20" height="24" fill="white"/>
</clipPath>
</defs>
</svg>
