<svg width="24" height="25" viewBox="0 0 24 25" fill="none" xmlns="http://www.w3.org/2000/svg">
<path d="M8.3999 11.792C8.3999 11.1555 8.65276 10.545 9.10285 10.095C9.55293 9.64486 10.1634 9.39201 10.7999 9.39201C11.4364 9.39201 12.0469 9.64486 12.497 10.095C12.947 10.545 13.1999 11.1555 13.1999 11.792C13.1999 12.4285 12.947 13.039 12.497 13.4891C12.0469 13.9392 11.4364 14.192 10.7999 14.192C10.1634 14.192 9.55293 13.9392 9.10285 13.4891C8.65276 13.039 8.3999 12.4285 8.3999 11.792ZM10.7999 10.592C10.4816 10.592 10.1764 10.7184 9.95137 10.9435C9.72633 11.1685 9.5999 11.4737 9.5999 11.792C9.5999 12.1103 9.72633 12.4155 9.95137 12.6405C10.1764 12.8656 10.4816 12.992 10.7999 12.992C11.1182 12.992 11.4234 12.8656 11.6484 12.6405C11.8735 12.4155 11.9999 12.1103 11.9999 11.792C11.9999 11.4737 11.8735 11.1685 11.6484 10.9435C11.4234 10.7184 11.1182 10.592 10.7999 10.592ZM4.1999 5.79201C3.72251 5.79201 3.26468 5.98165 2.92711 6.31922C2.58954 6.65678 2.3999 7.11462 2.3999 7.59201V15.992C2.3999 16.4694 2.58954 16.9272 2.92711 17.2648C3.26468 17.6024 3.72251 17.792 4.1999 17.792H17.3999C17.8773 17.792 18.3351 17.6024 18.6727 17.2648C19.0103 16.9272 19.1999 16.4694 19.1999 15.992V7.59201C19.1999 7.11462 19.0103 6.65678 18.6727 6.31922C18.3351 5.98165 17.8773 5.79201 17.3999 5.79201H4.1999ZM3.5999 7.59201C3.5999 7.43288 3.66312 7.28027 3.77564 7.16774C3.88816 7.05522 4.04077 6.99201 4.1999 6.99201H5.9999V8.19201C5.9999 8.51027 5.87347 8.81549 5.64843 9.04054C5.42339 9.26558 5.11816 9.39201 4.7999 9.39201H3.5999V7.59201ZM3.5999 10.592H4.7999C5.43642 10.592 6.04687 10.3392 6.49696 9.88906C6.94705 9.43898 7.1999 8.82853 7.1999 8.19201V6.99201H14.3999V8.19201C14.3999 8.82853 14.6528 9.43898 15.1028 9.88906C15.5529 10.3392 16.1634 10.592 16.7999 10.592H17.9999V12.992H16.7999C16.1634 12.992 15.5529 13.2449 15.1028 13.695C14.6528 14.145 14.3999 14.7555 14.3999 15.392V16.592H7.1999V15.392C7.1999 14.7555 6.94705 14.145 6.49696 13.695C6.04687 13.2449 5.43642 12.992 4.7999 12.992H3.5999V10.592ZM15.5999 6.99201H17.3999C17.559 6.99201 17.7116 7.05522 17.8242 7.16774C17.9367 7.28027 17.9999 7.43288 17.9999 7.59201V9.39201H16.7999C16.4816 9.39201 16.1764 9.26558 15.9514 9.04054C15.7263 8.81549 15.5999 8.51027 15.5999 8.19201V6.99201ZM17.9999 14.192V15.992C17.9999 16.1511 17.9367 16.3038 17.8242 16.4163C17.7116 16.5288 17.559 16.592 17.3999 16.592H15.5999V15.392C15.5999 15.0737 15.7263 14.7685 15.9514 14.5435C16.1764 14.3184 16.4816 14.192 16.7999 14.192H17.9999ZM5.9999 16.592H4.1999C4.04077 16.592 3.88816 16.5288 3.77564 16.4163C3.66312 16.3038 3.5999 16.1511 3.5999 15.992V14.192H4.7999C5.11816 14.192 5.42339 14.3184 5.64843 14.5435C5.87347 14.7685 5.9999 15.0737 5.9999 15.392V16.592ZM20.3999 15.992C20.3999 16.7877 20.0838 17.5507 19.5212 18.1133C18.9586 18.6759 18.1956 18.992 17.3999 18.992H4.9019C5.02603 19.3431 5.256 19.6471 5.56011 19.862C5.86423 20.0769 6.22751 20.1922 6.5999 20.192H17.3999C18.5138 20.192 19.5821 19.7495 20.3698 18.9619C21.1574 18.1742 21.5999 17.1059 21.5999 15.992V9.99201C21.6001 9.61962 21.4848 9.25633 21.2699 8.95222C21.0549 8.64811 20.751 8.41814 20.3999 8.29401V15.992Z" fill="#9FA5B8"/>
</svg>
