<svg width="24" height="25" viewBox="0 0 24 25" fill="none" xmlns="http://www.w3.org/2000/svg">
<path d="M15.4425 17.492L11.25 13.2995V8H12.75V12.677L16.5 16.4345L15.4425 17.492Z" fill="#9FA5B8"/>
<path d="M12 2.492C10.6012 2.4922 9.21669 2.77309 7.92842 3.31803C6.64015 3.86296 5.47433 4.66087 4.5 5.6645V2.492H3V8.492H9V6.992H5.31C6.71702 5.42848 8.62724 4.40715 10.7089 4.10541C12.7905 3.80367 14.9121 4.24057 16.7052 5.34023C18.4983 6.4399 19.8495 8.13286 20.5243 10.1251C21.1991 12.1173 21.1547 14.283 20.399 16.2459C19.6433 18.2089 18.2239 19.8452 16.3873 20.8705C14.5507 21.8959 12.4131 22.2456 10.3455 21.8589C8.27793 21.4723 6.41111 20.3736 5.06925 18.7538C3.72739 17.134 2.99525 15.0954 3 12.992H1.5C1.5 15.0687 2.11581 17.0988 3.26957 18.8255C4.42332 20.5522 6.0632 21.898 7.98182 22.6927C9.90045 23.4875 12.0116 23.6954 14.0484 23.2902C16.0852 22.8851 17.9562 21.8851 19.4246 20.4166C20.8931 18.9482 21.8931 17.0773 22.2982 15.0405C22.7034 13.0037 22.4955 10.8925 21.7007 8.97383C20.906 7.0552 19.5602 5.41533 17.8335 4.26157C16.1068 3.10782 14.0767 2.492 12 2.492Z" fill="#9FA5B8"/>
</svg>
