<svg width="24" height="25" viewBox="0 0 24 25" fill="none" xmlns="http://www.w3.org/2000/svg">
<path d="M14.125 10.5C14.125 10.5 8.12511 10.5 4.62503 10.5C1.12495 10.5 1.12503 16 4.62503 16C8.12503 16 15.1251 16 18.625 16C22.125 16 22.125 21.5 18.625 21.5C15.1251 21.5 8.12503 21.5 8.12503 21.5" stroke="#9FA5B8" stroke-width="2" stroke-linecap="round" stroke-linejoin="round"/>
<path fill-rule="evenodd" clip-rule="evenodd" d="M15 6.57692C15 4.53785 16.5039 3 18.4982 3C20.4948 3 22 4.5374 22 6.57647C22 9.43893 19.8584 11.2265 18.9376 11.862C18.8039 11.9539 18.6508 12 18.4982 12C18.3446 12 18.1915 11.9538 18.0579 11.8615C17.1388 11.2274 15 9.44215 15 6.57692ZM18.5 8C19.3284 8 20 7.32843 20 6.5C20 5.67157 19.3284 5 18.5 5C17.6716 5 17 5.67157 17 6.5C17 7.32843 17.6716 8 18.5 8Z" fill="#9FA5B8"/>
<circle cx="3.25" cy="21.25" r="2.25" fill="#9FA5B8"/>
</svg>
