<svg width="24" height="25" viewBox="0 0 24 25" fill="none" xmlns="http://www.w3.org/2000/svg">
<path d="M18.5 4.84615C17.5661 4.84615 16.8065 5.62246 16.8065 6.57692C16.8065 7.53138 17.5661 8.30769 18.5 8.30769C19.4339 8.30769 20.1935 7.53138 20.1935 6.57692C20.1935 5.62246 19.4339 4.84615 18.5 4.84615ZM18.5 7.61538C17.9395 7.61538 17.4839 7.14969 17.4839 6.57692C17.4839 6.00415 17.9395 5.53846 18.5 5.53846C19.0605 5.53846 19.5161 6.00415 19.5161 6.57692C19.5161 7.14969 19.0605 7.61538 18.5 7.61538ZM18.4982 3C16.5039 3 15 4.53785 15 6.57692C15 9.44215 17.1388 11.2274 18.0579 11.8615C18.1915 11.9538 18.3446 12 18.4982 12C18.6508 12 18.8039 11.9539 18.9376 11.862C19.8584 11.2265 22 9.43893 22 6.57647C22 4.5374 20.4948 3 18.4982 3ZM18.5587 11.2883C18.5212 11.3142 18.4747 11.3142 18.4372 11.2883C17.7896 10.8415 15.6774 9.18138 15.6774 6.57692C15.6774 4.93246 16.89 3.69231 18.4982 3.69231C20.1082 3.69231 21.3226 4.93246 21.3226 6.57692C21.3226 9.10754 19.3897 10.7151 18.5587 11.2883Z" fill="#9FA5B8" stroke="#9FA5B8" stroke-width="0.6"/>
<path d="M14.125 10.5C14.125 10.5 8.12511 10.5 4.62503 10.5C1.12495 10.5 1.12503 16 4.62503 16C8.12503 16 15.1251 16 18.625 16C22.125 16 22.125 21.5 18.625 21.5C15.1251 21.5 8.12503 21.5 8.12503 21.5" stroke="#9FA5B8" stroke-width="1.5" stroke-linecap="round" stroke-linejoin="round"/>
<circle cx="4" cy="21" r="2" stroke="#9FA5B8" stroke-width="1.5"/>
</svg>
