<svg width="20" height="72" viewBox="0 0 20 72" fill="none" xmlns="http://www.w3.org/2000/svg">
<path d="M9.75004 52.8335C6.20254 52.8335 3.33337 55.7027 3.33337 59.2502C3.33337 64.0627 9.75004 71.1668 9.75004 71.1668C9.75004 71.1668 16.1667 64.0627 16.1667 59.2502C16.1667 55.7027 13.2975 52.8335 9.75004 52.8335ZM5.16671 59.2502C5.16671 56.7202 7.22004 54.6668 9.75004 54.6668C12.28 54.6668 14.3334 56.7202 14.3334 59.2502C14.3334 61.8902 11.6934 65.841 9.75004 68.3068C7.84337 65.8593 5.16671 61.8627 5.16671 59.2502Z" fill="#605F6B"/>
<path d="M9.75 62.0002C11.1307 62.0002 12.25 60.8809 12.25 59.5002C12.25 58.1195 11.1307 57.0002 9.75 57.0002C8.36929 57.0002 7.25 58.1195 7.25 59.5002C7.25 60.8809 8.36929 62.0002 9.75 62.0002Z" fill="#605F6B"/>
<path d="M10 24L10 48" stroke="#605F6B" stroke-dasharray="4 4"/>
<g clip-path="url(#clip0_213_20)">
<path d="M17.45 9.16683C17.0667 5.69183 14.3084 2.9335 10.8334 2.55016V0.833496H9.16671V2.55016C5.69171 2.9335 2.93337 5.69183 2.55004 9.16683H0.833374V10.8335H2.55004C2.93337 14.3085 5.69171 17.0668 9.16671 17.4502V19.1668H10.8334V17.4502C14.3084 17.0668 17.0667 14.3085 17.45 10.8335H19.1667V9.16683H17.45ZM10 15.8335C6.77504 15.8335 4.16671 13.2252 4.16671 10.0002C4.16671 6.77516 6.77504 4.16683 10 4.16683C13.225 4.16683 15.8334 6.77516 15.8334 10.0002C15.8334 13.2252 13.225 15.8335 10 15.8335Z" fill="#605F6B"/>
</g>
<defs>
<clipPath id="clip0_213_20">
<rect width="20" height="20" fill="white"/>
</clipPath>
</defs>
</svg>
