<svg width="24" height="24" viewBox="0 0 24 24" fill="none" xmlns="http://www.w3.org/2000/svg">
<path d="M16.7233 14.8365H15.7296L15.3774 14.4969C16.6101 13.0629 17.3522 11.2013 17.3522 9.1761C17.3522 4.66038 13.6918 1 9.1761 1C4.66038 1 1 4.66038 1 9.1761C1 13.6918 4.66038 17.3522 9.1761 17.3522C11.2013 17.3522 13.0629 16.6101 14.4969 15.3774L14.8365 15.7296V16.7233L21.1258 23L23 21.1258L16.7233 14.8365ZM9.1761 14.8365C6.04403 14.8365 3.51572 12.3082 3.51572 9.1761C3.51572 6.04403 6.04403 3.51572 9.1761 3.51572C12.3082 3.51572 14.8365 6.04403 14.8365 9.1761C14.8365 12.3082 12.3082 14.8365 9.1761 14.8365Z" fill="#282830"/>
</svg>
