<svg width="24" height="24" viewBox="0 0 24 24" fill="none" xmlns="http://www.w3.org/2000/svg">
<path d="M7.336 16.441C6.137 15.253 5.4 13.603 5.4 11.777C5.4 9.951 6.137 8.301 7.336 7.113L8.898 8.675C8.095 9.467 7.6 10.567 7.6 11.777C7.6 12.987 8.095 14.087 8.887 14.89L7.336 16.441ZM16.664 16.441C17.863 15.253 18.6 13.603 18.6 11.777C18.6 9.951 17.863 8.301 16.664 7.113L15.102 8.675C15.905 9.467 16.4 10.567 16.4 11.777C16.4 12.987 15.905 14.087 15.113 14.89L16.664 16.441ZM12 9.577C10.79 9.577 9.8 10.567 9.8 11.777C9.8 12.987 10.79 13.977 12 13.977C13.21 13.977 14.2 12.987 14.2 11.777C14.2 10.567 13.21 9.577 12 9.577ZM20.8 11.777C20.8 14.208 19.81 16.408 18.215 17.992L19.777 19.554C21.768 17.563 23 14.813 23 11.777C23 8.741 21.768 5.991 19.777 4L18.215 5.562C19.81 7.146 20.8 9.346 20.8 11.777ZM5.785 5.562L4.223 4C2.232 5.991 1 8.741 1 11.777C1 14.813 2.232 17.563 4.223 19.554L5.785 17.992C4.19 16.408 3.2 14.208 3.2 11.777C3.2 9.346 4.19 7.146 5.785 5.562Z" fill="#282830"/>
</svg>
