<svg width="24" height="24" viewBox="0 0 24 24" fill="none" xmlns="http://www.w3.org/2000/svg">
<path d="M20.4048 13.078C20.45 12.726 20.4839 12.374 20.4839 12C20.4839 11.626 20.45 11.274 20.4048 10.922L22.7909 9.107C23.0058 8.942 23.0623 8.645 22.9266 8.403L20.6649 4.597C20.5631 4.421 20.3709 4.322 20.1673 4.322C20.0994 4.322 20.0316 4.333 19.975 4.355L17.1592 5.455C16.5712 5.015 15.9379 4.652 15.2481 4.377L14.8183 1.462C14.7844 1.198 14.5469 1 14.2642 1H9.74078C9.45807 1 9.22059 1.198 9.18666 1.462L8.75693 4.377C8.06711 4.652 7.43383 5.026 6.84578 5.455L4.02994 4.355C3.96209 4.333 3.89424 4.322 3.82639 4.322C3.63414 4.322 3.4419 4.421 3.34012 4.597L1.0784 8.403C0.931393 8.645 0.999244 8.942 1.21411 9.107L3.60022 10.922C3.55498 11.274 3.52106 11.637 3.52106 12C3.52106 12.363 3.55498 12.726 3.60022 13.078L1.21411 14.893C0.999244 15.058 0.942701 15.355 1.0784 15.597L3.34012 19.403C3.4419 19.579 3.63415 19.678 3.8377 19.678C3.90555 19.678 3.9734 19.667 4.02994 19.645L6.84578 18.545C7.43383 18.985 8.06711 19.348 8.75693 19.623L9.18666 22.538C9.22059 22.802 9.45807 23 9.74078 23H14.2642C14.5469 23 14.7844 22.802 14.8183 22.538L15.2481 19.623C15.9379 19.348 16.5712 18.974 17.1592 18.545L19.975 19.645C20.0429 19.667 20.1108 19.678 20.1786 19.678C20.3709 19.678 20.5631 19.579 20.6649 19.403L22.9266 15.597C23.0623 15.355 23.0058 15.058 22.7909 14.893L20.4048 13.078ZM18.1657 11.197C18.2109 11.538 18.2222 11.769 18.2222 12C18.2222 12.231 18.1996 12.473 18.1657 12.803L18.0074 14.046L19.0138 14.816L20.2351 15.74L19.4435 17.071L18.0074 16.51L16.8313 16.048L15.8135 16.796C15.3272 17.148 14.8636 17.412 14.3999 17.599L13.2012 18.072L13.0203 19.315L12.7941 20.8H11.2109L10.996 19.315L10.8151 18.072L9.61639 17.599C9.13012 17.401 8.67777 17.148 8.22543 16.818L7.19635 16.048L5.99764 16.521L4.56145 17.082L3.76985 15.751L4.99118 14.827L5.99764 14.057L5.83932 12.814C5.80539 12.473 5.78278 12.22 5.78278 12C5.78278 11.78 5.80539 11.527 5.83932 11.197L5.99764 9.954L4.99118 9.184L3.76985 8.26L4.56145 6.929L5.99764 7.49L7.17373 7.952L8.1915 7.204C8.67777 6.852 9.14143 6.588 9.60508 6.401L10.8038 5.928L10.9847 4.685L11.2109 3.2H12.7828L12.9977 4.685L13.1786 5.928L14.3773 6.401C14.8636 6.599 15.3159 6.852 15.7683 7.182L16.7973 7.952L17.996 7.479L19.4322 6.918L20.2238 8.249L19.0138 9.184L18.0074 9.954L18.1657 11.197ZM12.0025 7.6C9.5033 7.6 7.47906 9.569 7.47906 12C7.47906 14.431 9.5033 16.4 12.0025 16.4C14.5017 16.4 16.5259 14.431 16.5259 12C16.5259 9.569 14.5017 7.6 12.0025 7.6ZM12.0025 14.2C10.7586 14.2 9.74078 13.21 9.74078 12C9.74078 10.79 10.7586 9.8 12.0025 9.8C13.2464 9.8 14.2642 10.79 14.2642 12C14.2642 13.21 13.2464 14.2 12.0025 14.2Z" fill="#282830"/>
</svg>
