<svg width="17" height="21" viewBox="0 0 17 21" fill="none" xmlns="http://www.w3.org/2000/svg">
<path d="M2 8.74934V19.2493C2 19.3873 2.112 19.4993 2.25 19.4993H14.75C14.8163 19.4993 14.8799 19.473 14.9268 19.4261C14.9737 19.3792 15 19.3156 15 19.2493V8.74934C15 8.68304 14.9737 8.61945 14.9268 8.57256C14.8799 8.52568 14.8163 8.49934 14.75 8.49934H12.25C12.0511 8.49934 11.8603 8.42032 11.7197 8.27967C11.579 8.13902 11.5 7.94825 11.5 7.74934C11.5 7.55043 11.579 7.35966 11.7197 7.21901C11.8603 7.07836 12.0511 6.99934 12.25 6.99934H14.75C15.716 6.99934 16.5 7.78334 16.5 8.74934V19.2493C16.5 19.7135 16.3156 20.1586 15.9874 20.4868C15.6592 20.815 15.2141 20.9993 14.75 20.9993H2.25C1.78587 20.9993 1.34075 20.815 1.01256 20.4868C0.684375 20.1586 0.5 19.7135 0.5 19.2493V8.74934C0.5 7.78334 1.284 6.99934 2.25 6.99934H4.75C4.94891 6.99934 5.13968 7.07836 5.28033 7.21901C5.42098 7.35966 5.5 7.55043 5.5 7.74934C5.5 7.94825 5.42098 8.13902 5.28033 8.27967C5.13968 8.42032 4.94891 8.49934 4.75 8.49934H2.25C2.1837 8.49934 2.12011 8.52568 2.07322 8.57256C2.02634 8.61945 2 8.68304 2 8.74934ZM9.03 0.21934L12.28 3.46934C12.3787 3.56101 12.4509 3.67761 12.4889 3.80686C12.5269 3.93611 12.5294 4.07322 12.496 4.20375C12.4626 4.33427 12.3947 4.45338 12.2993 4.54852C12.2039 4.64366 12.0846 4.71131 11.954 4.74434C11.8236 4.77776 11.6867 4.77543 11.5575 4.73759C11.4283 4.69976 11.3117 4.62782 11.22 4.52934L9.25 2.55934V13.2493C9.25 13.4483 9.17098 13.639 9.03033 13.7797C8.88968 13.9203 8.69891 13.9993 8.5 13.9993C8.30109 13.9993 8.11032 13.9203 7.96967 13.7797C7.82902 13.639 7.75 13.4483 7.75 13.2493V2.55934L5.78 4.52934C5.63774 4.66175 5.44969 4.73385 5.25537 4.7305C5.06105 4.72714 4.8756 4.64858 4.738 4.51134C4.60076 4.37374 4.5222 4.18829 4.51884 3.99397C4.51549 3.79965 4.58759 3.6116 4.72 3.46934L7.97 0.21934C8.11063 0.0788896 8.30125 0 8.5 0C8.69875 0 8.88937 0.0788896 9.03 0.21934Z" fill="#7675D3"/>
</svg>
