<svg width="361" height="433" viewBox="0 0 361 433" fill="none" xmlns="http://www.w3.org/2000/svg">
<g clip-path="url(#clip0_94_3682)">
<path d="M-7.38574 145.552L56.3513 162.685L72.7477 120.215L-7.38574 102.169V145.552Z" fill="#EEF5FB"/>
<path d="M91.9816 70.3918L50.1142 58.836L-7.38574 43.6479V93.4919L75.8286 112.233L91.9816 70.3918Z" fill="#EEF5FB"/>
<path d="M40.9273 213.774L-7.38574 200.892V262.904L24.2135 270.261L40.9273 213.774Z" fill="#EEF5FB"/>
<path d="M-7.38574 343.194L14.1516 304.266L21.8075 278.391L-7.38574 271.594V343.194Z" fill="#EEF5FB"/>
<path d="M20.9156 19.9426L-7.38574 -0.339874V32.7046L48.3325 47.423L54.432 32.1735L21.5166 20.3733L20.9156 19.9426Z" fill="#EEF5FB"/>
<mask id="mask0_94_3682" style="mask-type:luminance" maskUnits="userSpaceOnUse" x="0" y="-76" width="530" height="530">
<path d="M529.017 -75.7057H0V453.311H529.017V-75.7057Z" fill="white"/>
</mask>
<g mask="url(#mask0_94_3682)">
<path d="M271.827 142.002L263.206 191.56C261.927 198.913 254.611 203.582 247.402 201.645L101.046 162.305C93.7619 160.347 89.7816 152.508 92.4975 145.472L111.575 96.0566C113.925 89.9686 120.507 86.6538 126.797 88.39L262.823 125.937C268.679 127.553 272.57 133.092 272.104 139.149L271.977 140.8C271.946 141.203 271.897 141.604 271.827 142.002Z" fill="#EEF5FB"/>
</g>
<path d="M259.969 377.418L270.461 380.501L324.605 398.198L337.542 352.591L268.274 331.56C265.579 346.444 262.762 361.997 259.969 377.418Z" fill="#EEF5FB"/>
<path d="M284.358 228.226L294.851 231.31L348.995 249.006L361.931 203.4L292.664 182.368C289.969 197.252 287.152 212.806 284.358 228.226Z" fill="#EEF5FB"/>
<path d="M354.163 297.286L281.121 268.663C278.381 283.807 275.031 302.318 271.433 322.201L341.097 343.353L354.163 297.286Z" fill="#EEF5FB"/>
<path d="M376.154 153.26L303.111 124.638C300.371 139.781 297.021 158.292 293.423 178.175L363.087 199.327L376.154 153.26Z" fill="#EEF5FB"/>
<path d="M284.391 110.486L287.857 65.4487L259.493 57.9091L243.386 99.1682L284.391 110.486Z" fill="#EEF5FB"/>
<path d="M295.21 112.588L291.744 67.5502L320.107 60.0107L336.215 101.27L295.21 112.588Z" fill="#EEF5FB"/>
<path d="M194.446 85.6603L210.377 44.8519L169.495 33.9838L153.71 74.4155L194.446 85.6603Z" fill="#EEF5FB"/>
<path d="M113.445 63.3019L149.608 73.2834L165.378 32.8888L128.926 23.1993L113.445 63.3019Z" fill="#EEF5FB"/>
<path d="M239.283 98.0361L255.376 56.8151L214.494 45.9459L198.547 86.7924L239.283 98.0361Z" fill="#EEF5FB"/>
<path d="M111.256 20.4653L74.4276 10.6743L58.6143 50.2066L95.8105 60.4728L111.256 20.4653Z" fill="#EEF5FB"/>
<path d="M165.878 234.176L174.068 203.297L112.161 186.657L104.911 217.918L165.878 234.176Z" fill="#EEF5FB"/>
<path d="M63.2684 175.501L54.145 206.349L93.433 216.826L100.686 185.558L63.2684 175.501Z" fill="#EEF5FB"/>
<path d="M53.0636 172.758L-5.69115 156.964L-11.5347 188.835L43.9296 203.626L53.0636 172.758Z" fill="#EEF5FB"/>
<path d="M91.0409 234.524L51.1435 223.885L40.5483 259.707L82.2613 272.372L91.0409 234.524Z" fill="#EEF5FB"/>
<path d="M152.37 296.368L141.636 342.644L187.518 356.126L198.154 310.269L152.37 296.368Z" fill="#EEF5FB"/>
<path d="M100.134 280.507L89.2891 327.26L137.569 341.448L148.311 295.136L100.134 280.507Z" fill="#EEF5FB"/>
<path d="M149.27 289.157L158.471 249.49L109.904 236.539L101.093 274.528L149.27 289.157Z" fill="#EEF5FB"/>
<path d="M39.3473 263.766L25.6362 310.125L70.4503 323.295L81.3036 276.505L39.3473 263.766Z" fill="#EEF5FB"/>
<path d="M199.113 304.29L218.313 221.514L191.671 214.353L180.774 255.437L162.562 250.581L153.329 290.389L199.113 304.29Z" fill="#EEF5FB"/>
<path d="M258.841 322.425C264.445 291.473 269.901 261.317 274.373 236.583L222.403 222.614L203.172 305.522L258.841 322.425Z" fill="#EEF5FB"/>
<path d="M191.585 357.322L249.76 374.417C252.493 359.329 255.301 343.826 258.082 328.465L202.213 311.501L191.585 357.322Z" fill="#EEF5FB"/>
<path d="M29.8555 322.392L55.1499 368.528L70.0417 373.517L80.6824 337.328L29.8555 322.392Z" fill="#EEF5FB"/>
<path d="M92.1289 338.522L81.4438 374.863L158.005 400.513L167.702 360.73L92.1289 338.522Z" fill="#EEF5FB"/>
<path opacity="0.4" d="M244 403C244 398.798 243.146 394.637 241.488 390.754C239.83 386.872 237.399 383.344 234.335 380.373C231.27 377.401 227.632 375.044 223.629 373.436C219.625 371.828 215.334 371 211 371L211 403H244Z" fill="#BCDBF5"/>
<path opacity="0.4" d="M244 403C244 407.334 243.146 411.625 241.488 415.629C239.83 419.632 237.399 423.27 234.335 426.335C231.27 429.399 227.632 431.83 223.629 433.488C219.625 435.146 215.334 436 211 436L211 403H244Z" fill="#BCDBF5"/>
<path opacity="0.4" d="M179 403C179 398.798 179.828 394.637 181.436 390.754C183.044 386.872 185.401 383.344 188.373 380.373C191.344 377.401 194.872 375.044 198.754 373.436C202.637 371.828 206.798 371 211 371L211 403H179Z" fill="#BCDBF5"/>
<path opacity="0.4" d="M179 403C179 407.334 179.828 411.625 181.436 415.629C183.044 419.632 185.401 423.27 188.373 426.335C191.344 429.399 194.872 431.83 198.754 433.488C202.637 435.146 206.798 436 211 436L211 403H179Z" fill="#BCDBF5"/>
<circle cx="211.5" cy="403.5" r="11.7726" fill="#1D71B8" stroke="white" stroke-width="4.54519"/>
<path d="M183.724 380.375L167.568 356.371L77.2632 327.772L102.364 225.66L172.934 243.945L178.56 220.503L184.186 197.061L72.9355 167.056L104.528 80.322" stroke="#5EA6E3" stroke-width="1.84648" stroke-dasharray="5.54 5.54"/>
<path d="M107 37C103.023 37.0047 99.2106 38.579 96.3986 41.3776C93.5866 44.1763 92.0047 47.9707 92 51.9286C91.9953 55.1629 93.0568 58.3096 95.0218 60.8857C95.0218 60.8857 95.4309 61.4218 95.4977 61.4991L107 75L118.508 61.4924C118.568 61.4204 118.978 60.8857 118.978 60.8857L118.98 60.8816C120.944 58.3066 122.005 55.1615 122 51.9286C121.995 47.9707 120.413 44.1763 117.601 41.3776C114.789 38.579 110.977 37.0047 107 37ZM107 57.3571C105.921 57.3571 104.867 57.0388 103.97 56.4423C103.073 55.8458 102.374 54.9979 101.961 54.006C101.548 53.0141 101.44 51.9225 101.65 50.8695C101.861 49.8165 102.38 48.8492 103.143 48.09C103.906 47.3308 104.878 46.8138 105.936 46.6043C106.994 46.3948 108.091 46.5023 109.087 46.9132C110.084 47.3241 110.936 48.0199 111.535 48.9126C112.135 49.8053 112.455 50.8549 112.455 51.9286C112.453 53.3678 111.877 54.7475 110.855 55.7652C109.832 56.7828 108.446 57.3553 107 57.3571Z" fill="#13D485"/>
</g>
<defs>
<clipPath id="clip0_94_3682">
<rect width="360.064" height="433" fill="white"/>
</clipPath>
</defs>
</svg>
