<svg width="56" height="56" viewBox="0 0 56 56" fill="none" xmlns="http://www.w3.org/2000/svg">
<g clip-path="url(#clip0_70_2174)">
<path d="M28 56C43.464 56 56 43.464 56 28C56 12.536 43.464 0 28 0C12.536 0 0 12.536 0 28C0 43.464 12.536 56 28 56Z" fill="#1D9E62"/>
<path d="M40.8987 31.9745C40.5208 32.3524 39.9081 32.3524 39.5302 31.9745C39.1523 31.5966 39.1523 30.9839 39.5302 30.606C40.9315 29.2047 40.9315 26.9244 39.5302 25.5231C39.1523 25.1452 39.1523 24.5325 39.5302 24.1546C39.9081 23.7767 40.5208 23.7767 40.8988 24.1546C43.0547 26.3105 43.0547 29.8186 40.8987 31.9745ZM16.4698 30.5414C15.1008 29.1724 15.0361 26.8923 16.4698 25.4586C16.8477 25.0807 16.8477 24.468 16.4698 24.0901C16.0919 23.7122 15.4792 23.7122 15.1012 24.0901C12.9452 26.2461 12.9453 29.754 15.1012 31.91C15.4791 32.2879 16.0918 32.2879 16.4697 31.91C16.8478 31.532 16.8478 30.9193 16.4698 30.5414ZM28 44.5156C30.3297 44.5156 32.3599 43.2088 33.3965 41.2899H22.6037C23.6401 43.2088 25.6703 44.5156 28 44.5156ZM37.3075 34.1934H18.6925L16.8122 37.954C16.4905 38.5975 16.9583 39.3544 17.6778 39.3544H38.3223C39.0417 39.3544 39.5096 38.5973 39.1879 37.954L37.3075 34.1934ZM36.7094 32.258H19.2906V25.4839C19.2906 21.6919 21.7144 18.4665 25.0969 17.2708V14.3874C25.0969 12.7867 26.3992 11.4844 28 11.4844C29.6008 11.4844 30.9032 12.7867 30.9032 14.3875V17.2709C34.2857 18.4665 36.7094 21.692 36.7094 25.484V32.258ZM28.9678 14.3875C28.9678 13.8539 28.5337 13.4198 28 13.4198C27.4664 13.4198 27.0323 13.8539 27.0323 14.3875V16.8283C27.3501 16.7932 27.6728 16.7745 28 16.7745C28.3272 16.7745 28.6499 16.7932 28.9678 16.8283V14.3875Z" fill="white"/>
</g>
<defs>
<clipPath id="clip0_70_2174">
<rect width="56" height="56" fill="white"/>
</clipPath>
</defs>
</svg>
