<svg width="56" height="56" viewBox="0 0 56 56" fill="none" xmlns="http://www.w3.org/2000/svg">
<g clip-path="url(#clip0_69_1979)">
<path d="M28 56C43.464 56 56 43.464 56 28C56 12.536 43.464 0 28 0C12.536 0 0 12.536 0 28C0 43.464 12.536 56 28 56Z" fill="#1D9E62"/>
<path d="M34.9158 20.6577C34.9158 16.8383 31.8194 13.7419 28 13.7419C24.1806 13.7419 21.0842 16.8383 21.0842 20.6577C21.0842 24.477 24.1806 27.5734 28 27.5734C31.8194 27.5734 34.9158 24.477 34.9158 20.6577Z" fill="white"/>
<path d="M30.9279 24.2189C31.1029 24.3939 31.3862 24.3939 31.5612 24.2189C31.7362 24.0439 31.7362 23.7606 31.5612 23.5856C31.3862 23.4106 31.1029 23.4106 30.9279 23.5856C30.7529 23.7606 30.7529 24.0439 30.9279 24.2189Z" fill="white"/>
<path d="M37.9607 34.79C37.3547 34.5855 36.6865 34.8184 36.3321 35.3511L36.3157 35.3763C35.8125 36.1309 36.1385 37.1547 36.9829 37.4861C38.8488 38.2178 39.983 39.1781 39.983 40.2281C39.983 42.5152 34.6083 44.3767 28.001 44.3767C21.3936 44.3767 16.019 42.5163 16.019 40.2281C16.019 39.1781 17.1521 38.2178 19.0169 37.4861C19.8624 37.1547 20.1883 36.1309 19.6852 35.3763C19.6797 35.3675 19.6743 35.3599 19.6688 35.3511C19.3144 34.8195 18.6472 34.5855 18.0413 34.79C14.2843 36.0566 11.8704 38.0209 11.8704 40.2281C11.8704 44.0453 19.0924 47.1417 28.001 47.1417C36.9096 47.1417 44.1316 44.0464 44.1316 40.2281C44.1316 38.0209 41.7188 36.0566 37.9618 34.79H37.9607Z" fill="white"/>
<path d="M29.8363 39.3148C33.1526 34.9355 39.7982 25.5478 39.7982 20.6577C39.7982 14.1422 34.5165 8.85938 27.9999 8.85938C21.4834 8.85938 16.2017 14.1411 16.2017 20.6577C16.2017 25.5478 22.8484 34.9366 26.1635 39.3148C27.0845 40.5311 28.9143 40.5311 29.8353 39.3148H29.8363ZM18.8409 20.6577C18.8409 15.5991 22.9413 11.4986 27.9999 11.4986C33.0585 11.4986 37.159 15.5991 37.159 20.6577C37.159 25.7162 33.0585 29.8167 27.9999 29.8167C22.9413 29.8167 18.8409 25.7162 18.8409 20.6577Z" fill="white"/>
</g>
<defs>
<clipPath id="clip0_69_1979">
<rect width="56" height="56" fill="white"/>
</clipPath>
</defs>
</svg>
