<svg width="24" height="24" viewBox="0 0 24 24" fill="none" xmlns="http://www.w3.org/2000/svg">
<path d="M8.5 11C9.32843 11 10 10.3284 10 9.5C10 8.67157 9.32843 8 8.5 8C7.67157 8 7 8.67157 7 9.5C7 10.3284 7.67157 11 8.5 11Z" fill="#282830"/>
<path d="M12 17.5C14.33 17.5 16.31 16.04 17.11 14H6.89001C7.69001 16.04 9.67001 17.5 12 17.5Z" fill="#282830"/>
<path d="M15.5 11C16.3284 11 17 10.3284 17 9.5C17 8.67157 16.3284 8 15.5 8C14.6716 8 14 8.67157 14 9.5C14 10.3284 14.6716 11 15.5 11Z" fill="#282830"/>
<path d="M11.989 1C5.917 1 1 5.928 1 12C1 18.072 5.917 23 11.989 23C18.072 23 23 18.072 23 12C23 5.928 18.072 1 11.989 1ZM12 20.8C7.138 20.8 3.2 16.862 3.2 12C3.2 7.138 7.138 3.2 12 3.2C16.862 3.2 20.8 7.138 20.8 12C20.8 16.862 16.862 20.8 12 20.8Z" fill="#282830"/>
</svg>
