<svg width="23" height="23" viewBox="0 0 23 23" fill="none" xmlns="http://www.w3.org/2000/svg">
<path d="M11.155 22.31C17.3157 22.31 22.31 17.3157 22.31 11.155C22.31 4.99426 17.3157 0 11.155 0C4.99426 0 0 4.99426 0 11.155C0 17.3157 4.99426 22.31 11.155 22.31Z" fill="#EDF0F9"/>
<g clip-path="url(#clip0_8_146)">
<path d="M8.13408 6.1284L7.71859 6.54389C5.65338 8.6091 5.65338 11.9574 7.71859 14.0226L8.13408 14.4382L7.3031 15.2692L6.88762 14.8537C4.36347 12.3295 4.36347 8.23706 6.88762 5.71291L7.3031 5.29742L8.13408 6.1284Z" fill="#72788D"/>
<path d="M15.6131 5.29742L16.0286 5.71291C18.5527 8.23706 18.5527 12.3295 16.0286 14.8537L15.6131 15.2692L14.7821 14.4382L15.1976 14.0226C17.2628 11.9574 17.2628 8.6091 15.1976 6.54389L14.7821 6.1284L15.6131 5.29742Z" fill="#72788D"/>
<path d="M9.79614 7.79014L9.38066 8.20563C8.23332 9.35297 8.23332 11.2132 9.38066 12.3605L9.79614 12.776L8.96517 13.6069L8.54968 13.1915C6.9434 11.5852 6.9434 8.98093 8.54968 7.37465L8.96517 6.95917L9.79614 7.79014Z" fill="#72788D"/>
<path d="M13.9507 6.95917L14.3662 7.37465C15.9725 8.98093 15.9725 11.5852 14.3662 13.1915L13.9507 13.6069L13.1198 12.776L13.5352 12.3605C14.6826 11.2132 14.6826 9.35297 13.5352 8.20563L13.1198 7.79014L13.9507 6.95917Z" fill="#72788D"/>
<path fill-rule="evenodd" clip-rule="evenodd" d="M9.69531 10.2828C9.69531 9.30929 10.4845 8.52008 11.4581 8.52008C12.4316 8.52008 13.2208 9.30929 13.2208 10.2828C13.2208 11.0503 12.7303 11.7033 12.0457 11.9453V17.3339H10.8705V11.9453C10.1858 11.7033 9.69531 11.0503 9.69531 10.2828ZM11.4581 9.69526C11.1335 9.69526 10.8705 9.95833 10.8705 10.2828C10.8705 10.6074 11.1335 10.8704 11.4581 10.8704C11.7826 10.8704 12.0457 10.6074 12.0457 10.2828C12.0457 9.95833 11.7826 9.69526 11.4581 9.69526Z" fill="#72788D"/>
</g>
<defs>
<clipPath id="clip0_8_146">
<rect width="14.1021" height="14.1021" fill="white" transform="translate(4.40686 4.40692)"/>
</clipPath>
</defs>
</svg>
