<svg width="38" height="20" viewBox="0 0 38 20" fill="none" xmlns="http://www.w3.org/2000/svg">
<rect width="38" height="20" rx="10" fill="#C7C7D1"/>
<path d="M18.7736 6.88376C18.7009 5.81063 17.7683 5 16.6979 5H11.0799C10.0094 5 9.07684 5.81063 9.00422 6.88376C9.00132 6.93048 9 6.98012 9 7.02816V13.6408C9 14.262 9.41481 14.7854 9.98198 14.9473C10.0007 14.9531 10.0211 14.959 10.0414 14.9619V15.57C10.0414 15.8076 10.2341 16 10.4707 16H11.4178C11.6544 16 11.8472 15.8076 11.8472 15.57V14.9999H15.9306V15.57C15.9306 15.8076 16.1234 16 16.3599 16H17.3071C17.5436 16 17.7364 15.8076 17.7364 15.57V14.9619C17.7567 14.959 17.7771 14.9531 17.7958 14.9473C18.363 14.7854 18.7778 14.262 18.7778 13.6408V7.02816C18.7778 6.98012 18.7765 6.93048 18.7736 6.88376ZM10.6854 13.9994C9.49878 13.944 9.74407 12.3357 11.157 12.887C11.8997 13.1801 12.2491 14.0724 10.6854 13.9994ZM17.0927 13.9994C15.529 14.0724 15.8786 13.1801 16.6211 12.887C18.034 12.3357 18.279 13.9442 17.0927 13.9994ZM17.9658 10.0567C17.9658 10.6996 17.49 11.2451 16.8563 11.3268C15.9053 11.4473 14.9481 11.5092 13.9909 11.5124C13.9569 11.5124 13.9231 11.5124 13.889 11.5124C13.855 11.5124 13.8212 11.5124 13.7871 11.5124C12.8299 11.5092 11.8728 11.4473 10.9217 11.3268C10.2877 11.2451 9.8122 10.6999 9.8122 10.0567V6.73804C9.8122 6.38475 10.9162 6.19869 13.889 6.16843C16.8619 6.19869 17.9658 6.38475 17.9658 6.73804V10.0567Z" fill="#605F6B"/>
<path d="M23.5822 14.198C24.7967 13.1287 25.5432 11.6436 25.5432 10C25.5432 8.35644 24.7967 6.87129 23.5822 5.80198L22 7.20792C22.8134 7.92079 23.3148 8.91089 23.3148 10C23.3148 11.0891 22.8134 12.0792 22.0111 12.802L23.5822 14.198ZM27.7716 10C27.7716 12.1881 26.7688 14.1683 25.1532 15.5941L26.7354 17C28.7521 15.2079 30 12.7327 30 10C30 7.26733 28.7521 4.79208 26.7354 3L25.1532 4.40594C26.7688 5.83168 27.7716 7.81188 27.7716 10Z" fill="#605F6B"/>
</svg>
