<svg width="23" height="23" viewBox="0 0 23 23" fill="none" xmlns="http://www.w3.org/2000/svg">
<path d="M11.155 22.31C17.3157 22.31 22.31 17.3157 22.31 11.155C22.31 4.99426 17.3157 0 11.155 0C4.99426 0 0 4.99426 0 11.155C0 17.3157 4.99426 22.31 11.155 22.31Z" fill="#2596D7"/>
<g clip-path="url(#clip0_262_7967)">
<path d="M8.13408 6.12838L7.71859 6.54387C5.65338 8.60908 5.65338 11.9574 7.71859 14.0226L8.13408 14.4382L7.3031 15.2691L6.88762 14.8537C4.36347 12.3295 4.36347 8.23704 6.88762 5.71289L7.3031 5.29741L8.13408 6.12838Z" fill="white"/>
<path d="M15.6131 5.29741L16.0286 5.71289C18.5527 8.23704 18.5527 12.3295 16.0286 14.8537L15.6131 15.2691L14.7821 14.4382L15.1976 14.0226C17.2628 11.9574 17.2628 8.60908 15.1976 6.54387L14.7821 6.12838L15.6131 5.29741Z" fill="white"/>
<path d="M9.79617 7.79015L9.38069 8.20564C8.23335 9.35298 8.23335 11.2132 9.38069 12.3605L9.79617 12.776L8.9652 13.607L8.54971 13.1915C6.94343 11.5852 6.94343 8.98094 8.54971 7.37466L8.9652 6.95918L9.79617 7.79015Z" fill="white"/>
<path d="M13.9508 6.95918L14.3663 7.37466C15.9726 8.98094 15.9726 11.5852 14.3663 13.1915L13.9508 13.607L13.1198 12.776L13.5353 12.3605C14.6826 11.2132 14.6826 9.35298 13.5353 8.20564L13.1198 7.79015L13.9508 6.95918Z" fill="white"/>
<path fill-rule="evenodd" clip-rule="evenodd" d="M9.69534 10.2828C9.69534 9.30926 10.4846 8.52005 11.4581 8.52005C12.4317 8.52005 13.2209 9.30926 13.2209 10.2828C13.2209 11.0503 12.7303 11.7033 12.0457 11.9453V17.3339H10.8705V11.9453C10.1859 11.7033 9.69534 11.0503 9.69534 10.2828ZM11.4581 9.69523C11.1336 9.69523 10.8705 9.9583 10.8705 10.2828C10.8705 10.6073 11.1336 10.8704 11.4581 10.8704C11.7826 10.8704 12.0457 10.6073 12.0457 10.2828C12.0457 9.9583 11.7826 9.69523 11.4581 9.69523Z" fill="white"/>
</g>
<defs>
<clipPath id="clip0_262_7967">
<rect width="14.1021" height="14.1021" fill="white" transform="translate(4.40692 4.40691)"/>
</clipPath>
</defs>
</svg>
