<svg width="24" height="24" viewBox="0 0 24 24" fill="none" xmlns="http://www.w3.org/2000/svg">
<path fill-rule="evenodd" clip-rule="evenodd" d="M1.96655 3.96655C2.58542 3.34768 3.42479 3 4.3 3H19.7C20.5752 3 21.4146 3.34768 22.0335 3.96655C22.6523 4.58542 23 5.42479 23 6.3V9.6C23 9.89174 22.8841 10.1715 22.6778 10.3778C22.4715 10.5841 22.1917 10.7 21.9 10.7C21.6083 10.7 21.3285 10.8159 21.1222 11.0222C20.9159 11.2285 20.8 11.5083 20.8 11.8C20.8 12.0917 20.9159 12.3715 21.1222 12.5778C21.3285 12.7841 21.6083 12.9 21.9 12.9C22.5075 12.9 23 13.3925 23 14V17.3C23 18.1752 22.6523 19.0146 22.0335 19.6335C21.4146 20.2523 20.5752 20.6 19.7 20.6H4.3C3.42479 20.6 2.58542 20.2523 1.96655 19.6335C1.34768 19.0146 1 18.1752 1 17.3V14C1 13.3925 1.49249 12.9 2.1 12.9C2.39174 12.9 2.67153 12.7841 2.87782 12.5778C3.08411 12.3715 3.2 12.0917 3.2 11.8C3.2 11.5083 3.08411 11.2285 2.87782 11.0222C2.67153 10.8159 2.39174 10.7 2.1 10.7C1.49249 10.7 1 10.2075 1 9.6V6.3C1 5.42479 1.34768 4.58542 1.96655 3.96655ZM16.4 18.4V17.3C16.4 16.6925 15.9075 16.2 15.3 16.2C14.6925 16.2 14.2 16.6925 14.2 17.3V18.4H4.3C4.00826 18.4 3.72847 18.2841 3.52218 18.0778C3.31589 17.8715 3.2 17.5917 3.2 17.3V14.9113C3.65969 14.7487 4.08211 14.4848 4.43345 14.1335C5.05232 13.5146 5.4 12.6752 5.4 11.8C5.4 10.9248 5.05232 10.0854 4.43345 9.46655C4.08211 9.1152 3.65969 8.85126 3.2 8.68873V6.3C3.2 6.00826 3.31589 5.72847 3.52218 5.52218C3.72847 5.31589 4.00826 5.2 4.3 5.2H14.2V6.3C14.2 6.90751 14.6925 7.4 15.3 7.4C15.9075 7.4 16.4 6.90751 16.4 6.3V5.2H19.7C19.9917 5.2 20.2715 5.31589 20.4778 5.52218C20.6841 5.72847 20.8 6.00826 20.8 6.3V8.68873C20.3403 8.85126 19.9179 9.1152 19.5665 9.46655C18.9477 10.0854 18.6 10.9248 18.6 11.8C18.6 12.6752 18.9477 13.5146 19.5665 14.1335C19.9179 14.4848 20.3403 14.7487 20.8 14.9113V17.3C20.8 17.5917 20.6841 17.8715 20.4778 18.0778C20.2715 18.2841 19.9917 18.4 19.7 18.4H16.4ZM15.3 9.6C15.9075 9.6 16.4 10.0925 16.4 10.7V12.9C16.4 13.5075 15.9075 14 15.3 14C14.6925 14 14.2 13.5075 14.2 12.9V10.7C14.2 10.0925 14.6925 9.6 15.3 9.6Z" fill="#282830"/>
</svg>
