<svg width="24" height="24" viewBox="0 0 24 24" fill="none" xmlns="http://www.w3.org/2000/svg">
<path d="M9.28871 1H15.5774V3.09624H9.28871V1ZM11.3849 8.33683H13.4812V14.6255H11.3849V8.33683ZM19.8013 7.68699L21.2897 6.19867C20.839 5.66413 20.3464 5.16103 19.8118 4.72082L18.3235 6.20915C16.6989 4.90948 14.6551 4.13387 12.4331 4.13387C7.22392 4.13387 3 8.35779 3 13.5669C3 18.7761 7.21343 23 12.4331 23C17.6527 23 21.8661 18.7761 21.8661 13.5669C21.8661 11.3554 21.0905 9.3011 19.8013 7.68699ZM12.4331 20.9142C8.37685 20.9142 5.09624 17.6336 5.09624 13.5774C5.09624 9.5212 8.37685 6.24059 12.4331 6.24059C16.4893 6.24059 19.7699 9.5212 19.7699 13.5774C19.7699 17.6336 16.4893 20.9142 12.4331 20.9142Z" fill="#282830"/>
</svg>
