<svg width="55" height="61" viewBox="0 0 55 61" fill="none" xmlns="http://www.w3.org/2000/svg">
<path d="M45.1724 7.5969C44.9291 7.5969 44.6858 7.53607 44.4729 7.4144C38.6329 4.40315 33.5837 3.12565 27.5308 3.12565C21.5083 3.12565 15.7899 4.55523 10.5887 7.4144C9.8587 7.80982 8.9462 7.53607 8.52037 6.80607C8.33067 6.45033 8.28812 6.03436 8.40188 5.64759C8.51563 5.26082 8.77661 4.93412 9.1287 4.73773C14.7862 1.66565 20.9912 0.0839844 27.5308 0.0839844C34.0095 0.0839844 39.667 1.51357 45.872 4.70732C46.6325 5.10273 46.9062 6.01523 46.5108 6.74523C46.3905 6.99879 46.2011 7.21325 45.9643 7.36391C45.7276 7.51458 45.4531 7.59534 45.1724 7.5969ZM1.6462 23.5657C1.36582 23.5683 1.0902 23.4932 0.849908 23.3487C0.609615 23.2042 0.414042 22.996 0.284882 22.7471C0.155722 22.4982 0.0980243 22.2184 0.118188 21.9388C0.138352 21.6591 0.23559 21.3905 0.399115 21.1627C3.41037 16.9044 7.24287 13.5586 11.8054 11.2165C21.3562 6.28898 33.5837 6.25857 43.1649 11.1861C47.7274 13.5282 51.56 16.8436 54.5712 21.0715C54.6879 21.2349 54.7711 21.4199 54.8159 21.6157C54.8607 21.8115 54.8664 22.0142 54.8324 22.2121C54.7985 22.4101 54.7257 22.5994 54.6182 22.769C54.5107 22.9387 54.3707 23.0854 54.2062 23.2007C53.5066 23.6873 52.5637 23.5352 52.077 22.8356C49.4133 19.0651 45.8752 15.9967 41.7658 13.8932C33.0362 9.4219 21.8733 9.4219 13.1741 13.9236C9.03745 16.0527 5.56995 19.0944 2.83245 22.9269C2.58912 23.3527 2.13287 23.5657 1.6462 23.5657ZM20.6566 60.2786C20.4572 60.281 20.2594 60.2417 20.076 60.1631C19.8927 60.0845 19.7278 59.9684 19.592 59.8223C16.9458 57.1761 15.5162 55.4727 13.4783 51.7923C11.3795 48.0511 10.2845 43.4886 10.2845 38.5915C10.2845 29.5577 18.0104 22.1969 27.5004 22.1969C36.9904 22.1969 44.7162 29.5577 44.7162 38.5915C44.7162 39.4431 44.047 40.1123 43.1954 40.1123C42.3437 40.1123 41.6745 39.4431 41.6745 38.5915C41.6745 31.2306 35.3174 25.2386 27.5004 25.2386C19.6833 25.2386 13.3262 31.2306 13.3262 38.5915C13.3262 42.9715 14.2995 47.0169 16.1549 50.3019C18.1016 53.7998 19.4399 55.2902 21.782 57.6627C22.3599 58.2711 22.3599 59.214 21.782 59.8223C21.4474 60.1265 21.052 60.2786 20.6566 60.2786ZM42.4654 54.6515C38.8458 54.6515 35.652 53.739 33.0362 51.9444C28.5041 48.8723 25.797 43.884 25.797 38.5915C25.797 37.7398 26.4662 37.0706 27.3179 37.0706C28.1695 37.0706 28.8387 37.7398 28.8387 38.5915C28.8387 42.8802 31.0287 46.9256 34.7395 49.4198C36.8991 50.8798 39.4237 51.5794 42.4654 51.5794C43.1954 51.5794 44.412 51.4881 45.6287 51.2752C46.4499 51.1231 47.2408 51.6706 47.3929 52.5223C47.545 53.3436 46.9974 54.1344 46.1458 54.2865C44.412 54.6211 42.8912 54.6515 42.4654 54.6515ZM36.3516 60.9173C36.2299 60.9173 36.0779 60.8869 35.9562 60.8565C31.1199 59.5181 27.9566 57.7236 24.6412 54.469C22.5403 52.3945 20.8743 49.9217 19.741 47.1954C18.6076 44.469 18.0296 41.544 18.0408 38.5915C18.0408 33.664 22.2383 29.649 27.4091 29.649C32.5799 29.649 36.7775 33.664 36.7775 38.5915C36.7775 41.8461 39.6062 44.4923 43.1041 44.4923C46.602 44.4923 49.4308 41.8461 49.4308 38.5915C49.4308 27.1244 39.5454 17.8169 27.3787 17.8169C18.7404 17.8169 10.832 22.6227 7.27328 30.0748C6.08703 32.5386 5.4787 35.4282 5.4787 38.5915C5.4787 40.964 5.69162 44.7052 7.51662 49.5719C7.82078 50.3627 7.42537 51.2448 6.63453 51.5186C5.8437 51.8227 4.96162 51.3969 4.68787 50.6365C3.22221 46.7897 2.46978 42.708 2.46745 38.5915C2.46745 34.9415 3.16703 31.6261 4.53578 28.7365C8.5812 20.2502 17.5541 14.7448 27.3787 14.7448C41.2183 14.7448 52.4725 25.4211 52.4725 38.5611C52.4725 43.4886 48.2749 47.5036 43.1041 47.5036C37.9333 47.5036 33.7358 43.4886 33.7358 38.5611C33.7358 35.3065 30.907 32.6602 27.4091 32.6602C23.9112 32.6602 21.0824 35.3065 21.0824 38.5611C21.0824 43.7623 23.0899 48.629 26.7704 52.279C29.66 55.1381 32.4279 56.7198 36.7166 57.9061C37.5379 58.119 37.9941 58.9706 37.7812 59.7615C37.6291 60.4611 36.9904 60.9173 36.3516 60.9173Z" fill="#7675D3"/>
</svg>
