<svg width="24" height="25" viewBox="0 0 24 25" fill="none" xmlns="http://www.w3.org/2000/svg">
<path d="M4.8 21C4.305 21 3.8811 20.8246 3.5283 20.4739C3.1755 20.1232 2.9994 19.702 3 19.2105V9.36842C3 8.87632 3.1764 8.4549 3.5292 8.10416C3.882 7.75342 4.3056 7.57835 4.8 7.57895H8.4V5.78947C8.4 5.29737 8.5764 4.87595 8.9292 4.52521C9.282 4.17448 9.7056 3.99941 10.2 4H13.8C14.295 4 14.7189 4.17537 15.0717 4.52611C15.4245 4.87684 15.6006 5.29797 15.6 5.78947V7.57895H19.2C19.695 7.57895 20.1189 7.75432 20.4717 8.10505C20.8245 8.45579 21.0006 8.87691 21 9.36842V19.2105C21 19.7026 20.8236 20.1241 20.4708 20.4748C20.118 20.8255 19.6944 21.0006 19.2 21H4.8ZM4.5 19.5H19.5V9H4.5V19.5ZM10 7.57895H14V5.5H10V7.57895Z" fill="#9FA5B8"/>
</svg>
