<svg width="40" height="40" viewBox="0 0 40 40" fill="none" xmlns="http://www.w3.org/2000/svg">
<path d="M8.5539 24.272C6.98111 24.1963 7.30624 22.0033 9.17896 22.755C10.1634 23.1546 10.6265 24.3715 8.5539 24.272Z" fill="#A6ABAD"/>
<path d="M17.0464 24.272C14.9739 24.3715 15.4373 23.1546 16.4214 22.755C18.2941 22.0033 18.6189 24.1967 17.0464 24.272Z" fill="#A6ABAD"/>
<path d="M16.7332 20.6275C17.5732 20.516 18.2038 19.7722 18.2038 18.8955V14.3701C18.2038 13.8883 16.7406 13.6346 12.8002 13.5933C8.85978 13.6346 7.39653 13.8883 7.39653 14.3701V18.8955C7.39653 19.7725 8.02684 20.516 8.86713 20.6275C10.1277 20.7918 11.3964 20.8761 12.6651 20.8805H12.9353C14.2039 20.8761 15.4726 20.7918 16.7332 20.6275Z" fill="#A6ABAD"/>
<path fill-rule="evenodd" clip-rule="evenodd" d="M4.88 6C3.28942 6 2 7.34315 2 9V30C2 31.6569 3.28942 33 4.88 33H35.12C36.7106 33 38 31.6569 38 30V9C38 7.34315 36.7106 6 35.12 6H4.88ZM16.5232 12C17.942 12 19.1782 13.1054 19.2744 14.5688C19.2783 14.6325 19.28 14.7002 19.28 14.7657V23.783C19.28 24.6299 18.7302 25.3437 17.9784 25.5645C17.9536 25.5725 17.9266 25.5804 17.8997 25.5844V26.4136C17.8997 26.7376 17.6442 27 17.3306 27H16.0753C15.7617 27 15.5062 26.7376 15.5062 26.4136V25.6362H10.0938V26.4136C10.0938 26.7376 9.83832 27 9.52474 27H8.26937C7.95579 27 7.70031 26.7376 7.70031 26.4136V25.5844C7.67336 25.5804 7.64641 25.5725 7.62156 25.5645C6.86981 25.3437 6.32 24.6299 6.32 23.783V14.7657C6.32 14.7002 6.32175 14.6325 6.3256 14.5688C6.42184 13.1054 7.65796 12 9.07677 12H16.5232ZM23.6 15H33.68V18H23.6V15ZM33.68 21H27.92V24H33.68V21Z" fill="#A6ABAD"/>
</svg>
