<svg width="20" height="20" viewBox="0 0 20 20" fill="none" xmlns="http://www.w3.org/2000/svg">
<g clip-path="url(#clip0_5085_6901)">
<path d="M15.5556 6.94445H14.6826V5.19841C14.6826 2.78889 12.727 0.833336 10.3175 0.833336C7.90795 0.833336 5.95239 2.78889 5.95239 5.19841V6.94445H5.07938C4.11906 6.94445 3.33334 7.73016 3.33334 8.69048V17.4206C3.33334 18.381 4.11906 19.1667 5.07938 19.1667H15.5556C16.5159 19.1667 17.3016 18.381 17.3016 17.4206V8.69048C17.3016 7.73016 16.5159 6.94445 15.5556 6.94445ZM7.69842 5.19841C7.69842 3.74921 8.86826 2.57937 10.3175 2.57937C11.7667 2.57937 12.9365 3.74921 12.9365 5.19841V6.94445H7.69842V5.19841ZM15.5556 17.4206H5.07938V8.69048H15.5556V17.4206ZM10.3175 14.8016C11.2778 14.8016 12.0635 14.0159 12.0635 13.0556C12.0635 12.0952 11.2778 11.3095 10.3175 11.3095C9.35715 11.3095 8.57144 12.0952 8.57144 13.0556C8.57144 14.0159 9.35715 14.8016 10.3175 14.8016Z" fill="#64686B"/>
</g>
<defs>
<clipPath id="clip0_5085_6901">
<rect width="20" height="20" fill="white"/>
</clipPath>
</defs>
</svg>
