<svg width="20" height="20" viewBox="0 0 20 20" fill="none" xmlns="http://www.w3.org/2000/svg">
<g clip-path="url(#clip0_5085_15465)">
<g clip-path="url(#clip1_5085_15465)">
<path d="M10 0.833336C4.94001 0.833336 0.833344 4.94 0.833344 10C0.833344 15.06 4.94001 19.1667 10 19.1667C15.06 19.1667 19.1667 15.06 19.1667 10C19.1667 4.94 15.06 0.833336 10 0.833336ZM5.48084 15.7567C5.87501 14.9317 8.27668 14.125 10 14.125C11.7233 14.125 14.1342 14.9317 14.5192 15.7567C13.2725 16.7467 11.705 17.3333 10 17.3333C8.29501 17.3333 6.72751 16.7467 5.48084 15.7567ZM15.83 14.4275C14.5192 12.8325 11.3383 12.2917 10 12.2917C8.66168 12.2917 5.48084 12.8325 4.17001 14.4275C3.23501 13.1992 2.66668 11.6683 2.66668 10C2.66668 5.9575 5.95751 2.66667 10 2.66667C14.0425 2.66667 17.3333 5.9575 17.3333 10C17.3333 11.6683 16.765 13.1992 15.83 14.4275ZM10 4.5C8.22168 4.5 6.79168 5.93 6.79168 7.70834C6.79168 9.48667 8.22168 10.9167 10 10.9167C11.7783 10.9167 13.2083 9.48667 13.2083 7.70834C13.2083 5.93 11.7783 4.5 10 4.5ZM10 9.08334C9.23918 9.08334 8.62501 8.46917 8.62501 7.70834C8.62501 6.9475 9.23918 6.33334 10 6.33334C10.7608 6.33334 11.375 6.9475 11.375 7.70834C11.375 8.46917 10.7608 9.08334 10 9.08334Z" fill="#64686B"/>
</g>
</g>
<defs>
<clipPath id="clip0_5085_15465">
<rect width="20" height="20" fill="white"/>
</clipPath>
<clipPath id="clip1_5085_15465">
<rect width="20" height="20" fill="white"/>
</clipPath>
</defs>
</svg>
