<svg width="24" height="24" viewBox="0 0 24 24" fill="none" xmlns="http://www.w3.org/2000/svg">
<path d="M12.6744 5.09302C13.8 5.09302 14.7209 4.17209 14.7209 3.04651C14.7209 1.92093 13.8 1 12.6744 1C11.5488 1 10.6279 1.92093 10.6279 3.04651C10.6279 4.17209 11.5488 5.09302 12.6744 5.09302ZM8.88837 8.57209L6.02326 23H8.17209L10.014 14.814L12.1628 16.8605V23H14.2093V15.3256L12.0605 13.2791L12.6744 10.2093C14.0047 11.7442 16.0512 12.7674 18.3023 12.7674V10.7209C16.3581 10.7209 14.7209 9.69767 13.9023 8.26512L12.8791 6.62791C12.306 5.71721 11.16 5.34884 10.1674 5.76837L5 7.95814V12.7674H7.04651V9.28837L8.88837 8.57209Z" fill="#282830"/>
</svg>
