<svg width="24" height="24" viewBox="0 0 24 24" fill="none" xmlns="http://www.w3.org/2000/svg">
<path d="M21.8421 6.95579V4.31579C21.8421 3.04211 20.8 2 19.5263 2H3.31579C2.03053 2 1 3.04211 1 4.31579V20.5263C1 21.8 2.03053 22.8421 3.31579 22.8421H19.5263C20.8 22.8421 21.8421 21.8 21.8421 20.5263V17.8863C22.5253 17.4811 23 16.7516 23 15.8947V8.94737C23 8.09053 22.5253 7.34947 21.8421 6.95579ZM20.6842 8.94737V15.8947H12.5789V8.94737H20.6842ZM3.31579 20.5263V4.31579H19.5263V6.63158H12.5789C11.3053 6.63158 10.2632 7.67368 10.2632 8.94737V15.8947C10.2632 17.1684 11.3053 18.2105 12.5789 18.2105H19.5263V20.5263H3.31579Z" fill="#282830"/>
<path d="M16.0526 14.1579C17.0119 14.1579 17.7895 13.3803 17.7895 12.4211C17.7895 11.4618 17.0119 10.6842 16.0526 10.6842C15.0934 10.6842 14.3158 11.4618 14.3158 12.4211C14.3158 13.3803 15.0934 14.1579 16.0526 14.1579Z" fill="#282830"/>
</svg>
