<svg width="24" height="24" viewBox="0 0 24 24" fill="none" xmlns="http://www.w3.org/2000/svg">
<path d="M11.8257 1C7.51178 1 4 4.51178 4 8.8257C4 14.2743 10.8084 21.8751 11.1018 22.1979L11.8257 23L12.5496 22.1979C12.843 21.8751 19.6514 14.2743 19.6514 8.8257C19.6514 4.51178 16.1396 1 11.8257 1ZM11.8257 20.0458C9.6932 17.4927 5.95643 12.2886 5.95643 8.8257C5.95643 5.58782 8.58782 2.95643 11.8257 2.95643C15.0636 2.95643 17.695 5.58782 17.695 8.8257C17.695 12.5723 13.5376 17.9818 11.8257 20.0458ZM14.8288 6.44864L10.329 10.9484L8.60738 9.21698L7.21832 10.606L10.329 13.7168L16.2081 7.83771L14.8288 6.44864Z" fill="#282830"/>
</svg>
