<svg width="20" height="21" viewBox="0 0 20 21" fill="none" xmlns="http://www.w3.org/2000/svg">
    <path
        d="M17.9562 4.47294C17.8352 2.68438 16.2809 1.33333 14.4968 1.33333H5.13344C3.34939 1.33333 1.79505 2.68438 1.67403 4.47294C1.66919 4.5508 1.66699 4.63353 1.66699 4.7136V15.7347C1.66699 16.7699 2.35835 17.6423 3.30362 17.9122C3.33486 17.9219 3.36875 17.9316 3.40264 17.9365V18.95C3.40264 19.3459 3.72389 19.6667 4.11819 19.6667H5.69673C6.09103 19.6667 6.41229 19.3459 6.41229 18.95V17.9998H13.218V18.95C13.218 19.3459 13.5392 19.6667 13.9336 19.6667H15.5121C15.9064 19.6667 16.2276 19.3459 16.2276 18.95V17.9365C16.2615 17.9316 16.2954 17.9219 16.3267 17.9122C17.2719 17.6423 17.9633 16.7699 17.9633 15.7347V4.7136C17.9633 4.63353 17.9611 4.5508 17.9562 4.47294ZM4.47597 16.3324C2.49829 16.2399 2.90711 13.5595 5.26194 14.4784C6.49986 14.9668 7.08208 16.4541 4.47597 16.3324ZM15.1548 16.3324C12.5486 16.4541 13.1313 14.9668 14.3688 14.4784C16.7236 13.5595 17.132 16.2404 15.1548 16.3324ZM16.6101 9.76122C16.6101 10.8327 15.8171 11.7418 14.7609 11.878C13.1757 12.0789 11.5805 12.1819 9.98523 12.1873C9.92846 12.1873 9.87213 12.1873 9.81536 12.1873C9.75859 12.1873 9.70226 12.1873 9.64549 12.1873C8.05023 12.1819 6.45497 12.0789 4.86983 11.878C3.81322 11.7418 3.02065 10.8331 3.02065 9.76122V4.23007C3.02065 3.64126 4.86059 3.33114 9.81536 3.28071C14.7701 3.33114 16.6101 3.64126 16.6101 4.23007V9.76122Z"
        fill="#282830" />
</svg>