<svg width="24" height="25" viewBox="0 0 24 25" fill="none" xmlns="http://www.w3.org/2000/svg">
<path d="M19.7069 11.7031C19.5119 11.8981 19.256 11.996 19 11.996C18.744 11.996 18.488 11.8981 18.293 11.7031L13 6.4101V21.996C13 22.549 12.553 22.996 12 22.996C11.447 22.996 11 22.549 11 21.996V6.4101L5.70695 11.7031C5.31595 12.0941 4.68401 12.0941 4.29301 11.7031C3.90201 11.3121 3.90201 10.68 4.29301 10.289L11.293 3.28901C11.684 2.89801 12.3159 2.89801 12.7069 3.28901L19.7069 10.289C20.0979 10.68 20.0979 11.3121 19.7069 11.7031Z" fill="#9FA5B8"/>
</svg>
