<svg width="24" height="25" viewBox="0 0 24 25" fill="none" xmlns="http://www.w3.org/2000/svg">
<path d="M22.0002 12.996C22.0002 13.549 21.5532 13.996 21.0002 13.996H5.41422L10.7072 19.289C11.0982 19.68 11.0982 20.3121 10.7072 20.7031C10.5122 20.8981 10.2562 20.996 10.0002 20.996C9.74422 20.996 9.48825 20.8981 9.29325 20.7031L2.29325 13.7031C1.90225 13.3121 1.90225 12.68 2.29325 12.289L9.29325 5.28901C9.68425 4.89801 10.3162 4.89801 10.7072 5.28901C11.0982 5.68001 11.0982 6.31207 10.7072 6.70307L5.41422 11.996H21.0002C21.5532 11.996 22.0002 12.443 22.0002 12.996Z" fill="#9FA5B8"/>
</svg>
