<svg width="24" height="25" viewBox="0 0 24 25" fill="none" xmlns="http://www.w3.org/2000/svg">
<path d="M21.707 13.7031L14.707 20.7031C14.512 20.8981 14.256 20.996 14 20.996C13.744 20.996 13.488 20.8981 13.293 20.7031C12.902 20.3121 12.902 19.68 13.293 19.289L18.586 13.996H3C2.447 13.996 2 13.549 2 12.996C2 12.443 2.447 11.996 3 11.996H18.586L13.293 6.70307C12.902 6.31207 12.902 5.68001 13.293 5.28901C13.684 4.89801 14.316 4.89801 14.707 5.28901L21.707 12.289C22.098 12.68 22.098 13.3121 21.707 13.7031Z" fill="#9FA5B8"/>
</svg>
