<svg width="24" height="25" viewBox="0 0 24 25" fill="none" xmlns="http://www.w3.org/2000/svg">
<path d="M19.7069 15.703L12.7069 22.703C12.5119 22.898 12.256 22.996 12 22.996C11.744 22.996 11.488 22.898 11.293 22.703L4.29301 15.703C3.90201 15.312 3.90201 14.68 4.29301 14.289C4.68401 13.898 5.31595 13.898 5.70695 14.289L11 19.5819V3.996C11 3.443 11.447 2.996 12 2.996C12.553 2.996 13 3.443 13 3.996V19.5819L18.293 14.289C18.684 13.898 19.3159 13.898 19.7069 14.289C20.0979 14.68 20.0979 15.312 19.7069 15.703Z" fill="#9FA5B8"/>
</svg>
