<svg width="24" height="25" viewBox="0 0 24 25" fill="none" xmlns="http://www.w3.org/2000/svg">
<path d="M9.99976 20.746H13.9998C13.9998 21.746 13.2828 22.746 11.9998 22.746C10.7168 22.746 9.99976 21.746 9.99976 20.746ZM4.51977 16.726C4.64777 16.726 4.77576 16.676 4.87376 16.58L16.0738 5.38004C16.1748 5.27804 16.2278 5.139 16.2198 4.996C16.2118 4.853 16.1418 4.72097 16.0298 4.63297C14.8728 3.72597 13.4798 3.246 12.0008 3.246C8.41677 3.246 5.50077 6.15699 5.50077 9.73599V12.3661C5.50077 13.1861 5.27976 13.9851 4.86176 14.6801L4.09176 15.9701C3.96276 16.1861 4.01477 16.465 4.21377 16.62C4.30377 16.691 4.41177 16.726 4.51977 16.726ZM20.7068 4.03897C20.3158 3.64797 19.6838 3.64797 19.2928 4.03897L3.29276 20.039C2.90176 20.43 2.90176 21.062 3.29276 21.453C3.48776 21.648 3.74376 21.746 3.99976 21.746C4.25576 21.746 4.51176 21.648 4.70676 21.453L6.91376 19.246H18.6998C19.3548 19.246 19.9388 18.906 20.2618 18.338C20.5868 17.766 20.5778 17.0859 20.2398 16.5199L19.1388 14.6791C18.7218 13.9861 18.5008 13.1861 18.5008 12.3671V9.73697C18.5008 9.11697 18.4068 8.51193 18.2358 7.92593L20.7078 5.45401C21.0978 5.06201 21.0978 4.42997 20.7068 4.03897Z" fill="#9FA5B8"/>
</svg>
