<svg width="24" height="25" viewBox="0 0 24 25" fill="none" xmlns="http://www.w3.org/2000/svg">
<path d="M9.99889 20.746H13.9989C13.9989 21.746 13.2819 22.746 11.9989 22.746C10.7159 22.746 9.99889 21.746 9.99889 20.746ZM20.2409 16.5209L19.1349 14.675C18.7159 13.976 18.4949 13.1759 18.4949 12.3629V9.73599C18.4949 6.15699 15.5809 3.246 11.9999 3.246C8.41889 3.246 5.50489 6.15699 5.50489 9.73599V12.3629C5.50489 13.1759 5.28389 13.976 4.86489 14.675L3.75888 16.5209C3.42088 17.0829 3.4129 17.7609 3.7369 18.3329C4.0609 18.9049 4.64688 19.246 5.30388 19.246H18.6979C19.3559 19.246 19.9419 18.9039 20.2659 18.3329C20.5869 17.7619 20.5789 17.0839 20.2409 16.5209Z" fill="#9FA5B8"/>
</svg>
