<svg width="24" height="25" viewBox="0 0 24 25" fill="none" xmlns="http://www.w3.org/2000/svg">
<path d="M21.5 9.18594C21.5 6.65594 19.5 4.58595 17 4.44595V4.246C17 3.696 16.55 3.246 16 3.246C15.45 3.246 15 3.696 15 4.246V4.41592H9V4.246C9 3.696 8.55 3.246 8 3.246C7.45 3.246 7 3.696 7 4.246V4.44595C4.5 4.58595 2.5 6.65594 2.5 9.18594V11.0761C2.5 11.1061 2.50999 11.1359 2.51999 11.1659C2.50999 11.1859 2.5 11.216 2.5 11.246V18.246C2.5 20.726 4.52 22.746 7 22.746H17C19.48 22.746 21.5 20.726 21.5 18.246V11.246C21.5 11.216 21.49 11.1859 21.48 11.1659C21.49 11.1359 21.5 11.1061 21.5 11.0761V9.18594ZM8 19.246C7.45 19.246 7 18.796 7 18.246C7 17.696 7.45 17.246 8 17.246C8.55 17.246 9 17.696 9 18.246C9 18.796 8.55 19.246 8 19.246ZM8 15.246C7.45 15.246 7 14.796 7 14.246C7 13.696 7.45 13.246 8 13.246C8.55 13.246 9 13.696 9 14.246C9 14.796 8.55 15.246 8 15.246ZM12 19.246C11.45 19.246 11 18.796 11 18.246C11 17.696 11.45 17.246 12 17.246C12.55 17.246 13 17.696 13 18.246C13 18.796 12.55 19.246 12 19.246ZM12 15.246C11.45 15.246 11 14.796 11 14.246C11 13.696 11.45 13.246 12 13.246C12.55 13.246 13 13.696 13 14.246C13 14.796 12.55 15.246 12 15.246ZM16 19.246C15.45 19.246 15 18.796 15 18.246C15 17.696 15.45 17.246 16 17.246C16.55 17.246 17 17.696 17 18.246C17 18.796 16.55 19.246 16 19.246ZM16 15.246C15.45 15.246 15 14.796 15 14.246C15 13.696 15.45 13.246 16 13.246C16.55 13.246 17 13.696 17 14.246C17 14.796 16.55 15.246 16 15.246ZM19.5 10.746H4.5V9.18594C4.5 7.73594 5.62001 6.55594 7.04001 6.43594C7.13001 6.89594 7.52 7.246 8 7.246C8.49 7.246 8.88 6.88592 8.97 6.41592H15.03C15.12 6.88592 15.51 7.246 16 7.246C16.48 7.246 16.87 6.89594 16.96 6.43594C18.38 6.55594 19.5 7.74594 19.5 9.18594V10.746Z" fill="#9FA5B8"/>
</svg>
