<svg width="24" height="25" viewBox="0 0 24 25" fill="none" xmlns="http://www.w3.org/2000/svg">
<path d="M14 13.996C14 15.096 13.1 15.996 12 15.996C10.9 15.996 10 15.096 10 13.996C10 12.896 10.9 11.996 12 11.996C13.1 11.996 14 12.896 14 13.996ZM21.5 11.996V16.996C21.5 19.476 19.48 21.496 17 21.496H7C4.52 21.496 2.5 19.476 2.5 16.996V11.996C2.5 9.606 4.37001 7.64601 6.73001 7.50601L7.98999 5.60611C8.45999 4.91611 9.23001 4.496 10.07 4.496H13.93C14.77 4.496 15.54 4.91611 16.01 5.60611L17.27 7.50601C19.63 7.64601 21.5 9.606 21.5 11.996ZM16 13.996C16 11.786 14.21 9.996 12 9.996C9.79 9.996 8 11.786 8 13.996C8 16.206 9.79 17.996 12 17.996C14.21 17.996 16 16.206 16 13.996ZM19 10.996C19 10.446 18.55 9.996 18 9.996C17.45 9.996 17 10.446 17 10.996C17 11.546 17.45 11.996 18 11.996C18.55 11.996 19 11.546 19 10.996Z" fill="#9FA5B8"/>
</svg>
