<svg width="24" height="25" viewBox="0 0 24 25" fill="none" xmlns="http://www.w3.org/2000/svg">
<path d="M21.7003 11.1768C20.8973 7.19281 17.8043 4.09895 13.8193 3.29595C13.0863 3.14895 12.3243 3.336 11.7383 3.815C11.1543 4.294 10.8193 4.99998 10.8193 5.75299V11.1768C10.8193 12.8308 12.1653 14.1768 13.8193 14.1768H19.2433C19.9973 14.1768 20.7033 13.8419 21.1813 13.2579C21.6593 12.6739 21.8493 11.9148 21.7003 11.1768ZM19.6353 11.9898C19.5773 12.0588 19.4513 12.1768 19.2433 12.1768H13.8193C13.2673 12.1768 12.8193 11.7288 12.8193 11.1768V5.75299C12.8193 5.54499 12.9363 5.4189 13.0063 5.3609C13.0633 5.3149 13.1723 5.2459 13.3223 5.2459C13.3543 5.2459 13.3883 5.24889 13.4253 5.25689C16.6173 5.89989 19.0973 8.37886 19.7393 11.5709C19.7803 11.7739 19.6913 11.9208 19.6353 11.9898ZM19.4873 16.1839C19.6753 16.4649 19.7133 16.821 19.5853 17.137C18.1903 20.579 14.9193 22.7449 11.2593 22.7449C10.9423 22.7449 10.6213 22.7279 10.2993 22.6949C6.16332 22.2699 2.72432 18.8319 2.29932 14.6959C1.88432 10.6569 4.11832 6.92497 7.85932 5.40997C8.17732 5.28397 8.53232 5.31887 8.81233 5.50787C9.08633 5.69387 9.25031 6.00182 9.25031 6.33282V13.2459C9.25031 14.6249 10.3713 15.7459 11.7503 15.7459H18.6623C18.9933 15.7459 19.3023 15.9099 19.4873 16.1839Z" fill="#9FA5B8"/>
</svg>
