<svg width="24" height="25" viewBox="0 0 24 25" fill="none" xmlns="http://www.w3.org/2000/svg">
<path d="M12 2.996C6.49 2.996 2 7.486 2 12.996C2 18.506 6.49 22.996 12 22.996C17.51 22.996 22 18.506 22 12.996C22 7.486 17.51 2.996 12 2.996ZM16.71 11.706L11.71 16.706C11.51 16.896 11.26 16.996 11 16.996C10.74 16.996 10.49 16.896 10.29 16.706L7.29001 13.706C6.90001 13.316 6.90001 12.676 7.29001 12.286C7.68001 11.896 8.31999 11.896 8.70999 12.286L11 14.5861L15.29 10.286C15.68 9.89604 16.32 9.89604 16.71 10.286C17.1 10.676 17.1 11.316 16.71 11.706Z" fill="#9FA5B8"/>
</svg>
