<svg width="24" height="25" viewBox="0 0 24 25" fill="none" xmlns="http://www.w3.org/2000/svg">
<path d="M12 3.496C6.76 3.496 2.5 7.756 2.5 12.996C2.5 18.236 6.76 22.496 12 22.496C17.24 22.496 21.5 18.236 21.5 12.996C21.5 7.756 17.24 3.496 12 3.496ZM13.71 15.286C14.1 15.676 14.1 16.316 13.71 16.706C13.51 16.896 13.26 16.996 13 16.996C12.74 16.996 12.49 16.896 12.29 16.706L9.28998 13.706C8.89998 13.316 8.89998 12.676 9.28998 12.286L12.29 9.28604C12.68 8.89604 13.32 8.89604 13.71 9.28604C14.1 9.67604 14.1 10.316 13.71 10.706L11.41 12.996L13.71 15.286Z" fill="#9FA5B8"/>
</svg>
