<svg width="24" height="25" viewBox="0 0 24 25" fill="none" xmlns="http://www.w3.org/2000/svg">
<path d="M12 3.496C6.76 3.496 2.5 7.756 2.5 12.996C2.5 18.236 6.76 22.496 12 22.496C17.24 22.496 21.5 18.236 21.5 12.996C21.5 7.756 17.24 3.496 12 3.496ZM15.71 12.706L12.71 15.706C12.51 15.896 12.26 15.996 12 15.996C11.74 15.996 11.49 15.896 11.29 15.706L8.28998 12.706C7.89998 12.316 7.89998 11.676 8.28998 11.286C8.67998 10.896 9.32002 10.896 9.71002 11.286L12 13.5861L14.29 11.286C14.68 10.896 15.32 10.896 15.71 11.286C16.1 11.676 16.1 12.316 15.71 12.706Z" fill="#9FA5B8"/>
</svg>
