<svg width="24" height="25" viewBox="0 0 24 25" fill="none" xmlns="http://www.w3.org/2000/svg">
<path d="M12 3.496C6.76 3.496 2.5 7.756 2.5 12.996C2.5 18.236 6.76 22.496 12 22.496C17.24 22.496 21.5 18.236 21.5 12.996C21.5 7.756 17.24 3.496 12 3.496ZM14.71 13.706L11.71 16.706C11.51 16.896 11.26 16.996 11 16.996C10.74 16.996 10.49 16.896 10.29 16.706C9.89998 16.316 9.89998 15.676 10.29 15.286L12.59 12.996L10.29 10.706C9.89998 10.316 9.89998 9.67604 10.29 9.28604C10.68 8.89604 11.32 8.89604 11.71 9.28604L14.71 12.286C15.1 12.676 15.1 13.316 14.71 13.706Z" fill="#9FA5B8"/>
</svg>
