<svg width="24" height="25" viewBox="0 0 24 25" fill="none" xmlns="http://www.w3.org/2000/svg">
<path d="M12 3.496C6.76 3.496 2.5 7.756 2.5 12.996C2.5 18.236 6.76 22.496 12 22.496C17.24 22.496 21.5 18.236 21.5 12.996C21.5 7.756 17.24 3.496 12 3.496ZM15.71 14.706C15.51 14.896 15.26 14.996 15 14.996C14.74 14.996 14.49 14.896 14.29 14.706L12 12.4059L9.71002 14.706C9.32002 15.096 8.67998 15.096 8.28998 14.706C7.89998 14.316 7.89998 13.676 8.28998 13.286L11.29 10.286C11.68 9.89604 12.32 9.89604 12.71 10.286L15.71 13.286C16.1 13.676 16.1 14.316 15.71 14.706Z" fill="#9FA5B8"/>
</svg>
