<svg width="24" height="25" viewBox="0 0 24 25" fill="none" xmlns="http://www.w3.org/2000/svg">
<path d="M21.5 11.996V21.996C21.5 22.196 21.38 22.386 21.19 22.456C21.13 22.486 21.06 22.496 21 22.496C20.87 22.496 20.74 22.4461 20.64 22.3461L18.83 20.496H10C8.07 20.496 6.5 18.926 6.5 16.996H14C16.76 16.996 19 14.756 19 11.996V8.6459C20.44 9.0759 21.5 10.416 21.5 11.996ZM17.5 11.996V6.996C17.5 5.066 15.93 3.496 14 3.496H6C4.07 3.496 2.5 5.066 2.5 6.996V16.996C2.5 17.196 2.62 17.386 2.81 17.456C2.87 17.486 2.94 17.496 3 17.496C3.13 17.496 3.25999 17.4461 3.35999 17.3461L5.17001 15.496H14C15.93 15.496 17.5 13.926 17.5 11.996Z" fill="#9FA5B8"/>
</svg>
