<svg width="24" height="25" viewBox="0 0 24 25" fill="none" xmlns="http://www.w3.org/2000/svg">
<path d="M17 3.996H7C4.52 3.996 2.5 6.016 2.5 8.496V21.496C2.5 21.696 2.62 21.876 2.81 21.956C2.87 21.986 2.94 21.996 3 21.996C3.13 21.996 3.26001 21.9461 3.35001 21.8461L5.76999 19.4359C6.04999 19.1559 6.42999 18.996 6.82999 18.996H17C19.48 18.996 21.5 16.976 21.5 14.496V8.496C21.5 6.016 19.48 3.996 17 3.996ZM8 12.746C7.31 12.746 6.75 12.186 6.75 11.496C6.75 10.806 7.31 10.246 8 10.246C8.69 10.246 9.25 10.806 9.25 11.496C9.25 12.186 8.69 12.746 8 12.746ZM12 12.746C11.31 12.746 10.75 12.186 10.75 11.496C10.75 10.806 11.31 10.246 12 10.246C12.69 10.246 13.25 10.806 13.25 11.496C13.25 12.186 12.69 12.746 12 12.746ZM16 12.746C15.31 12.746 14.75 12.186 14.75 11.496C14.75 10.806 15.31 10.246 16 10.246C16.69 10.246 17.25 10.806 17.25 11.496C17.25 12.186 16.69 12.746 16 12.746Z" fill="#9FA5B8"/>
</svg>
