<svg width="24" height="25" viewBox="0 0 24 25" fill="none" xmlns="http://www.w3.org/2000/svg">
<path d="M13.5 12.996C13.5 13.826 12.83 14.496 12 14.496C11.17 14.496 10.5 13.826 10.5 12.996C10.5 12.166 11.17 11.496 12 11.496C12.83 11.496 13.5 12.166 13.5 12.996ZM21.5 12.996C21.5 18.236 17.24 22.496 12 22.496C6.76 22.496 2.5 18.236 2.5 12.996C2.5 7.756 6.76 3.496 12 3.496C17.24 3.496 21.5 7.756 21.5 12.996ZM16.69 8.30606C16.31 7.93606 15.78 7.78592 15.26 7.91592L11.21 8.92593C9.58999 9.33593 8.33999 10.586 7.92999 12.206L6.92001 16.256C6.79001 16.776 6.94 17.3059 7.31 17.6859C7.6 17.9659 7.98 18.1259 8.37 18.1259C8.49 18.1259 8.61999 18.1061 8.73999 18.0761L12.79 17.0661C14.41 16.6561 15.66 15.406 16.07 13.786L17.08 9.73599C17.21 9.21599 17.06 8.68606 16.69 8.30606Z" fill="#9FA5B8"/>
</svg>
