<svg width="24" height="25" viewBox="0 0 24 25" fill="none" xmlns="http://www.w3.org/2000/svg">
<path d="M11 20.496H16.7C16.11 21.966 14.68 22.996 13 22.996H6C3.79 22.996 2 21.206 2 18.996V10.996C2 8.956 3.53 7.27603 5.5 7.02603V14.996C5.5 18.026 7.97 20.496 11 20.496ZM19.5 7.246H21.62C21.56 7.156 21.49 7.076 21.41 6.996L18 3.58609C17.92 3.50609 17.84 3.43589 17.75 3.38589V5.496C17.75 6.456 18.54 7.246 19.5 7.246ZM19.5 8.746C17.71 8.746 16.25 7.286 16.25 5.496V2.996H11C8.79 2.996 7 4.786 7 6.996V14.996C7 17.206 8.79 18.996 11 18.996H18C20.21 18.996 22 17.206 22 14.996V8.746H19.5Z" fill="#9FA5B8"/>
</svg>
