<svg width="24" height="25" viewBox="0 0 24 25" fill="none" xmlns="http://www.w3.org/2000/svg">
<path d="M21 11.496H21.5V9.996C21.5 7.521 19.475 5.496 17 5.496H16.5C16.224 5.496 16 5.72 16 5.996V7.996C16 8.546 15.55 8.996 15 8.996C14.45 8.996 14 8.546 14 7.996V5.996C14 5.72 13.776 5.496 13.5 5.496H7C4.525 5.496 2.5 7.521 2.5 9.996V11.496H3C3.83 11.496 4.5 12.166 4.5 12.996C4.5 13.826 3.83 14.496 3 14.496H2.5V15.996C2.5 18.471 4.525 20.496 7 20.496H13.5C13.776 20.496 14 20.272 14 19.996V17.996C14 17.446 14.45 16.996 15 16.996C15.55 16.996 16 17.446 16 17.996V19.996C16 20.272 16.224 20.496 16.5 20.496H17C19.475 20.496 21.5 18.471 21.5 15.996V14.496H21C20.17 14.496 19.5 13.826 19.5 12.996C19.5 12.166 20.17 11.496 21 11.496ZM16 14.496C16 15.046 15.55 15.496 15 15.496C14.45 15.496 14 15.046 14 14.496V11.496C14 10.946 14.45 10.496 15 10.496C15.55 10.496 16 10.946 16 11.496V14.496Z" fill="#9FA5B8"/>
</svg>
