<svg width="24" height="25" viewBox="0 0 24 25" fill="none" xmlns="http://www.w3.org/2000/svg">
<path d="M20.62 10.865L20.04 10.2849C19.76 10.0049 19.6 9.62482 19.6 9.22482V8.40475C19.6 6.74475 18.25 5.39474 16.59 5.39474H15.77C15.37 5.39474 14.99 5.2448 14.71 4.9548L14.13 4.37472C12.96 3.20472 11.05 3.20472 9.87 4.37472L9.28998 4.9548C9.00998 5.2448 8.62998 5.39474 8.22998 5.39474H7.40997C5.74997 5.39474 4.40002 6.74475 4.40002 8.40475V9.22482C4.40002 9.62482 4.25002 10.0049 3.96002 10.2849L3.38 10.865C2.81 11.435 2.5 12.1948 2.5 12.9948C2.5 13.7948 2.81 14.5547 3.38 15.1247L3.96002 15.7048C4.25002 15.9848 4.40002 16.3649 4.40002 16.7649V17.5849C4.40002 19.2449 5.74997 20.5949 7.40997 20.5949H8.22998C8.62998 20.5949 9.00998 20.7449 9.28998 21.0349L9.87 21.615C10.46 22.205 11.23 22.4948 12 22.4948C12.77 22.4948 13.54 22.205 14.13 21.615L14.71 21.0349C14.99 20.7449 15.37 20.5949 15.77 20.5949H16.59C18.25 20.5949 19.6 19.2449 19.6 17.5849V16.7649C19.6 16.3649 19.76 15.9848 20.04 15.7048L20.62 15.1247C21.19 14.5547 21.5 13.7948 21.5 12.9948C21.5 12.1948 21.19 11.435 20.62 10.865ZM9.5 9.24484C10.19 9.24484 10.75 9.80484 10.75 10.4948C10.75 11.1848 10.19 11.7448 9.5 11.7448C8.81 11.7448 8.25 11.1848 8.25 10.4948C8.25 9.80484 8.81 9.24484 9.5 9.24484ZM14.5 16.7448C13.81 16.7448 13.25 16.1848 13.25 15.4948C13.25 14.8048 13.81 14.2448 14.5 14.2448C15.19 14.2448 15.75 14.8048 15.75 15.4948C15.75 16.1848 15.19 16.7448 14.5 16.7448ZM15.71 10.7048L9.71002 16.7048C9.51002 16.8948 9.26 16.9948 9 16.9948C8.75 16.9948 8.48998 16.8948 8.28998 16.7048C7.89998 16.3148 7.89998 15.6749 8.28998 15.2849L14.29 9.28488C14.69 8.89488 15.32 8.89488 15.71 9.28488C16.1 9.67488 16.1 10.3148 15.71 10.7048Z" fill="#9FA5B8"/>
</svg>
