<svg width="24" height="25" viewBox="0 0 24 25" fill="none" xmlns="http://www.w3.org/2000/svg">
<path d="M17 11.7231H16.08L13.78 14.0284C13.31 14.5095 12.68 14.7701 12.01 14.7701C11.35 14.7701 10.72 14.5095 10.25 14.0284L7.95001 11.7231H7C4.51 11.7231 2.5 13.7477 2.5 16.2334V17.2357C2.5 19.7314 4.51 21.746 7 21.746H17C19.48 21.746 21.5 19.7314 21.5 17.2357V16.2334C21.5 13.7477 19.48 11.7231 17 11.7231ZM17 17.4863C16.3 17.4863 15.74 16.925 15.74 16.2334C15.74 15.5418 16.3 14.9805 17 14.9805C17.69 14.9805 18.24 15.5418 18.24 16.2334C18.24 16.925 17.69 17.4863 17 17.4863ZM8.31 9.95902C7.92 9.56813 7.92 8.93677 8.31 8.54588C8.5 8.34542 8.76001 8.25518 9.01001 8.25518C9.27001 8.25518 9.52997 8.34542 9.71997 8.54588L11.01 9.83888V5.2483C11.01 4.68701 11.46 4.246 12.01 4.246C12.57 4.246 13.01 4.68701 13.01 5.2483V9.83888L14.31 8.54588C14.5 8.34542 14.76 8.25518 15.01 8.25518C15.27 8.25518 15.53 8.34542 15.72 8.54588C16.11 8.93677 16.11 9.56813 15.72 9.95902L12.72 12.9659C12.53 13.1664 12.27 13.2666 12.01 13.2666C11.76 13.2666 11.5 13.1664 11.31 12.9659L8.31 9.95902Z" fill="#9FA5B8"/>
</svg>
