<svg width="24" height="25" viewBox="0 0 24 25" fill="none" xmlns="http://www.w3.org/2000/svg">
<path d="M10.36 12.706L3.19 7.61612C3.98 6.34612 5.4 5.496 7 5.496H17C18.6 5.496 20.01 6.33611 20.81 7.60611L13.66 12.6859C12.65 13.3559 11.35 13.356 10.36 12.706ZM21.48 9.5961L14.8 14.3361C13.94 14.9061 12.96 15.1859 11.99 15.1859C11.03 15.1859 10.07 14.9061 9.22998 14.3461L2.52002 9.5961C2.51002 9.7261 2.5 9.866 2.5 9.996V15.996C2.5 18.476 4.52 20.496 7 20.496H17C19.48 20.496 21.5 18.476 21.5 15.996V9.996C21.5 9.866 21.49 9.7261 21.48 9.5961Z" fill="#9FA5B8"/>
</svg>
