<svg width="24" height="25" viewBox="0 0 24 25" fill="none" xmlns="http://www.w3.org/2000/svg">
<path d="M21.0095 11.237C20.4667 10.34 19.5839 9.1251 18.3643 8.0351L20.6956 5.70307C21.0864 5.31207 21.0864 4.68001 20.6956 4.28901C20.3047 3.89801 19.6729 3.89801 19.282 4.28901L3.2873 20.289C2.89643 20.68 2.89643 21.3121 3.2873 21.7031C3.48224 21.8981 3.73815 21.996 3.99407 21.996C4.24998 21.996 4.5059 21.8981 4.70083 21.7031L7.235 19.1682C8.70452 20.0472 10.297 20.497 11.9924 20.497C16.8208 20.497 19.7099 16.897 21.0095 14.757C21.6593 13.667 21.6593 12.327 21.0095 11.237ZM11.9924 17.497C11.1107 17.497 10.301 17.2301 9.60825 16.7941L11.0808 15.32C11.3627 15.431 11.6685 15.497 11.9914 15.497C13.371 15.497 14.4906 14.377 14.4906 12.997C14.4906 12.947 14.4906 12.9171 14.4806 12.8671C14.3407 12.9471 14.1707 12.997 13.9908 12.997C13.8208 12.997 13.6689 12.9441 13.5299 12.8701L15.7912 10.6081C16.2291 11.3021 16.49 12.118 16.49 12.997C16.4909 15.477 14.4716 17.497 11.9924 17.497ZM4.31498 16.6171C3.82514 16.0371 3.3753 15.407 2.98543 14.757C2.33564 13.667 2.33563 12.327 2.97542 11.237C4.27499 9.09701 7.17403 5.49702 11.9924 5.49702C12.9221 5.49702 13.8218 5.62693 14.7415 5.90693C14.9115 5.95693 15.0414 6.09704 15.0914 6.26704C15.1314 6.43704 15.0814 6.61701 14.9515 6.73701L13.0621 8.62714C12.7222 8.54714 12.3623 8.49702 11.9924 8.49702C9.51326 8.49702 7.49392 10.517 7.49392 12.997C7.49392 13.367 7.53391 13.7271 7.62388 14.0771L5.05472 16.6469C4.95476 16.7469 4.83481 16.7971 4.69486 16.7971C4.69486 16.7971 4.68484 16.7971 4.67484 16.7971C4.53489 16.7871 4.40495 16.7271 4.31498 16.6171Z" fill="#9FA5B8"/>
</svg>
