<svg width="24" height="25" viewBox="0 0 24 25" fill="none" xmlns="http://www.w3.org/2000/svg">
<path d="M21.0102 11.236C19.7207 9.09599 16.8418 5.496 11.9937 5.496C7.15564 5.496 4.2668 9.09599 2.98731 11.236C2.33756 12.326 2.33756 13.666 2.98731 14.746C4.2668 16.896 7.15564 20.496 11.9937 20.496C16.8418 20.496 19.7207 16.896 21.0102 14.746C21.3301 14.206 21.5 13.606 21.5 12.996C21.5 12.386 21.3301 11.786 21.0102 11.236ZM11.9937 17.496C9.51471 17.496 7.49551 15.476 7.49551 12.996C7.49551 10.516 9.51471 8.496 11.9937 8.496C14.4728 8.496 16.492 10.516 16.492 12.996C16.492 15.476 14.4728 17.496 11.9937 17.496ZM14.4828 12.8561C14.4928 12.9061 14.4928 12.946 14.4928 12.996C14.4928 14.376 13.3732 15.496 11.9937 15.496C10.6143 15.496 9.49472 14.376 9.49472 12.996C9.49472 11.616 10.6143 10.496 11.9937 10.496C12.6035 10.496 13.1633 10.7161 13.5931 11.0761C13.2433 11.2361 12.9933 11.586 12.9933 11.996C12.9933 12.546 13.4432 12.996 13.9929 12.996C14.1729 12.996 14.3428 12.9461 14.4828 12.8561Z" fill="#9FA5B8"/>
</svg>
