<svg width="24" height="25" viewBox="0 0 24 25" fill="none" xmlns="http://www.w3.org/2000/svg">
<path d="M17 2.996H7C4.243 2.996 2 5.239 2 7.996V17.996C2 20.753 4.243 22.996 7 22.996H17C19.757 22.996 22 20.753 22 17.996V7.996C22 5.239 19.757 2.996 17 2.996ZM20 11.996H18V9.996H20V11.996ZM6 11.996H4V9.996H6V11.996ZM4 13.996H6V15.996H4V13.996ZM18 13.996H20V15.996H18V13.996ZM20 7.996H18V5.18008C19.161 5.59408 20 6.694 20 7.996ZM6 5.18008V7.996H4C4 6.694 4.839 5.59408 6 5.18008ZM4 17.996H6V20.8119C4.839 20.3979 4 19.298 4 17.996ZM18 20.8119V17.996H20C20 19.298 19.161 20.3979 18 20.8119Z" fill="#9FA5B8"/>
</svg>
