<svg width="24" height="25" viewBox="0 0 24 25" fill="none" xmlns="http://www.w3.org/2000/svg">
<path d="M19.71 8.996L14.94 13.766C14.66 14.046 14.5 14.4261 14.5 14.8261V18.996C14.5 19.156 14.43 19.3059 14.3 19.3959L10.3 22.3959C10.21 22.4659 10.11 22.496 10 22.496C9.92 22.496 9.85 22.476 9.78 22.446C9.61 22.356 9.5 22.186 9.5 21.996V14.8261C9.5 14.4261 9.34 14.046 9.06 13.766L4.29001 8.996H19.71ZM18.5 3.496H5.5C4.4 3.496 3.5 4.396 3.5 5.496V6.996H20.5V5.496C20.5 4.396 19.6 3.496 18.5 3.496Z" fill="#9FA5B8"/>
</svg>
