<svg width="24" height="25" viewBox="0 0 24 25" fill="none" xmlns="http://www.w3.org/2000/svg">
<path d="M19.4475 15.518C19.5255 15.673 19.5165 15.857 19.4255 16.004C19.3345 16.1509 19.1735 16.241 19.0005 16.241H6.49951V21.7463C6.49951 22.2991 6.05151 22.746 5.49951 22.746C4.94751 22.746 4.49951 22.2991 4.49951 21.7463V14.7485L4.50052 14.7434V7.74459C4.50052 5.26437 6.51952 3.246 9.00052 3.246H19.0005C19.1735 3.246 19.3345 3.33603 19.4255 3.48299C19.5165 3.62994 19.5255 3.81372 19.4475 3.96868L16.8945 9.07206C16.6845 9.49193 16.6845 9.99381 16.8945 10.4137L19.4475 15.518Z" fill="#9FA5B8"/>
</svg>
