<svg width="24" height="25" viewBox="0 0 24 25" fill="none" xmlns="http://www.w3.org/2000/svg">
<path d="M21.424 9.66436C20.19 6.14336 17.128 3.62551 13.431 3.09551C12.497 2.96251 11.505 2.96251 10.568 3.09551C6.87299 3.62551 3.81102 6.1433 2.58002 9.6563C2.19502 10.7203 2 11.8444 2 12.9964C2 14.1484 2.19499 15.2714 2.57599 16.3274C3.80999 19.8484 6.87197 22.3663 10.569 22.8963C11.036 22.9623 11.517 22.9964 12 22.9964C12.483 22.9964 12.964 22.9633 13.432 22.8963C17.127 22.3663 20.189 19.8485 21.42 16.3355C21.805 15.2715 22 14.1474 22 12.9954C22 11.8434 21.805 10.7204 21.424 9.66436ZM20 12.9954C20 13.6784 19.914 14.3474 19.743 14.9964H16.865C16.945 14.3324 17 13.6654 17 12.9954C17 12.3254 16.945 11.6584 16.865 10.9964H19.744C19.914 11.6424 20 12.3114 20 12.9954ZM9.15399 14.9964C9.06299 14.3344 9 13.6654 9 12.9954C9 12.3274 9.06199 11.6604 9.15399 10.9964H14.847C14.938 11.6584 15.001 12.3254 15.001 12.9954C15.001 13.6644 14.939 14.3314 14.847 14.9964H9.15399ZM4.25598 14.9964C4.08598 14.3504 4 13.6794 4 12.9954C4 12.3134 4.08598 11.6444 4.25598 10.9964H7.13501C7.05501 11.6594 7 12.3264 7 12.9954C7 13.6664 7.05501 14.3344 7.13501 14.9964H4.25598ZM18.909 8.99639H16.498C16.23 7.86539 15.847 6.77552 15.351 5.73052C16.845 6.41652 18.083 7.55539 18.909 8.99639ZM12.702 5.04448C13.479 6.27748 14.065 7.59739 14.445 8.99639H9.55499C9.93399 7.60139 10.52 6.27948 11.298 5.04448C11.532 5.02448 11.763 4.99541 12 4.99541C12.238 4.99541 12.469 5.02448 12.702 5.04448ZM8.64899 5.7293C8.15199 6.7763 7.76898 7.86639 7.50098 8.99639H5.08899C5.91499 7.55639 7.15399 6.4163 8.64899 5.7293ZM5.09198 16.9964H7.50201C7.77001 18.1264 8.15299 19.2163 8.64899 20.2603C7.15599 19.5753 5.91898 18.4364 5.09198 16.9964ZM11.297 20.9463C10.521 19.7133 9.93499 18.3934 9.55499 16.9964H14.444C14.065 18.3914 13.479 19.7123 12.702 20.9463C12.234 20.9853 11.764 20.9853 11.297 20.9463ZM15.352 20.2615C15.848 19.2155 16.231 18.1254 16.499 16.9964H18.91C18.084 18.4354 16.846 19.5755 15.352 20.2615Z" fill="#9FA5B8"/>
</svg>
