<svg width="24" height="25" viewBox="0 0 24 25" fill="none" xmlns="http://www.w3.org/2000/svg">
<path d="M18.5 16.746V20.746C18.5 21.849 17.603 22.746 16.5 22.746C15.397 22.746 14.5 21.849 14.5 20.746V16.746C14.5 15.643 15.397 14.746 16.5 14.746C17.603 14.746 18.5 15.643 18.5 16.746ZM7.5 14.746C6.397 14.746 5.5 15.643 5.5 16.746V20.746C5.5 21.849 6.397 22.746 7.5 22.746C8.603 22.746 9.5 21.849 9.5 20.746V16.746C9.5 15.643 8.603 14.746 7.5 14.746ZM12 3.246C6.486 3.246 2 7.732 2 13.246V18.246C2 18.799 2.448 19.246 3 19.246C3.552 19.246 4 18.799 4 18.246V13.246C4 8.835 7.589 5.246 12 5.246C16.411 5.246 20 8.835 20 13.246V18.246C20 18.799 20.448 19.246 21 19.246C21.552 19.246 22 18.799 22 18.246V13.246C22 7.732 17.514 3.246 12 3.246Z" fill="#9FA5B8"/>
</svg>
