<svg width="24" height="25" viewBox="0 0 24 25" fill="none" xmlns="http://www.w3.org/2000/svg">
<path d="M21.3694 11.558C20.4144 16.454 15.3954 19.8929 13.2824 21.1449C12.8864 21.3779 12.4434 21.496 12.0004 21.496C11.5574 21.496 11.1144 21.3789 10.7184 21.1449C8.60441 19.8929 3.58543 16.455 2.63043 11.558C2.23143 9.51101 2.77443 7.34089 4.08343 5.75089C5.28143 4.29689 6.94643 3.496 8.77243 3.496C9.92143 3.496 11.0304 3.787 12.0004 4.34C12.9704 3.787 14.0794 3.496 15.2284 3.496C17.0544 3.496 18.7194 4.29689 19.9174 5.75089C21.2254 7.34089 21.7684 9.51101 21.3694 11.558Z" fill="#9FA5B8"/>
</svg>
