<svg width="24" height="25" viewBox="0 0 24 25" fill="none" xmlns="http://www.w3.org/2000/svg">
<path d="M17 3.996H7C4.243 3.996 2 6.239 2 8.996V16.996C2 19.753 4.243 21.996 7 21.996H17C19.757 21.996 22 19.753 22 16.996V8.996C22 6.239 19.757 3.996 17 3.996ZM7 5.996H17C18.654 5.996 20 7.342 20 8.996V13.5819L16.417 9.99893C15.636 9.21793 14.364 9.21793 13.583 9.99893L9 14.5819L8.41701 13.9989C7.63601 13.2179 6.36399 13.2179 5.58299 13.9989L4 15.5819V8.996C4 7.342 5.346 5.996 7 5.996ZM6.5 9.996C6.5 9.168 7.172 8.496 8 8.496C8.828 8.496 9.5 9.168 9.5 9.996C9.5 10.824 8.828 11.496 8 11.496C7.172 11.496 6.5 10.824 6.5 9.996Z" fill="#9FA5B8"/>
</svg>
