<svg width="24" height="25" viewBox="0 0 24 25" fill="none" xmlns="http://www.w3.org/2000/svg">
<path d="M7.25 11.2465C7.25 10.8325 7.586 10.4965 8 10.4965H16C16.414 10.4965 16.75 10.8325 16.75 11.2465C16.75 11.6605 16.414 11.9965 16 11.9965H8C7.586 11.9965 7.25 11.6605 7.25 11.2465ZM9 8.99649H15C15.414 8.99649 15.75 8.66049 15.75 8.24649C15.75 7.83249 15.414 7.49649 15 7.49649H9C8.586 7.49649 8.25 7.83249 8.25 8.24649C8.25 8.66049 8.586 8.99649 9 8.99649ZM22 14.7336V17.2465C22 19.7275 19.981 21.7465 17.5 21.7465H6.5C4.019 21.7465 2 19.7275 2 17.2465V14.7336C2 14.3016 2.06902 13.8754 2.20502 13.4674L4.14001 7.66446C4.82201 5.61946 6.728 4.24551 8.883 4.24551H15.117C17.272 4.24551 19.179 5.61946 19.86 7.66446L21.795 13.4674C21.931 13.8754 22 14.3026 22 14.7336ZM4.22101 13.7465H9C9.276 13.7465 9.5 13.9705 9.5 14.2465C9.5 15.6255 10.622 16.7465 12 16.7465C13.378 16.7465 14.5 15.6255 14.5 14.2465C14.5 13.9705 14.724 13.7465 15 13.7465H19.779L17.963 8.29849C17.554 7.07049 16.41 6.24649 15.117 6.24649H8.883C7.59 6.24649 6.44599 7.07049 6.03699 8.29849L4.22101 13.7465Z" fill="#9FA5B8"/>
</svg>
