<svg width="24" height="25" viewBox="0 0 24 25" fill="none" xmlns="http://www.w3.org/2000/svg">
<path d="M12 2.996C6.49 2.996 2 7.486 2 12.996C2 18.506 6.49 22.996 12 22.996C17.51 22.996 22 18.506 22 12.996C22 7.486 17.51 2.996 12 2.996ZM13 16.996C13 17.546 12.55 17.996 12 17.996C11.45 17.996 11 17.546 11 16.996V12.996C11 12.446 11.45 11.996 12 11.996C12.55 11.996 13 12.446 13 12.996V16.996ZM12 9.996C11.45 9.996 11 9.546 11 8.996C11 8.446 11.45 7.996 12 7.996C12.55 7.996 13 8.446 13 8.996C13 9.546 12.55 9.996 12 9.996Z" fill="#9FA5B8"/>
</svg>
