<svg width="24" height="25" viewBox="0 0 24 25" fill="none" xmlns="http://www.w3.org/2000/svg">
<path d="M20.5549 11.4635L18.7149 13.3034C18.3236 13.6944 17.6913 13.6944 17.3001 13.3034C16.9088 12.9124 16.9088 12.2806 17.3001 11.8896L19.1401 10.0495C20.2937 8.89547 20.2937 7.01843 19.1401 5.86343C18.0215 4.74443 16.0714 4.74443 14.9538 5.86343L11.5928 9.22256C11.4748 9.34056 11.3847 9.44848 11.3257 9.53848C10.4271 10.7625 10.5542 12.3696 11.5938 13.4086C11.984 13.7996 11.984 14.4324 11.5938 14.8224C11.3987 15.0174 11.1426 15.1154 10.8864 15.1154C10.6303 15.1154 10.3741 15.0174 10.178 14.8224C8.43504 13.0794 8.22593 10.3795 9.67976 8.4025C9.78282 8.2415 9.95586 8.0305 10.177 7.8085L13.5389 4.44839C14.4755 3.51139 15.7222 2.99551 17.0469 2.99551C18.3717 2.99551 19.6184 3.51239 20.5559 4.44839C22.489 6.38339 22.489 9.52953 20.5549 11.4635ZM12.4183 11.1696C12.0271 11.5606 12.0271 12.1924 12.4183 12.5834C13.2358 13.4004 13.5029 14.5795 13.1067 15.6815C12.9756 16.0745 12.7375 16.4514 12.4183 16.7704L9.05739 20.1295C7.93976 21.2485 5.98963 21.2485 4.871 20.1295C3.71734 18.9755 3.71734 17.0985 4.871 15.9435L6.71103 14.1034C7.10225 13.7124 7.10225 13.0806 6.71103 12.6896C6.31981 12.2986 5.68745 12.2986 5.29622 12.6896L3.45619 14.5294C1.52209 16.4634 1.52209 19.6096 3.45619 21.5436C4.39372 22.4806 5.63945 22.9965 6.9652 22.9965C8.29096 22.9965 9.53665 22.4796 10.4732 21.5436L13.8341 18.1845C14.3724 17.6455 14.7777 16.9986 14.9978 16.3356C15.6411 14.5476 15.1849 12.5206 13.8331 11.1696C13.4429 10.7786 12.8085 10.7786 12.4183 11.1696Z" fill="#9FA5B8"/>
</svg>
