<svg width="25" height="25" viewBox="0 0 25 25" fill="none" xmlns="http://www.w3.org/2000/svg">
<path d="M17.5 11.236V8.246C17.5 5.486 15.26 3.246 12.5 3.246C9.74 3.246 7.5 5.486 7.5 8.246V11.236C6.02 11.976 5 13.486 5 15.246V18.246C5 20.726 7.02 22.746 9.5 22.746H15.5C17.98 22.746 20 20.726 20 18.246V15.246C20 13.486 18.98 11.976 17.5 11.236ZM13.5 17.246C13.5 17.796 13.05 18.246 12.5 18.246C11.95 18.246 11.5 17.796 11.5 17.246V16.246C11.5 15.696 11.95 15.246 12.5 15.246C13.05 15.246 13.5 15.696 13.5 16.246V17.246ZM15.5 10.746H9.5V8.246C9.5 6.596 10.85 5.246 12.5 5.246C14.15 5.246 15.5 6.596 15.5 8.246V10.746Z" fill="#9FA5B8"/>
</svg>
