<svg width="24" height="25" viewBox="0 0 24 25" fill="none" xmlns="http://www.w3.org/2000/svg">
<path d="M13 21.996C13 22.549 12.552 22.996 12 22.996H8C5.243 22.996 3 20.753 3 17.996V7.996C3 5.239 5.243 2.996 8 2.996H12C12.552 2.996 13 3.443 13 3.996C13 4.549 12.552 4.996 12 4.996H8C6.346 4.996 5 6.342 5 7.996V17.996C5 19.65 6.346 20.996 8 20.996H12C12.553 20.996 13 21.443 13 21.996ZM20.707 12.289L16.707 8.28897C16.316 7.89797 15.684 7.89797 15.293 8.28897C14.902 8.67997 14.902 9.31203 15.293 9.70303L17.586 11.996H10C9.448 11.996 9 12.443 9 12.996C9 13.549 9.448 13.996 10 13.996H17.586L15.293 16.289C14.902 16.68 14.902 17.312 15.293 17.703C15.488 17.898 15.744 17.996 16 17.996C16.256 17.996 16.512 17.898 16.707 17.703L20.707 13.703C21.098 13.312 21.098 12.679 20.707 12.289Z" fill="#9FA5B8"/>
</svg>
