<svg width="24" height="25" viewBox="0 0 24 25" fill="none" xmlns="http://www.w3.org/2000/svg">
<path d="M21 7.996V17.996C21 20.753 18.757 22.996 16 22.996H12C11.448 22.996 11 22.549 11 21.996C11 21.443 11.448 20.996 12 20.996H16C17.654 20.996 19 19.65 19 17.996V7.996C19 6.342 17.654 4.996 16 4.996H12C11.448 4.996 11 4.549 11 3.996C11 3.443 11.448 2.996 12 2.996H16C18.757 2.996 21 5.239 21 7.996ZM14.707 12.289L10.707 8.28897C10.316 7.89797 9.684 7.89797 9.293 8.28897C8.902 8.67997 8.902 9.31203 9.293 9.70303L11.586 11.996H4C3.448 11.996 3 12.443 3 12.996C3 13.549 3.448 13.996 4 13.996H11.586L9.293 16.289C8.902 16.68 8.902 17.312 9.293 17.703C9.488 17.898 9.744 17.996 10 17.996C10.256 17.996 10.512 17.898 10.707 17.703L14.707 13.703C15.098 13.312 15.098 12.679 14.707 12.289Z" fill="#9FA5B8"/>
</svg>
