<svg width="24" height="25" viewBox="0 0 24 25" fill="none" xmlns="http://www.w3.org/2000/svg">
<path d="M14 10.996C14 12.096 13.1 12.996 12 12.996C10.9 12.996 10 12.096 10 10.996C10 9.896 10.9 8.996 12 8.996C13.1 8.996 14 9.896 14 10.996ZM19.5 10.996C19.5 17.076 14.83 20.886 12.83 22.236C12.58 22.416 12.29 22.496 12 22.496C11.71 22.496 11.42 22.416 11.16 22.236C9.16 20.886 4.5 17.086 4.5 10.996C4.5 6.716 7.72 3.496 12 3.496C16.27 3.496 19.5 6.716 19.5 10.996ZM16 10.996C16 8.786 14.21 6.996 12 6.996C9.79 6.996 8 8.786 8 10.996C8 13.206 9.79 14.996 12 14.996C14.21 14.996 16 13.206 16 10.996Z" fill="#9FA5B8"/>
</svg>
