<svg width="24" height="25" viewBox="0 0 24 25" fill="none" xmlns="http://www.w3.org/2000/svg">
<path d="M6.5 8.496C6.5 5.464 8.967 2.996 12 2.996C15.033 2.996 17.5 5.464 17.5 8.496C17.5 11.186 15.556 13.4281 13 13.9001V17.996C13 18.549 12.552 18.996 12 18.996C11.448 18.996 11 18.549 11 17.996V13.9001C8.444 13.4281 6.5 11.186 6.5 8.496ZM15.198 15.3061C14.66 15.1951 14.129 15.546 14.02 16.088C13.91 16.629 14.26 17.157 14.802 17.267C16.984 17.708 18 18.56 18 18.996C18 19.701 15.722 20.996 12 20.996C8.278 20.996 6 19.701 6 18.996C6 18.559 7.017 17.708 9.198 17.267C9.74 17.158 10.09 16.629 9.98001 16.088C9.87101 15.547 9.343 15.1941 8.802 15.3061C5.795 15.9141 4 17.294 4 18.996C4 21.622 8.024 22.996 12 22.996C15.976 22.996 20 21.622 20 18.996C20 17.294 18.205 15.9141 15.198 15.3061Z" fill="#9FA5B8"/>
</svg>
