<svg width="24" height="25" viewBox="0 0 24 25" fill="none" xmlns="http://www.w3.org/2000/svg">
<path d="M7.88 3.77083C8 3.71086 8.12 3.66098 8.25 3.621V20.1024L6.12 21.1917C5.35 21.5915 4.46 21.5517 3.72 21.1019C2.96 20.6421 2.5 19.8224 2.5 18.9128V8.73821C2.5 7.37892 3.23999 6.14961 4.42999 5.53992L7.88 3.77083ZM9.75 3.621V20.1024L13.88 22.2212C14 22.2811 14.12 22.331 14.25 22.371V5.8896L10.12 3.77083C10 3.71086 9.88 3.66098 9.75 3.621ZM20.28 4.89012C19.54 4.44035 18.65 4.41052 17.88 4.80032L15.75 5.8896V22.371C15.88 22.331 16 22.2811 16.12 22.2212L19.57 20.4521C20.76 19.8424 21.5 18.6131 21.5 17.2538V7.07916C21.5 6.16964 21.04 5.34988 20.28 4.89012Z" fill="#9FA5B8"/>
</svg>
