<svg width="24" height="25" viewBox="0 0 24 25" fill="none" xmlns="http://www.w3.org/2000/svg">
<path d="M2 5.996C2 5.443 2.448 4.996 3 4.996H16C16.552 4.996 17 5.443 17 5.996C17 6.549 16.552 6.996 16 6.996H3C2.448 6.996 2 6.549 2 5.996ZM21 11.996H3C2.448 11.996 2 12.443 2 12.996C2 13.549 2.448 13.996 3 13.996H21C21.552 13.996 22 13.549 22 12.996C22 12.443 21.552 11.996 21 11.996ZM12 18.996H3C2.448 18.996 2 19.443 2 19.996C2 20.549 2.448 20.996 3 20.996H12C12.552 20.996 13 20.549 13 19.996C13 19.443 12.552 18.996 12 18.996Z" fill="#9FA5B8"/>
</svg>
