<svg width="25" height="25" viewBox="0 0 25 25" fill="none" xmlns="http://www.w3.org/2000/svg">
<path d="M10.774 15.8849L9.64597 17.0131C10.514 17.4861 11.494 17.745 12.5 17.745C15.809 17.745 18.5 15.054 18.5 11.745C18.5 11.192 18.948 10.745 19.5 10.745C20.052 10.745 20.5 11.192 20.5 11.745C20.5 15.817 17.44 19.1809 13.5 19.6759V20.746H16.5C17.052 20.746 17.5 21.193 17.5 21.746C17.5 22.299 17.052 22.746 16.5 22.746H8.49998C7.94798 22.746 7.49998 22.299 7.49998 21.746C7.49998 21.193 7.94798 20.746 8.49998 20.746H11.5V19.6759C10.317 19.5269 9.18399 19.1151 8.18699 18.4731L5.20701 21.453C5.01201 21.648 4.75598 21.746 4.49998 21.746C4.24398 21.746 3.98801 21.648 3.79301 21.453C3.40201 21.062 3.40201 20.43 3.79301 20.039L19.793 4.03897C20.184 3.64797 20.816 3.64797 21.207 4.03897C21.598 4.42997 21.598 5.06203 21.207 5.45303L17 9.66006V11.746C17 14.227 14.981 16.246 12.5 16.246C11.902 16.246 11.321 16.1149 10.774 15.8849ZM8.45597 13.1259C8.50297 13.1399 8.55098 13.1469 8.59898 13.1469C8.72998 13.1469 8.85698 13.0949 8.95298 13.0009L16.133 5.81998C16.304 5.64898 16.328 5.38104 16.191 5.18204C15.353 3.97004 13.973 3.246 12.5 3.246C11.308 3.246 10.178 3.71309 9.314 4.56509C8.467 5.42409 7.99998 6.554 7.99998 7.746V11.746C7.99998 12.061 8.03602 12.389 8.11002 12.748C8.14702 12.928 8.27997 13.0729 8.45597 13.1259ZM6.28001 15.966C6.43501 15.966 6.593 15.9299 6.741 15.8529C7.231 15.5979 7.42099 14.9951 7.16599 14.5041C6.72999 13.6661 6.499 12.713 6.499 11.746C6.499 11.193 6.051 10.746 5.499 10.746C4.947 10.746 4.499 11.193 4.499 11.746C4.499 13.033 4.808 14.3069 5.392 15.4279C5.57 15.7699 5.91901 15.966 6.28001 15.966Z" fill="#9FA5B8"/>
</svg>
