<svg width="24" height="25" viewBox="0 0 24 25" fill="none" xmlns="http://www.w3.org/2000/svg">
<path d="M7.5 11.746V7.746C7.5 5.265 9.519 3.246 12 3.246C14.481 3.246 16.5 5.265 16.5 7.746V11.746C16.5 14.227 14.481 16.246 12 16.246C9.519 16.246 7.5 14.227 7.5 11.746ZM20 11.746C20 11.193 19.552 10.746 19 10.746C18.448 10.746 18 11.193 18 11.746C18 15.055 15.309 17.746 12 17.746C8.691 17.746 6 15.055 6 11.746C6 11.193 5.552 10.746 5 10.746C4.448 10.746 4 11.193 4 11.746C4 15.818 7.06 19.1819 11 19.6769V20.746H8C7.448 20.746 7 21.193 7 21.746C7 22.299 7.448 22.746 8 22.746H16C16.552 22.746 17 22.299 17 21.746C17 21.193 16.552 20.746 16 20.746H13V19.6769C16.94 19.1819 20 15.818 20 11.746Z" fill="#9FA5B8"/>
</svg>
