<svg width="24" height="25" viewBox="0 0 24 25" fill="none" xmlns="http://www.w3.org/2000/svg">
<path d="M12 3.496C6.76 3.496 2.5 7.756 2.5 12.996C2.5 18.236 6.76 22.496 12 22.496C17.24 22.496 21.5 18.236 21.5 12.996C21.5 7.756 17.24 3.496 12 3.496ZM12 18.746C11.31 18.746 10.75 18.186 10.75 17.496C10.75 16.806 11.31 16.246 12 16.246C12.69 16.246 13.25 16.806 13.25 17.496C13.25 18.186 12.69 18.746 12 18.746ZM12 14.246C11.31 14.246 10.75 13.686 10.75 12.996C10.75 12.306 11.31 11.746 12 11.746C12.69 11.746 13.25 12.306 13.25 12.996C13.25 13.686 12.69 14.246 12 14.246ZM12 9.746C11.31 9.746 10.75 9.186 10.75 8.496C10.75 7.806 11.31 7.246 12 7.246C12.69 7.246 13.25 7.806 13.25 8.496C13.25 9.186 12.69 9.746 12 9.746Z" fill="#9FA5B8"/>
</svg>
