<svg width="24" height="25" viewBox="0 0 24 25" fill="none" xmlns="http://www.w3.org/2000/svg">
<path d="M12 3.496C6.76 3.496 2.5 7.756 2.5 12.996C2.5 18.236 6.76 22.496 12 22.496C17.24 22.496 21.5 18.236 21.5 12.996C21.5 7.756 17.24 3.496 12 3.496ZM7.5 14.246C6.81 14.246 6.25 13.686 6.25 12.996C6.25 12.306 6.81 11.746 7.5 11.746C8.19 11.746 8.75 12.306 8.75 12.996C8.75 13.686 8.19 14.246 7.5 14.246ZM12 14.246C11.31 14.246 10.75 13.686 10.75 12.996C10.75 12.306 11.31 11.746 12 11.746C12.69 11.746 13.25 12.306 13.25 12.996C13.25 13.686 12.69 14.246 12 14.246ZM16.5 14.246C15.81 14.246 15.25 13.686 15.25 12.996C15.25 12.306 15.81 11.746 16.5 11.746C17.19 11.746 17.75 12.306 17.75 12.996C17.75 13.686 17.19 14.246 16.5 14.246Z" fill="#9FA5B8"/>
</svg>
