<svg width="24" height="25" viewBox="0 0 24 25" fill="none" xmlns="http://www.w3.org/2000/svg">
<path d="M6.27002 5.49905L15.73 9.89108L13.2 11.0143C12.48 11.3452 11.51 11.3352 10.8 11.0243L3.25 7.60497C3.73 6.90303 4.42998 6.32127 5.28998 5.94021L6.27002 5.49905ZM18.71 5.94021L14.32 3.98485C12.87 3.33305 11.13 3.33305 9.67999 3.98485L8.09003 4.68675L17.54 9.06898L20.75 7.60497C20.27 6.90303 19.57 6.32127 18.71 5.94021ZM2.63 8.96861C2.54 9.29952 2.5 9.64048 2.5 9.99145V16.0482C2.5 17.783 3.56998 19.3374 5.28998 20.0995L9.69 22.0548C10.18 22.2855 10.71 22.4258 11.25 22.496V12.7089C10.88 12.6488 10.52 12.5384 10.19 12.398L2.63 8.96861ZM21.37 8.96861L13.81 12.398C13.48 12.5384 13.12 12.6488 12.75 12.7089V22.496C13.29 22.4258 13.82 22.2855 14.32 22.0548L18.71 20.0995C20.43 19.3374 21.5 17.783 21.5 16.0482V9.99145C21.5 9.64048 21.46 9.29952 21.37 8.96861Z" fill="#9FA5B8"/>
</svg>
