<svg width="25" height="25" viewBox="0 0 25 25" fill="none" xmlns="http://www.w3.org/2000/svg">
<path d="M21.201 15.7321L16.1772 20.7741C14.7703 22.1861 12.8129 22.996 10.8066 22.996C8.8312 22.996 6.99171 22.24 5.62583 20.869C2.7452 17.977 2.7872 13.23 5.72079 10.287L11.4441 4.54312C12.4382 3.54512 13.7592 2.996 15.166 2.996C16.5729 2.996 17.8938 3.54512 18.8879 4.54312C20.9383 6.60112 20.9383 9.94801 18.8879 12.006L13.1377 17.777C11.9556 18.965 9.89035 18.965 8.70832 17.777C7.48933 16.554 7.48933 14.563 8.70832 13.34L13.7592 8.2709C14.1478 7.8779 14.7803 7.87795 15.172 8.26895C15.5627 8.65895 15.5637 9.29201 15.174 9.68301L10.1231 14.7521C9.68048 15.1961 9.68048 15.9199 10.1231 16.3639C10.5518 16.7939 11.2942 16.7939 11.7218 16.3639L17.4721 10.5929C18.7461 9.31393 18.7461 7.23401 17.4721 5.95401C16.2401 4.71801 14.0909 4.71801 12.8589 5.95401L7.13558 11.6979C5.01432 13.8259 4.97139 17.379 7.04069 19.456C8.02888 20.448 9.36676 20.995 10.8066 20.995C12.2854 20.995 13.7272 20.399 14.7623 19.361L19.7862 14.319C20.1759 13.926 20.8074 13.927 21.199 14.317C21.5897 14.708 21.5907 15.3421 21.201 15.7321Z" fill="#9FA5B8"/>
</svg>
