<svg width="24" height="25" viewBox="0 0 24 25" fill="none" xmlns="http://www.w3.org/2000/svg">
<path d="M11.9109 7.32608L17.6709 13.0861L9.77091 20.996C9.40091 21.366 8.93087 21.606 8.42087 21.696L3.68088 22.486C3.62088 22.496 3.5709 22.496 3.5109 22.496C3.2509 22.496 2.99088 22.386 2.80088 22.196C2.57088 21.966 2.4609 21.6361 2.5109 21.3161L3.30088 16.5761C3.39088 16.0661 3.63089 15.596 4.00089 15.226L11.9109 7.32608ZM20.3009 4.69595C19.5309 3.91595 18.5109 3.496 17.4209 3.496C16.3309 3.496 15.3109 3.91595 14.5409 4.69595L13.3309 5.90591L19.0909 11.6659L20.3009 10.456C21.0809 9.68596 21.5009 8.66608 21.5009 7.57608C21.5009 6.48608 21.0809 5.46595 20.3009 4.69595Z" fill="#9FA5B8"/>
</svg>
