<svg width="24" height="25" viewBox="0 0 24 25" fill="none" xmlns="http://www.w3.org/2000/svg">
<path d="M20.4901 21.0077C19.6681 21.9577 18.4931 22.4957 17.2491 22.4957C17.2101 22.4957 17.1711 22.4958 17.1321 22.4948C9.14408 22.2778 2.71707 15.8506 2.50207 7.86365C2.46707 6.56665 3.01308 5.33762 3.99908 4.48962C4.93608 3.68262 6.15608 3.34572 7.34808 3.55872C7.53108 3.59172 7.68808 3.63361 7.82208 3.67761C8.35008 3.85261 8.73408 4.3098 8.82208 4.8678L9.49212 9.12268C9.57612 9.65568 9.36811 10.1958 8.95111 10.5338C8.86711 10.6018 8.78009 10.6667 8.68909 10.7267C8.45709 10.8847 8.36908 11.1537 8.47308 11.3927C9.47508 13.6977 11.2951 15.5177 13.5991 16.5197C13.8391 16.6247 14.1081 16.5347 14.2701 16.2977C14.3171 16.2297 14.3661 16.1628 14.4161 16.0988C14.7521 15.6708 15.3031 15.4646 15.8471 15.5516L20.1791 16.2728C20.7511 16.3688 21.2161 16.7738 21.3651 17.3058C21.3921 17.4028 21.4181 17.5128 21.4401 17.6378C21.6491 18.8388 21.3031 20.0657 20.4901 21.0077Z" fill="#9FA5B8"/>
</svg>
