<svg width="24" height="25" viewBox="0 0 24 25" fill="none" xmlns="http://www.w3.org/2000/svg">
<path d="M15 3.496H9C5.42 3.496 2.5 6.416 2.5 9.996V15.996C2.5 19.576 5.42 22.496 9 22.496H15C18.58 22.496 21.5 19.576 21.5 15.996V9.996C21.5 6.416 18.58 3.496 15 3.496ZM16 13.996H13V16.996C13 17.546 12.55 17.996 12 17.996C11.45 17.996 11 17.546 11 16.996V13.996H8C7.45 13.996 7 13.546 7 12.996C7 12.446 7.45 11.996 8 11.996H11V8.996C11 8.446 11.45 7.996 12 7.996C12.55 7.996 13 8.446 13 8.996V11.996H16C16.55 11.996 17 12.446 17 12.996C17 13.546 16.55 13.996 16 13.996Z" fill="#9FA5B8"/>
</svg>
