<svg width="24" height="25" viewBox="0 0 24 25" fill="none" xmlns="http://www.w3.org/2000/svg">
<path d="M12 2.996C6.49 2.996 2 7.486 2 12.996C2 18.506 6.49 22.996 12 22.996C17.51 22.996 22 18.506 22 12.996C22 7.486 17.51 2.996 12 2.996ZM12 18.996C11.45 18.996 11 18.546 11 17.996C11 17.446 11.45 16.996 12 16.996C12.55 16.996 13 17.446 13 17.996C13 18.546 12.55 18.996 12 18.996ZM14.04 14.3161C13.12 14.9261 12.97 15.2561 12.95 15.3161C12.81 15.7361 12.42 15.996 12 15.996C11.89 15.996 11.79 15.976 11.68 15.946C11.16 15.766 10.88 15.1959 11.05 14.6759C11.36 13.7759 12.27 13.0859 12.93 12.6459C14.18 11.8159 14.02 10.9159 13.97 10.6259C13.83 9.83589 13.16 9.16603 12.37 9.02603C11.76 8.91603 11.18 9.07597 10.71 9.46597C10.26 9.84597 10 10.406 10 10.996C10 11.546 9.55 11.996 9 11.996C8.45 11.996 8 11.546 8 10.996C8 9.816 8.51999 8.69594 9.42999 7.93594C10.34 7.16594 11.54 6.85606 12.72 7.05606C14.33 7.34606 15.65 8.66603 15.94 10.276C16.22 11.876 15.54 13.3161 14.04 14.3161Z" fill="#9FA5B8"/>
</svg>
