<svg width="24" height="25" viewBox="0 0 24 25" fill="none" xmlns="http://www.w3.org/2000/svg">
<path d="M21.707 21.289L17.168 16.7499C18.311 15.3019 19 13.479 19 11.496C19 6.809 15.187 2.996 10.5 2.996C5.813 2.996 2 6.809 2 11.496C2 16.183 5.813 19.996 10.5 19.996C12.484 19.996 14.306 19.308 15.754 18.164L20.293 22.703C20.488 22.898 20.744 22.996 21 22.996C21.256 22.996 21.512 22.898 21.707 22.703C22.098 22.312 22.098 21.68 21.707 21.289ZM4 11.496C4 7.912 6.916 4.996 10.5 4.996C14.084 4.996 17 7.912 17 11.496C17 15.08 14.084 17.996 10.5 17.996C6.916 17.996 4 15.08 4 11.496Z" fill="#9FA5B8"/>
</svg>
