<svg width="24" height="25" viewBox="0 0 24 25" fill="none" xmlns="http://www.w3.org/2000/svg">
<path d="M21.4208 6.66513L18.1408 19.7852C17.6708 21.6552 16.0708 22.4952 14.6708 22.4952C14.6608 22.4952 14.6508 22.4952 14.6508 22.4952C13.2408 22.4852 11.6308 21.6252 11.1908 19.7352L10.3308 16.0853L15.7108 10.7052C16.1008 10.3152 16.1008 9.67524 15.7108 9.28524C15.3208 8.89524 14.6808 8.89524 14.2908 9.28524L8.91079 14.6651L5.26083 13.8053C3.37083 13.3653 2.51082 11.7553 2.50082 10.3553C2.49082 8.94531 3.33084 7.32531 5.21084 6.85531L18.3308 3.57528C19.2008 3.35528 20.1108 3.6052 20.7508 4.2452C21.3908 4.8852 21.6408 5.79513 21.4208 6.66513Z" fill="#9FA5B8"/>
</svg>
