<svg width="24" height="25" viewBox="0 0 24 25" fill="none" xmlns="http://www.w3.org/2000/svg">
<path d="M20.33 10.776H20.3C20.0616 10.7746 19.8289 10.7026 19.6314 10.5691C19.4339 10.4357 19.2803 10.2467 19.19 10.026C19.19 10.0233 19.1889 10.0208 19.1871 10.0189C19.1852 10.0171 19.1827 10.016 19.18 10.016C19.091 9.79605 19.0683 9.55491 19.1144 9.32219C19.1606 9.08947 19.2738 8.87531 19.44 8.706L19.47 8.676C19.7822 8.36263 19.9574 7.93833 19.9574 7.496C19.9574 7.05368 19.7822 6.62938 19.47 6.316L18.68 5.536C18.3666 5.22384 17.9423 5.04856 17.5 5.04856C17.0577 5.04856 16.6334 5.22384 16.32 5.536L16.31 5.556C16.1368 5.72281 15.9187 5.83536 15.6824 5.87977C15.4461 5.92419 15.2019 5.89855 14.98 5.806C14.7563 5.71901 14.5641 5.56651 14.4285 5.36846C14.2928 5.17041 14.2202 4.93603 14.22 4.696V4.666C14.2208 4.44731 14.1785 4.23062 14.0954 4.0283C14.0124 3.82598 13.8903 3.64201 13.7362 3.48691C13.582 3.33181 13.3988 3.20862 13.1969 3.12439C12.9951 3.04015 12.7787 2.99653 12.56 2.996H11.44C11.2213 2.99653 11.0049 3.04015 10.8031 3.12439C10.6012 3.20862 10.418 3.33181 10.2638 3.48691C10.1097 3.64201 9.98758 3.82598 9.90456 4.0283C9.82154 4.23062 9.77921 4.44731 9.78 4.666V4.696C9.77952 4.93462 9.7079 5.16768 9.57431 5.3654C9.44072 5.56312 9.25121 5.71652 9.03 5.806C8.87906 5.87348 8.71533 5.90759 8.55 5.906C8.39227 5.90639 8.23601 5.87568 8.09016 5.81562C7.94431 5.75556 7.81173 5.66734 7.7 5.556L7.68 5.536C7.36663 5.22384 6.94232 5.04856 6.5 5.04856C6.05768 5.04856 5.63337 5.22384 5.32 5.536L4.53 6.316C4.21783 6.62938 4.04256 7.05368 4.04256 7.496C4.04256 7.93833 4.21783 8.36263 4.53 8.676L4.56 8.706C4.7276 8.87655 4.84125 9.09269 4.88675 9.32744C4.93226 9.56218 4.9076 9.80513 4.81586 10.0259C4.72412 10.2468 4.56936 10.4357 4.37091 10.5691C4.17246 10.7025 3.93911 10.7744 3.7 10.776H3.67C3.22733 10.7768 2.80302 10.953 2.49001 11.266C2.17699 11.579 2.00079 12.0033 2 12.446V13.556C2.00079 13.9987 2.17699 14.423 2.49001 14.736C2.80302 15.049 3.22733 15.2252 3.67 15.226H3.7C3.93918 15.224 4.17332 15.2947 4.37151 15.4286C4.56969 15.5625 4.72259 15.7534 4.81 15.976C4.90064 16.1983 4.92527 16.4419 4.88092 16.6778C4.83658 16.9137 4.72516 17.1318 4.56 17.306L4.54 17.316C4.2277 17.6313 4.05251 18.0572 4.05251 18.501C4.05251 18.9448 4.2277 19.3707 4.54 19.686L5.32 20.466C5.63337 20.7782 6.05768 20.9534 6.5 20.9534C6.94232 20.9534 7.36663 20.7782 7.68 20.466L7.7 20.446C7.86699 20.2761 8.08127 20.1605 8.31492 20.1141C8.54858 20.0677 8.79079 20.0928 9.01 20.186C9.23543 20.2746 9.42921 20.4286 9.56643 20.6281C9.70364 20.8277 9.77802 21.0638 9.78 21.306V21.336C9.77947 21.5541 9.82205 21.7702 9.90529 21.9719C9.98852 22.1735 10.1108 22.3567 10.265 22.511C10.4193 22.6652 10.6025 22.7875 10.8041 22.8707C11.0058 22.954 11.2219 22.9965 11.44 22.996H12.56C12.7781 22.9965 12.9942 22.954 13.1959 22.8707C13.3975 22.7875 13.5807 22.6652 13.735 22.511C13.8892 22.3567 14.0115 22.1735 14.0947 21.9719C14.1779 21.7702 14.2205 21.5541 14.22 21.336V21.306C14.222 21.0638 14.2964 20.8277 14.4336 20.6281C14.5708 20.4286 14.7646 20.2746 14.99 20.186C15.2092 20.0928 15.4514 20.0677 15.6851 20.1141C15.9187 20.1605 16.133 20.2761 16.3 20.446L16.32 20.466C16.6334 20.7782 17.0577 20.9534 17.5 20.9534C17.9423 20.9534 18.3666 20.7782 18.68 20.466L19.46 19.686C19.7723 19.3707 19.9475 18.9448 19.9475 18.501C19.9475 18.0572 19.7723 17.6313 19.46 17.316L19.44 17.306C19.2748 17.1318 19.1634 16.9137 19.1191 16.6778C19.0747 16.4419 19.0994 16.1983 19.19 15.976C19.2774 15.7534 19.4303 15.5625 19.6285 15.4286C19.8267 15.2947 20.0608 15.224 20.3 15.226H20.33C20.7727 15.2252 21.197 15.049 21.51 14.736C21.823 14.423 21.9992 13.9987 22 13.556V12.446C21.9992 12.0033 21.823 11.579 21.51 11.266C21.197 10.953 20.7727 10.7768 20.33 10.776ZM12 16.496C11.3078 16.496 10.6311 16.2907 10.0555 15.9061C9.47993 15.5216 9.03133 14.9749 8.76642 14.3354C8.50151 13.6959 8.4322 12.9921 8.56725 12.3132C8.7023 11.6343 9.03564 11.0106 9.52513 10.5211C10.0146 10.0316 10.6383 9.6983 11.3172 9.56325C11.9961 9.42821 12.6999 9.49752 13.3394 9.76242C13.9789 10.0273 14.5256 10.4759 14.9101 11.0515C15.2947 11.6271 15.5 12.3038 15.5 12.996C15.5 13.9243 15.1313 14.8145 14.4749 15.4709C13.8185 16.1273 12.9283 16.496 12 16.496Z" fill="#9FA5B8"/>
</svg>
