<svg width="24" height="25" viewBox="0 0 24 25" fill="none" xmlns="http://www.w3.org/2000/svg">
<path d="M20.5 7.9982C20.5 16.3592 19.293 20.4352 12.138 22.4782C12.093 22.4912 12.047 22.4982 12.001 22.4982C11.955 22.4982 11.909 22.4912 11.864 22.4782C4.70801 20.4332 3.5 16.3991 3.5 8.12711C3.5 7.90311 3.64901 7.70715 3.86401 7.64615C7.70701 6.56115 10.634 4.65727 11.664 3.64127C11.759 3.54827 11.893 3.47623 12.019 3.49723C12.151 3.49823 12.278 3.55215 12.371 3.64615C13.302 4.59015 17.232 6.54613 20.158 7.52213C20.362 7.59213 20.5 7.7832 20.5 7.9982Z" fill="#9FA5B8"/>
</svg>
