<svg width="24" height="25" viewBox="0 0 24 25" fill="none" xmlns="http://www.w3.org/2000/svg">
<path fill-rule="evenodd" clip-rule="evenodd" d="M19.75 14.1665C19.65 14.0565 19.51 13.9965 19.37 13.9965H4.63C4.49 13.9965 4.35 14.0565 4.25 14.1665C4.16 14.2765 4.12 14.4166 4.13 14.5666L4.84 19.9465C5.07 21.6865 6.56 22.9965 8.31 22.9965H15.71C17.47 22.9965 18.97 21.6865 19.19 19.9365L19.87 14.5566C19.88 14.4166 19.84 14.2765 19.75 14.1665ZM11 18.9965C11 19.5465 10.55 19.9965 10 19.9965C9.45 19.9965 9 19.5465 9 18.9965V16.9965C9 16.4465 9.45 15.9965 10 15.9965C10.55 15.9965 11 16.4465 11 16.9965V18.9965ZM15 18.9965C15 19.5465 14.55 19.9965 14 19.9965C13.45 19.9965 13 19.5465 13 18.9965V16.9965C13 16.4465 13.45 15.9965 14 15.9965C14.55 15.9965 15 16.4465 15 16.9965V18.9965ZM22 10.2465C22 11.4895 20.993 12.4965 19.75 12.4965H4.25C3.007 12.4965 2 11.4895 2 10.2465C2 9.00354 3.007 7.99654 4.25 7.99654H6.43399L9.14301 3.48164C9.42701 3.00664 10.04 2.85363 10.515 3.13863C10.989 3.42263 11.142 4.03645 10.858 4.51045L8.767 7.99556H15.235L13.144 4.51045C12.86 4.03645 13.013 3.42263 13.487 3.13863C13.961 2.85463 14.575 3.00764 14.859 3.48164L17.568 7.99654H19.752C20.993 7.99654 22 9.00354 22 10.2465Z" fill="#9FA5B8"/>
</svg>
