<svg width="25" height="25" viewBox="0 0 25 25" fill="none" xmlns="http://www.w3.org/2000/svg">
<path d="M9 4.496C7.42 4.496 6.09702 5.555 5.66302 6.996H3.5C2.948 6.996 2.5 7.443 2.5 7.996C2.5 8.549 2.948 8.996 3.5 8.996H5.66302C6.09702 10.437 7.42 11.496 9 11.496C10.93 11.496 12.5 9.926 12.5 7.996C12.5 6.066 10.93 4.496 9 4.496ZM9 9.496C8.173 9.496 7.5 8.823 7.5 7.996C7.5 7.169 8.173 6.496 9 6.496C9.827 6.496 10.5 7.169 10.5 7.996C10.5 8.823 9.827 9.496 9 9.496ZM14.5 7.996C14.5 7.443 14.948 6.996 15.5 6.996H21.5C22.052 6.996 22.5 7.443 22.5 7.996C22.5 8.549 22.052 8.996 21.5 8.996H15.5C14.948 8.996 14.5 8.549 14.5 7.996ZM21.5 16.996H19.337C18.903 15.555 17.58 14.496 16 14.496C14.07 14.496 12.5 16.066 12.5 17.996C12.5 19.926 14.07 21.496 16 21.496C17.58 21.496 18.903 20.437 19.337 18.996H21.5C22.052 18.996 22.5 18.549 22.5 17.996C22.5 17.443 22.052 16.996 21.5 16.996ZM16 19.496C15.173 19.496 14.5 18.823 14.5 17.996C14.5 17.169 15.173 16.496 16 16.496C16.827 16.496 17.5 17.169 17.5 17.996C17.5 18.823 16.827 19.496 16 19.496ZM10.5 17.996C10.5 18.549 10.052 18.996 9.5 18.996H3.5C2.948 18.996 2.5 18.549 2.5 17.996C2.5 17.443 2.948 16.996 3.5 16.996H9.5C10.052 16.996 10.5 17.443 10.5 17.996Z" fill="#9FA5B8"/>
</svg>
