<svg width="25" height="25" viewBox="0 0 25 25" fill="none" xmlns="http://www.w3.org/2000/svg">
<path d="M12.5 3.496C7.26 3.496 3 7.756 3 12.996C3 18.236 7.26 22.496 12.5 22.496C17.74 22.496 22 18.236 22 12.996C22 7.756 17.74 3.496 12.5 3.496ZM13.5 17.996H11.5C10.95 17.996 10.5 17.546 10.5 16.996C10.5 16.446 10.95 15.996 11.5 15.996H13.5C14.05 15.996 14.5 16.446 14.5 16.996C14.5 17.546 14.05 17.996 13.5 17.996ZM15 13.996H10C9.45 13.996 9 13.546 9 12.996C9 12.446 9.45 11.996 10 11.996H15C15.55 11.996 16 12.446 16 12.996C16 13.546 15.55 13.996 15 13.996ZM16.5 9.996H8.5C7.95 9.996 7.5 9.546 7.5 8.996C7.5 8.446 7.95 7.996 8.5 7.996H16.5C17.05 7.996 17.5 8.446 17.5 8.996C17.5 9.546 17.05 9.996 16.5 9.996Z" fill="#9FA5B8"/>
</svg>
