<svg width="24" height="25" viewBox="0 0 24 25" fill="none" xmlns="http://www.w3.org/2000/svg">
<path d="M12 3.496C6.76 3.496 2.5 7.756 2.5 12.996C2.5 18.236 6.76 22.496 12 22.496C17.24 22.496 21.5 18.236 21.5 12.996C21.5 7.756 17.24 3.496 12 3.496ZM11 7.996H13C13.55 7.996 14 8.446 14 8.996C14 9.546 13.55 9.996 13 9.996H11C10.45 9.996 10 9.546 10 8.996C10 8.446 10.45 7.996 11 7.996ZM9.5 11.996H14.5C15.05 11.996 15.5 12.446 15.5 12.996C15.5 13.546 15.05 13.996 14.5 13.996H9.5C8.95 13.996 8.5 13.546 8.5 12.996C8.5 12.446 8.95 11.996 9.5 11.996ZM16 17.996H8C7.45 17.996 7 17.546 7 16.996C7 16.446 7.45 15.996 8 15.996H16C16.55 15.996 17 16.446 17 16.996C17 17.546 16.55 17.996 16 17.996Z" fill="#9FA5B8"/>
</svg>
