<svg width="24" height="25" viewBox="0 0 24 25" fill="none" xmlns="http://www.w3.org/2000/svg">
<path d="M20.9344 12.6264L17.8204 15.6186L18.5554 19.8395C18.6754 20.5285 18.3974 21.2155 17.8294 21.6315C17.2504 22.0545 16.4944 22.1126 15.8564 21.7836L12.0004 19.7865L8.14445 21.7836C7.87045 21.9256 7.57345 21.9955 7.27845 21.9955C6.88845 21.9955 6.50142 21.8725 6.17142 21.6315C5.60442 21.2155 5.32544 20.5285 5.44544 19.8395L6.18043 15.6186L3.06644 12.6264C2.55644 12.1364 2.37342 11.4155 2.58942 10.7455C2.80742 10.0675 3.38542 9.58457 4.09742 9.48257L8.40644 8.86539L10.3324 5.02042C10.6484 4.38842 11.2884 3.99649 12.0004 3.99649C12.7124 3.99649 13.3524 4.38942 13.6684 5.02042L15.5944 8.86539L19.9034 9.48257C20.6144 9.58457 21.1924 10.0675 21.4104 10.7455C21.6264 11.4155 21.4444 12.1364 20.9344 12.6264Z" fill="#9FA5B8"/>
</svg>
