<svg width="24" height="25" viewBox="0 0 24 25" fill="none" xmlns="http://www.w3.org/2000/svg">
<path d="M18.2088 9.45596L19.7088 7.95596C20.0988 7.56596 20.0988 6.92604 19.7088 6.53604C19.3188 6.14604 18.6788 6.14604 18.2888 6.53604L16.7888 8.03604C16.7288 8.10604 16.6888 8.176 16.6488 8.246C15.5988 7.496 14.3488 6.98607 12.9988 6.81607V5.246H13.9988C14.5488 5.246 14.9988 4.796 14.9988 4.246C14.9988 3.696 14.5488 3.246 13.9988 3.246H9.99878C9.44878 3.246 8.99878 3.696 8.99878 4.246C8.99878 4.796 9.44878 5.246 9.99878 5.246H10.9988V6.81607C7.05878 7.30607 3.99878 10.676 3.99878 14.746C3.99878 19.156 7.58878 22.746 11.9988 22.746C16.4088 22.746 19.9988 19.156 19.9988 14.746C19.9988 12.756 19.2688 10.9461 18.0688 9.54605C18.1088 9.51605 18.1688 9.49596 18.2088 9.45596ZM14.6188 18.026C14.4388 18.176 14.2188 18.246 13.9988 18.246C13.7088 18.246 13.4188 18.1161 13.2188 17.8661L11.2188 15.3661C11.0788 15.1961 10.9988 14.976 10.9988 14.746V11.246C10.9988 10.696 11.4488 10.246 11.9988 10.246C12.5488 10.246 12.9988 10.696 12.9988 11.246V14.3959L14.7788 16.6259C15.1288 17.0559 15.0588 17.686 14.6188 18.026Z" fill="#9FA5B8"/>
</svg>
