<svg width="24" height="25" viewBox="0 0 24 25" fill="none" xmlns="http://www.w3.org/2000/svg">
<path d="M20.5 18.996C20.5 20.926 18.93 22.496 17 22.496H14.53V19.996C14.53 18.616 13.41 17.496 12.03 17.496C10.65 17.496 9.53003 18.616 9.53003 19.996V22.496H7C5.07 22.496 3.5 20.926 3.5 18.996V14.3461C4.3 14.7561 5.18999 14.996 5.98999 14.996C7.11999 14.996 8.22 14.526 9 13.776C9.77 14.526 10.87 14.996 12 14.996C13.13 14.996 14.23 14.526 15 13.776C15.78 14.526 16.88 14.996 18.01 14.996C18.81 14.996 19.7 14.7561 20.5 14.3461V18.996ZM21.474 9.83804L20.386 6.57291C19.773 4.73191 18.057 3.496 16.117 3.496H7.883C5.943 3.496 4.22801 4.73191 3.61401 6.57291L2.526 9.83804C2.509 9.89004 2.5 9.94198 2.5 9.99698C2.503 11.927 4.06799 13.496 5.98999 13.496C7.17799 13.496 8.31801 12.9149 8.99701 12.0299C9.67001 12.9149 10.809 13.496 12 13.496C13.191 13.496 14.33 12.9149 15.003 12.0299C15.682 12.9149 16.823 13.496 18.01 13.496C19.931 13.496 21.497 11.927 21.5 9.99698C21.5 9.94198 21.491 9.89004 21.474 9.83804Z" fill="#9FA5B8"/>
</svg>
