<svg width="24" height="25" viewBox="0 0 24 25" fill="none" xmlns="http://www.w3.org/2000/svg">
<path d="M20.18 11.3461L13.65 4.81607C12.81 3.97607 11.65 3.496 10.47 3.496H6C4.07 3.496 2.5 5.066 2.5 6.996V11.466C2.5 12.666 2.97001 13.7959 3.82001 14.6459L10.35 21.1759C11.2 22.0259 12.33 22.496 13.53 22.496C14.74 22.496 15.87 22.0259 16.72 21.1759L20.18 17.716C21.94 15.956 21.94 13.1061 20.18 11.3461ZM7.5 9.996C6.67 9.996 6 9.326 6 8.496C6 7.666 6.67 6.996 7.5 6.996C8.33 6.996 9 7.666 9 8.496C9 9.326 8.33 9.996 7.5 9.996Z" fill="#9FA5B8"/>
</svg>
