<svg width="24" height="25" viewBox="0 0 24 25" fill="none" xmlns="http://www.w3.org/2000/svg">
<path d="M19.5 15.746C19.5 16.022 19.276 16.246 19 16.246H13V21.746C13 22.299 12.553 22.746 12 22.746C11.447 22.746 11 22.299 11 21.746V16.246H5C4.867 16.246 4.74 16.193 4.646 16.1C4.552 16.007 4.5 15.879 4.5 15.746C4.5 13.678 5.30503 11.7339 6.76703 10.2719L7.5 9.53897V6.9379C6.843 6.1469 6.5 4.769 6.5 3.746C6.5 3.47 6.724 3.246 7 3.246H17C17.276 3.246 17.5 3.47 17.5 3.746C17.5 4.769 17.157 6.14592 16.501 6.93692L16.5 9.53897L17.233 10.2719C18.695 11.7349 19.5 13.679 19.5 15.746Z" fill="#9FA5B8"/>
</svg>
