<svg width="24" height="25" viewBox="0 0 24 25" fill="none" xmlns="http://www.w3.org/2000/svg">
<path d="M15 3.496H9C5.42 3.496 2.5 6.416 2.5 9.996V15.996C2.5 19.576 5.42 22.496 9 22.496H15C18.58 22.496 21.5 19.576 21.5 15.996V9.996C21.5 6.416 18.58 3.496 15 3.496ZM15.71 15.286C16.1 15.676 16.1 16.316 15.71 16.706C15.51 16.896 15.26 16.996 15 16.996C14.74 16.996 14.49 16.896 14.29 16.706L12 14.4159L9.71002 16.706C9.51002 16.896 9.26 16.996 9 16.996C8.74 16.996 8.48998 16.896 8.28998 16.706C7.89998 16.316 7.89998 15.676 8.28998 15.286L10.58 12.996L8.28998 10.706C7.89998 10.316 7.89998 9.67604 8.28998 9.28604C8.67998 8.89604 9.32002 8.89604 9.71002 9.28604L12 11.5761L14.29 9.28604C14.68 8.89604 15.32 8.89604 15.71 9.28604C16.1 9.67604 16.1 10.316 15.71 10.706L13.42 12.996L15.71 15.286Z" fill="#9FA5B8"/>
</svg>
