<svg width="24" height="25" viewBox="0 0 24 25" fill="none" xmlns="http://www.w3.org/2000/svg">
<path d="M22 7.246C22 7.799 21.552 8.246 21 8.246H3C2.448 8.246 2 7.799 2 7.246C2 6.693 2.448 6.246 3 6.246H6.55902C6.99002 6.246 7.371 5.97192 7.508 5.56192L7.82397 4.61392C8.09697 3.79592 8.86001 3.246 9.72101 3.246H14.28C15.142 3.246 15.905 3.79595 16.177 4.61295L16.493 5.5629C16.629 5.9709 17.011 6.246 17.442 6.246H21C21.552 6.246 22 6.693 22 7.246ZM19.3 10.276L18.69 19.476C18.56 21.316 17.02 22.746 15.19 22.746H8.81C6.98 22.746 5.44 21.316 5.31 19.486L4.70001 10.276C4.69001 10.146 4.74002 10.0059 4.83002 9.90591C4.93002 9.80591 5.06001 9.746 5.20001 9.746H18.8C18.94 9.746 19.07 9.80591 19.17 9.90591C19.26 10.0059 19.31 10.146 19.3 10.276ZM11 13.246C11 12.696 10.55 12.246 10 12.246C9.45 12.246 9 12.696 9 13.246V18.246C9 18.796 9.45 19.246 10 19.246C10.55 19.246 11 18.796 11 18.246V13.246ZM15 13.246C15 12.696 14.55 12.246 14 12.246C13.45 12.246 13 12.696 13 13.246V18.246C13 18.796 13.45 19.246 14 19.246C14.55 19.246 15 18.796 15 18.246V13.246Z" fill="#9FA5B8"/>
</svg>
