<svg width="24" height="25" viewBox="0 0 24 25" fill="none" xmlns="http://www.w3.org/2000/svg">
<path d="M15 10.746H9V8.246C9 6.596 10.35 5.246 12 5.246C13.4 5.246 14.7 6.216 15.03 7.496C15.17 8.026 15.71 8.35597 16.25 8.21597C16.78 8.07597 17.11 7.536 16.97 6.996C16.41 4.826 14.32 3.246 12 3.246C9.24 3.246 7 5.486 7 8.246V11.236C5.52 11.976 4.5 13.486 4.5 15.246V18.246C4.5 20.726 6.52 22.746 9 22.746H15C17.48 22.746 19.5 20.726 19.5 18.246V15.246C19.5 12.766 17.48 10.746 15 10.746ZM13 17.246C13 17.796 12.55 18.246 12 18.246C11.45 18.246 11 17.796 11 17.246V16.246C11 15.696 11.45 15.246 12 15.246C12.55 15.246 13 15.696 13 16.246V17.246Z" fill="#9FA5B8"/>
</svg>
