<svg width="24" height="25" viewBox="0 0 24 25" fill="none" xmlns="http://www.w3.org/2000/svg">
<path d="M17 11.7288H14.52V12.2598C14.52 13.6421 13.4 14.7641 12.02 14.7641C10.65 14.7641 9.52002 13.6421 9.52002 12.2598V11.7288H7C4.52 11.7288 2.5 13.7523 2.5 16.2365V17.2383C2.5 19.7225 4.52 21.746 7 21.746H17C19.49 21.746 21.5 19.7225 21.5 17.2383V16.2365C21.5 13.7523 19.49 11.7288 17 11.7288ZM17 17.4887C16.31 17.4887 15.76 16.9277 15.76 16.2365C15.76 15.5454 16.31 14.9844 17 14.9844C17.7 14.9844 18.26 15.5454 18.26 16.2365C18.26 16.9277 17.7 17.4887 17 17.4887ZM15.73 8.96406C15.54 9.15439 15.28 9.2546 15.02 9.2546C14.77 9.2546 14.51 9.15439 14.32 8.96406L13.02 7.66178V12.2598C13.02 12.8107 12.58 13.2615 12.02 13.2615C11.47 13.2615 11.02 12.8107 11.02 12.2598V7.66178L9.72998 8.96406C9.53998 9.15439 9.28002 9.2546 9.02002 9.2546C8.77002 9.2546 8.51001 9.15439 8.32001 8.96406C7.93001 8.57339 7.93001 7.93237 8.32001 7.5417L11.32 4.53654C11.51 4.34621 11.77 4.246 12.02 4.246C12.28 4.246 12.54 4.34621 12.73 4.53654L15.73 7.5417C16.12 7.93237 16.12 8.57339 15.73 8.96406Z" fill="#9FA5B8"/>
</svg>
