<svg width="25" height="25" viewBox="0 0 25 25" fill="none" xmlns="http://www.w3.org/2000/svg">
<path d="M7.50049 8.49551C7.50049 5.73851 9.74349 3.49551 12.5005 3.49551C15.2575 3.49551 17.5005 5.73851 17.5005 8.49551C17.5005 11.2525 15.2575 13.4955 12.5005 13.4955C9.74349 13.4955 7.50049 11.2525 7.50049 8.49551ZM16.6175 14.5666C16.0585 14.4246 15.4505 14.5046 14.9475 14.7846C13.4295 15.6286 11.5715 15.6286 10.0535 14.7846C9.55147 14.5056 8.94248 14.4266 8.38348 14.5666C6.39148 15.0696 5.00049 16.8776 5.00049 18.9626V19.9735C5.00049 20.6115 5.17047 21.2354 5.49347 21.7794C5.75647 22.2214 6.2495 22.4965 6.7785 22.4965H18.2215C18.7505 22.4965 19.2435 22.2225 19.5065 21.7785C19.8295 21.2355 19.9995 20.6115 19.9995 19.9735V18.9626C20.0005 16.8776 18.6095 15.0696 16.6175 14.5666Z" fill="#9FA5B8"/>
</svg>
