<svg width="24" height="25" viewBox="0 0 24 25" fill="none" xmlns="http://www.w3.org/2000/svg">
<path d="M21.5 18.6359V19.1459C21.5 19.8859 21.25 20.5959 20.79 21.1659C20.62 21.3859 20.34 21.496 20.05 21.496H17.37C17.78 20.786 18 19.9759 18 19.1459V18.6359C18 17.1959 17.47 15.8661 16.57 14.8561C16.64 14.8361 16.7 14.796 16.76 14.766C17.22 14.506 17.79 14.4261 18.33 14.5561C20.19 15.0261 21.5 16.6959 21.5 18.6359ZM14.5 4.496C14.18 4.496 13.87 4.5261 13.57 4.5961C14.76 5.6861 15.5 7.256 15.5 8.996C15.5 10.736 14.76 12.3059 13.57 13.3959C13.87 13.4659 14.18 13.496 14.5 13.496C16.98 13.496 19 11.476 19 8.996C19 6.516 16.98 4.496 14.5 4.496ZM9.5 4.496C7.02 4.496 5 6.516 5 8.996C5 11.476 7.02 13.496 9.5 13.496C11.98 13.496 14 11.476 14 8.996C14 6.516 11.98 4.496 9.5 4.496ZM13.33 14.5561C13.15 14.5161 12.98 14.496 12.8 14.496C12.43 14.496 12.07 14.586 11.76 14.766C11.06 15.146 10.28 15.3361 9.5 15.3361C8.72 15.3361 7.95001 15.146 7.26001 14.776C6.93001 14.596 6.56 14.496 6.19 14.496C6.03 14.496 5.87998 14.5161 5.72998 14.5461C3.82998 14.9861 2.5 16.6759 2.5 18.6359V19.1459C2.5 19.8859 2.75002 20.5959 3.21002 21.1659C3.38002 21.3859 3.66001 21.496 3.95001 21.496H15.05C15.34 21.496 15.62 21.3859 15.79 21.1659C16.25 20.5959 16.5 19.8859 16.5 19.1459V18.6359C16.5 16.6959 15.19 15.0261 13.33 14.5561Z" fill="#9FA5B8"/>
</svg>
