<svg width="24" height="25" viewBox="0 0 24 25" fill="none" xmlns="http://www.w3.org/2000/svg">
<path d="M20.35 7.70596C20.35 9.36596 19.25 10.776 17.74 11.236C17.91 10.686 18 10.096 18 9.496C18 7.306 16.82 5.3861 15.07 4.3461C15.55 4.1261 16.08 3.996 16.65 3.996C18.69 3.996 20.35 5.65596 20.35 7.70596ZM19.6 12.2961C19.18 12.1761 18.72 12.236 18.35 12.446C17.91 12.686 17.44 12.8261 16.96 12.8561C16.76 13.1561 16.53 13.446 16.26 13.706C18.19 14.336 19.6 16.006 19.92 17.996H20.61C21.07 17.996 21.49 17.7561 21.7 17.3661C21.9 16.9961 22 16.5759 22 16.1559V15.446C22 13.956 21.01 12.6661 19.6 12.2961ZM8.92999 4.3461C8.44999 4.1261 7.91998 3.996 7.34998 3.996C5.30998 3.996 3.65002 5.65596 3.65002 7.70596C3.65002 9.36596 4.75001 10.776 6.26001 11.236C6.09001 10.686 6 10.096 6 9.496C6 7.306 7.17999 5.3861 8.92999 4.3461ZM7.73999 13.706C7.46999 13.446 7.23998 13.1561 7.03998 12.8561C6.55998 12.8261 6.09002 12.686 5.65002 12.446C5.28002 12.236 4.82002 12.1761 4.40002 12.2961C2.99002 12.6661 2 13.956 2 15.446V16.1559C2 16.5759 2.09999 16.9961 2.29999 17.3661C2.50999 17.7561 2.93 17.996 3.38 17.996H4.08002C4.40002 16.006 5.80999 14.336 7.73999 13.706ZM15.58 15.0661C15.41 15.0261 15.23 14.996 15.05 14.996C14.71 14.996 14.36 15.086 14.06 15.256C13.42 15.606 12.71 15.786 12 15.786C11.29 15.786 10.58 15.606 9.94 15.256C9.64 15.086 9.29001 14.996 8.95001 14.996C8.77001 14.996 8.58998 15.0261 8.41998 15.0661C6.69998 15.5261 5.5 17.0959 5.5 18.8959V19.766C5.5 20.276 5.63 20.786 5.87 21.226C6.12 21.706 6.61999 21.996 7.17999 21.996H16.82C17.38 21.996 17.88 21.706 18.13 21.226C18.37 20.786 18.5 20.276 18.5 19.766V18.8959C18.5 17.0959 17.3 15.5261 15.58 15.0661ZM16.5 9.496C16.5 7.011 14.485 4.996 12 4.996C9.515 4.996 7.5 7.011 7.5 9.496C7.5 11.981 9.515 13.996 12 13.996C14.485 13.996 16.5 11.981 16.5 9.496Z" fill="#9FA5B8"/>
</svg>
