<svg width="24" height="25" viewBox="0 0 24 25" fill="none" xmlns="http://www.w3.org/2000/svg">
<path d="M16.25 10.996V14.996C16.25 17.477 14.231 19.496 11.75 19.496H6.75C4.269 19.496 2.25 17.477 2.25 14.996V10.996C2.25 8.515 4.269 6.496 6.75 6.496H11.75C14.231 6.496 16.25 8.515 16.25 10.996ZM20.849 8.73502C20.297 8.44002 19.63 8.47298 19.113 8.81998L17.973 9.57999C17.834 9.67299 17.75 9.829 17.75 9.996V15.996C17.75 16.163 17.833 16.319 17.973 16.412L19.112 17.1711C19.396 17.3611 19.723 17.4569 20.051 17.4569C20.324 17.4569 20.598 17.391 20.849 17.257C21.405 16.961 21.75 16.386 21.75 15.756V10.236C21.75 9.60599 21.405 9.03102 20.849 8.73502Z" fill="#9FA5B8"/>
</svg>
