<svg width="24" height="25" viewBox="0 0 24 25" fill="none" xmlns="http://www.w3.org/2000/svg">
<path d="M3.13929 17.5751C2.59785 16.8141 2.31201 15.923 2.31201 14.996V10.996C2.31201 8.51504 4.34394 6.49604 6.84082 6.49604H11.8728C12.536 6.49604 13.1681 6.63796 13.7508 6.91596C13.8977 6.98496 14.0024 7.12193 14.0286 7.28193C14.0557 7.44193 14.0044 7.60516 13.8886 7.72016L3.90515 17.6401C3.81055 17.7341 3.68173 17.7861 3.54888 17.7861C3.53479 17.7861 3.52071 17.7851 3.50662 17.7841C3.35969 17.7711 3.22484 17.6951 3.13929 17.5751ZM20.9717 8.84614C20.4554 8.57314 19.8365 8.60402 19.3534 8.92402L18.2061 9.68403C18.1015 9.75403 18.038 9.87204 18.038 9.99604V15.996C18.038 16.121 18.1005 16.2381 18.2061 16.3081L19.3524 17.0671C19.6161 17.2431 19.921 17.332 20.228 17.332C20.4826 17.332 20.7382 17.2699 20.9727 17.1459C21.491 16.8719 21.812 16.3391 21.812 15.7551V10.2351C21.811 9.65205 21.489 9.12014 20.9717 8.84614ZM20.6355 5.70307C21.029 5.31207 21.029 4.68001 20.6355 4.28901C20.242 3.89801 19.606 3.89801 19.2125 4.28901L3.11012 20.289C2.71661 20.68 2.71661 21.3121 3.11012 21.7031C3.30637 21.8981 3.56397 21.996 3.82161 21.996C4.07925 21.996 4.33686 21.8981 4.53311 21.7031L6.7633 19.487C6.79047 19.487 6.81364 19.496 6.84082 19.496H11.8728C14.3697 19.496 16.4016 17.477 16.4016 14.996V10.996C16.4016 10.661 16.3634 10.335 16.2919 10.019L20.6355 5.70307Z" fill="#9FA5B8"/>
</svg>
