<svg width="24" height="25" viewBox="0 0 24 25" fill="none" xmlns="http://www.w3.org/2000/svg">
<path d="M13.25 7.50729V18.4863C13.25 19.6743 12.58 20.7213 11.501 21.2173C11.094 21.4053 10.665 21.4963 10.24 21.4963C9.54299 21.4963 8.85701 21.2483 8.29901 20.7693L5.70502 18.5434C5.61402 18.4654 5.49898 18.4223 5.38098 18.4223L4.64301 18.4214C3.32401 18.4204 2.25 17.3432 2.25 16.0212V9.97043C2.25 8.64943 3.32303 7.57328 4.64203 7.57028L5.38098 7.5693C5.49898 7.5683 5.61398 7.52619 5.70398 7.44919L8.29999 5.22238C9.19799 4.45138 10.428 4.27936 11.501 4.77536C12.58 5.27136 13.25 6.31729 13.25 7.50729ZM16.547 9.3923C16.213 8.9543 15.586 8.86541 15.146 9.20041C14.706 9.53441 14.62 10.1613 14.954 10.6013C15.475 11.2883 15.751 12.1173 15.751 12.9973C15.751 13.8773 15.476 14.7063 14.954 15.3933C14.62 15.8333 14.706 16.4604 15.146 16.7944C15.327 16.9314 15.54 16.9973 15.75 16.9973C16.053 16.9973 16.351 16.8603 16.548 16.6013C17.335 15.5643 17.751 14.3173 17.751 12.9973C17.751 11.6773 17.334 10.4293 16.547 9.3923ZM19.193 6.32736C18.823 5.91636 18.192 5.88439 17.781 6.25339C17.371 6.62239 17.337 7.25425 17.707 7.66525C19.024 9.13025 19.75 11.0233 19.75 12.9963C19.75 14.9693 19.024 16.8624 17.707 18.3274C17.337 18.7384 17.371 19.3702 17.781 19.7392C17.972 19.9112 18.212 19.9963 18.45 19.9963C18.723 19.9963 18.996 19.8853 19.193 19.6653C20.841 17.8323 21.75 15.4633 21.75 12.9963C21.75 10.5293 20.842 8.16036 19.193 6.32736Z" fill="#9FA5B8"/>
</svg>
