<svg width="24" height="24" viewBox="0 0 24 24" fill="none" xmlns="http://www.w3.org/2000/svg">
<path d="M19.5296 14.53L12.5296 21.53C12.3836 21.676 12.1915 21.75 11.9995 21.75C11.8075 21.75 11.6155 21.677 11.4695 21.53L4.46951 14.53C4.17651 14.237 4.17651 13.762 4.46951 13.469C4.76251 13.176 5.23754 13.176 5.53054 13.469L11.2505 19.189V3C11.2505 2.586 11.5865 2.25 12.0005 2.25C12.4145 2.25 12.7505 2.586 12.7505 3V19.189L18.4705 13.469C18.7635 13.176 19.2385 13.176 19.5315 13.469C19.8245 13.762 19.8226 14.237 19.5296 14.53Z" fill="#9FA5B8"/>
</svg>
