<svg width="24" height="24" viewBox="0 0 24 24" fill="none" xmlns="http://www.w3.org/2000/svg">
<path d="M19.3535 13.803C18.9595 13.149 18.7505 12.394 18.7505 11.62V8.98999C18.7505 8.20399 18.6105 7.44199 18.3465 6.71399L20.5305 4.53003C20.8235 4.23703 20.8235 3.76199 20.5305 3.46899C20.2375 3.17599 19.7625 3.17599 19.4695 3.46899L3.46951 19.469C3.17651 19.762 3.17651 20.237 3.46951 20.53C3.61551 20.676 3.8075 20.75 3.9995 20.75C4.1915 20.75 4.38352 20.677 4.52952 20.53L6.3095 18.75H9.28152C9.27352 18.834 9.2485 18.915 9.2485 19C9.2485 20.517 10.4815 21.75 11.9985 21.75C13.5155 21.75 14.7485 20.517 14.7485 19C14.7485 18.915 14.7235 18.834 14.7155 18.75H18.6985C19.4445 18.75 20.1095 18.363 20.4775 17.715C20.8475 17.064 20.8375 16.29 20.4525 15.645L19.3535 13.803ZM13.2505 19.001C13.2505 19.69 12.6895 20.251 12.0005 20.251C11.3115 20.251 10.7505 19.69 10.7505 19.001C10.7505 18.916 10.7665 18.833 10.7835 18.751H13.2175C13.2345 18.833 13.2505 18.916 13.2505 19.001ZM19.1745 16.975C19.1275 17.058 18.9875 17.25 18.7005 17.25H7.81051L17.1395 7.92102C17.2125 8.27002 17.2505 8.62699 17.2505 8.98999V11.62C17.2505 12.666 17.5335 13.689 18.0665 14.575L19.1665 16.4149C19.3175 16.6679 19.2225 16.891 19.1745 16.975ZM3.87652 15.0959L4.64651 13.806C5.04251 13.15 5.25051 12.395 5.25051 11.62V8.98999C5.25051 5.27299 8.27851 2.25 12.0005 2.25C13.5365 2.25 14.9825 2.74796 16.1835 3.68896C16.5095 3.94496 16.5665 4.41594 16.3105 4.74194C16.0545 5.06794 15.5825 5.12402 15.2575 4.86902C14.3225 4.13602 13.1965 3.74902 12.0005 3.74902C9.10551 3.74902 6.75051 6.10001 6.75051 8.98901V11.619C6.75051 12.666 6.46752 13.6889 5.93252 14.5759L5.16451 15.863C5.02351 16.098 4.77551 16.229 4.51951 16.229C4.38851 16.229 4.25551 16.1949 4.13551 16.1229C3.78051 15.9119 3.66452 15.4519 3.87652 15.0959Z" fill="#9FA5B8"/>
</svg>
