<svg width="24" height="24" viewBox="0 0 24 24" fill="none" xmlns="http://www.w3.org/2000/svg">
<path d="M15 2.25079H9C6.381 2.25079 4.25 4.38179 4.25 7.00079V19.9988C4.25 20.6518 4.60899 21.2458 5.18799 21.5488C5.76799 21.8518 6.46001 21.8088 6.99701 21.4368L11.856 18.0698C11.942 18.0108 12.056 18.0108 12.141 18.0698L17.004 21.4368C17.303 21.6438 17.65 21.7488 18 21.7488C18.278 21.7488 18.557 21.6828 18.812 21.5478C19.391 21.2448 19.75 20.6507 19.75 19.9977V7.00079C19.75 4.38179 17.619 2.25079 15 2.25079ZM18.25 19.9988C18.25 20.1308 18.166 20.1948 18.116 20.2208C18.067 20.2478 17.967 20.2808 17.857 20.2048L12.994 16.8378C12.696 16.6308 12.347 16.5278 11.998 16.5278C11.649 16.5278 11.299 16.6318 11.001 16.8378L6.142 20.2038C6.034 20.2778 5.934 20.2458 5.884 20.2198C5.834 20.1938 5.75 20.1298 5.75 19.9988V7.00079C5.75 5.20879 7.208 3.75079 9 3.75079H15C16.792 3.75079 18.25 5.20879 18.25 7.00079V19.9988Z" fill="#9FA5B8"/>
</svg>
