<svg width="24" height="24" viewBox="0 0 24 24" fill="none" xmlns="http://www.w3.org/2000/svg">
<path d="M17.412 6.26794L16.217 4.47498C15.706 3.70798 14.85 3.25 13.929 3.25H10.07C9.14901 3.25 8.29298 3.70798 7.78198 4.47498L6.58701 6.26794C4.16001 6.47794 2.25 8.52 2.25 11V16C2.25 18.619 4.381 20.75 7 20.75H17C19.619 20.75 21.75 18.619 21.75 16V11C21.749 8.521 19.839 6.47894 17.412 6.26794ZM20.249 16.001C20.249 17.793 18.791 19.251 16.999 19.251H6.99899C5.20699 19.251 3.74899 17.793 3.74899 16.001V11.001C3.74899 9.20898 5.20699 7.75098 6.99899 7.75098C7.24999 7.75098 7.48399 7.62599 7.62299 7.41699L9.02899 5.30798C9.26099 4.95898 9.65 4.75098 10.069 4.75098H13.928C14.347 4.75098 14.736 4.95898 14.968 5.30798L16.374 7.41699C16.513 7.62499 16.747 7.75098 16.998 7.75098C18.79 7.75098 20.248 9.20898 20.248 11.001V16.001H20.249ZM11.999 9.25098C9.93099 9.25098 8.24899 10.933 8.24899 13.001C8.24899 15.069 9.93099 16.751 11.999 16.751C14.067 16.751 15.749 15.069 15.749 13.001C15.749 10.933 14.067 9.25098 11.999 9.25098ZM11.999 15.251C10.758 15.251 9.74899 14.242 9.74899 13.001C9.74899 11.76 10.758 10.751 11.999 10.751C13.24 10.751 14.249 11.76 14.249 13.001C14.249 14.242 13.24 15.251 11.999 15.251ZM18.999 10.001C18.999 10.553 18.551 11.001 17.999 11.001C17.447 11.001 16.999 10.553 16.999 10.001C16.999 9.44898 17.447 9.00098 17.999 9.00098C18.551 9.00098 18.999 9.44898 18.999 10.001Z" fill="#9FA5B8"/>
</svg>
