<svg width="24" height="24" viewBox="0 0 24 24" fill="none" xmlns="http://www.w3.org/2000/svg">
<path d="M21.705 9.97921C20.922 6.09421 17.906 3.07715 14.019 2.29415C13.356 2.16115 12.671 2.33019 12.146 2.76119C11.621 3.19219 11.319 3.82718 11.319 4.50618V9.93026C11.319 11.4463 12.552 12.6803 14.069 12.6803H19.493C20.172 12.6803 20.807 12.3783 21.238 11.8523C21.669 11.3263 21.839 10.6442 21.705 9.97921ZM20.077 10.9032C19.932 11.0802 19.72 11.1812 19.493 11.1812H14.069C13.38 11.1812 12.819 10.6202 12.819 9.93123V4.50716C12.819 4.28016 12.921 4.06818 13.096 3.92318C13.234 3.81118 13.403 3.75118 13.575 3.75118C13.625 3.75118 13.675 3.75619 13.723 3.76619C17.015 4.43019 19.571 6.9852 20.234 10.2762C20.279 10.4972 20.222 10.7262 20.077 10.9032ZM20.338 15.2192C19.148 19.1262 15.596 21.7502 11.5 21.7502C6.399 21.7502 2.25 17.6012 2.25 12.5002C2.25 8.4042 4.87501 4.85217 8.78101 3.66317C9.18001 3.54117 9.59602 3.76619 9.71802 4.16219C9.83802 4.55819 9.61499 4.97722 9.21899 5.09822C5.94799 6.09522 3.75 9.06918 3.75 12.5012C3.75 16.7742 7.227 20.2512 11.5 20.2512C14.931 20.2512 17.906 18.0532 18.902 14.7822C19.023 14.3862 19.439 14.1622 19.839 14.2832C20.235 14.4032 20.458 14.8222 20.338 15.2192Z" fill="#9FA5B8"/>
</svg>
