<svg width="24" height="24" viewBox="0 0 24 24" fill="none" xmlns="http://www.w3.org/2000/svg">
<path d="M12 2.25C6.624 2.25 2.25 6.624 2.25 12C2.25 17.376 6.624 21.75 12 21.75C17.376 21.75 21.75 17.376 21.75 12C21.75 6.624 17.376 2.25 12 2.25ZM12 20.25C7.451 20.25 3.75 16.549 3.75 12C3.75 7.451 7.451 3.75 12 3.75C16.549 3.75 20.25 7.451 20.25 12C20.25 16.549 16.549 20.25 12 20.25ZM15.202 6.677L11.146 7.69104C9.441 8.11704 8.117 9.44097 7.69 11.147L6.67599 15.202C6.52599 15.804 6.69699 16.425 7.13599 16.864C7.46999 17.198 7.91 17.3781 8.367 17.3781C8.51 17.3781 8.654 17.36 8.797 17.324L12.853 16.3101C14.558 15.8841 15.882 14.56 16.309 12.854L17.323 8.79895C17.473 8.19695 17.302 7.57596 16.863 7.13696C16.424 6.69796 15.804 6.526 15.202 6.677ZM14.854 12.49C14.562 13.657 13.656 14.563 12.489 14.855L8.43399 15.869C8.31399 15.899 8.23499 15.841 8.19699 15.803C8.15899 15.766 8.10101 15.685 8.13101 15.566L9.14499 11.511C9.43699 10.344 10.343 9.438 11.51 9.146L15.565 8.13196C15.588 8.12596 15.609 8.12402 15.629 8.12402C15.713 8.12402 15.772 8.168 15.801 8.198C15.839 8.235 15.897 8.31606 15.867 8.43506L14.854 12.49ZM13 12C13 12.552 12.552 13 12 13C11.448 13 11 12.552 11 12C11 11.448 11.448 11 12 11C12.552 11 13 11.448 13 12Z" fill="#9FA5B8"/>
</svg>
