<svg width="24" height="24" viewBox="0 0 24 24" fill="none" xmlns="http://www.w3.org/2000/svg">
<path d="M20.7955 9.69458L20.2165 9.1156C19.9795 8.8786 19.8485 8.56259 19.8485 8.22559V7.41162C19.8485 5.61362 18.3865 4.15161 16.5885 4.15161H15.7735C15.4375 4.15161 15.1215 4.02069 14.8835 3.78369L14.3045 3.20459C13.0335 1.93359 10.9655 1.93359 9.69446 3.20459L9.11548 3.78369C8.87848 4.02069 8.56247 4.15161 8.22547 4.15161H7.4115C5.6135 4.15161 4.15149 5.61362 4.15149 7.41162V8.22559C4.15149 8.56159 4.02051 8.8776 3.78351 9.1156L3.20447 9.69458C1.93347 10.9656 1.93347 13.0337 3.20447 14.3047L3.78351 14.8837C4.02051 15.1207 4.15149 15.4367 4.15149 15.7737V16.5876C4.15149 18.3856 5.6135 19.8477 7.4115 19.8477H8.22547C8.56147 19.8477 8.87748 19.9786 9.11548 20.2156L9.69446 20.7947C10.3305 21.4307 11.1645 21.7487 11.9995 21.7487C12.8345 21.7487 13.6685 21.4307 14.3045 20.7947L14.8835 20.2156C15.1205 19.9786 15.4365 19.8477 15.7735 19.8477H16.5885C18.3855 19.8477 19.8485 18.3856 19.8485 16.5876V15.7737C19.8485 15.4377 19.9795 15.1217 20.2165 14.8837L20.7955 14.3047C22.0665 13.0337 22.0665 10.9656 20.7955 9.69458ZM19.7345 13.2437L19.1555 13.8226C18.6345 14.3436 18.3475 15.0356 18.3475 15.7726V16.5867C18.3475 17.5577 17.5575 18.3467 16.5875 18.3467H15.7725C15.0355 18.3467 14.3425 18.6337 13.8225 19.1547L13.2435 19.7336C12.5565 20.4206 11.4405 20.4206 10.7545 19.7336L10.1755 19.1547C9.65448 18.6337 8.96247 18.3467 8.22547 18.3467H7.4115C6.4405 18.3467 5.65149 17.5567 5.65149 16.5867V15.7726C5.65149 15.0356 5.36451 14.3426 4.84351 13.8226L4.26447 13.2437C3.57847 12.5567 3.57847 11.4406 4.26447 10.7546L4.84351 10.1757C5.36451 9.65466 5.65149 8.96259 5.65149 8.22559V7.41162C5.65149 6.44062 6.4415 5.65161 7.4115 5.65161H8.22547C8.96247 5.65161 9.65548 5.36463 10.1755 4.84363L10.7545 4.26465C11.4415 3.57765 12.5575 3.57765 13.2435 4.26465L13.8225 4.84363C14.3435 5.36463 15.0355 5.65161 15.7725 5.65161H16.5875C17.5575 5.65161 18.3475 6.44162 18.3475 7.41162V8.22559C18.3475 8.96259 18.6345 9.65566 19.1555 10.1757L19.7345 10.7546C20.4205 11.4416 20.4205 12.5577 19.7345 13.2437ZM15.5305 8.46863C15.8235 8.76163 15.8235 9.23667 15.5305 9.52967L9.53052 15.5297C9.38452 15.6757 9.19249 15.7496 9.00049 15.7496C8.80849 15.7496 8.61646 15.6767 8.47046 15.5297C8.17746 15.2367 8.17746 14.7616 8.47046 14.4686L14.4705 8.46863C14.7635 8.17663 15.2375 8.17663 15.5305 8.46863ZM15.5005 14.4996C15.5005 15.0516 15.0525 15.4996 14.5005 15.4996C13.9485 15.4996 13.5005 15.0516 13.5005 14.4996C13.5005 13.9476 13.9485 13.4996 14.5005 13.4996C15.0525 13.4996 15.5005 13.9476 15.5005 14.4996ZM8.50049 9.49964C8.50049 8.94764 8.94849 8.49964 9.50049 8.49964C10.0525 8.49964 10.5005 8.94764 10.5005 9.49964C10.5005 10.0516 10.0525 10.4996 9.50049 10.4996C8.94849 10.4996 8.50049 10.0516 8.50049 9.49964Z" fill="#9FA5B8"/>
</svg>
