<svg width="24" height="24" viewBox="0 0 24 24" fill="none" xmlns="http://www.w3.org/2000/svg">
<path d="M17 2.25H7C4.381 2.25 2.25 4.381 2.25 7V17C2.25 19.619 4.381 21.75 7 21.75H17C19.619 21.75 21.75 19.619 21.75 17V7C21.75 4.381 19.619 2.25 17 2.25ZM17.75 12.75H20.25V15.25H17.75V12.75ZM17.75 8.75H20.25V11.25H17.75V8.75ZM20.25 7V7.25H17.75V3.84595C19.18 4.18595 20.25 5.467 20.25 7ZM16.25 3.75V11.25H7.75V3.75H16.25ZM6.25 15.25H3.75V12.75H6.25V15.25ZM3.75 11.25V8.75H6.25V11.25H3.75ZM6.25 3.84595V7.25H3.75V7C3.75 5.467 4.82 4.18595 6.25 3.84595ZM3.75 17V16.75H6.25V20.1541C4.82 19.8131 3.75 18.532 3.75 17ZM7.75 20.25V12.75H16.25V20.25H7.75ZM17.75 20.1541V16.75H20.25V17C20.25 18.532 19.18 19.8131 17.75 20.1541Z" fill="#9FA5B8"/>
</svg>
