<svg width="24" height="24" viewBox="0 0 24 24" fill="none" xmlns="http://www.w3.org/2000/svg">
<path d="M17.118 9.59481C16.943 9.24406 16.943 8.82511 17.118 8.47436L19.671 3.35836C19.787 3.12586 19.775 2.84828 19.638 2.6268C19.501 2.40533 19.26 2.271 19 2.271H9C6.381 2.271 4.25 4.40659 4.25 7.03125V21.0194C4.25 21.4343 4.586 21.771 5 21.771C5.414 21.771 5.75 21.4343 5.75 21.0194V15.8001H19C19.26 15.8001 19.501 15.6649 19.638 15.4444C19.774 15.2229 19.787 14.9453 19.671 14.7128L17.118 9.59481ZM5.75 14.2959V7.03027C5.75 5.2344 7.208 3.77325 9 3.77325H17.787L15.777 7.80195C15.392 8.57361 15.392 9.49556 15.777 10.2672L17.787 14.2959H5.75Z" fill="#9FA5B8"/>
</svg>
