<svg width="24" height="24" viewBox="0 0 24 24" fill="none" xmlns="http://www.w3.org/2000/svg">
<path d="M21.188 8.75227C19.984 5.31727 16.999 2.86436 13.396 2.34736C12.493 2.21836 11.508 2.21836 10.604 2.34736C7.002 2.86336 4.016 5.31733 2.815 8.74433C2.44 9.78033 2.25 10.8753 2.25 11.9993C2.25 13.1233 2.44001 14.2183 2.81201 15.2473C4.01601 18.6823 7.001 21.1353 10.604 21.6523C11.059 21.7163 11.529 21.7493 12 21.7493C12.471 21.7493 12.94 21.7163 13.396 21.6513C16.998 21.1353 19.984 18.6813 21.185 15.2543C21.56 14.2183 21.75 13.1233 21.75 11.9993C21.75 10.8753 21.56 9.78127 21.188 8.75227ZM19.344 8.25129H16.301C15.989 6.86329 15.514 5.53026 14.858 4.27326C16.796 4.98626 18.403 6.39029 19.344 8.25129ZM20.25 12.0003C20.25 12.7713 20.139 13.5243 19.929 14.2513H16.576C16.679 13.5053 16.75 12.7543 16.75 12.0003C16.75 11.2453 16.68 10.4943 16.577 9.75129H19.93C20.139 10.4753 20.25 11.2283 20.25 12.0003ZM8.93799 14.2513C8.82399 13.5073 8.75 12.7553 8.75 12.0003C8.75 11.2473 8.82399 10.4963 8.93799 9.75129H15.063C15.176 10.4943 15.25 11.2453 15.25 12.0003C15.25 12.7543 15.176 13.5063 15.062 14.2513H8.93799ZM4.07098 14.2513C3.86198 13.5263 3.75 12.7723 3.75 12.0003C3.75 11.2303 3.86098 10.4783 4.07098 9.75129H7.42401C7.32101 10.4953 7.25 11.2463 7.25 12.0003C7.25 12.7553 7.32101 13.5073 7.42401 14.2513H4.07098ZM12.849 3.80927C13.731 5.18427 14.369 6.67427 14.761 8.25227H9.23798C9.62998 6.67727 10.267 5.18737 11.151 3.81037C11.431 3.78237 11.71 3.75129 12 3.75129C12.29 3.75029 12.569 3.78127 12.849 3.80927ZM9.14099 4.27436C8.48399 5.53236 8.009 6.86627 7.698 8.25227H4.65601C5.59601 6.39127 7.20199 4.98736 9.14099 4.27436ZM4.65698 15.7513H7.69897C8.01097 17.1383 8.48599 18.4703 9.14099 19.7263C7.20399 19.0133 5.59898 17.6123 4.65698 15.7513ZM11.151 20.1914C10.269 18.8164 9.63201 17.3283 9.23901 15.7523H14.761C14.369 17.3263 13.732 18.8154 12.85 20.1914C12.287 20.2474 11.713 20.2474 11.151 20.1914ZM14.859 19.7263C15.515 18.4693 15.99 17.1373 16.301 15.7513H19.343C18.403 17.6103 16.797 19.0133 14.859 19.7263Z" fill="#9FA5B8"/>
</svg>
