<svg width="24" height="24" viewBox="0 0 24 24" fill="none" xmlns="http://www.w3.org/2000/svg">
<path d="M16.5 13.25C15.259 13.25 14.25 14.259 14.25 15.5V19.5C14.25 20.741 15.259 21.75 16.5 21.75C17.741 21.75 18.75 20.741 18.75 19.5V15.5C18.75 14.259 17.741 13.25 16.5 13.25ZM17.25 19.5C17.25 19.914 16.914 20.25 16.5 20.25C16.086 20.25 15.75 19.914 15.75 19.5V15.5C15.75 15.086 16.086 14.75 16.5 14.75C16.914 14.75 17.25 15.086 17.25 15.5V19.5ZM7.5 13.25C6.259 13.25 5.25 14.259 5.25 15.5V19.5C5.25 20.741 6.259 21.75 7.5 21.75C8.741 21.75 9.75 20.741 9.75 19.5V15.5C9.75 14.259 8.741 13.25 7.5 13.25ZM8.25 19.5C8.25 19.914 7.914 20.25 7.5 20.25C7.086 20.25 6.75 19.914 6.75 19.5V15.5C6.75 15.086 7.086 14.75 7.5 14.75C7.914 14.75 8.25 15.086 8.25 15.5V19.5ZM21.75 12V17C21.75 17.414 21.414 17.75 21 17.75C20.586 17.75 20.25 17.414 20.25 17V12C20.25 7.451 16.549 3.75 12 3.75C7.451 3.75 3.75 7.451 3.75 12V17C3.75 17.414 3.414 17.75 3 17.75C2.586 17.75 2.25 17.414 2.25 17V12C2.25 6.624 6.624 2.25 12 2.25C17.376 2.25 21.75 6.624 21.75 12Z" fill="#9FA5B8"/>
</svg>
