<svg width="24" height="24" viewBox="0 0 24 24" fill="none" xmlns="http://www.w3.org/2000/svg">
<path d="M7.25 10C7.25 9.586 7.586 9.25 8 9.25H16C16.414 9.25 16.75 9.586 16.75 10C16.75 10.414 16.414 10.75 16 10.75H8C7.586 10.75 7.25 10.414 7.25 10ZM9 7.75H15C15.414 7.75 15.75 7.414 15.75 7C15.75 6.586 15.414 6.25 15 6.25H9C8.586 6.25 8.25 6.586 8.25 7C8.25 7.414 8.586 7.75 9 7.75ZM21.75 13.4871V16C21.75 18.619 19.619 20.75 17 20.75H7C4.381 20.75 2.25 18.619 2.25 16V13.4871C2.25 13.0831 2.31502 12.684 2.44202 12.301L4.37701 6.49805C5.02401 4.55605 6.835 3.25 8.883 3.25H15.117C17.165 3.25 18.975 4.55505 19.623 6.49805L21.558 12.301C21.685 12.683 21.75 13.0821 21.75 13.4871ZM4.03998 12.25H9C9.414 12.25 9.75 12.586 9.75 13C9.75 14.241 10.759 15.25 12 15.25C13.241 15.25 14.25 14.241 14.25 13C14.25 12.586 14.586 12.25 15 12.25H19.96L18.201 6.97205C17.758 5.64305 16.519 4.75 15.118 4.75H8.88397C7.48297 4.75 6.24403 5.64305 5.80103 6.97205L4.03998 12.25ZM20.25 16V13.75H15.675C15.326 15.459 13.811 16.75 12 16.75C10.189 16.75 8.67401 15.459 8.32501 13.75H3.75V16C3.75 17.792 5.208 19.25 7 19.25H17C18.792 19.25 20.25 17.792 20.25 16Z" fill="#9FA5B8"/>
</svg>
