<svg width="24" height="24" viewBox="0 0 24 24" fill="none" xmlns="http://www.w3.org/2000/svg">
<path d="M20.3766 10.29L18.5368 12.13C18.2437 12.423 17.7685 12.423 17.4753 12.13C17.1822 11.838 17.1822 11.362 17.4753 11.069L19.3152 9.229C20.5667 7.978 20.5667 5.94094 19.3152 4.68994C18.1016 3.47694 15.9886 3.47694 14.7751 4.68994L11.4145 8.05005C11.2815 8.18305 11.1835 8.29998 11.1144 8.40698C10.151 9.71898 10.288 11.463 11.4145 12.59C11.7077 12.883 11.7077 13.358 11.4145 13.651C11.2685 13.797 11.0764 13.871 10.8843 13.871C10.6922 13.871 10.5001 13.798 10.3541 13.651C8.69932 11.996 8.49923 9.43303 9.87985 7.55603C9.9819 7.39603 10.145 7.19899 10.3541 6.98999L13.7146 3.63C14.604 2.74 15.7876 2.25 17.0461 2.25C18.3047 2.25 19.4873 2.74 20.3777 3.63C22.2135 5.466 22.2135 8.45304 20.3766 10.29ZM12.5941 10.349C12.301 10.641 12.301 11.117 12.5941 11.41C13.4805 12.297 13.7697 13.5749 13.3435 14.7629C13.2004 15.1929 12.9413 15.603 12.5941 15.95L9.23356 19.3101C8.02001 20.5231 5.90709 20.5231 4.69354 19.3101C3.44197 18.0591 3.44197 16.022 4.69354 14.771L6.53336 12.931C6.8265 12.638 6.8265 12.163 6.53336 11.87C6.24023 11.577 5.76498 11.577 5.47184 11.87L3.63202 13.71C1.79519 15.546 1.79519 18.534 3.63202 20.37C4.52142 21.26 5.70498 21.75 6.96355 21.75C8.22212 21.75 9.40468 21.26 10.2951 20.37L13.6556 17.01C14.1668 16.499 14.551 15.886 14.7611 15.254C15.3714 13.557 14.9382 11.632 13.6556 10.35C13.3625 10.056 12.8872 10.056 12.5941 10.349Z" fill="#9FA5B8"/>
</svg>
