<svg width="24" height="24" viewBox="0 0 24 24" fill="none" xmlns="http://www.w3.org/2000/svg">
<path d="M20.75 7V17C20.75 19.619 18.619 21.75 16 21.75H12C11.586 21.75 11.25 21.414 11.25 21C11.25 20.586 11.586 20.25 12 20.25H16C17.792 20.25 19.25 18.792 19.25 17V7C19.25 5.208 17.792 3.75 16 3.75H12C11.586 3.75 11.25 3.414 11.25 3C11.25 2.586 11.586 2.25 12 2.25H16C18.619 2.25 20.75 4.381 20.75 7ZM14.53 11.47L10.53 7.46997C10.237 7.17697 9.76199 7.17697 9.46899 7.46997C9.17599 7.76297 9.17599 8.23801 9.46899 8.53101L12.189 11.251H4C3.586 11.251 3.25 11.587 3.25 12.001C3.25 12.415 3.586 12.751 4 12.751H12.189L9.46899 15.4709C9.17599 15.7639 9.17599 16.239 9.46899 16.532C9.61499 16.678 9.80699 16.752 9.99899 16.752C10.191 16.752 10.383 16.679 10.529 16.532L14.529 12.532C14.823 12.237 14.823 11.763 14.53 11.47Z" fill="#9FA5B8"/>
</svg>
