<svg width="24" height="24" viewBox="0 0 24 24" fill="none" xmlns="http://www.w3.org/2000/svg">
<path d="M12.0005 15.7495C14.6195 15.7495 16.7505 13.6185 16.7505 10.9995V8.31055L20.5305 4.53052C20.8235 4.23752 20.8235 3.76248 20.5305 3.46948C20.2375 3.17648 19.7625 3.17648 19.4695 3.46948L3.46951 19.4695C3.17651 19.7625 3.17651 20.2375 3.46951 20.5305C3.61551 20.6765 3.80754 20.7505 3.99954 20.7505C4.19154 20.7505 4.3835 20.6775 4.5295 20.5305L7.65054 17.4095C8.71654 18.1375 9.95753 18.5846 11.2495 18.7106V20.2505H8.00051C7.58651 20.2505 7.25051 20.5865 7.25051 21.0005C7.25051 21.4145 7.58651 21.7505 8.00051 21.7505H16.0005C16.4145 21.7505 16.7505 21.4145 16.7505 21.0005C16.7505 20.5865 16.4145 20.2505 16.0005 20.2505H12.7505V18.7125C16.6735 18.3335 19.7505 15.0205 19.7505 11.0005C19.7505 10.5865 19.4145 10.2505 19.0005 10.2505C18.5865 10.2505 18.2505 10.5865 18.2505 11.0005C18.2505 14.4465 15.4465 17.2505 12.0005 17.2505C10.8415 17.2505 9.71748 16.9146 8.74648 16.3156L9.84249 15.2195C10.5125 15.5635 11.2465 15.7495 12.0005 15.7495ZM15.2505 10.9995C15.2505 12.7915 13.7925 14.2495 12.0005 14.2495C11.6525 14.2495 11.3105 14.1885 10.9825 14.0785L15.2505 9.81055V10.9995ZM7.36654 12.0515C7.28854 11.6765 7.25051 11.3315 7.25051 10.9995V6.99951C7.25051 5.74151 7.7425 4.54955 8.6365 3.64355C9.5505 2.74255 10.7425 2.24951 12.0005 2.24951C13.5545 2.24951 15.0115 3.01348 15.8965 4.29248C16.1325 4.63348 16.0475 5.10057 15.7065 5.33557C15.3655 5.57157 14.8975 5.48651 14.6635 5.14551C14.0585 4.27051 13.0625 3.74854 12.0005 3.74854C11.1395 3.74854 10.3205 4.08751 9.6965 4.70251C9.0895 5.31851 8.75051 6.13754 8.75051 6.99854V10.9985C8.75051 11.2275 8.7785 11.4715 8.8345 11.7465C8.9185 12.1515 8.65749 12.5486 8.25149 12.6326C8.20049 12.6436 8.14953 12.6486 8.09853 12.6486C7.75153 12.6496 7.43954 12.4055 7.36654 12.0515ZM5.1155 14.5656C4.5495 13.4796 4.25051 12.2455 4.25051 10.9995C4.25051 10.5855 4.58651 10.2495 5.00051 10.2495C5.41451 10.2495 5.75051 10.5855 5.75051 10.9995C5.75051 12.0065 5.99052 12.9995 6.44552 13.8735C6.63652 14.2405 6.49449 14.6935 6.12649 14.8845C6.01649 14.9425 5.89754 14.9695 5.78054 14.9695C5.51054 14.9695 5.2485 14.8226 5.1155 14.5656Z" fill="#9FA5B8"/>
</svg>
