<svg width="24" height="24" viewBox="0 0 24 24" fill="none" xmlns="http://www.w3.org/2000/svg">
<path d="M12 15.75C14.619 15.75 16.75 13.619 16.75 11V7C16.75 4.381 14.619 2.25 12 2.25C9.381 2.25 7.25 4.381 7.25 7V11C7.25 13.619 9.381 15.75 12 15.75ZM8.75 7C8.75 5.208 10.208 3.75 12 3.75C13.792 3.75 15.25 5.208 15.25 7V11C15.25 12.792 13.792 14.25 12 14.25C10.208 14.25 8.75 12.792 8.75 11V7ZM12.75 18.712V20.25H16C16.414 20.25 16.75 20.586 16.75 21C16.75 21.414 16.414 21.75 16 21.75H8C7.586 21.75 7.25 21.414 7.25 21C7.25 20.586 7.586 20.25 8 20.25H11.25V18.712C7.327 18.333 4.25 15.02 4.25 11C4.25 10.586 4.586 10.25 5 10.25C5.414 10.25 5.75 10.586 5.75 11C5.75 14.446 8.554 17.25 12 17.25C15.446 17.25 18.25 14.446 18.25 11C18.25 10.586 18.586 10.25 19 10.25C19.414 10.25 19.75 10.586 19.75 11C19.75 15.02 16.673 18.333 12.75 18.712Z" fill="#9FA5B8"/>
</svg>
