<svg width="24" height="24" viewBox="0 0 24 24" fill="none" xmlns="http://www.w3.org/2000/svg">
<path d="M14 2.25H10C7.381 2.25 5.25 4.381 5.25 7V17C5.25 19.619 7.381 21.75 10 21.75H14C16.619 21.75 18.75 19.619 18.75 17V7C18.75 4.381 16.619 2.25 14 2.25ZM17.25 17C17.25 18.792 15.792 20.25 14 20.25H10C8.208 20.25 6.75 18.792 6.75 17V7C6.75 5.208 8.208 3.75 10 3.75H14C15.792 3.75 17.25 5.208 17.25 7V17ZM13.75 18C13.75 18.414 13.414 18.75 13 18.75H11C10.586 18.75 10.25 18.414 10.25 18C10.25 17.586 10.586 17.25 11 17.25H13C13.414 17.25 13.75 17.586 13.75 18Z" fill="#9FA5B8"/>
</svg>
