<svg width="24" height="24" viewBox="0 0 24 24" fill="none" xmlns="http://www.w3.org/2000/svg">
<path d="M13 16.5C13 17.052 12.552 17.5 12 17.5C11.448 17.5 11 17.052 11 16.5C11 15.948 11.448 15.5 12 15.5C12.552 15.5 13 15.948 13 16.5ZM12 11C11.448 11 11 11.448 11 12C11 12.552 11.448 13 12 13C12.552 13 13 12.552 13 12C13 11.448 12.552 11 12 11ZM12 6.5C11.448 6.5 11 6.948 11 7.5C11 8.052 11.448 8.5 12 8.5C12.552 8.5 13 8.052 13 7.5C13 6.948 12.552 6.5 12 6.5ZM21.75 12C21.75 17.376 17.376 21.75 12 21.75C6.624 21.75 2.25 17.376 2.25 12C2.25 6.624 6.624 2.25 12 2.25C17.376 2.25 21.75 6.624 21.75 12ZM20.25 12C20.25 7.451 16.549 3.75 12 3.75C7.451 3.75 3.75 7.451 3.75 12C3.75 16.549 7.451 20.25 12 20.25C16.549 20.25 20.25 16.549 20.25 12Z" fill="#9FA5B8"/>
</svg>
