<svg width="24" height="24" viewBox="0 0 24 24" fill="none" xmlns="http://www.w3.org/2000/svg">
<path d="M18.816 4.70946L14.418 2.75536C12.903 2.08236 11.097 2.08236 9.58197 2.75536L5.18402 4.70946C3.37402 5.51346 2.25 7.14738 2.25 8.97338V15.0234C2.25 16.8494 3.37402 18.4823 5.18402 19.2873L9.58301 21.2414C10.333 21.5744 11.155 21.7414 11.977 21.7444C11.985 21.7444 11.992 21.7494 12 21.7494C12.008 21.7494 12.015 21.7454 12.023 21.7444C12.845 21.7414 13.667 21.5744 14.417 21.2414L18.816 19.2873C20.626 18.4833 21.75 16.8494 21.75 15.0234V8.97338C21.75 7.14738 20.626 5.51346 18.816 4.70946ZM10.191 4.12743C10.758 3.87543 11.379 3.75036 12 3.75036C12.621 3.75036 13.243 3.87543 13.809 4.12743L18.207 6.08141C18.503 6.21241 18.769 6.37637 19.008 6.56237L16.498 7.67846L9.34698 4.50145L10.191 4.12743ZM5.79199 6.08043L7.49902 5.32238L14.65 8.49938L13.201 9.14342C12.479 9.46342 11.517 9.46442 10.796 9.14342L4.98999 6.56237C5.23099 6.37537 5.49699 6.21243 5.79199 6.08043ZM5.79303 17.9154C4.53303 17.3554 3.75 16.2475 3.75 15.0225V8.9724C3.75 8.5514 3.848 8.14735 4.021 7.77135L10.188 10.5124C10.519 10.6594 10.88 10.7504 11.25 10.8114V20.1694C10.886 20.1084 10.529 20.0184 10.192 19.8684L5.79303 17.9154ZM20.25 15.0234C20.25 16.2474 19.467 17.3564 18.207 17.9164L13.808 19.8703C13.472 20.0194 13.114 20.1104 12.75 20.1704V10.8124C13.12 10.7514 13.481 10.6614 13.812 10.5144L19.979 7.77343C20.151 8.14943 20.25 8.55335 20.25 8.97435V15.0234Z" fill="#9FA5B8"/>
</svg>
