<svg width="24" height="24" viewBox="0 0 24 24" fill="none" xmlns="http://www.w3.org/2000/svg">
<path d="M20.5311 14.5601L15.5077 19.6021C14.147 20.9671 12.2548 21.75 10.3146 21.75C8.40637 21.75 6.63005 21.021 5.31028 19.697C2.52688 16.903 2.56881 12.313 5.40516 9.46704L11.1279 3.72302C12.075 2.77302 13.3338 2.25 14.6725 2.25C16.0113 2.25 17.2701 2.77302 18.2173 3.72302C20.1704 5.68302 20.1704 8.87201 18.2173 10.833L12.4676 16.604C11.3786 17.696 9.48136 17.696 8.39237 16.604C7.27042 15.478 7.27042 13.646 8.39237 12.519L13.4427 7.44995C13.7344 7.15795 14.21 7.15597 14.5027 7.44897C14.7954 7.74097 14.7964 8.21701 14.5037 8.51001L9.45339 13.579C8.9129 14.121 8.9129 15.003 9.45339 15.545C9.97491 16.069 10.884 16.069 11.4056 15.545L17.1552 9.77405C18.5269 8.39805 18.5269 6.15896 17.1552 4.78296C15.8294 3.45096 13.5146 3.45096 12.1889 4.78296L6.46619 10.527C4.25025 12.751 4.20726 16.4659 6.37124 18.6379C7.40728 19.6779 8.80702 20.25 10.3136 20.25C11.8582 20.25 13.3648 19.627 14.4458 18.542L19.4691 13.5C19.7608 13.208 20.2353 13.206 20.5291 13.499C20.8228 13.791 20.8238 14.2661 20.5311 14.5601Z" fill="#9FA5B8"/>
</svg>
