<svg width="24" height="24" viewBox="0 0 24 24" fill="none" xmlns="http://www.w3.org/2000/svg">
<path d="M20.4832 3.51843C19.6662 2.70043 18.5792 2.25049 17.4212 2.25049C16.2652 2.25049 15.1782 2.70043 14.3592 3.51843L3.82617 14.0515C3.41817 14.4585 3.15219 14.9754 3.05719 15.5444L2.26721 20.2825C2.20021 20.6835 2.3312 21.0935 2.6192 21.3805C2.8572 21.6185 3.17917 21.7495 3.51117 21.7495C3.57917 21.7495 3.64922 21.7445 3.71722 21.7325L8.45617 20.9425C9.02417 20.8485 9.54018 20.5824 9.94818 20.1744L20.4812 9.64148C21.2992 8.82348 21.7502 7.73647 21.7502 6.57947C21.7502 5.42247 21.3022 4.33643 20.4832 3.51843ZM8.89019 19.1145C8.70419 19.3005 8.47022 19.4205 8.21222 19.4635L3.8042 20.1975L4.5382 15.7905C4.5812 15.5315 4.7022 15.2975 4.8872 15.1125L12.9702 7.02954L16.9722 11.0315L8.89019 19.1145ZM19.4232 8.58154L18.0332 9.97144L14.0312 5.96948L15.4212 4.57947C15.9562 4.04547 16.6662 3.75049 17.4222 3.75049C18.1782 3.75049 18.8892 4.04447 19.4232 4.57947C19.9572 5.11447 20.2522 5.82444 20.2522 6.58044C20.2522 7.33644 19.9572 8.04654 19.4232 8.58154Z" fill="#9FA5B8"/>
</svg>
