<svg width="24" height="24" viewBox="0 0 24 24" fill="none" xmlns="http://www.w3.org/2000/svg">
<path d="M21.5302 20.469L16.8362 15.775C18.0302 14.344 18.7502 12.505 18.7502 10.5C18.7502 5.951 15.0492 2.25 10.5002 2.25C5.95124 2.25 2.25024 5.951 2.25024 10.5C2.25024 15.049 5.95124 18.75 10.5002 18.75C12.5052 18.75 14.3442 18.0301 15.7752 16.8361L20.4692 21.53C20.6152 21.676 20.8072 21.75 20.9992 21.75C21.1912 21.75 21.3832 21.677 21.5292 21.53C21.8232 21.237 21.8232 20.762 21.5302 20.469ZM3.75024 10.5C3.75024 6.778 6.77824 3.75 10.5002 3.75C14.2222 3.75 17.2502 6.778 17.2502 10.5C17.2502 14.222 14.2222 17.25 10.5002 17.25C6.77824 17.25 3.75024 14.222 3.75024 10.5Z" fill="#9FA5B8"/>
</svg>
