<svg width="24" height="24" viewBox="0 0 24 24" fill="none" xmlns="http://www.w3.org/2000/svg">
<path d="M20.9269 3.07248C20.2239 2.36948 19.2288 2.09354 18.2638 2.33554L5.15086 5.6135C3.40286 6.0505 2.23686 7.55454 2.24986 9.35654C2.26286 11.1585 3.44887 12.6454 5.20287 13.0584L9.84886 14.1515L10.9419 18.7975C11.3549 20.5515 12.8418 21.7375 14.6438 21.7505C14.6538 21.7505 14.6628 21.7505 14.6728 21.7505C16.4618 21.7505 17.9519 20.5875 18.3869 18.8495L21.6648 5.73654C21.9058 4.77054 21.6299 3.77548 20.9269 3.07248ZM20.2088 5.37045L16.9309 18.4835C16.6019 19.7955 15.4949 20.2345 14.6539 20.2495C13.8089 20.2435 12.7118 19.7695 12.4018 18.4525L11.2978 13.7624L15.5299 9.53049C15.8229 9.23749 15.8229 8.76245 15.5299 8.46945C15.2369 8.17645 14.7619 8.17645 14.4689 8.46945L10.2369 12.7015L5.54686 11.5975C4.22986 11.2875 3.75586 10.1904 3.74986 9.34543C3.74386 8.49943 4.20285 7.39645 5.51585 7.06845L18.6279 3.7905C18.7349 3.7635 18.8428 3.75046 18.9488 3.75046C19.2888 3.75046 19.6169 3.88454 19.8659 4.13254C20.1929 4.45954 20.3208 4.92245 20.2088 5.37045Z" fill="#9FA5B8"/>
</svg>
