<svg width="24" height="24" viewBox="0 0 24 24" fill="none" xmlns="http://www.w3.org/2000/svg">
<path d="M20.238 6.28845C17.142 5.25645 13.361 3.29551 12.55 2.47351C12.41 2.33151 12.22 2.25151 12.021 2.24951C11.844 2.25351 11.631 2.32645 11.489 2.46545C10.516 3.42445 7.56696 5.34245 3.79596 6.40845C3.47296 6.49945 3.25 6.79449 3.25 7.13049C3.25 15.3615 4.52898 19.6454 11.795 21.7214C11.862 21.7404 11.932 21.7505 12.001 21.7505C12.07 21.7505 12.14 21.7404 12.207 21.7214C19.517 19.6324 20.75 15.4925 20.75 7.00049C20.751 6.67749 20.544 6.39045 20.238 6.28845ZM12.002 20.2195C5.99695 18.4425 4.80599 15.3245 4.75299 7.69153C8.05899 6.67153 10.694 5.08248 12.031 3.99048C13.55 5.11548 16.777 6.65255 19.25 7.53455C19.2 15.2815 18.013 18.4395 12.002 20.2195Z" fill="#9FA5B8"/>
</svg>
