<svg width="24" height="24" viewBox="0 0 24 24" fill="none" xmlns="http://www.w3.org/2000/svg">
<path d="M10.7505 15.0012V18.0012C10.7505 18.4152 10.4145 18.7512 10.0005 18.7512C9.58652 18.7512 9.25052 18.4152 9.25052 18.0012V15.0012C9.25052 14.5872 9.58652 14.2512 10.0005 14.2512C10.4145 14.2512 10.7505 14.5872 10.7505 15.0012ZM14.0005 14.2512C13.5865 14.2512 13.2505 14.5872 13.2505 15.0012V18.0012C13.2505 18.4152 13.5865 18.7512 14.0005 18.7512C14.4145 18.7512 14.7505 18.4152 14.7505 18.0012V15.0012C14.7505 14.5872 14.4145 14.2512 14.0005 14.2512ZM20.1975 12.4652L19.4305 18.4752C19.1925 20.3422 17.5935 21.7502 15.7105 21.7502H8.31253C6.43653 21.7502 4.83751 20.3472 4.59451 18.4872L3.8045 12.4652C2.8875 12.0182 2.24951 11.0862 2.24951 10.0002C2.24951 8.48321 3.48251 7.25021 4.99951 7.25021H6.57553L9.35651 2.61423C9.56951 2.25923 10.0305 2.14315 10.3855 2.35715C10.7405 2.57015 10.8565 3.0312 10.6425 3.3862L8.32352 7.25021H15.6745L13.3555 3.3862C13.1425 3.0312 13.2575 2.57015 13.6125 2.35715C13.9665 2.14415 14.4275 2.25923 14.6415 2.61423L17.4225 7.25021H19.0005C20.5175 7.25021 21.7505 8.48321 21.7505 10.0002C21.7505 11.0862 21.1135 12.0182 20.1975 12.4652ZM18.6485 12.7512H5.35553L6.08252 18.2932C6.22852 19.4092 7.18753 20.2512 8.31253 20.2512H15.7105C16.8395 20.2512 17.7995 19.4062 17.9415 18.2862L18.6485 12.7512ZM20.2505 10.0012C20.2505 9.31219 19.6895 8.75119 19.0005 8.75119H5.00052C4.31152 8.75119 3.75052 9.31219 3.75052 10.0012C3.75052 10.6902 4.31152 11.2512 5.00052 11.2512H19.0005C19.6895 11.2512 20.2505 10.6902 20.2505 10.0012Z" fill="#9FA5B8"/>
</svg>
