<svg width="24" height="24" viewBox="0 0 24 24" fill="none" xmlns="http://www.w3.org/2000/svg">
<path d="M18.098 7.96301L19.531 6.53003C19.824 6.23703 19.824 5.76199 19.531 5.46899C19.238 5.17599 18.763 5.17599 18.47 5.46899L16.992 6.94702C15.791 6.03002 14.337 5.43096 12.75 5.28796V3.75H14C14.414 3.75 14.75 3.414 14.75 3C14.75 2.586 14.414 2.25 14 2.25H10C9.586 2.25 9.25 2.586 9.25 3C9.25 3.414 9.586 3.75 10 3.75H11.25V5.28796C7.052 5.66896 3.75 9.204 3.75 13.5C3.75 18.049 7.451 21.75 12 21.75C16.549 21.75 20.25 18.049 20.25 13.5C20.25 11.368 19.43 9.42801 18.098 7.96301ZM12 20.25C8.278 20.25 5.25 17.222 5.25 13.5C5.25 9.778 8.278 6.75 12 6.75C15.722 6.75 18.75 9.778 18.75 13.5C18.75 17.222 15.722 20.25 12 20.25ZM14.585 15.531C14.844 15.855 14.792 16.326 14.468 16.585C14.329 16.696 14.164 16.75 14 16.75C13.78 16.75 13.562 16.654 13.414 16.469L11.414 13.969C11.308 13.836 11.249 13.671 11.249 13.5V10C11.249 9.586 11.585 9.25 11.999 9.25C12.413 9.25 12.749 9.586 12.749 10V13.2371L14.585 15.531Z" fill="#9FA5B8"/>
</svg>
