<svg width="24" height="24" viewBox="0 0 24 24" fill="none" xmlns="http://www.w3.org/2000/svg">
<path d="M21.75 9.00098C21.75 8.91998 21.737 8.83994 21.711 8.76294L20.623 5.49805C19.976 3.55605 18.165 2.25 16.117 2.25H7.883C5.835 2.25 4.02501 3.55505 3.37701 5.49805L2.289 8.76294C2.263 8.83994 2.25 8.91998 2.25 9.00098C2.251 9.97898 2.636 10.863 3.25 11.531V18C3.25 20.068 4.932 21.75 7 21.75H10.777V18C10.777 17.311 11.338 16.75 12.027 16.75C12.716 16.75 13.277 17.311 13.277 18V21.75H17C19.068 21.75 20.75 20.068 20.75 18V11.531C21.364 10.862 21.749 9.97898 21.75 9.00098ZM4.79999 5.97205C5.24299 4.64305 6.482 3.75 7.883 3.75H16.117C17.518 3.75 18.757 4.64305 19.2 5.97205L20.247 9.11304C20.188 10.32 19.226 11.25 18.01 11.25C16.997 11.25 16.007 10.606 15.707 9.75195C15.602 9.45095 15.318 9.25 14.999 9.25H14.996C14.676 9.251 14.392 9.45496 14.289 9.75696C13.998 10.608 13.013 11.25 11.998 11.25C10.983 11.25 9.99797 10.608 9.70697 9.75696C9.60397 9.45496 9.32 9.251 9 9.25H8.99701C8.67901 9.25 8.394 9.45095 8.289 9.75195C7.989 10.606 6.999 11.25 5.987 11.25C4.771 11.25 3.809 10.32 3.75 9.11304L4.79999 5.97205ZM17 20.25H14.777V18C14.777 16.483 13.543 15.25 12.027 15.25C10.511 15.25 9.27698 16.483 9.27698 18V20.25H7C5.759 20.25 4.75 19.241 4.75 18V12.521C5.14 12.66 5.55299 12.75 5.98999 12.75C7.14399 12.75 8.25897 12.232 8.99597 11.423C9.72897 12.233 10.842 12.75 12 12.75C13.158 12.75 14.271 12.232 15.004 11.423C15.741 12.233 16.856 12.75 18.01 12.75C18.447 12.75 18.86 12.66 19.25 12.521V18C19.25 19.24 18.241 20.25 17 20.25Z" fill="#9FA5B8"/>
</svg>
