<svg width="24" height="24" viewBox="0 0 24 24" fill="none" xmlns="http://www.w3.org/2000/svg">
<path d="M13.75 18C13.75 18.414 13.414 18.75 13 18.75H11C10.586 18.75 10.25 18.414 10.25 18C10.25 17.586 10.586 17.25 11 17.25H13C13.414 17.25 13.75 17.586 13.75 18ZM19.75 7V17C19.75 19.619 17.619 21.75 15 21.75H9C6.381 21.75 4.25 19.619 4.25 17V7C4.25 4.381 6.381 2.25 9 2.25H15C17.619 2.25 19.75 4.381 19.75 7ZM18.25 7C18.25 5.208 16.792 3.75 15 3.75H9C7.208 3.75 5.75 5.208 5.75 7V17C5.75 18.792 7.208 20.25 9 20.25H15C16.792 20.25 18.25 18.792 18.25 17V7Z" fill="#9FA5B8"/>
</svg>
