<svg width="24" height="24" viewBox="0 0 24 24" fill="none" xmlns="http://www.w3.org/2000/svg">
<path d="M20.36 10.1766L13.826 3.64252C12.929 2.74552 11.736 2.25153 10.468 2.25153H6.00098C3.93298 2.25153 2.25098 3.93353 2.25098 6.00153V10.4675C2.25098 11.7365 2.74497 12.9285 3.64197 13.8255L10.176 20.3596C11.102 21.2856 12.318 21.7485 13.535 21.7485C14.751 21.7485 15.968 21.2856 16.893 20.3596L20.359 16.8935C22.212 15.0415 22.212 12.0286 20.36 10.1766ZM19.299 15.8336L15.833 19.2995C14.564 20.5665 12.503 20.5655 11.237 19.2995L4.70297 12.7656C4.09797 12.1606 3.75098 11.3235 3.75098 10.4675V6.00153C3.75098 4.76053 4.75998 3.75153 6.00098 3.75153H10.467C11.322 3.75153 12.16 4.09855 12.765 4.70355L19.299 11.2375C20.566 12.5045 20.566 14.5666 19.299 15.8336ZM8.50098 7.50153C8.50098 8.05353 8.05298 8.50153 7.50098 8.50153C6.94898 8.50153 6.50098 8.05353 6.50098 7.50153C6.50098 6.94953 6.94898 6.50153 7.50098 6.50153C8.05298 6.50153 8.50098 6.94953 8.50098 7.50153Z" fill="#9FA5B8"/>
</svg>
