<svg width="24" height="24" viewBox="0 0 24 24" fill="none" xmlns="http://www.w3.org/2000/svg">
<path d="M17.41 9.34998L16.75 8.69L16.751 6.27997C17.436 5.40497 17.75 4.011 17.75 3C17.75 2.586 17.414 2.25 17 2.25H7C6.586 2.25 6.25 2.586 6.25 3C6.25 4.011 6.564 5.40601 7.25 6.28101V8.68896L6.59003 9.349C5.08103 10.858 4.25 12.865 4.25 15C4.25 15.199 4.32897 15.39 4.46997 15.53C4.61097 15.67 4.802 15.75 5 15.75H11.25V21C11.25 21.414 11.586 21.75 12 21.75C12.414 21.75 12.75 21.414 12.75 21V15.75H19C19.414 15.75 19.75 15.414 19.75 15C19.75 12.866 18.919 10.859 17.41 9.34998ZM5.79303 14.25C5.95803 12.8 6.60402 11.4579 7.65002 10.4109L8.53003 9.53198C8.67103 9.39098 8.75 9.19995 8.75 9.00195L8.74902 6C8.74902 5.801 8.66999 5.60997 8.52899 5.46997C8.21199 5.15297 7.93698 4.46595 7.81598 3.75195H16.183C16.061 4.46495 15.787 5.15398 15.469 5.47198C15.328 5.61298 15.249 5.80395 15.249 6.00195V9.00195C15.249 9.20095 15.328 9.39198 15.469 9.53198L16.349 10.4109C17.396 11.4579 18.041 12.801 18.206 14.251L5.79303 14.25Z" fill="#9FA5B8"/>
</svg>
