<svg width="24" height="24" viewBox="0 0 24 24" fill="none" xmlns="http://www.w3.org/2000/svg">
<path d="M8.46997 7.53042C8.17697 7.23742 8.17697 6.76238 8.46997 6.46938L11.47 3.46938C11.763 3.17638 12.238 3.17638 12.531 3.46938L15.531 6.46938C15.824 6.76238 15.824 7.23742 15.531 7.53042C15.385 7.67642 15.193 7.75039 15.001 7.75039C14.809 7.75039 14.617 7.67742 14.471 7.53042L12.751 5.81045V11.0004C12.751 11.4144 12.415 11.7504 12.001 11.7504C11.587 11.7504 11.251 11.4144 11.251 11.0004V5.81142L9.53101 7.5314C9.23701 7.8234 8.76297 7.82342 8.46997 7.53042ZM17 10.2504C16.586 10.2504 16.25 10.5864 16.25 11.0004C16.25 11.4144 16.586 11.7504 17 11.7504C18.792 11.7504 20.25 13.2084 20.25 15.0004V16.0004C20.25 17.7924 18.792 19.2504 17 19.2504H7C5.208 19.2504 3.75 17.7924 3.75 16.0004V15.0004C3.75 13.2084 5.208 11.7504 7 11.7504C7.414 11.7504 7.75 11.4144 7.75 11.0004C7.75 10.5864 7.414 10.2504 7 10.2504C4.381 10.2504 2.25 12.3814 2.25 15.0004V16.0004C2.25 18.6194 4.381 20.7504 7 20.7504H17C19.619 20.7504 21.75 18.6194 21.75 16.0004V15.0004C21.75 12.3814 19.619 10.2504 17 10.2504ZM18 15.0004C18 14.4484 17.552 14.0004 17 14.0004C16.448 14.0004 16 14.4484 16 15.0004C16 15.5524 16.448 16.0004 17 16.0004C17.552 16.0004 18 15.5524 18 15.0004Z" fill="#9FA5B8"/>
</svg>
