<svg width="20" height="20" viewBox="0 0 20 20" fill="none" xmlns="http://www.w3.org/2000/svg">
<g clip-path="url(#clip0_5114_15591)">
<path d="M5.33329 9.08334H7.16663V10.9167H5.33329V9.08334ZM16.3333 2.66667H15.4166V0.833336H13.5833V2.66667H6.24996V0.833336H4.41663V2.66667H3.49996C2.48246 2.66667 1.67579 3.49167 1.67579 4.5L1.66663 17.3333C1.66663 18.3417 2.48246 19.1667 3.49996 19.1667H16.3333C17.3416 19.1667 18.1666 18.3417 18.1666 17.3333V4.5C18.1666 3.49167 17.3416 2.66667 16.3333 2.66667ZM16.3333 17.3333H3.49996V8.16667H16.3333V17.3333ZM16.3333 6.33334H3.49996V4.5H16.3333V6.33334ZM12.6666 9.08334H14.5V10.9167H12.6666V9.08334ZM8.99996 9.08334H10.8333V10.9167H8.99996V9.08334Z" fill="#64686B"/>
</g>
<defs>
<clipPath id="clip0_5114_15591">
<rect width="20" height="20" fill="white"/>
</clipPath>
</defs>
</svg>
