<svg width="24" height="24" viewBox="0 0 24 24" fill="none" xmlns="http://www.w3.org/2000/svg">
<path d="M3.72101 17.0314C3.48301 17.0314 3.25 16.9184 3.104 16.7084C2.546 15.9014 2.25 14.9664 2.25 14.0014V10.0014C2.25 7.38237 4.381 5.25137 7 5.25137H11C11.965 5.25137 12.9 5.54637 13.707 6.10537C14.047 6.34137 14.132 6.80832 13.896 7.14932C13.659 7.48932 13.193 7.5744 12.852 7.3384C12.298 6.9544 11.657 6.75137 10.999 6.75137H6.99902C5.20702 6.75137 3.74902 8.20937 3.74902 10.0014V14.0014C3.74902 14.6594 3.952 15.2994 4.336 15.8544C4.572 16.1954 4.48697 16.6623 4.14697 16.8983C4.01697 16.9873 3.86801 17.0314 3.72101 17.0314ZM21.75 9.2394V14.7624C21.75 15.4824 21.356 16.1404 20.722 16.4804C20.433 16.6354 20.116 16.7124 19.8 16.7124C19.423 16.7124 19.048 16.6034 18.721 16.3864L15.711 14.3854C15.511 16.8214 13.487 18.7504 11 18.7504H7C6.794 18.7504 6.57999 18.7303 6.35999 18.7003L4.53003 20.5304C4.38403 20.6764 4.192 20.7504 4 20.7504C3.808 20.7504 3.61597 20.6774 3.46997 20.5304C3.17697 20.2374 3.17697 19.7624 3.46997 19.4694L19.47 3.46938C19.763 3.17638 20.238 3.17638 20.531 3.46938C20.824 3.76238 20.824 4.23742 20.531 4.53042L15.701 9.36037C15.712 9.44237 15.721 9.52442 15.728 9.60342L18.721 7.6144C19.321 7.2164 20.088 7.17941 20.722 7.52041C21.356 7.86141 21.75 8.5194 21.75 9.2394ZM14.25 14.0014V10.8124L7.81097 17.2514H11C12.792 17.2514 14.25 15.7934 14.25 14.0014ZM20.25 9.2394C20.25 8.9964 20.084 8.88141 20.013 8.84341C19.942 8.80541 19.755 8.73038 19.551 8.86538L15.75 11.3914V12.6123L19.551 15.1383C19.755 15.2723 19.942 15.1983 20.013 15.1593C20.084 15.1213 20.25 15.0063 20.25 14.7633V9.2394Z" fill="#9FA5B8"/>
</svg>
