<svg width="24" height="24" viewBox="0 0 24 24" fill="none" xmlns="http://www.w3.org/2000/svg">
<path d="M11.8555 3.55148C10.6905 3.01548 9.36047 3.20245 8.38647 4.03745L5.79047 6.2634C5.74647 6.3024 5.68952 6.32346 5.62952 6.32346L4.89148 6.32443C3.43448 6.32643 2.24951 7.51546 2.24951 8.97446V15.0255C2.24951 16.4845 3.43552 17.6735 4.89252 17.6755L5.62848 17.6765C5.68948 17.6765 5.7465 17.6974 5.7915 17.7364L8.3855 19.9625C8.9905 20.4825 9.7345 20.7505 10.4895 20.7505C10.9495 20.7505 11.4135 20.6515 11.8545 20.4485C13.0235 19.9105 13.7495 18.7775 13.7495 17.4895V6.51047C13.7505 5.22247 13.0245 4.08848 11.8555 3.55148ZM12.2505 17.4895C12.2505 18.1955 11.8685 18.7914 11.2295 19.0854C10.5915 19.3784 9.89546 19.2795 9.36346 18.8235L6.77051 16.5985C6.45451 16.3275 6.05051 16.1775 5.63251 16.1765L4.89551 16.1755C4.26451 16.1745 3.75049 15.6585 3.75049 15.0255V8.97446C3.75049 8.34146 4.26351 7.82543 4.89551 7.82443L5.63251 7.82346C6.04951 7.82346 6.45247 7.67344 6.76947 7.40244L9.3645 5.17746C9.6945 4.89446 10.0875 4.74948 10.4895 4.74948C10.7375 4.74948 10.9885 4.8045 11.2295 4.9155C11.8695 5.2095 12.2505 5.80642 12.2505 6.51242V17.4895ZM16.5985 8.54648C17.3525 9.54048 17.7505 10.7345 17.7505 12.0005C17.7505 13.2665 17.3525 14.4604 16.5985 15.4544C16.4515 15.6484 16.2265 15.7505 15.9995 15.7505C15.8425 15.7505 15.6835 15.7005 15.5475 15.5985C15.2175 15.3485 15.1525 14.8775 15.4025 14.5475C15.9575 13.8175 16.2505 12.9364 16.2505 12.0014C16.2505 11.0664 15.9575 10.1854 15.4025 9.45541C15.1525 9.12541 15.2165 8.65451 15.5475 8.40451C15.8795 8.15251 16.3485 8.21748 16.5985 8.54648ZM21.7505 12.0005C21.7505 14.4055 20.8655 16.7144 19.2585 18.5014C19.1105 18.6664 18.9055 18.7505 18.7005 18.7505C18.5215 18.7505 18.3425 18.6874 18.1985 18.5584C17.8905 18.2814 17.8655 17.8075 18.1425 17.4995C19.5015 15.9885 20.2495 14.0355 20.2495 12.0005C20.2495 9.96546 19.5015 8.01343 18.1425 6.50143C17.8655 6.19343 17.8905 5.71947 18.1985 5.44247C18.5065 5.16447 18.9795 5.1905 19.2585 5.4985C20.8655 7.2855 21.7505 9.59446 21.7505 12.0005Z" fill="#9FA5B8"/>
</svg>
