<svg width="24" height="25" viewBox="0 0 24 25" fill="none" xmlns="http://www.w3.org/2000/svg">
<path d="M19.7143 11V6.33333C19.7143 5.97971 19.5788 5.64057 19.3377 5.39052C19.0966 5.14048 18.7696 5 18.4286 5H4.28571C3.94472 5 3.6177 5.14048 3.37658 5.39052C3.13546 5.64057 3 5.97971 3 6.33333V19.6667C3 20.0203 3.13546 20.3594 3.37658 20.6095C3.6177 20.8595 3.94472 21 4.28571 21H18.4286C18.7696 21 19.0966 20.8595 19.3377 20.6095C19.5788 20.3594 19.7143 20.0203 19.7143 19.6667V15M20.91 10.3333H14.5714C13.8894 10.3333 13.2354 10.6143 12.7532 11.1144C12.2709 11.6145 12 12.2928 12 13C12 13.7072 12.2709 14.3855 12.7532 14.8856C13.2354 15.3857 13.8894 15.6667 14.5714 15.6667H20.91C20.9339 15.6667 20.9568 15.6568 20.9736 15.6393C20.9905 15.6218 21 15.5981 21 15.5733V10.4267C21 10.4019 20.9905 10.3782 20.9736 10.3607C20.9568 10.3432 20.9339 10.3333 20.91 10.3333Z" fill="#9FA5B8"/>
<path d="M19.7143 11V6.33333C19.7143 5.97971 19.5788 5.64057 19.3377 5.39052C19.0966 5.14048 18.7696 5 18.4286 5H4.28571C3.94472 5 3.6177 5.14048 3.37658 5.39052C3.13546 5.64057 3 5.97971 3 6.33333V19.6667C3 20.0203 3.13546 20.3594 3.37658 20.6095C3.6177 20.8595 3.94472 21 4.28571 21H18.4286C18.7696 21 19.0966 20.8595 19.3377 20.6095C19.5788 20.3594 19.7143 20.0203 19.7143 19.6667V15M20.91 10.3333H14.5714C13.8894 10.3333 13.2354 10.6143 12.7532 11.1144C12.2709 11.6145 12 12.2928 12 13C12 13.7072 12.2709 14.3855 12.7532 14.8856C13.2354 15.3857 13.8894 15.6667 14.5714 15.6667H20.91C20.9339 15.6667 20.9568 15.6568 20.9736 15.6393C20.9905 15.6218 21 15.5981 21 15.5733V10.4267C21 10.4019 20.9905 10.3782 20.9736 10.3607C20.9568 10.3432 20.9339 10.3333 20.91 10.3333Z" stroke="#9FA5B8" stroke-width="1.6"/>
<path d="M12.5 13C12.5 11.6193 13.6193 10.5 15 10.5H20.5V15.5H15C13.6193 15.5 12.5 14.3807 12.5 13Z" fill="white" stroke="#9FA5B8"/>
</svg>
